<svg width="20" height="20" viewBox="0 0 15 15" fill="none" xmlns="http://www.w3.org/2000/svg">
<path d="M11.3382 0.767645C11.1915 0.769396 11.0512 0.828268 10.9472 0.931765L4.96601 6.91407C4.86025 7.01982 4.80082 7.16325 4.80078 7.31282V9.7053C4.80082 10.0167 5.05328 10.2692 5.36476 10.2693H7.75724C7.90681 10.2692 8.05024 10.2098 8.15599 10.104L14.1383 4.12284C14.3584 3.90259 14.3584 3.54559 14.1383 3.32534L11.7447 0.931765C11.6369 0.824487 11.4903 0.765298 11.3382 0.767645Z" fill="#6B6C76" fill-opacity="0.8"/>
<path d="M2.45948 3.0235C1.53193 3.0235 0.767578 3.78785 0.767578 4.71543V12.6111C0.767578 13.5386 1.53193 14.303 2.45948 14.303H10.3551C11.2827 14.303 12.047 13.5386 12.047 12.6111V9.16992C12.0514 8.85845 11.8025 8.60239 11.491 8.59798C11.1796 8.59356 10.9235 8.84249 10.9191 9.15396C10.919 9.15929 10.919 9.1646 10.9191 9.16992V12.611C10.9191 12.9332 10.6773 13.175 10.3551 13.175H2.45948C2.13731 13.175 1.89552 12.9332 1.89552 12.611V4.71543C1.89552 4.39324 2.13729 4.15144 2.45948 4.15144H5.90061C6.21208 4.15586 6.46814 3.90693 6.47255 3.59546C6.47697 3.28399 6.22804 3.02791 5.91657 3.0235C5.91124 3.02342 5.90592 3.02342 5.90061 3.0235H2.45948V3.0235Z" fill="#6B6C76" fill-opacity="0.8"/>
</svg>
