<svg width="18" height="18" viewBox="0 0 18 18" fill="none" xmlns="http://www.w3.org/2000/svg">
<path fill-rule="evenodd" clip-rule="evenodd" d="M12.5002 3.60001V3.80001H12.7002H16.3002C16.4858 3.80001 16.6639 3.87376 16.7952 4.00504C16.9264 4.13631 17.0002 4.31436 17.0002 4.50001C17.0002 4.68566 16.9264 4.86371 16.7952 4.99499C16.6639 5.12626 16.4858 5.20001 16.3002 5.20001H15.4002H15.2002V5.40001V15.3C15.2002 15.9631 14.9368 16.5989 14.468 17.0678C13.9991 17.5366 13.3632 17.8 12.7002 17.8H5.5002C4.83715 17.8 4.20127 17.5366 3.73243 17.0678C3.26359 16.5989 3.0002 15.9631 3.0002 15.3V5.40001V5.20001H2.8002H1.9002C1.71454 5.20001 1.5365 5.12626 1.40522 4.99499C1.27395 4.86371 1.2002 4.68566 1.2002 4.50001C1.2002 4.31436 1.27395 4.13631 1.40522 4.00504C1.5365 3.87376 1.71454 3.80001 1.9002 3.80001H5.5002H5.7002V3.60001V2.70001C5.7002 2.03697 5.96359 1.40109 6.43243 0.932245C6.90127 0.463404 7.53715 0.200012 8.2002 0.200012H10.0002C10.6632 0.200012 11.2991 0.463404 11.768 0.932245C12.2368 1.40109 12.5002 2.03697 12.5002 2.70001V3.60001ZM10.9002 3.80001H11.1002V3.60001V2.70001C11.1002 2.40827 10.9843 2.12848 10.778 1.92219C10.5717 1.7159 10.2919 1.60001 10.0002 1.60001H8.2002C7.90846 1.60001 7.62867 1.7159 7.42238 1.92219C7.21609 2.12848 7.1002 2.40827 7.1002 2.70001V3.60001V3.80001H7.3002H10.9002ZM4.6002 5.20001H4.4002V5.40001V15.3C4.4002 15.5918 4.51609 15.8715 4.72238 16.0778C4.92867 16.2841 5.20846 16.4 5.5002 16.4H12.7002C12.9919 16.4 13.2717 16.2841 13.478 16.0778C13.6843 15.8715 13.8002 15.5917 13.8002 15.3V5.40001V5.20001H13.6002H4.6002ZM7.79517 13.995C7.6639 14.1263 7.48585 14.2 7.3002 14.2C7.11454 14.2 6.9365 14.1263 6.80522 13.995C6.67395 13.8637 6.6002 13.6857 6.6002 13.5V8.10001C6.6002 7.91436 6.67395 7.73631 6.80522 7.60504C6.9365 7.47376 7.11454 7.40001 7.3002 7.40001C7.48585 7.40001 7.66389 7.47376 7.79517 7.60504C7.92645 7.73631 8.0002 7.91436 8.0002 8.10001V13.5C8.0002 13.6857 7.92645 13.8637 7.79517 13.995ZM11.3952 13.995C11.2639 14.1263 11.0858 14.2 10.9002 14.2C10.7145 14.2 10.5365 14.1263 10.4052 13.995C10.2739 13.8637 10.2002 13.6857 10.2002 13.5V8.10001C10.2002 7.91436 10.2739 7.73631 10.4052 7.60504C10.5365 7.47376 10.7145 7.40001 10.9002 7.40001C11.0858 7.40001 11.2639 7.47376 11.3952 7.60504C11.5264 7.73631 11.6002 7.91436 11.6002 8.10001V13.5C11.6002 13.6857 11.5264 13.8637 11.3952 13.995Z" fill="#A4A3B4"/>
</svg>
