<svg width="17" height="18" viewBox="0 0 17 18" fill="none" xmlns="http://www.w3.org/2000/svg">
<path d="M0.636625 7.78948e-05C0.278146 0.00586093 -0.00476852 0.29719 8.46887e-05 0.651701C0.000198081 6.2182 8.46887e-05 11.7821 8.46887e-05 17.348C-0.0121164 18.2173 1.29811 18.2173 1.28578 17.348C1.28578 11.2323 1.28578 6.18854 1.28578 0.651701C1.29219 0.28932 0.995128 -0.00550103 0.636625 7.78948e-05ZM2.57147 2.57146V10.2856H7.4381L6.79405 12.6912C6.68513 13.0994 6.99296 13.5 7.41553 13.4998H16.0715C16.4266 13.4997 16.7143 13.2119 16.7144 12.8569V6.4285C16.7143 6.07349 16.4266 5.78568 16.0715 5.78563H9.97689L10.621 3.38125C10.7308 2.97306 10.4234 2.57185 10.0007 2.57142L2.57147 2.57146Z" fill="#6B6C76" fill-opacity="0.8"/>
</svg>
