<svg width="18" height="18" viewBox="0 0 18 18" fill="none" xmlns="http://www.w3.org/2000/svg">
<path d="M14.3002 10.8C15.3452 10.8 16.2002 9.94505 16.2002 8.90005C16.2002 7.85505 15.3452 7.00005 14.3002 7.00005C13.2552 7.00005 12.4002 7.85505 12.4002 8.90005C12.4002 9.94505 13.2552 10.8 14.3002 10.8ZM2.9002 10.8C3.9452 10.8 4.8002 9.94505 4.8002 8.90005C4.8002 7.85505 3.9452 7.00005 2.9002 7.00005C1.85519 7.00005 1.0002 7.85505 1.0002 8.90005C1.0002 9.94505 1.8552 10.8 2.9002 10.8ZM8.6002 10.8C9.6452 10.8 10.5002 9.94505 10.5002 8.90005C10.5002 7.85505 9.6452 7.00005 8.6002 7.00005C7.5552 7.00005 6.7002 7.85505 6.7002 8.90005C6.7002 9.94505 7.5552 10.8 8.6002 10.8Z" fill="#BEBEBE"/>
</svg>
