<svg width="87" height="87" viewBox="0 0 87 87" fill="none" xmlns="http://www.w3.org/2000/svg">
<circle cx="46.5" cy="40.1748" r="31.5" fill="#FFF9E7"/>
<g filter="url(#filter0_d)">
<path d="M46.5 77.6748C25.7893 77.6748 9 60.8854 9 40.1748C9 25.7846 17.1055 13.2875 29 7" stroke="black" stroke-linecap="round"/>
</g>
<path d="M84 40.5C84 61.2107 67.2107 78 46.5 78C25.7893 78 9 61.2107 9 40.5C9 19.7893 25.7893 3 46.5 3C48.8923 3 51.2322 3.22401 53.5 3.65219" stroke="url(#paint0_linear)" stroke-width="5" stroke-linecap="round"/>
<path d="M84 40.5C84 61.2107 67.2107 78 46.5 78C25.7893 78 9 61.2107 9 40.5C9 19.7893 25.7893 3 46.5 3C48.8923 3 51.2322 3.22401 53.5 3.65219" stroke="url(#paint1_linear)" stroke-opacity="0.4" stroke-width="5" stroke-linecap="round"/>
<defs>
<filter id="filter0_d" x="0.5" y="2.49988" width="50.5" height="83.6749" filterUnits="userSpaceOnUse" color-interpolation-filters="sRGB">
<feFlood flood-opacity="0" result="BackgroundImageFix"/>
<feColorMatrix in="SourceAlpha" type="matrix" values="0 0 0 0 0 0 0 0 0 0 0 0 0 0 0 0 0 0 127 0"/>
<feOffset dx="-2" dy="2"/>
<feGaussianBlur stdDeviation="3"/>
<feColorMatrix type="matrix" values="0 0 0 0 0 0 0 0 0 0 0 0 0 0 0 0 0 0 0.31 0"/>
<feBlend mode="normal" in2="BackgroundImageFix" result="effect1_dropShadow"/>
<feBlend mode="normal" in="SourceGraphic" in2="effect1_dropShadow" result="shape"/>
</filter>
<linearGradient id="paint0_linear" x1="11.5" y1="28.1237" x2="84.3791" y2="43.2798" gradientUnits="userSpaceOnUse">
<stop stop-color="#FEA929"/>
<stop offset="1" stop-color="#FBFAF9"/>
</linearGradient>
<linearGradient id="paint1_linear" x1="72.5" y1="48.2865" x2="8.99824" y2="49.2288" gradientUnits="userSpaceOnUse">
<stop stop-color="#FEA929" stop-opacity="0"/>
<stop offset="1" stop-color="#FB9700"/>
</linearGradient>
</defs>
</svg>
