<svg width="87" height="85" viewBox="0 0 87 85" fill="none" xmlns="http://www.w3.org/2000/svg">
<circle cx="46.5" cy="38.1748" r="31.5" fill="#E3FBD9"/>
<g filter="url(#filter0_d)">
<path d="M46.5 75.6748C25.7893 75.6748 9 58.8854 9 38.1748C9 23.7846 17.1055 11.2875 29 5" stroke="black" stroke-linecap="round"/>
</g>
<path d="M84 38.1748C84 58.8854 67.2107 75.6748 46.5 75.6748C25.7893 75.6748 9 58.8854 9 38.1748C9 23.7846 17.1055 11.2875 29 5" stroke="#44E671" stroke-width="5" stroke-linecap="round"/>
<path d="M84 38.1748C84 58.8854 67.2107 75.6748 46.5 75.6748C25.7893 75.6748 9 58.8854 9 38.1748C9 23.7846 17.1055 11.2875 29 5" stroke="url(#paint0_linear)" stroke-width="5" stroke-linecap="round"/>
<path d="M84 38.1748C84 58.8854 67.2107 75.6748 46.5 75.6748C25.7893 75.6748 9 58.8854 9 38.1748C9 23.7846 17.1055 11.2875 29 5" stroke="url(#paint1_linear)" stroke-opacity="0.4" stroke-width="5" stroke-linecap="round"/>
<defs>
<filter id="filter0_d" x="0.5" y="0.499878" width="50.5" height="83.6749" filterUnits="userSpaceOnUse" color-interpolation-filters="sRGB">
<feFlood flood-opacity="0" result="BackgroundImageFix"/>
<feColorMatrix in="SourceAlpha" type="matrix" values="0 0 0 0 0 0 0 0 0 0 0 0 0 0 0 0 0 0 127 0"/>
<feOffset dx="-2" dy="2"/>
<feGaussianBlur stdDeviation="3"/>
<feColorMatrix type="matrix" values="0 0 0 0 0 0 0 0 0 0 0 0 0 0 0 0 0 0 0.31 0"/>
<feBlend mode="normal" in2="BackgroundImageFix" result="effect1_dropShadow"/>
<feBlend mode="normal" in="SourceGraphic" in2="effect1_dropShadow" result="shape"/>
</filter>
<linearGradient id="paint0_linear" x1="11.5" y1="28.6748" x2="84" y2="44.6748" gradientUnits="userSpaceOnUse">
<stop stop-color="#47E673"/>
<stop offset="1" stop-color="#FBFAF9"/>
</linearGradient>
<linearGradient id="paint1_linear" x1="72.5" y1="47.6748" x2="9" y2="48.6748" gradientUnits="userSpaceOnUse">
<stop stop-color="#3FFF74" stop-opacity="0"/>
<stop offset="1" stop-color="#068A2A"/>
</linearGradient>
</defs>
</svg>
