<svg width="27" height="34" viewBox="0 0 27 34" fill="none" xmlns="http://www.w3.org/2000/svg">
<ellipse cx="13.5" cy="13.6801" rx="13.5" ry="13.6801" fill="#F8E645" fill-opacity="0.24"/>
<path d="M6.10451 8.3591C7.75677 5.97699 10.4501 4.55928 13.3235 4.55928H13.6734C16.5467 4.55928 19.2401 5.97699 20.8924 8.3591C22.9901 11.3835 23.0349 15.4042 21.0051 18.4758L19.0265 21.4699C18.5247 22.2293 18.2568 23.1226 18.2568 24.0365V25.814C18.2568 26.0418 18.0746 26.2264 17.8499 26.2264H9.147C8.92227 26.2264 8.7401 26.0418 8.7401 25.814V24.0365C8.7401 23.1226 8.47219 22.2293 7.97037 21.4699L5.99179 18.4758C3.96197 15.4042 4.00678 11.3835 6.10451 8.3591Z" fill="#F8DB45"/>
<path d="M11.4612 31.9384H15.5302V32.763C15.5302 33.4462 14.9836 34 14.3095 34H12.6819C12.0077 34 11.4612 33.4462 11.4612 32.763V31.9384Z" fill="#404040"/>
<path d="M10.6475 26.1658H16.344C16.344 25.0272 15.4332 24.1042 14.3095 24.1042H12.682C11.5583 24.1042 10.6475 25.0272 10.6475 26.1658Z" fill="#FFA337"/>
<path d="M9.8335 28.2271H17.1577V30.2888C17.1577 31.1997 16.429 31.9381 15.5301 31.9381H11.4611C10.5622 31.9381 9.8335 31.1997 9.8335 30.2888V28.2271Z" fill="#7C7C7C"/>
<path d="M13.9028 28.2271H17.158V30.2888C17.158 31.1997 16.4293 31.9381 15.5304 31.9381H13.9028V28.2271Z" fill="#646464"/>
<path d="M8.61279 25.3415H18.3783V26.9908C18.3783 28.1294 17.4675 29.0525 16.3439 29.0525H10.6473C9.52366 29.0525 8.61279 28.1294 8.61279 26.9908V25.3415Z" fill="#D9D9D9"/>
<path d="M13.0891 25.3415H18.3788V26.9908C18.3788 28.1294 17.4679 29.0525 16.3443 29.0525H13.0891V25.3415Z" fill="#AAAAAA"/>
<path d="M11.8682 25.3415H15.1233V27.4032C15.1233 28.314 14.3947 29.0525 13.4958 29.0525C12.5969 29.0525 11.8682 28.314 11.8682 27.4032V25.3415Z" fill="#BABABA"/>
<path fill-rule="evenodd" clip-rule="evenodd" d="M11.4613 13.178C10.8994 13.178 10.444 13.6396 10.444 14.2089C10.444 14.7782 10.8994 15.2397 11.4613 15.2397H12.4785V14.2089C12.4785 13.6396 12.0231 13.178 11.4613 13.178ZM12.8854 15.2397V14.2089C12.8854 13.4118 12.2478 12.7657 11.4613 12.7657C10.6747 12.7657 10.0371 13.4118 10.0371 14.2089C10.0371 15.0059 10.6747 15.652 11.4613 15.652H12.4785V25.1355H12.8854V15.652H14.1061V24.7232H14.513V15.652H15.5302C16.3168 15.652 16.9544 15.0059 16.9544 14.2089C16.9544 13.4118 16.3168 12.7657 15.5302 12.7657C14.7437 12.7657 14.1061 13.4118 14.1061 14.2089V15.2397H12.8854ZM14.513 15.2397H15.5302C16.092 15.2397 16.5475 14.7782 16.5475 14.2089C16.5475 13.6396 16.092 13.178 15.5302 13.178C14.9684 13.178 14.513 13.6396 14.513 14.2089V15.2397Z" fill="#FFA337"/>
<g style="mix-blend-mode:color-burn">
<path d="M18.7854 14.209C18.7854 17.1694 16.4171 19.5692 13.4957 19.5692C10.5743 19.5692 8.20605 17.1694 8.20605 14.209C8.20605 11.2486 10.5743 8.84875 13.4957 8.84875C16.4171 8.84875 18.7854 11.2486 18.7854 14.209Z" fill="#C4C4C4"/>
</g>
<g style="mix-blend-mode:screen">
<path d="M11.8683 9.67333C11.8683 10.8119 10.9574 11.735 9.83381 11.735C8.71019 11.735 7.79932 10.8119 7.79932 9.67333C7.79932 8.53472 8.71019 7.61169 9.83381 7.61169C10.9574 7.61169 11.8683 8.53472 11.8683 9.67333Z" fill="#888888"/>
</g>
</svg>
