<svg width="23" height="28" viewBox="0 0 23 28" fill="none" xmlns="http://www.w3.org/2000/svg">
<ellipse cx="11.1176" cy="11.266" rx="11.1176" ry="11.266" fill="#F8E645" fill-opacity="0.24"/>
<path d="M5.02762 6.88415C6.3883 4.92241 8.60637 3.75488 10.9726 3.75488H11.2608C13.6271 3.75488 15.8452 4.92241 17.2059 6.88415C18.9334 9.37482 18.9703 12.686 17.2987 15.2156L15.6693 17.6813C15.256 18.3067 15.0354 19.0423 15.0354 19.795V21.2588C15.0354 21.4463 14.8853 21.5984 14.7003 21.5984H7.53319C7.34813 21.5984 7.1981 21.4463 7.1981 21.2588V19.795C7.1981 19.0423 6.97747 18.3067 6.56421 17.6813L4.93479 15.2156C3.26318 12.686 3.30007 9.37482 5.02762 6.88415Z" fill="#F8DB45"/>
<path d="M9.43945 26.3022H12.7904V26.9814C12.7904 27.544 12.3403 28.0001 11.7851 28.0001H10.4447C9.88953 28.0001 9.43945 27.544 9.43945 26.9814V26.3022Z" fill="#404040"/>
<path d="M8.76855 21.5483H13.4599C13.4599 20.6107 12.7097 19.8505 11.7844 19.8505H10.444C9.51869 19.8505 8.76855 20.6107 8.76855 21.5483Z" fill="#FFA337"/>
<path d="M8.09863 23.2461H14.1303V24.9439C14.1303 25.694 13.5302 26.3022 12.7899 26.3022H9.439C8.69874 26.3022 8.09863 25.694 8.09863 24.9439V23.2461Z" fill="#7C7C7C"/>
<path d="M11.4492 23.2461H14.13V24.9439C14.13 25.694 13.5299 26.3022 12.7896 26.3022H11.4492V23.2461Z" fill="#646464"/>
<path d="M7.09277 20.8696H15.135V22.2279C15.135 23.1656 14.3849 23.9257 13.4595 23.9257H8.76824C7.8429 23.9257 7.09277 23.1656 7.09277 22.2279V20.8696Z" fill="#D9D9D9"/>
<path d="M10.7793 20.8696H15.1355V22.2279C15.1355 23.1656 14.3854 23.9257 13.46 23.9257H10.7793V20.8696Z" fill="#AAAAAA"/>
<path d="M9.77441 20.8696H12.4552V22.5674C12.4552 23.3176 11.8551 23.9257 11.1148 23.9257C10.3745 23.9257 9.77441 23.3176 9.77441 22.5674V20.8696Z" fill="#BABABA"/>
<path fill-rule="evenodd" clip-rule="evenodd" d="M9.43943 10.8527C8.97676 10.8527 8.60169 11.2328 8.60169 11.7017C8.60169 12.1705 8.97676 12.5506 9.43943 12.5506H10.2772V11.7017C10.2772 11.2328 9.90209 10.8527 9.43943 10.8527ZM10.6122 12.5506V11.7017C10.6122 11.0453 10.0872 10.5132 9.43943 10.5132C8.79169 10.5132 8.2666 11.0453 8.2666 11.7017C8.2666 12.358 8.79169 12.8901 9.43943 12.8901H10.2772V20.7001H10.6122V12.8901H11.6175V20.3605H11.9526V12.8901H12.7904C13.4381 12.8901 13.9632 12.358 13.9632 11.7017C13.9632 11.0453 13.4381 10.5132 12.7904 10.5132C12.1426 10.5132 11.6175 11.0453 11.6175 11.7017V12.5506H10.6122ZM11.9526 12.5506H12.7904C13.253 12.5506 13.6281 12.1705 13.6281 11.7017C13.6281 11.2328 13.253 10.8527 12.7904 10.8527C12.3277 10.8527 11.9526 11.2328 11.9526 11.7017V12.5506Z" fill="#FFA337"/>
<g style="mix-blend-mode:color-burn">
<path d="M15.4702 11.7019C15.4702 14.1399 13.5199 16.1162 11.114 16.1162C8.70815 16.1162 6.75781 14.1399 6.75781 11.7019C6.75781 9.26395 8.70815 7.2876 11.114 7.2876C13.5199 7.2876 15.4702 9.26395 15.4702 11.7019Z"/>
</g>
<g style="mix-blend-mode:screen">
<path d="M9.77378 7.96637C9.77378 8.90405 9.02365 9.66418 8.09831 9.66418C7.17298 9.66418 6.42285 8.90405 6.42285 7.96637C6.42285 7.02869 7.17298 6.26855 8.09831 6.26855C9.02365 6.26855 9.77378 7.02869 9.77378 7.96637Z"/>
</g>
</svg>
