<svg width="22" height="19" viewBox="0 0 22 19" fill="none" xmlns="http://www.w3.org/2000/svg">
<path d="M1.15992 15.9979C0.387989 17.3313 1.3501 19 2.89077 19H19.1109C20.6515 19 21.6137 17.3313 20.8417 15.9979L12.7317 1.98966C11.9613 0.659087 10.0403 0.659085 9.26997 1.98965L1.15992 15.9979ZM12.0535 14.7895C12.0535 15.3708 11.5822 15.8421 11.0008 15.8421C10.4195 15.8421 9.94819 15.3708 9.94819 14.7895C9.94819 14.2081 10.4195 13.7368 11.0008 13.7368C11.5822 13.7368 12.0535 14.2081 12.0535 14.7895ZM12.0535 11.6316C12.0535 12.2129 11.5822 12.6842 11.0008 12.6842C10.4195 12.6842 9.94819 12.2129 9.94819 11.6316V7.42105C9.94819 6.8397 10.4195 6.36842 11.0008 6.36842C11.5822 6.36842 12.0535 6.8397 12.0535 7.42105V11.6316Z" fill="#6B6C76" fill-opacity="0.8"/>
</svg>
