<svg width="375" height="96" viewBox="0 0 375 96" fill="none" xmlns="http://www.w3.org/2000/svg">
<g clip-path="url(#clip0)">
<rect y="-73" width="375" height="150" fill="#C4D2DC"/>
<path d="M10.4922 76.3952C10.4934 74.7683 11.1412 73.2085 12.2932 72.0586C13.4452 70.9087 15.0071 70.2627 16.6356 70.2627C18.2641 70.2627 19.826 70.9087 20.9779 72.0586C22.1299 73.2085 22.7777 74.7683 22.779 76.3952" fill="#F2F2F2"/>
<path d="M16.6367 76.3953C16.5927 76.3953 16.5505 76.3778 16.5193 76.3467C16.4882 76.3156 16.4707 76.2734 16.4707 76.2294V72.995C16.4707 72.951 16.4882 72.9088 16.5193 72.8777C16.5505 72.8466 16.5927 72.8291 16.6367 72.8291C16.6808 72.8291 16.723 72.8466 16.7541 72.8777C16.7853 72.9088 16.8028 72.951 16.8028 72.995V76.2294C16.8028 76.2734 16.7853 76.3156 16.7541 76.3467C16.723 76.3778 16.6808 76.3953 16.6367 76.3953Z" fill="#CCCCCC"/>
<path d="M16.6361 75.2832C16.5964 75.2833 16.5581 75.2691 16.528 75.2432L14.5356 73.5349C14.5188 73.5208 14.505 73.5034 14.495 73.484C14.4849 73.4645 14.4789 73.4432 14.4771 73.4214C14.4753 73.3996 14.4779 73.3776 14.4847 73.3568C14.4915 73.3359 14.5023 73.3166 14.5166 73.3C14.5309 73.2834 14.5483 73.2698 14.5679 73.2599C14.5875 73.2501 14.6088 73.2442 14.6307 73.2426C14.6526 73.241 14.6746 73.2438 14.6954 73.2508C14.7161 73.2577 14.7354 73.2687 14.7519 73.2832L16.7443 74.9915C16.7701 75.0136 16.7884 75.043 16.7969 75.0758C16.8054 75.1086 16.8037 75.1432 16.7919 75.175C16.7801 75.2068 16.7588 75.2342 16.731 75.2536C16.7031 75.2729 16.67 75.2833 16.6361 75.2833L16.6361 75.2832Z" fill="#CCCCCC"/>
<path d="M29.4219 76.3952C29.4231 74.7683 30.0709 73.2085 31.2229 72.0586C32.3749 70.9087 33.9367 70.2627 35.5653 70.2627C37.1938 70.2627 38.7557 70.9087 39.9076 72.0586C41.0596 73.2085 41.7074 74.7683 41.7086 76.3952" fill="#F2F2F2"/>
<path d="M35.5664 76.3953C35.5224 76.3953 35.4802 76.3778 35.449 76.3467C35.4179 76.3156 35.4004 76.2734 35.4004 76.2294V72.995C35.4004 72.951 35.4179 72.9088 35.449 72.8777C35.4802 72.8466 35.5224 72.8291 35.5664 72.8291C35.6105 72.8291 35.6527 72.8466 35.6838 72.8777C35.715 72.9088 35.7325 72.951 35.7325 72.995V76.2294C35.7325 76.2734 35.715 76.3156 35.6838 76.3467C35.6527 76.3778 35.6105 76.3953 35.5664 76.3953Z" fill="#CCCCCC"/>
<path d="M35.564 75.2823C35.5243 75.2824 35.4859 75.2682 35.4559 75.2423L33.4634 73.534C33.4466 73.5199 33.4328 73.5026 33.4228 73.4831C33.4127 73.4636 33.4066 73.4423 33.4048 73.4205C33.4031 73.3986 33.4056 73.3767 33.4124 73.3558C33.4192 73.335 33.4301 73.3157 33.4444 73.299C33.4586 73.2824 33.4761 73.2688 33.4957 73.2589C33.5153 73.2491 33.5367 73.2432 33.5585 73.2416C33.5804 73.2401 33.6024 73.2429 33.6232 73.2499C33.644 73.2568 33.6632 73.2678 33.6797 73.2823L35.6722 74.9906C35.6979 75.0127 35.7163 75.0421 35.7248 75.0749C35.7333 75.1077 35.7315 75.1424 35.7197 75.1741C35.7079 75.2059 35.6867 75.2333 35.6588 75.2527C35.631 75.272 35.5979 75.2824 35.5639 75.2824L35.564 75.2823Z" fill="#CCCCCC"/>
<path d="M33.4581 -15.6741C36.274 -24.4581 43.1498 -31.2705 51.3041 -35.3222C60.9791 -40.1296 72.0967 -40.6739 82.6017 -38.8029C93.9419 -36.7831 104.541 -32.1269 114.8 -27.0456C124.863 -22.0616 134.763 -16.7989 145.228 -12.6801C166.121 -4.46917 188.265 0.113121 210.704 0.868721C230.9 1.54178 252.494 -0.668854 269.787 -12.0089C285.632 -22.3994 295.714 -39.5408 300.965 -57.4089C301.638 -59.6964 302.235 -62.0036 302.758 -64.3305C302.911 -65.0026 301.876 -65.2896 301.723 -64.6156C297.487 -45.9568 288.454 -27.5156 273.021 -15.6216C256.328 -2.75745 234.42 0.21637 213.919 -0.123932C191.235 -0.519615 168.792 -4.84614 147.59 -12.9108C136.856 -16.9932 126.726 -22.2943 116.468 -27.4122C106.434 -32.4176 96.1192 -37.1031 85.0864 -39.4117C75.0119 -41.5197 64.2256 -41.6481 54.5122 -37.897C46.514 -34.8083 39.2213 -29.3027 34.9535 -21.7714C33.9129 -19.9257 33.0649 -17.9781 32.4228 -15.9592C32.2115 -15.3003 33.2478 -15.0182 33.4581 -15.6741Z" fill="#F2F2F2"/>
<path d="M186.744 66.4569C186.839 66.4569 186.93 66.4193 186.997 66.3522C187.064 66.2852 187.102 66.1942 187.102 66.0994C187.102 66.0046 187.064 65.9136 186.997 65.8466C186.93 65.7795 186.839 65.7419 186.744 65.7419H183.344V64.3117H186.744C186.839 64.3117 186.93 64.2741 186.997 64.207C187.064 64.14 187.102 64.049 187.102 63.9542C187.102 63.8594 187.064 63.7685 186.997 63.7014C186.93 63.6344 186.839 63.5967 186.744 63.5967H157.754C157.659 63.5967 157.568 63.6344 157.501 63.7014C157.434 63.7685 157.396 63.8594 157.396 63.9542C157.396 64.049 157.434 64.14 157.501 64.207C157.568 64.2741 157.659 64.3117 157.754 64.3117H161.154V65.7419H157.754C157.659 65.7419 157.568 65.7795 157.501 65.8466C157.434 65.9136 157.396 66.0046 157.396 66.0994C157.396 66.1942 157.434 66.2852 157.501 66.3522C157.568 66.4193 157.659 66.4569 157.754 66.4569H161.154V67.8871H157.754C157.659 67.8871 157.568 67.9247 157.501 67.9918C157.434 68.0588 157.396 68.1498 157.396 68.2446C157.396 68.3394 157.434 68.4304 157.501 68.4974C157.568 68.5645 157.659 68.6021 157.754 68.6021H161.154V70.0323H158.112C157.922 70.0323 157.74 70.1076 157.606 70.2417C157.472 70.3758 157.396 70.5577 157.396 70.7473C157.396 70.937 157.472 71.1189 157.606 71.253C157.74 71.3871 157.922 71.4624 158.112 71.4624H161.008C160.987 71.5197 160.976 71.5801 160.975 71.6412V76.6466C160.975 76.7888 161.032 76.9253 161.133 77.0258C161.233 77.1264 161.37 77.1829 161.512 77.1829C161.655 77.1829 161.791 77.1264 161.892 77.0258C161.993 76.9253 162.049 76.7888 162.049 76.6466V71.6412C162.048 71.5801 162.037 71.5197 162.016 71.4624H182.482C182.461 71.5197 182.45 71.5801 182.449 71.6412V76.6466C182.449 76.7888 182.506 76.9253 182.606 77.0258C182.707 77.1264 182.844 77.1829 182.986 77.1829C183.128 77.1829 183.265 77.1264 183.366 77.0258C183.466 76.9253 183.523 76.7888 183.523 76.6466V71.6412C183.522 71.5801 183.511 71.5197 183.49 71.4624H186.386C186.576 71.4624 186.758 71.3871 186.892 71.253C187.026 71.1189 187.102 70.937 187.102 70.7473C187.102 70.5577 187.026 70.3758 186.892 70.2417C186.758 70.1076 186.576 70.0323 186.386 70.0323H183.344V68.6021H186.744C186.839 68.6021 186.93 68.5645 186.997 68.4974C187.064 68.4304 187.102 68.3394 187.102 68.2446C187.102 68.1498 187.064 68.0588 186.997 67.9918C186.93 67.9247 186.839 67.8871 186.744 67.8871H183.344V66.4569H186.744ZM161.87 64.3117H182.628V65.7419H161.87V64.3117ZM182.628 70.0323H161.87V68.6021H182.628V70.0323ZM182.628 67.8871H161.87V66.4569H182.628V67.8871Z" fill="#3F3D56"/>
<path d="M77.5908 51.4507C77.5908 45.1362 72.4633 30.1523 66.1382 30.1523C59.8131 30.1523 54.6855 45.1362 54.6855 51.4507C54.6855 54.485 55.8922 57.3951 58.0399 59.5407C60.1877 61.6863 63.1008 62.8917 66.1382 62.8917C69.1756 62.8917 72.0886 61.6863 74.2364 59.5407C76.3842 57.3951 77.5908 54.485 77.5908 51.4507H77.5908Z" fill="#E6E6E6"/>
<path d="M74.7256 51.4507C74.7256 45.1362 69.598 30.1523 63.2729 30.1523C56.9478 30.1523 51.8203 45.1362 51.8203 51.4507C51.8203 54.485 53.0269 57.3951 55.1747 59.5407C57.3225 61.6863 60.2355 62.8917 63.2729 62.8917C66.3104 62.8917 69.2234 61.6863 71.3712 59.5407C73.519 57.3951 74.7256 54.485 74.7256 51.4507H74.7256Z" fill="#F2F2F2"/>
<path d="M63.6313 77.033C63.5364 77.033 63.4454 76.9953 63.3783 76.9283C63.3112 76.8612 63.2734 76.7703 63.2734 76.6754V44.8048C63.2734 44.71 63.3111 44.619 63.3783 44.552C63.4454 44.4849 63.5364 44.4473 63.6313 44.4473C63.7262 44.4473 63.8173 44.4849 63.8844 44.552C63.9515 44.619 63.9892 44.71 63.9892 44.8048V76.6754C63.9892 76.7703 63.9515 76.8612 63.8844 76.9283C63.8173 76.9953 63.7262 77.033 63.6313 77.033Z" fill="#CCCCCC"/>
<path d="M63.6313 50.0295C63.5605 50.0295 63.4913 50.0086 63.4325 49.9693C63.3736 49.93 63.3278 49.8742 63.3007 49.8088C63.2736 49.7435 63.2665 49.6716 63.2803 49.6023C63.2941 49.5329 63.3282 49.4693 63.3782 49.4193L68.0586 44.7434C68.1257 44.6764 68.2168 44.6387 68.3117 44.6387C68.4066 44.6387 68.4976 44.6764 68.5647 44.7434C68.6318 44.8104 68.6695 44.9014 68.6695 44.9962C68.6695 45.091 68.6318 45.1819 68.5647 45.249L63.8843 49.9248C63.8511 49.9581 63.8117 49.9844 63.7683 50.0024C63.7248 50.0204 63.6783 50.0296 63.6313 50.0295Z" fill="#CCCCCC"/>
<path d="M195.338 77.033C195.243 77.033 195.152 76.9953 195.085 76.9283C195.018 76.8612 194.98 76.7703 194.98 76.6754V44.8048C194.98 44.71 195.018 44.619 195.085 44.552C195.152 44.4849 195.243 44.4473 195.338 44.4473C195.433 44.4473 195.524 44.4849 195.591 44.552C195.659 44.619 195.696 44.71 195.696 44.8048V76.6754C195.696 76.7703 195.659 76.8612 195.591 76.9283C195.524 76.9953 195.433 77.033 195.338 77.033Z" fill="#3F3D56"/>
<path d="M233.632 51.4507C233.632 45.1362 228.504 30.1523 222.179 30.1523C215.854 30.1523 210.727 45.1362 210.727 51.4507C210.727 54.485 211.933 57.3951 214.081 59.5407C216.229 61.6863 219.142 62.8917 222.179 62.8917C225.217 62.8917 228.13 61.6863 230.277 59.5407C232.425 57.3951 233.632 54.485 233.632 51.4507H233.632Z" fill="#E6E6E6"/>
<path d="M230.769 51.4507C230.769 45.1362 225.641 30.1523 219.316 30.1523C212.991 30.1523 207.863 45.1362 207.863 51.4507C207.863 54.485 209.07 57.3951 211.218 59.5407C213.365 61.6863 216.278 62.8917 219.316 62.8917C222.353 62.8917 225.266 61.6863 227.414 59.5407C229.562 57.3951 230.769 54.485 230.769 51.4507H230.769Z" fill="#F2F2F2"/>
<path d="M219.674 77.033C219.579 77.033 219.488 76.9953 219.421 76.9283C219.354 76.8612 219.316 76.7703 219.316 76.6754V44.8048C219.316 44.71 219.354 44.619 219.421 44.552C219.488 44.4849 219.579 44.4473 219.674 44.4473C219.769 44.4473 219.86 44.4849 219.927 44.552C219.994 44.619 220.032 44.71 220.032 44.8048V76.6754C220.032 76.7703 219.994 76.8612 219.927 76.9283C219.86 76.9953 219.769 77.033 219.674 77.033Z" fill="#CCCCCC"/>
<path d="M219.674 50.0295C219.603 50.0295 219.534 50.0086 219.475 49.9693C219.417 49.93 219.371 49.8742 219.344 49.8088C219.317 49.7435 219.309 49.6716 219.323 49.6023C219.337 49.5329 219.371 49.4693 219.421 49.4193L224.102 44.7434C224.169 44.6764 224.26 44.6387 224.355 44.6387C224.45 44.6387 224.541 44.6764 224.608 44.7434C224.675 44.8104 224.713 44.9014 224.713 44.9962C224.713 45.091 224.675 45.1819 224.608 45.249L219.927 49.9248C219.894 49.9581 219.855 49.9844 219.811 50.0024C219.768 50.0204 219.721 50.0296 219.674 50.0295Z" fill="#CCCCCC"/>
<path d="M124.114 76.8715H94.7667C93.9602 76.8706 93.1869 76.5501 92.6166 75.9804C92.0463 75.4106 91.7255 74.6382 91.7246 73.8324V-44.5108C91.7255 -45.3165 92.0463 -46.089 92.6166 -46.6587C93.1869 -47.2284 93.9602 -47.5489 94.7667 -47.5498H124.114C124.921 -47.5489 125.694 -47.2284 126.264 -46.6587C126.834 -46.089 127.155 -45.3165 127.156 -44.5108V73.8324C127.155 74.6382 126.834 75.4106 126.264 75.9804C125.694 76.5501 124.921 76.8706 124.114 76.8715Z" fill="#E6E6E6"/>
<path d="M106.579 76.8715H77.2316C76.425 76.8706 75.6518 76.5501 75.0815 75.9804C74.5112 75.4106 74.1904 74.6382 74.1895 73.8324V-44.5108C74.1904 -45.3165 74.5112 -46.089 75.0815 -46.6587C75.6518 -47.2284 76.425 -47.5489 77.2316 -47.5498H106.579C107.385 -47.5489 108.159 -47.2284 108.729 -46.6587C109.299 -46.089 109.62 -45.3165 109.621 -44.5108V73.8324C109.62 74.6382 109.299 75.4106 108.729 75.9804C108.159 76.5501 107.385 76.8706 106.579 76.8715Z" fill="#F2F2F2"/>
<path d="M88.683 17.1639H81.883C81.6458 17.1636 81.4184 17.0694 81.2506 16.9018C81.0829 16.7342 80.9886 16.5071 80.9883 16.2701V5.90164C80.9886 5.66467 81.0829 5.43747 81.2506 5.26991C81.4184 5.10234 81.6458 5.00808 81.883 5.00781H88.683C88.9202 5.00808 89.1477 5.10234 89.3154 5.26991C89.4831 5.43747 89.5775 5.66467 89.5778 5.90164V16.2701C89.5775 16.5071 89.4831 16.7342 89.3154 16.9018C89.1477 17.0694 88.9202 17.1636 88.683 17.1639Z" fill="white"/>
<path d="M101.925 17.1639H95.1252C94.888 17.1636 94.6606 17.0694 94.4928 16.9018C94.3251 16.7342 94.2307 16.5071 94.2305 16.2701V5.90164C94.2307 5.66467 94.3251 5.43747 94.4928 5.26991C94.6606 5.10234 94.888 5.00808 95.1252 5.00781H101.925C102.162 5.00808 102.39 5.10234 102.558 5.26991C102.725 5.43747 102.82 5.66467 102.82 5.90164V16.2701C102.82 16.5071 102.725 16.7342 102.558 16.9018C102.39 17.0694 102.162 17.1636 101.925 17.1639Z" fill="white"/>
<path d="M88.683 36.1131H81.883C81.6458 36.1129 81.4184 36.0186 81.2506 35.851C81.0829 35.6835 80.9886 35.4563 80.9883 35.2193V24.8509C80.9886 24.6139 81.0829 24.3867 81.2506 24.2191C81.4184 24.0516 81.6458 23.9573 81.883 23.957H88.683C88.9202 23.9573 89.1477 24.0516 89.3154 24.2191C89.4831 24.3867 89.5775 24.6139 89.5778 24.8509V35.2193C89.5775 35.4563 89.4831 35.6835 89.3154 35.851C89.1477 36.0186 88.9202 36.1129 88.683 36.1131Z" fill="white"/>
<path d="M101.925 36.1131H95.1252C94.888 36.1129 94.6606 36.0186 94.4928 35.851C94.3251 35.6835 94.2307 35.4563 94.2305 35.2193V24.8509C94.2307 24.6139 94.3251 24.3867 94.4928 24.2191C94.6606 24.0516 94.888 23.9573 95.1252 23.957H101.925C102.162 23.9573 102.39 24.0516 102.558 24.2191C102.725 24.3867 102.82 24.6139 102.82 24.8509V35.2193C102.82 35.4563 102.725 35.6835 102.558 35.851C102.39 36.0186 102.162 36.1129 101.925 36.1131Z" fill="white"/>
<path d="M88.683 55.0624H81.883C81.6458 55.0621 81.4184 54.9678 81.2506 54.8003C81.0829 54.6327 80.9886 54.4055 80.9883 54.1685V43.8001C80.9886 43.5631 81.0829 43.3359 81.2506 43.1684C81.4184 43.0008 81.6458 42.9065 81.883 42.9062H88.683C88.9202 42.9065 89.1477 43.0008 89.3154 43.1684C89.4831 43.3359 89.5775 43.5631 89.5778 43.8001V54.1685C89.5775 54.4055 89.4831 54.6327 89.3154 54.8003C89.1477 54.9678 88.9202 55.0621 88.683 55.0624Z" fill="white"/>
<path d="M101.925 55.0624H95.1252C94.888 55.0621 94.6606 54.9678 94.4928 54.8003C94.3251 54.6327 94.2307 54.4055 94.2305 54.1685V43.8001C94.2307 43.5631 94.3251 43.3359 94.4928 43.1684C94.6606 43.0008 94.888 42.9065 95.1252 42.9062H101.925C102.162 42.9065 102.39 43.0008 102.558 43.1684C102.725 43.3359 102.82 43.5631 102.82 43.8001V54.1685C102.82 54.4055 102.725 54.6327 102.558 54.8003C102.39 54.9678 102.162 55.0621 101.925 55.0624Z" fill="white"/>
<path d="M249.378 16.0912H243.652C243.225 16.0907 242.815 15.9211 242.513 15.6194C242.211 15.3178 242.041 14.9089 242.041 14.4823V6.97413C242.041 6.54757 242.211 6.13863 242.513 5.837C242.815 5.53538 243.225 5.36572 243.652 5.36523H249.378C249.805 5.36571 250.214 5.53537 250.516 5.83699C250.818 6.13862 250.988 6.54757 250.988 6.97413V14.4823C250.988 14.9089 250.818 15.3178 250.516 15.6194C250.214 15.9211 249.805 16.0907 249.378 16.0912Z" fill="#E6E6E6"/>
<path d="M297.694 77.2284H268.347C267.54 77.2275 266.767 76.9071 266.197 76.3373C265.626 75.7676 265.306 74.9951 265.305 74.1894V17.3418C265.306 16.536 265.626 15.7636 266.197 15.1938C266.767 14.6241 267.54 14.3036 268.347 14.3027H297.694C298.501 14.3036 299.274 14.6241 299.844 15.1938C300.415 15.7636 300.735 16.536 300.736 17.3418V74.1894C300.735 74.9951 300.415 75.7676 299.844 76.3373C299.274 76.9071 298.501 77.2275 297.694 77.2284Z" fill="#E6E6E6"/>
<path d="M280.158 77.2284H229.337C228.53 77.2275 227.757 76.9071 227.187 76.3373C226.617 75.7676 226.296 74.9951 226.295 74.1894V17.3418C226.296 16.536 226.617 15.7636 227.187 15.1938C227.757 14.6241 228.53 14.3036 229.337 14.3027H280.158C280.965 14.3036 281.738 14.6241 282.308 15.1938C282.878 15.7636 283.199 16.536 283.2 17.3418V74.1894C283.199 74.9951 282.878 75.7676 282.308 76.3373C281.738 76.9071 280.965 77.2275 280.158 77.2284Z" fill="#F2F2F2"/>
<path d="M244.011 16.0912H238.284C237.857 16.0907 237.448 15.9211 237.146 15.6194C236.844 15.3178 236.674 14.9089 236.674 14.4823V6.97413C236.674 6.54757 236.844 6.13863 237.146 5.837C237.448 5.53538 237.857 5.36572 238.284 5.36523H244.011C244.438 5.36571 244.847 5.53537 245.149 5.83699C245.451 6.13862 245.621 6.54757 245.621 6.97413V14.4823C245.621 14.9089 245.451 15.3178 245.149 15.6194C244.847 15.9211 244.438 16.0907 244.011 16.0912Z" fill="#F2F2F2"/>
<path d="M251.527 42.37H244.727C244.49 42.3697 244.262 42.2754 244.094 42.1079C243.927 41.9403 243.832 41.7131 243.832 41.4761V31.1077C243.832 30.8707 243.927 30.6435 244.094 30.476C244.262 30.3084 244.49 30.2141 244.727 30.2139H251.527C251.764 30.2141 251.991 30.3084 252.159 30.476C252.327 30.6435 252.421 30.8707 252.421 31.1077V41.4761C252.421 41.7131 252.327 41.9403 252.159 42.1079C251.991 42.2754 251.764 42.3697 251.527 42.37Z" fill="white"/>
<path d="M264.769 42.37H257.969C257.732 42.3697 257.504 42.2754 257.337 42.1079C257.169 41.9403 257.074 41.7131 257.074 41.4761V31.1077C257.074 30.8707 257.169 30.6435 257.337 30.476C257.504 30.3084 257.732 30.2141 257.969 30.2139H264.769C265.006 30.2141 265.234 30.3084 265.401 30.476C265.569 30.6435 265.663 30.8707 265.664 31.1077V41.4761C265.663 41.7131 265.569 41.9403 265.401 42.1079C265.234 42.2754 265.006 42.3697 264.769 42.37Z" fill="white"/>
<path d="M251.527 61.3192H244.727C244.49 61.3189 244.262 61.2246 244.094 61.0571C243.927 60.8895 243.832 60.6623 243.832 60.4254V50.0569C243.832 49.8199 243.927 49.5928 244.094 49.4252C244.262 49.2576 244.49 49.1634 244.727 49.1631H251.527C251.764 49.1634 251.991 49.2576 252.159 49.4252C252.327 49.5928 252.421 49.8199 252.421 50.0569V60.4254C252.421 60.6623 252.327 60.8895 252.159 61.0571C251.991 61.2246 251.764 61.3189 251.527 61.3192Z" fill="white"/>
<path d="M264.769 61.3192H257.969C257.732 61.3189 257.504 61.2246 257.337 61.0571C257.169 60.8895 257.074 60.6623 257.074 60.4254V50.0569C257.074 49.8199 257.169 49.5928 257.337 49.4252C257.504 49.2576 257.732 49.1634 257.969 49.1631H264.769C265.006 49.1634 265.234 49.2576 265.401 49.4252C265.569 49.5928 265.663 49.8199 265.664 50.0569V60.4254C265.663 60.6623 265.569 60.8895 265.401 61.0571C265.234 61.2246 265.006 61.3189 264.769 61.3192Z" fill="white"/>
<path d="M374.642 77.4074H0.357894C0.262975 77.4074 0.171943 77.3698 0.104825 77.3027C0.0377063 77.2357 0 77.1447 0 77.0499C0 76.9551 0.0377063 76.8642 0.104825 76.7971C0.171943 76.7301 0.262975 76.6924 0.357894 76.6924H374.642C374.737 76.6924 374.828 76.7301 374.895 76.7971C374.962 76.8642 375 76.9551 375 77.0499C375 77.1447 374.962 77.2357 374.895 77.3027C374.828 77.3698 374.737 77.4074 374.642 77.4074Z" fill="#E6E6E6"/>
<path d="M129.843 89.9211H96.5591C96.4641 89.9211 96.3731 89.8834 96.306 89.8164C96.2389 89.7493 96.2012 89.6584 96.2012 89.5636C96.2012 89.4688 96.2389 89.3778 96.306 89.3108C96.3731 89.2437 96.4641 89.2061 96.5591 89.2061H129.843C129.938 89.2061 130.029 89.2437 130.096 89.3108C130.163 89.3778 130.201 89.4688 130.201 89.5636C130.201 89.6584 130.163 89.7493 130.096 89.8164C130.029 89.8834 129.938 89.9211 129.843 89.9211Z" fill="#E6E6E6"/>
<path d="M212.515 89.9211H179.231C179.136 89.9211 179.045 89.8834 178.978 89.8164C178.911 89.7493 178.873 89.6584 178.873 89.5636C178.873 89.4688 178.911 89.3778 178.978 89.3108C179.045 89.2437 179.136 89.2061 179.231 89.2061H212.515C212.61 89.2061 212.701 89.2437 212.768 89.3108C212.835 89.3778 212.873 89.4688 212.873 89.5636C212.873 89.6584 212.835 89.7493 212.768 89.8164C212.701 89.8834 212.61 89.9211 212.515 89.9211Z" fill="#E6E6E6"/>
<path d="M295.189 89.9211H261.905C261.81 89.9211 261.719 89.8834 261.652 89.8164C261.585 89.7493 261.547 89.6584 261.547 89.5636C261.547 89.4688 261.585 89.3778 261.652 89.3108C261.719 89.2437 261.81 89.2061 261.905 89.2061H295.189C295.284 89.2061 295.375 89.2437 295.442 89.3108C295.509 89.3778 295.547 89.4688 295.547 89.5636C295.547 89.6584 295.509 89.7493 295.442 89.8164C295.375 89.8834 295.284 89.9211 295.189 89.9211Z" fill="#E6E6E6"/>
<path d="M148.81 51.4507C148.81 45.1362 143.682 30.1523 137.357 30.1523C131.032 30.1523 125.904 45.1362 125.904 51.4507C125.904 54.485 127.111 57.3951 129.259 59.5407C131.406 61.6863 134.32 62.8917 137.357 62.8917C140.394 62.8917 143.307 61.6863 145.455 59.5407C147.603 57.3951 148.81 54.485 148.81 51.4507H148.81Z" fill="#E6E6E6"/>
<path d="M145.946 51.4507C145.946 45.1362 140.819 30.1523 134.494 30.1523C128.169 30.1523 123.041 45.1362 123.041 51.4507C123.041 54.485 124.248 57.3951 126.395 59.5407C128.543 61.6863 131.456 62.8917 134.494 62.8917C137.531 62.8917 140.444 61.6863 142.592 59.5407C144.74 57.3951 145.946 54.485 145.946 51.4507H145.946Z" fill="#F2F2F2"/>
<path d="M134.854 77.033C134.759 77.033 134.668 76.9953 134.601 76.9283C134.534 76.8612 134.496 76.7703 134.496 76.6754V44.8048C134.496 44.71 134.534 44.619 134.601 44.552C134.668 44.4849 134.759 44.4473 134.854 44.4473C134.949 44.4473 135.04 44.4849 135.107 44.552C135.174 44.619 135.212 44.71 135.212 44.8048V76.6754C135.212 76.7703 135.174 76.8612 135.107 76.9283C135.04 76.9953 134.949 77.033 134.854 77.033Z" fill="#CCCCCC"/>
<path d="M134.854 50.0295C134.783 50.0295 134.714 50.0086 134.655 49.9693C134.596 49.93 134.55 49.8742 134.523 49.8088C134.496 49.7435 134.489 49.6716 134.503 49.6023C134.517 49.5329 134.551 49.4693 134.601 49.4193L139.281 44.7434C139.348 44.6764 139.439 44.6387 139.534 44.6387C139.629 44.6387 139.72 44.6764 139.787 44.7434C139.854 44.8104 139.892 44.9014 139.892 44.9962C139.892 45.091 139.854 45.1819 139.787 45.249L135.107 49.9248C135.074 49.9581 135.034 49.9844 134.991 50.0024C134.947 50.0204 134.901 50.0296 134.854 50.0295Z" fill="#CCCCCC"/>
<path d="M331.694 51.4507C331.694 45.1362 326.567 30.1523 320.242 30.1523C313.917 30.1523 308.789 45.1362 308.789 51.4507C308.789 54.485 309.996 57.3951 312.143 59.5407C314.291 61.6863 317.204 62.8917 320.242 62.8917C323.279 62.8917 326.192 61.6863 328.34 59.5407C330.488 57.3951 331.694 54.485 331.694 51.4507H331.694Z" fill="#E6E6E6"/>
<path d="M328.833 51.4507C328.833 45.1362 323.705 30.1523 317.38 30.1523C311.055 30.1523 305.928 45.1362 305.928 51.4507C305.928 54.485 307.134 57.3951 309.282 59.5407C311.43 61.6863 314.343 62.8917 317.38 62.8917C320.418 62.8917 323.331 61.6863 325.479 59.5407C327.626 57.3951 328.833 54.485 328.833 51.4507H328.833Z" fill="#F2F2F2"/>
<path d="M317.737 77.033C317.642 77.033 317.551 76.9953 317.484 76.9283C317.417 76.8612 317.379 76.7703 317.379 76.6754V44.8048C317.379 44.71 317.417 44.619 317.484 44.552C317.551 44.4849 317.642 44.4473 317.737 44.4473C317.832 44.4473 317.923 44.4849 317.99 44.552C318.057 44.619 318.095 44.71 318.095 44.8048V76.6754C318.095 76.7703 318.057 76.8612 317.99 76.9283C317.923 76.9953 317.832 77.033 317.737 77.033Z" fill="#CCCCCC"/>
<path d="M317.737 50.0295C317.666 50.0295 317.597 50.0086 317.538 49.9693C317.479 49.93 317.433 49.8742 317.406 49.8088C317.379 49.7435 317.372 49.6716 317.386 49.6023C317.4 49.5329 317.434 49.4693 317.484 49.4193L322.164 44.7434C322.231 44.6764 322.322 44.6387 322.417 44.6387C322.512 44.6387 322.603 44.6764 322.67 44.7434C322.737 44.8104 322.775 44.9014 322.775 44.9962C322.775 45.091 322.737 45.1819 322.67 45.249L317.99 49.9248C317.957 49.9581 317.917 49.9844 317.874 50.0024C317.83 50.0204 317.784 50.0296 317.737 50.0295Z" fill="#CCCCCC"/>
<path d="M199.272 55.42H191.399C191.161 55.4198 190.934 55.3255 190.766 55.1579C190.598 54.9904 190.504 54.7631 190.504 54.5261V46.6604C190.504 46.4234 190.598 46.1962 190.766 46.0286C190.934 45.8611 191.161 45.7668 191.399 45.7666H199.272C199.51 45.7668 199.737 45.8611 199.905 46.0286C200.072 46.1962 200.167 46.4234 200.167 46.6604V54.5261C200.167 54.7631 200.072 54.9904 199.905 55.1579C199.737 55.3255 199.51 55.4198 199.272 55.42Z" fill="#3F3D56"/>
<path d="M275.708 59.2496C275.794 59.2721 275.874 59.3133 275.943 59.3701C276.011 59.4269 276.066 59.498 276.104 59.5783C276.142 59.6587 276.162 59.7464 276.162 59.8352C276.163 59.9241 276.143 60.0119 276.106 60.0926L277.662 61.5918L276.566 61.8373L275.256 60.3759C275.125 60.3043 275.024 60.187 274.974 60.0462C274.923 59.9054 274.926 59.751 274.981 59.6121C275.037 59.4733 275.142 59.3597 275.276 59.2929C275.41 59.226 275.564 59.2106 275.708 59.2496H275.708Z" fill="#FFB8B8"/>
<path d="M277.896 63.1944L275.977 61.3952C275.95 61.3704 275.929 61.3405 275.914 61.3073C275.899 61.2742 275.891 61.2384 275.891 61.2021C275.89 61.1658 275.897 61.1297 275.91 61.096C275.924 61.0623 275.944 61.0316 275.969 61.0058L276.361 60.6092C276.408 60.5622 276.47 60.5337 276.536 60.5291C276.602 60.5245 276.667 60.5441 276.72 60.5842L278.329 61.8124L279.333 59.3807C279.372 59.2848 279.431 59.198 279.506 59.1256C279.58 59.0533 279.669 58.9971 279.766 58.9603C279.863 58.9235 279.967 58.9071 280.07 58.912C280.174 58.9168 280.276 58.9429 280.369 58.9886C280.516 59.0596 280.636 59.1765 280.711 59.3215C280.786 59.4665 280.812 59.6319 280.785 59.7928C280.603 60.8989 279.499 62.3612 278.858 63.1343C278.77 63.2397 278.652 63.3153 278.52 63.3508C278.387 63.3863 278.247 63.3799 278.118 63.3326C278.036 63.3017 277.96 63.2548 277.896 63.1944Z" fill="#6C63FF"/>
<path d="M276.819 61.4493L275.406 59.4014C275.388 59.375 275.381 59.3425 275.387 59.311C275.393 59.2795 275.411 59.2515 275.437 59.2333L275.494 59.1942C275.507 59.1852 275.522 59.1788 275.537 59.1755C275.553 59.1722 275.569 59.172 275.584 59.1748C275.6 59.1777 275.615 59.1836 275.628 59.1923C275.642 59.2009 275.653 59.2121 275.662 59.2251L277.075 61.273C277.084 61.2861 277.091 61.3008 277.094 61.3163C277.097 61.3319 277.098 61.3479 277.095 61.3635C277.092 61.3791 277.086 61.394 277.077 61.4073C277.069 61.4207 277.058 61.4321 277.044 61.4412L276.988 61.4803C276.961 61.4984 276.929 61.5054 276.897 61.4996C276.866 61.4938 276.838 61.4757 276.819 61.4493Z" fill="white"/>
<path d="M276.423 61.464L275.25 59.7644C275.2 59.6918 275.181 59.6023 275.197 59.5156C275.213 59.429 275.263 59.3521 275.335 59.302L275.455 59.2197L277.005 61.4667L276.886 61.549C276.813 61.599 276.724 61.6181 276.637 61.6021C276.55 61.5862 276.473 61.5365 276.423 61.464Z" fill="#3F3D56"/>
<path d="M276.565 76.1339L275.828 76.0492L275.926 73.1836L276.893 73.2951L276.565 76.1339Z" fill="#FFB8B8"/>
<path d="M276.671 76.8685L274.295 76.5946L274.298 76.5645C274.312 76.4432 274.35 76.3259 274.41 76.2191C274.469 76.1124 274.549 76.0184 274.645 75.9425C274.74 75.8667 274.85 75.8104 274.968 75.7769C275.085 75.7434 275.208 75.7333 275.33 75.7473H275.33L276.781 75.9147L276.671 76.8685Z" fill="#2F2E41"/>
<path d="M285.132 75.5889L284.424 75.8077L283.242 73.1813L284.288 72.8584L285.132 75.5889Z" fill="#FFB8B8"/>
<path d="M285.527 76.2201L283.242 76.9252L283.233 76.8963C283.197 76.7796 283.184 76.657 283.195 76.5354C283.207 76.4138 283.242 76.2957 283.299 76.1877C283.356 76.0797 283.434 75.984 283.528 75.906C283.622 75.8281 283.731 75.7694 283.847 75.7334H283.848L285.243 75.3027L285.527 76.2201Z" fill="#2F2E41"/>
<path d="M275.744 75.4737C275.669 75.4506 275.606 75.3993 275.568 75.3307C275.531 75.2621 275.521 75.1816 275.542 75.1061L275.986 69.9987C276.007 69.7657 276.08 69.5404 276.201 69.3399L278.889 64.8828L281.295 65.3146L281.31 65.3211C282.48 66.0365 283.518 69.5053 284.522 72.8599C284.678 73.3816 284.839 73.921 284.997 74.4366C285.026 74.5102 285.025 74.5923 284.995 74.6655C284.964 74.7386 284.906 74.7969 284.834 74.828L284.105 75.1343C284.036 75.1636 283.959 75.1661 283.888 75.1414C283.817 75.1167 283.758 75.0665 283.722 75.0006L279.977 68.1516C279.973 68.143 279.966 68.1357 279.958 68.1303C279.95 68.1249 279.941 68.1215 279.931 68.1205C279.921 68.1192 279.911 68.1204 279.902 68.1239C279.893 68.1274 279.885 68.1331 279.879 68.1405L277.706 70.5973L276.907 75.2793L276.904 75.2895C276.875 75.3564 276.823 75.4107 276.757 75.4423C276.691 75.474 276.616 75.4808 276.546 75.4617L275.763 75.4765L275.758 75.4765L275.744 75.4737Z" fill="#2F2E41"/>
<path d="M278.758 65.3703L278.743 65.3654L278.739 65.3502C278.727 65.3129 277.628 61.5956 278.619 59.2257L278.62 59.2236C278.649 59.1672 279.34 57.8404 280.143 57.7076L280.164 57.7041L280.426 58.1917C280.508 58.2739 281.921 59.7396 281.279 62.2589C281.337 62.4654 282.117 65.3016 281.693 65.7255C281.538 65.8321 281.35 65.8792 281.163 65.8582C280.346 65.7883 279.539 65.6246 278.758 65.3703Z" fill="#6C63FF"/>
<path d="M279.977 57.2441C281.013 57.2441 281.852 56.4053 281.852 55.3706C281.852 54.3359 281.013 53.4971 279.977 53.4971C278.941 53.4971 278.102 54.3359 278.102 55.3706C278.102 56.4053 278.941 57.2441 279.977 57.2441Z" fill="#2F2E41"/>
<path d="M279.232 57.2344C280.053 57.2344 280.718 56.5698 280.718 55.75C280.718 54.9302 280.053 54.2656 279.232 54.2656C278.411 54.2656 277.746 54.9302 277.746 55.75C277.746 56.5698 278.411 57.2344 279.232 57.2344Z" fill="#FFB8B8"/>
<path d="M280.189 57.1914C280.054 57.2394 279.888 57.2818 279.781 57.1822C279.736 57.1247 279.71 57.0553 279.706 56.9828C279.702 56.9104 279.72 56.8384 279.757 56.7761C279.834 56.6538 279.896 56.5229 279.943 56.386C279.957 56.2831 279.944 56.1784 279.905 56.082C279.866 55.9856 279.803 55.9009 279.722 55.8361C279.561 55.7134 279.379 55.6216 279.184 55.5656L278.144 55.1962C277.873 55.1325 277.633 54.9772 277.465 54.7568C277.378 54.5731 277.363 54.3636 277.423 54.1694C277.483 53.9753 277.613 53.8106 277.789 53.7078C277.965 53.6188 278.16 53.5705 278.358 53.5667C278.555 53.5628 278.752 53.6033 278.932 53.6854C279.13 53.7777 279.333 53.859 279.541 53.9288C279.957 54.0386 280.431 53.9401 280.797 54.1747C280.951 54.2917 281.074 54.4456 281.154 54.6221C281.233 54.7987 281.267 54.9924 281.252 55.1854C281.221 55.5738 281.117 55.9529 280.946 56.3032C280.867 56.519 280.753 56.7202 280.607 56.8986C280.536 56.9857 280.445 57.0544 280.342 57.0989C280.238 57.1434 280.126 57.1624 280.013 57.1543L280.189 57.1914Z" fill="#2F2E41"/>
<path d="M281.55 55.6723C282.218 55.6723 282.76 55.1312 282.76 54.4636C282.76 53.796 282.218 53.2549 281.55 53.2549C280.882 53.2549 280.34 53.796 280.34 54.4636C280.34 55.1312 280.882 55.6723 281.55 55.6723Z" fill="#2F2E41"/>
<path d="M279.555 56.2158C279.555 56.1938 279.561 56.1723 279.572 56.1535C279.583 56.1346 279.599 56.1193 279.619 56.1089C279.638 56.0986 279.66 56.0938 279.682 56.0949C279.704 56.096 279.725 56.1031 279.743 56.1153C279.761 56.1276 279.776 56.1446 279.785 56.1644C279.795 56.1843 279.798 56.2064 279.796 56.2282C279.794 56.25 279.786 56.2708 279.772 56.2883C279.759 56.3058 279.741 56.3194 279.721 56.3277V56.5935C279.721 56.5995 279.72 56.6054 279.718 56.611C279.715 56.6165 279.712 56.6215 279.708 56.6258C279.704 56.63 279.699 56.6334 279.693 56.6357C279.688 56.638 279.682 56.6392 279.676 56.6392C279.67 56.6392 279.664 56.638 279.658 56.6357C279.653 56.6334 279.648 56.63 279.643 56.6258C279.639 56.6215 279.636 56.6165 279.634 56.611C279.631 56.6054 279.63 56.5995 279.63 56.5935V56.3277C279.608 56.3187 279.589 56.3032 279.575 56.2833C279.562 56.2633 279.555 56.2398 279.555 56.2158Z" fill="white"/>
<path d="M275.78 60.5196C275.868 60.5108 275.957 60.5215 276.041 60.5509C276.125 60.5803 276.202 60.6278 276.265 60.6899C276.329 60.752 276.378 60.8273 276.409 60.9105C276.441 60.9936 276.453 61.0827 276.446 61.1712L278.428 62.0346L277.486 62.6464L275.749 61.7327C275.601 61.7114 275.465 61.6364 275.369 61.5221C275.272 61.4078 275.221 61.2621 275.225 61.1125C275.229 60.963 275.287 60.82 275.389 60.7107C275.492 60.6015 275.631 60.5334 275.78 60.5196Z" fill="#FFB8B8"/>
<path d="M279.209 63.4533L276.782 62.4355C276.749 62.4214 276.718 62.4008 276.693 62.3748C276.667 62.3489 276.647 62.3181 276.634 62.2843C276.621 62.2506 276.614 62.2145 276.615 62.1782C276.616 62.1419 276.624 62.1061 276.639 62.073L276.868 61.5648C276.896 61.5045 276.944 61.4562 277.004 61.4289C277.064 61.4016 277.133 61.3971 277.196 61.4164L279.132 62.0074L279.225 59.3788C279.228 59.275 279.253 59.1732 279.298 59.0794C279.343 58.9857 279.406 58.9021 279.484 58.8338C279.562 58.7656 279.654 58.714 279.753 58.6825C279.852 58.6509 279.956 58.6399 280.06 58.6503C280.222 58.6657 280.375 58.7334 280.496 58.8432C280.617 58.953 280.699 59.099 280.73 59.2593C280.945 60.3595 280.421 62.1142 280.089 63.0623C280.044 63.1915 279.96 63.3035 279.848 63.3829C279.736 63.4623 279.603 63.5051 279.466 63.5055C279.377 63.5054 279.29 63.4876 279.209 63.4533Z" fill="#6C63FF"/>
<path d="M30.3479 62.8319H26.6309V61.7046C27.8054 60.888 28.8461 60.959 30.2152 61.7709L30.3479 62.8319Z" fill="#6C63FF"/>
<path d="M25.7695 82.8543H24.9557L24.834 79.7188H25.7695V82.8543Z" fill="#FFB8B8"/>
<path d="M25.9755 83.6423L23.3516 83.6422V83.6091C23.3516 83.4751 23.378 83.3424 23.4293 83.2187C23.4806 83.0949 23.5559 82.9824 23.6507 82.8877C23.7455 82.7929 23.8581 82.7178 23.982 82.6665C24.1059 82.6152 24.2387 82.5889 24.3729 82.5889H24.3729L25.9755 82.5889L25.9755 83.6423Z" fill="#2F2E41"/>
<path d="M30.3519 82.8543H31.1654L31.2871 79.7188H30.3516L30.3519 82.8543Z" fill="#FFB8B8"/>
<path d="M30.1445 82.5889L31.7471 82.5889H31.7472C31.8813 82.5889 32.0141 82.6152 32.138 82.6665C32.2619 82.7178 32.3745 82.7929 32.4694 82.8877C32.5642 82.9824 32.6394 83.0949 32.6907 83.2187C32.7421 83.3424 32.7685 83.4751 32.7685 83.6091V83.6422L30.1446 83.6423L30.1445 82.5889Z" fill="#2F2E41"/>
<path d="M30.3736 82.4521C30.3057 82.4519 30.2399 82.4287 30.1869 82.3862C30.1339 82.3438 30.0969 82.2847 30.0819 82.2185L28.065 73.4299C28.0605 73.4076 28.0484 73.3876 28.0306 73.3733C28.0128 73.3591 27.9906 73.3516 27.9678 73.3521H27.9673C27.9444 73.3517 27.9221 73.3594 27.9044 73.3738C27.8866 73.3882 27.8746 73.4084 27.8704 73.4309L26.0182 82.1602C26.0037 82.227 25.9669 82.2869 25.9137 82.3299C25.8606 82.3729 25.7943 82.3965 25.7259 82.3967H24.8436C24.8029 82.3967 24.7626 82.3884 24.7253 82.3723C24.6879 82.3562 24.6542 82.3326 24.6263 82.303C24.5983 82.2734 24.5768 82.2384 24.5629 82.2002C24.549 82.162 24.543 82.1213 24.5454 82.0807L25.2026 71.0166L25.4671 70.9385L25.472 70.9385L30.6665 70.984L31.7728 82.0359C31.7767 82.0753 31.7727 82.1151 31.761 82.1529C31.7493 82.1908 31.7302 82.2259 31.7047 82.2563C31.6793 82.2867 31.6481 82.3117 31.6128 82.3299C31.5776 82.3481 31.5391 82.3591 31.4996 82.3622L30.3975 82.4511C30.3895 82.4518 30.3815 82.4521 30.3736 82.4521Z" fill="#2F2E41"/>
<path d="M28.2299 60.811C29.1303 60.811 29.8602 60.0818 29.8602 59.1823C29.8602 58.2829 29.1303 57.5537 28.2299 57.5537C27.3295 57.5537 26.5996 58.2829 26.5996 59.1823C26.5996 60.0818 27.3295 60.811 28.2299 60.811Z" fill="#FFB8B8"/>
<path d="M27.2307 72.2296C26.9447 72.2331 26.6598 72.193 26.3859 72.1108C26.1422 72.0374 25.9162 71.915 25.7217 71.751C25.5272 71.5871 25.3684 71.3852 25.2549 71.1576C25.219 71.0891 25.211 71.0094 25.2327 70.9352C25.4125 70.3221 26.2813 67.1356 25.727 64.6025C25.6487 64.2506 25.6422 63.8865 25.7078 63.532C25.7735 63.1776 25.9099 62.8399 26.109 62.5393C26.3034 62.241 26.556 61.9849 26.8517 61.7862C27.1473 61.5875 27.48 61.4504 27.8299 61.383V61.3829C27.9219 61.365 28.0143 61.3503 28.1047 61.3391C28.4914 61.2916 28.8839 61.33 29.2541 61.4517C29.6242 61.5733 29.9629 61.7752 30.2458 62.0429C30.5372 62.3158 30.7645 62.6497 30.9116 63.0207C31.0586 63.3916 31.1218 63.7905 31.0965 64.1887L30.6704 71.0188C30.6675 71.07 30.6513 71.1195 30.6234 71.1626C30.5955 71.2056 30.5568 71.2407 30.5113 71.2643C30.0206 71.5212 28.5466 72.2296 27.2307 72.2296Z" fill="#3F3D56"/>
<path d="M30.0706 57.984C29.9012 57.5588 29.591 57.2045 29.1918 56.9802C28.7925 56.756 28.3283 56.6753 27.8767 56.7517L28.3907 57.1666C27.7521 57.1881 27.0798 57.1424 26.6238 57.5896C26.769 57.5856 26.9592 57.8958 27.1044 57.8918C26.9685 57.9013 26.8377 57.9471 26.7256 58.0244C26.6135 58.1016 26.5242 58.2075 26.467 58.331C26.356 58.5809 26.33 58.8604 26.393 59.1265C26.5576 59.518 26.7489 59.8978 26.9656 60.263C26.9467 59.6152 28.2234 58.0699 28.8469 58.2312C28.5301 58.3486 28.2553 58.557 28.057 58.8303C28.4811 58.6164 28.9608 58.538 29.431 58.6057C29.5384 58.6303 29.6492 58.6365 29.7586 58.624C29.8257 58.6108 29.8882 58.5805 29.9403 58.5363C29.9923 58.492 30.0322 58.4351 30.056 58.3711C30.0797 58.307 30.0867 58.2379 30.0761 58.1705C30.0656 58.103 30.0379 58.0393 29.9957 57.9856L30.0706 57.984Z" fill="#2F2E41"/>
<path d="M27.1172 71.82C27.076 71.8199 27.0353 71.8113 26.9976 71.7948L23.9044 70.446C23.8387 70.4179 23.7854 70.367 23.7542 70.3027C23.7231 70.2384 23.7162 70.1651 23.7349 70.0961L25.7826 62.3685C25.8207 62.2247 25.8871 62.09 25.9779 61.9721C26.0688 61.8543 26.1822 61.7557 26.3117 61.6822C26.4411 61.6087 26.5839 61.5618 26.7317 61.5441C26.8796 61.5264 27.0294 61.5383 27.1726 61.5792L27.9914 61.8127L27.415 71.539C27.412 71.587 27.3975 71.6335 27.3727 71.6747C27.3479 71.7159 27.3136 71.7506 27.2725 71.7757C27.2259 71.8045 27.1721 71.8199 27.1172 71.82Z" fill="#6C63FF"/>
<path d="M32.844 70.0953L32.7079 69.5827L32.5107 68.8374L32.4158 68.48L32.2187 67.7367L30.7962 62.3676C30.7583 62.2238 30.692 62.0889 30.6012 61.971C30.5103 61.8531 30.3969 61.7546 30.2674 61.6811C30.1379 61.6076 29.9951 61.5606 29.8472 61.543C29.6993 61.5254 29.5494 61.5375 29.4063 61.5785L28.5879 61.8119L28.9934 68.6531L29.0353 69.3672L29.0618 69.8175V69.8181L29.1043 70.5283L29.1641 71.5382C29.1689 71.614 29.2024 71.6852 29.2577 71.7374C29.313 71.7895 29.386 71.8188 29.4621 71.8194C29.5032 71.8191 29.5438 71.8105 29.5816 71.7942L32.6747 70.4454C32.7404 70.4173 32.7938 70.3664 32.8249 70.302C32.856 70.2377 32.8628 70.1642 32.844 70.0953Z" fill="#6C63FF"/>
<path d="M32.4147 68.481L29.0341 69.368L28.9922 68.654L32.2175 67.7373L32.4147 68.481Z" fill="#CCCCCC"/>
<path d="M32.7068 69.5824L29.1031 70.528L29.0605 69.8176V69.8169L32.5096 68.8369L32.7068 69.5824Z" fill="#CCCCCC"/>
<path d="M27.543 68.8074L27.5011 69.5082L24.1855 68.5217L24.3799 67.7881L27.543 68.8074Z" fill="#CCCCCC"/>
<path d="M27.4763 69.9697L24.0931 68.8789L23.8984 69.6144L27.4351 70.6666L27.4763 69.9697Z" fill="#CCCCCC"/>
<path d="M24.1505 70.7027C24.2514 70.6764 24.3452 70.6284 24.4255 70.5619C24.5057 70.4954 24.5704 70.4122 24.615 70.3181C24.6596 70.2239 24.683 70.1212 24.6835 70.0171C24.684 69.9129 24.6617 69.8099 24.618 69.7153L26.2085 64.7272L25.0807 64.4912L23.6225 69.3817C23.4683 69.4655 23.3502 69.6028 23.2906 69.7678C23.231 69.9327 23.2341 70.1137 23.2992 70.2765C23.3642 70.4393 23.4869 70.5727 23.6438 70.6512C23.8007 70.7298 23.981 70.7481 24.1505 70.7027V70.7027Z" fill="#FFB8B8"/>
<path d="M26.2536 62.2744C26.5774 62.3074 26.7596 62.6712 26.6791 63.1241L26.2927 65.2976C26.2637 65.4606 26.1295 65.5896 26.0179 65.5617L24.711 65.2353C24.6104 65.2102 24.5733 65.0675 24.6303 64.9246L25.415 62.9583C25.468 62.7724 25.5769 62.6072 25.7268 62.4849C25.8768 62.3626 26.0606 62.2892 26.2536 62.2744Z" fill="#3F3D56"/>
<path d="M28.2237 56.1338C28.7754 56.1338 29.3055 56.3484 29.7016 56.7321C30.0978 57.1158 30.3289 57.6384 30.346 58.1894H30.746C30.7812 58.1894 30.8149 58.2034 30.8398 58.2282C30.8647 58.2531 30.8787 58.2868 30.8787 58.322V58.8525C30.8787 58.8877 30.8647 58.9214 30.8398 58.9463C30.8149 58.9711 30.7812 58.9851 30.746 58.9851H26.2324C26.1972 58.9851 26.1634 58.9711 26.1385 58.9463C26.1136 58.9214 26.0996 58.8877 26.0996 58.8525V58.2557C26.0996 57.977 26.1545 57.7011 26.2613 57.4437C26.368 57.1862 26.5245 56.9523 26.7217 56.7553C26.919 56.5582 27.1531 56.402 27.4108 56.2953C27.6685 56.1887 27.9447 56.1338 28.2237 56.1338Z" fill="#6C63FF"/>
<path d="M28.4771 69.251H27.5388C27.5087 69.2511 27.4796 69.24 27.4573 69.2198C27.435 69.1996 27.4211 69.1718 27.4183 69.1418L27.2305 67.2188H28.7854L28.5976 69.1418C28.5948 69.1718 28.5809 69.1996 28.5586 69.2198C28.5363 69.24 28.5072 69.2511 28.4771 69.251Z" fill="#E6E6E6"/>
<path d="M28.7824 67.46H27.2324C27.2003 67.46 27.1695 67.4472 27.1468 67.4245C27.1241 67.4018 27.1114 67.3711 27.1113 67.339V67.0487C27.1114 67.0166 27.1241 66.9859 27.1468 66.9632C27.1695 66.9405 27.2003 66.9278 27.2324 66.9277H28.7824C28.8145 66.9278 28.8453 66.9405 28.868 66.9632C28.8907 66.9859 28.9034 67.0166 28.9035 67.0487V67.339C28.9034 67.3711 28.8907 67.4018 28.868 67.4245C28.8453 67.4472 28.8145 67.46 28.7824 67.46Z" fill="#CCCCCC"/>
<path d="M28.0279 68.2187C28.0644 68.2229 28.1005 68.2299 28.1359 68.2398L30.6347 66.0991L30.4886 65.3136L31.6464 64.9385L32.0403 66.3039C32.0721 66.4142 32.0672 66.5318 32.0264 66.6391C31.9856 66.7464 31.9111 66.8376 31.814 66.899L28.6493 68.8996C28.6515 69.0409 28.6107 69.1796 28.5321 69.2971C28.4535 69.4147 28.341 69.5056 28.2095 69.5577C28.0779 69.6098 27.9336 69.6206 27.7958 69.5888C27.6579 69.557 27.533 69.484 27.4377 69.3796C27.3424 69.2751 27.2812 69.1441 27.2622 69.0041C27.2432 68.864 27.2673 68.7215 27.3314 68.5954C27.3955 68.4694 27.4964 68.3659 27.6209 68.2985C27.7453 68.2312 27.8873 68.2034 28.0279 68.2187H28.0279Z" fill="#FFB8B8"/>
<path d="M30.6409 62.4545C30.9868 62.3578 31.3325 62.6208 31.4483 63.0689L32.0041 65.2194C32.0458 65.3806 31.9649 65.5519 31.8385 65.57L30.3578 65.7828C30.2439 65.7992 30.1435 65.6825 30.1393 65.5287L30.0818 63.4126C30.0598 63.2141 30.1023 63.0138 30.203 62.8413C30.3036 62.6688 30.4572 62.5332 30.6409 62.4545Z" fill="#3F3D56"/>
<path d="M47.4704 68.2718H46.3431C46.3069 68.2719 46.272 68.2585 46.2452 68.2342C46.2184 68.2099 46.2017 68.1765 46.1983 68.1406L45.9727 65.8301H47.8408L47.6152 68.1405C47.6118 68.1765 47.5951 68.2099 47.5683 68.2342C47.5415 68.2585 47.5066 68.2719 47.4704 68.2718Z" fill="#E6E6E6"/>
<path d="M47.8378 66.1209H45.9756C45.937 66.1209 45.9 66.1055 45.8727 66.0783C45.8455 66.0511 45.8301 66.0141 45.8301 65.9756V65.6268C45.8301 65.5882 45.8455 65.5513 45.8727 65.5241C45.9 65.4968 45.937 65.4815 45.9756 65.4814H47.8378C47.8763 65.4815 47.9133 65.4968 47.9406 65.5241C47.9679 65.5513 47.9832 65.5882 47.9832 65.6268V65.9756C47.9832 66.0141 47.9679 66.0511 47.9406 66.0783C47.9133 66.1055 47.8763 66.1209 47.8378 66.1209Z" fill="#CCCCCC"/>
<path d="M58.5458 81.8407C57.7268 80.7523 57.0793 79.5452 56.6258 78.2611C56.5996 78.1843 56.6014 78.1007 56.6311 78.0251C56.6608 77.9496 56.7163 77.887 56.7879 77.8485L59.5906 76.3482C59.636 76.3238 59.6863 76.31 59.7378 76.3079C59.7892 76.3058 59.8405 76.3155 59.8877 76.3362C59.9358 76.3571 59.9784 76.3886 60.0124 76.4284C60.0465 76.4682 60.0709 76.5153 60.084 76.566C60.4102 77.8033 61.0234 78.9466 61.874 79.9033C61.909 79.9422 61.9346 79.9886 61.949 80.0389C61.9633 80.0893 61.966 80.1422 61.9568 80.1937C61.9479 80.2445 61.9275 80.2925 61.8973 80.3341C61.867 80.3758 61.8277 80.41 61.7822 80.4342L58.9794 81.9344C58.9077 81.9726 58.8248 81.9842 58.7454 81.967C58.666 81.9498 58.5953 81.9051 58.5458 81.8407Z" fill="#CCCCCC"/>
<path d="M58.7381 81.6973C58.7532 81.7161 58.7744 81.7291 58.798 81.734C58.8216 81.7388 58.8462 81.7353 58.8675 81.724L61.6703 80.2237C61.6839 80.2167 61.6956 80.2065 61.7047 80.1941C61.7137 80.1817 61.7197 80.1674 61.7223 80.1523C61.7252 80.1363 61.7244 80.1199 61.7199 80.1043C61.7154 80.0887 61.7074 80.0744 61.6964 80.0624C60.8208 79.0776 60.1895 77.9006 59.8537 76.6268C59.8498 76.6111 59.8423 76.5965 59.8318 76.5841C59.8213 76.5717 59.8081 76.562 59.7932 76.5555C59.7792 76.5493 59.7639 76.5463 59.7485 76.547C59.7332 76.5476 59.7181 76.5518 59.7047 76.5592L56.902 78.0594C56.8807 78.0709 56.8642 78.0894 56.8552 78.1117C56.8461 78.1341 56.8452 78.1589 56.8526 78.1819C57.2979 79.4429 57.9338 80.6285 58.7381 81.6973Z" fill="white"/>
<path d="M59.775 78.4893L58.2485 79.1624C58.1905 79.188 58.1246 79.1894 58.0655 79.1666C58.0064 79.1437 57.9587 79.0983 57.933 79.0403L57.8953 78.9549C57.8697 78.8969 57.8683 78.8311 57.8912 78.772C57.9141 78.7129 57.9595 78.6654 58.0175 78.6397L59.544 77.9666C59.6021 77.941 59.6679 77.9396 59.727 77.9625C59.7862 77.9854 59.8338 78.0307 59.8595 78.0887L59.8973 78.1741C59.9228 78.2321 59.9243 78.2979 59.9014 78.357C59.8785 78.4161 59.833 78.4636 59.775 78.4893Z" fill="#CCCCCC"/>
<path d="M60.3336 79.5254L58.8071 80.1986C58.7491 80.2241 58.6832 80.2256 58.6241 80.2027C58.565 80.1798 58.5173 80.1344 58.4916 80.0764L58.4539 79.991C58.4283 79.933 58.4269 79.8673 58.4498 79.8082C58.4727 79.7491 58.5181 79.7015 58.5761 79.6758L60.1026 79.0027C60.1607 78.9772 60.2265 78.9757 60.2856 78.9986C60.3448 79.0215 60.3924 79.0669 60.4181 79.1248L60.4559 79.2103C60.4814 79.2683 60.4829 79.334 60.46 79.3931C60.4371 79.4522 60.3916 79.4998 60.3336 79.5254Z" fill="#CCCCCC"/>
<path d="M56.7535 78.6618C56.6482 78.5941 56.559 78.5042 56.4922 78.3983C56.4254 78.2925 56.3827 78.1733 56.367 78.0492C56.3514 77.925 56.3631 77.799 56.4015 77.6799C56.4398 77.5608 56.5039 77.4515 56.5891 77.3598L55.9453 68.2334L57.7997 68.4131L57.8506 77.3506C57.9953 77.5038 58.0788 77.7047 58.0851 77.9153C58.0915 78.1258 58.0203 78.3314 57.8851 78.493C57.7498 78.6546 57.56 78.7611 57.3514 78.7922C57.1429 78.8233 56.9301 78.7769 56.7535 78.6618Z" fill="#A0616A"/>
<path d="M56.3637 71.3002C56.3203 71.269 56.2844 71.2284 56.2588 71.1816C56.2331 71.1347 56.2183 71.0826 56.2155 71.0293L56.0796 68.5695C56.0662 68.3258 56.1435 68.0857 56.2968 67.8956C56.45 67.7055 56.6682 67.5788 56.9094 67.54C57.1506 67.5011 57.3977 67.5528 57.603 67.6851C57.8083 67.8175 57.9572 68.021 58.0212 68.2566L58.618 70.4558C58.6428 70.5476 58.6302 70.6454 58.5829 70.7279C58.5355 70.8103 58.4574 70.8706 58.3656 70.8956L56.6677 71.3555C56.6162 71.3696 56.5621 71.3719 56.5094 71.3624C56.4568 71.3528 56.407 71.3315 56.3637 71.3002Z" fill="#3F3D56"/>
<path d="M53.1564 87.9838L52.0801 87.9325C51.9885 87.9281 51.9019 87.8889 51.8383 87.8227C51.7748 87.7566 51.739 87.6686 51.7384 87.577C51.4546 83.2017 51.0616 78.5103 51.6632 76.698C51.6629 76.6463 51.6737 76.5952 51.6949 76.5481C51.7162 76.501 51.7474 76.4591 51.7863 76.4252C51.8253 76.3912 51.8712 76.3661 51.9207 76.3515C51.9703 76.3369 52.0225 76.3332 52.0737 76.3406L56.3795 76.965C56.4646 76.9769 56.5425 77.0191 56.5989 77.0838C56.6554 77.1485 56.6866 77.2313 56.6868 77.3172C57.2365 79.4631 57.2614 83.3545 57.2406 87.3977C57.2409 87.445 57.2319 87.4919 57.214 87.5357C57.1962 87.5795 57.1698 87.6194 57.1364 87.6529C57.1031 87.6865 57.0634 87.7132 57.0197 87.7313C56.976 87.7495 56.9291 87.7589 56.8817 87.7589H55.7214C55.6358 87.7593 55.5529 87.7289 55.4878 87.6733C55.4228 87.6177 55.3799 87.5406 55.3669 87.4561L54.651 82.9098C54.6405 82.8433 54.6063 82.7828 54.5547 82.7395C54.5031 82.6962 54.4375 82.673 54.3701 82.6742C54.3027 82.6755 54.2381 82.7011 54.1881 82.7462C54.1381 82.7914 54.1061 82.8531 54.0981 82.92L53.5298 87.6683C53.5191 87.7553 53.477 87.8354 53.4114 87.8935C53.3458 87.9517 53.2612 87.9839 53.1735 87.9842C53.1678 87.9842 53.1621 87.9841 53.1564 87.9838Z" fill="#2F2E41"/>
<path d="M53.914 77.318C53.2855 76.9491 52.5889 76.7108 51.8661 76.6172C51.8185 76.6126 51.7725 76.5985 51.7306 76.5756C51.6888 76.5527 51.652 76.5215 51.6225 76.484C51.5925 76.4462 51.5704 76.4027 51.5576 76.3561C51.5448 76.3095 51.5417 76.2608 51.5483 76.213L52.58 68.5609C52.6394 68.1133 52.8125 67.6883 53.0828 67.3263C53.3531 66.9643 53.7116 66.6775 54.1242 66.493C54.5236 66.3096 54.9634 66.2314 55.4016 66.2657C55.8398 66.3 56.262 66.4458 56.6279 66.6891C56.6633 66.7126 56.698 66.7366 56.732 66.7611C57.1534 67.0695 57.4739 67.4957 57.6533 67.9858C57.8326 68.476 57.8627 69.0082 57.7397 69.5154C57.107 72.101 56.8897 76.3398 56.8526 77.1633C56.8497 77.2335 56.826 77.3012 56.7846 77.358C56.7432 77.4148 56.6859 77.4581 56.6199 77.4823C56.2306 77.6237 55.8198 77.6967 55.4057 77.6983C54.884 77.7015 54.3703 77.5705 53.914 77.318Z" fill="#3F3D56"/>
<path d="M54.779 65.4534C55.8607 65.4534 56.7377 64.5774 56.7377 63.4967C56.7377 62.4161 55.8607 61.54 54.779 61.54C53.6972 61.54 52.8203 62.4161 52.8203 63.4967C52.8203 64.5774 53.6972 65.4534 54.779 65.4534Z" fill="#A0616A"/>
<path d="M56.1636 65.0449C56.0817 65.1331 55.9763 65.1961 55.8598 65.2265C55.7433 65.257 55.6205 65.2536 55.5059 65.2167C55.3912 65.1798 55.2895 65.111 55.2127 65.0184C55.1358 64.9258 55.087 64.8131 55.072 64.6938C55.0683 64.6525 55.0686 64.611 55.0728 64.5698C55.1442 64.3436 55.1872 64.1093 55.2009 63.8724C55.1935 63.8106 55.1705 63.7517 55.1339 63.7012C54.8427 63.3117 54.1592 63.8755 53.8844 63.5229C53.7159 63.3066 53.914 62.9662 53.7847 62.7246C53.614 62.4056 53.1085 62.5629 52.7915 62.3883C52.4388 62.1939 52.4599 61.6533 52.6921 61.3245C52.8432 61.1302 53.0353 60.9716 53.2548 60.86C53.4743 60.7483 53.7158 60.6864 53.9619 60.6787C54.4548 60.6671 54.9444 60.7625 55.3968 60.9584C55.931 61.132 56.4024 61.4586 56.7525 61.8975C56.9336 62.1853 57.0484 62.5098 57.0886 62.8474C57.1287 63.185 57.0931 63.5273 56.9845 63.8495C56.7929 64.2984 56.5139 64.7047 56.1636 65.0449Z" fill="#2F2E41"/>
<path d="M57.7147 66.9486C57.6804 66.7877 57.3861 66.5678 56.965 66.3885C56.2882 66.1147 55.5562 66.0044 54.8287 66.0667C54.1011 66.129 53.3986 66.3621 52.7783 66.7471C52.7351 66.7494 52.6937 66.7658 52.6607 66.7939C52.6277 66.822 52.6049 66.8601 52.5957 66.9024L51.1794 73.1602L50.9952 73.9752L50.8732 74.5145L50.6889 75.3271L50.5908 75.7613C50.5846 75.7891 50.5843 75.8178 50.5901 75.8457C50.5958 75.8736 50.6075 75.8999 50.6242 75.9229C50.641 75.9459 50.6625 75.9651 50.6873 75.9791C50.712 75.9931 50.7395 76.0017 50.7679 76.0043L56.8837 76.5317C56.8893 76.5317 56.8957 76.5325 56.9012 76.5325C56.9517 76.5322 57.0002 76.5128 57.0369 76.4782C57.0736 76.4436 57.0958 76.3964 57.099 76.3461L57.1572 75.461L57.2195 74.5145L57.2465 74.1042L57.308 73.1602L57.7155 66.959V66.9534L57.7147 66.9486Z" fill="#6C63FF"/>
<path d="M47.6792 67.3414C47.689 67.3844 47.6954 67.4281 47.6983 67.4721L51.124 69.4464L51.9567 68.9675L52.8444 70.1285L51.0631 71.3968L47.1548 68.3167C46.9954 68.3756 46.8219 68.3846 46.6572 68.3426C46.4925 68.3006 46.3445 68.2095 46.233 68.0814C46.1214 67.9533 46.0515 67.7943 46.0326 67.6256C46.0136 67.4568 46.0466 67.2864 46.127 67.1368C46.2074 66.9872 46.3315 66.8656 46.4828 66.7882C46.6341 66.7108 46.8054 66.6813 46.9739 66.7035C47.1424 66.7257 47.3001 66.7986 47.4261 66.9126C47.5521 67.0266 47.6404 67.1761 47.6792 67.3414V67.3414Z" fill="#A0616A"/>
<path d="M51.2481 69.2786C51.2424 69.2255 51.2487 69.1718 51.2666 69.1214C51.2844 69.071 51.3134 69.0253 51.3513 68.9876L53.0948 67.2454C53.2676 67.0728 53.4982 66.9702 53.7421 66.9574C53.9861 66.9446 54.2262 67.0225 54.4161 67.1761C54.606 67.3296 54.7323 67.548 54.7705 67.7891C54.8088 68.0301 54.7564 68.2768 54.6234 68.4815L53.3817 70.3929C53.3299 70.4726 53.2485 70.5284 53.1554 70.5482C53.0623 70.568 52.9652 70.5501 52.8854 70.4985L51.4097 69.5418C51.3648 69.5128 51.3269 69.4741 51.299 69.4285C51.271 69.383 51.2536 69.3318 51.2481 69.2786Z" fill="#3F3D56"/>
<path d="M57.307 73.1592L57.2458 74.1034L50.9941 73.9743L51.1785 73.1592H57.307Z" fill="#CCCCCC"/>
<path d="M57.2199 74.5137L57.1577 75.4601L50.6895 75.3263L50.8738 74.5137H57.2199Z" fill="#CCCCCC"/>
<path d="M54.8168 59.6953C54.1539 59.6954 53.5171 59.9532 53.0412 60.4142C52.5652 60.8751 52.2875 61.5031 52.267 62.165H51.7864C51.7441 62.165 51.7036 62.1818 51.6737 62.2116C51.6438 62.2415 51.627 62.282 51.627 62.3243V62.9616C51.627 63.0039 51.6438 63.0444 51.6737 63.0743C51.7036 63.1042 51.7441 63.121 51.7864 63.121H57.2093C57.2516 63.121 57.2921 63.1042 57.322 63.0743C57.352 63.0444 57.3688 63.0039 57.3688 62.9616V62.2446C57.3688 61.9099 57.3028 61.5784 57.1745 61.2691C57.0463 60.9598 56.8583 60.6787 56.6213 60.442C56.3844 60.2052 56.103 60.0175 55.7934 59.8894C55.4838 59.7612 55.152 59.6953 54.8168 59.6953Z" fill="#6C63FF"/>
<path d="M147.802 65.1611C147.857 65.1065 147.9 65.0404 147.927 64.9676C147.954 64.8948 147.965 64.8169 147.958 64.7395C147.952 64.6621 147.928 64.5871 147.89 64.5197C147.851 64.4523 147.798 64.3942 147.735 64.3494L147.466 62.5811L146.363 62.9278L146.968 64.5055C146.899 64.6171 146.874 64.7498 146.898 64.8784C146.921 65.0071 146.99 65.1228 147.093 65.2036C147.196 65.2844 147.325 65.3247 147.456 65.3169C147.586 65.309 147.71 65.2536 147.802 65.1611Z" fill="#FFB8B8"/>
<path d="M146.665 64.3292L145.985 61.1549C145.919 60.8509 145.932 60.5349 146.023 60.2373C146.114 59.9397 146.28 59.6704 146.505 59.4552C147.376 58.6168 148.495 57.5601 148.881 57.2868C149.244 57.0284 149.683 56.8989 150.129 56.919L150.138 56.9201L150.723 57.4726L149.448 59.5692L147.513 60.7806L147.728 63.8917L146.665 64.3292Z" fill="#6C63FF"/>
<path d="M149.048 60.0156H146.193C146.069 60.0156 145.969 60.1158 145.969 60.2393C145.969 60.3629 146.069 60.463 146.193 60.463H149.048C149.172 60.463 149.272 60.3629 149.272 60.2393C149.272 60.1158 149.172 60.0156 149.048 60.0156Z" fill="#CCCCCC"/>
<path d="M149.048 64.8818H146.193C146.069 64.8818 145.969 64.982 145.969 65.1055C145.969 65.2291 146.069 65.3293 146.193 65.3293H149.048C149.172 65.3293 149.272 65.2291 149.272 65.1055C149.272 64.982 149.172 64.8818 149.048 64.8818Z" fill="#CCCCCC"/>
<path d="M147.651 77.0732C147.623 77.0731 147.596 77.0627 147.575 77.0438C147.554 77.025 147.542 76.999 147.539 76.9712L146.112 60.2492C146.11 60.2345 146.112 60.2197 146.116 60.2057C146.121 60.1916 146.128 60.1786 146.137 60.1673C146.147 60.156 146.158 60.1467 146.171 60.1399C146.184 60.133 146.199 60.1288 146.213 60.1275C146.228 60.1262 146.243 60.1278 146.257 60.1323C146.271 60.1367 146.284 60.1438 146.295 60.1533C146.307 60.1628 146.316 60.1743 146.323 60.1874C146.329 60.2005 146.334 60.2147 146.335 60.2294L147.649 75.6792L148.926 60.2296C148.927 60.215 148.931 60.2007 148.938 60.1876C148.945 60.1745 148.954 60.1629 148.965 60.1534C148.977 60.1439 148.99 60.1367 149.004 60.1322C149.018 60.1277 149.032 60.1261 149.047 60.1274C149.062 60.1286 149.076 60.1328 149.089 60.1396C149.102 60.1464 149.114 60.1557 149.123 60.167C149.133 60.1783 149.14 60.1913 149.144 60.2054C149.149 60.2194 149.15 60.2342 149.149 60.2489L147.762 76.9709C147.76 76.9988 147.747 77.0248 147.726 77.0437C147.706 77.0626 147.679 77.0731 147.651 77.0732L147.651 77.0732Z" fill="#CCCCCC"/>
<path d="M150.856 56.2493C151.667 56.2493 152.325 55.5923 152.325 54.7819C152.325 53.9714 151.667 53.3145 150.856 53.3145C150.044 53.3145 149.387 53.9714 149.387 54.7819C149.387 55.5923 150.044 56.2493 150.856 56.2493Z" fill="#FFB8B8"/>
<path d="M146.476 76.4019L145.777 76.1795L146.304 73.3818L147.335 73.7101L146.476 76.4019Z" fill="#FFB8B8"/>
<path d="M146.436 77.0217L144.188 76.3056L144.206 76.2472C144.278 76.024 144.435 75.8382 144.643 75.7306C144.852 75.623 145.094 75.6024 145.318 75.6733L146.724 76.1209L146.436 77.0217Z" fill="#2F2E41"/>
<path d="M151.559 76.3887H150.826L150.477 73.5635H151.559V76.3887Z" fill="#FFB8B8"/>
<path d="M149.439 77.0405H151.688V76.207H150.269C150.049 76.2073 149.838 76.2946 149.683 76.4499C149.527 76.6052 149.44 76.8157 149.439 77.0352V77.0405Z" fill="#2F2E41"/>
<path d="M151.538 75.4715L151.29 75.4346C150.979 75.416 150.672 75.3586 150.375 75.2639C150.315 75.2372 150.31 74.8337 150.347 72.5652C150.374 70.9 150.407 68.8276 150.342 67.7151C150.34 67.6712 150.322 67.6295 150.293 67.5966C150.264 67.5638 150.224 67.5418 150.181 67.5342C150.137 67.5266 150.093 67.5338 150.054 67.5546C150.015 67.5754 149.984 67.6087 149.967 67.649C149.409 68.9374 148.472 71.8206 147.852 73.7285C147.636 74.3921 147.466 74.9163 147.358 75.2305C147.337 75.2899 147.295 75.3395 147.239 75.3695C147.184 75.3994 147.119 75.4077 147.058 75.3926C146.548 75.2652 146.582 75.211 145.855 75.0232C145.792 75.0072 145.738 74.9675 145.704 74.9125C145.67 74.8574 145.658 74.7913 145.671 74.7278C145.803 74.1086 148.208 64.0683 148.392 63.1138C148.399 63.0812 148.411 63.05 148.43 63.0223C148.448 62.9945 148.472 62.9707 148.499 62.9521C148.527 62.9335 148.558 62.9206 148.591 62.9141C148.623 62.9075 148.657 62.9076 148.689 62.9141C149.231 63.0231 149.561 63.1387 150.096 63.2506C150.673 63.3712 151.27 63.496 151.853 63.6125C151.911 63.6242 151.963 63.656 151.999 63.7023C152.162 63.8757 152.361 64.0098 152.584 64.0943C152.736 64.1671 152.39 64.1606 152.523 64.2656C153.061 64.6911 152.288 73.3306 151.82 75.2819C151.805 75.343 151.768 75.3963 151.716 75.4314C151.663 75.4664 151.6 75.4808 151.538 75.4715V75.4715Z" fill="#2F2E41"/>
<path d="M151.481 56.0669C151.395 55.7034 151.829 54.9212 151.743 54.5577C151.685 54.3115 151.106 54.4788 150.97 54.265C150.908 54.1548 150.819 54.0616 150.712 53.9937C150.604 53.9257 150.482 53.885 150.356 53.8751C150.065 53.8719 149.778 54.0875 149.503 53.9943C149.437 53.962 149.379 53.917 149.332 53.8621C149.284 53.8071 149.248 53.7432 149.225 53.6742C149.202 53.6051 149.193 53.5322 149.199 53.4597C149.205 53.3872 149.225 53.3165 149.258 53.2518C149.406 52.9948 149.635 52.7941 149.909 52.6815C150.341 52.4177 150.859 52.3308 151.354 52.4389C151.637 52.5486 151.896 52.7115 152.118 52.9188C152.34 53.0832 152.535 53.2813 152.697 53.5058C152.834 53.7398 152.908 54.0051 152.912 54.2762C152.917 54.5473 152.851 54.8149 152.722 55.0532C152.454 55.5288 152.028 55.8954 151.517 56.0888" fill="#2F2E41"/>
<path d="M147.873 64.5265C148.032 64.2619 148.273 63.0222 148.57 60.9414C148.772 59.5209 148.948 58.0776 149.035 57.3403C149.042 57.2807 149.064 57.2237 149.099 57.1748C149.133 57.1259 149.18 57.0866 149.234 57.0606C149.291 57.0333 149.347 57.0074 149.403 56.983C150.076 56.6755 150.823 56.5667 151.555 56.6695C152.288 56.7723 152.976 57.0824 153.537 57.5633L153.544 57.5695L153.546 57.5783C153.549 57.5947 153.852 59.228 153.231 60.3315C152.618 61.4204 152.611 64.3038 152.611 64.3328V64.3699L152.575 64.3597C151.622 64.0875 147.938 64.5637 147.901 64.5686L147.844 64.576L147.873 64.5265Z" fill="#6C63FF"/>
<path d="M153.417 60.7432H150.562C150.438 60.7432 150.338 60.8433 150.338 60.9669C150.338 61.0904 150.438 61.1906 150.562 61.1906H153.417C153.541 61.1906 153.641 61.0904 153.641 60.9669C153.641 60.8433 153.541 60.7432 153.417 60.7432Z" fill="#CCCCCC"/>
<path d="M153.417 65.6084H150.562C150.438 65.6084 150.338 65.7086 150.338 65.8321C150.338 65.9557 150.438 66.0558 150.562 66.0558H153.417C153.541 66.0558 153.641 65.9557 153.641 65.8321C153.641 65.7086 153.541 65.6084 153.417 65.6084Z" fill="#CCCCCC"/>
<path d="M152.016 77.1296C151.988 77.1296 151.961 77.1191 151.94 77.1002C151.92 77.0813 151.907 77.0554 151.904 77.0276L150.477 60.9767C150.474 60.9471 150.484 60.9178 150.503 60.895C150.522 60.8723 150.549 60.858 150.579 60.8554C150.608 60.8528 150.638 60.862 150.66 60.881C150.683 60.9001 150.697 60.9274 150.7 60.9569L152.014 75.7356L153.291 60.9572C153.292 60.9425 153.296 60.9282 153.303 60.9151C153.31 60.902 153.319 60.8904 153.33 60.8809C153.342 60.8714 153.355 60.8642 153.369 60.8597C153.383 60.8553 153.398 60.8536 153.412 60.8549C153.427 60.8562 153.441 60.8603 153.454 60.8671C153.468 60.8739 153.479 60.8832 153.489 60.8945C153.498 60.9058 153.505 60.9188 153.51 60.9329C153.514 60.947 153.516 60.9617 153.514 60.9764L152.127 77.0273C152.125 77.0552 152.112 77.0812 152.092 77.1001C152.071 77.119 152.044 77.1295 152.016 77.1296L152.016 77.1296Z" fill="#CCCCCC"/>
<path d="M151.094 65.6789C151.078 65.6031 151.078 65.5245 151.095 65.4487C151.112 65.373 151.145 65.3018 151.193 65.2403C151.24 65.1788 151.301 65.1285 151.37 65.0929C151.439 65.0573 151.515 65.0372 151.592 65.0341L152.78 63.6953L153.517 64.5851L152.152 65.5816C152.148 65.7123 152.097 65.8372 152.007 65.9326C151.918 66.028 151.797 66.0874 151.666 66.0994C151.536 66.1114 151.406 66.0752 151.3 65.9977C151.195 65.9202 151.122 65.8068 151.094 65.6789H151.094Z" fill="#FFB8B8"/>
<path d="M151.785 64.7476L153.658 62.2528L152.692 60.1852L152.762 57.7331L153.554 57.5869L153.563 57.5911C153.947 57.8159 154.246 58.1629 154.41 58.5768C154.586 59.0161 154.95 60.5108 155.225 61.6873C155.297 61.9901 155.29 62.3063 155.205 62.6055C155.119 62.9047 154.958 63.177 154.737 63.3963L152.439 65.6917L151.785 64.7476Z" fill="#6C63FF"/>
<path d="M143.934 76.4356L146.497 77.0519C146.546 77.065 146.599 77.0603 146.646 77.0386C146.692 77.0169 146.73 76.9795 146.752 76.933L148.953 71.0863C148.963 71.0639 148.968 71.0396 148.968 71.0152C148.968 70.9907 148.963 70.9664 148.953 70.9439C148.942 70.9187 148.926 70.896 148.906 70.8771C148.885 70.8583 148.862 70.8437 148.836 70.8343L146.909 70.0993C146.879 70.0876 146.846 70.0825 146.814 70.0843C146.781 70.0861 146.749 70.0948 146.72 70.1097C146.695 70.1221 146.673 70.1398 146.655 70.1615C146.637 70.1832 146.624 70.2085 146.617 70.2357L146.617 70.2359L145.257 75.3889L145.237 75.3902C144.815 75.4149 144.414 75.5819 144.099 75.864C144.034 75.9428 143.985 76.0342 143.957 76.1326C143.929 76.2309 143.921 76.3341 143.934 76.4356Z" fill="#CCCCCC"/>
<path d="M145.791 73.1583L145.779 73.2695L148.116 73.5167L148.127 73.4054L145.791 73.1583Z" fill="#B3B3B3"/>
<path d="M145.587 74.0786L145.541 74.1807L147.421 75.0257L147.467 74.9236L145.587 74.0786Z" fill="#B3B3B3"/>
<path d="M148.372 72.6223L146.156 71.889L146.202 71.7871L148.418 72.5201L148.372 72.6223Z" fill="#B3B3B3"/>
<path d="M148.597 72.1192L146.381 71.0505L146.427 70.9482L148.643 72.0169L148.597 72.1192Z" fill="#B3B3B3"/>
<path d="M145.391 74.955L145.318 75.04L146.916 76.4035L146.989 76.3185L145.391 74.955Z" fill="#B3B3B3"/>
<path d="M144.938 75.4079L144.836 75.4541L145.477 76.8674L145.579 76.8212L144.938 75.4079Z" fill="#B3B3B3"/>
<path d="M207.389 65.6302C207.294 65.6082 207.205 65.5656 207.128 65.5055C207.052 65.4454 206.989 65.3692 206.945 65.2824C206.901 65.1955 206.876 65.1 206.873 65.0027C206.87 64.9054 206.888 64.8085 206.927 64.719L204.469 59.1712L205.875 58.8174L207.849 64.382C207.995 64.4564 208.109 64.5818 208.169 64.7344C208.229 64.8871 208.231 65.0564 208.174 65.2102C208.117 65.3641 208.006 65.4918 207.861 65.5692C207.717 65.6466 207.549 65.6683 207.389 65.6302Z" fill="#A0616A"/>
<path d="M204.925 60.9081C204.886 60.8906 204.851 60.8648 204.823 60.8325C204.794 60.8003 204.773 60.7623 204.761 60.7211L204.331 59.2849C204.237 59.0859 204.226 58.8578 204.301 58.6508C204.375 58.4437 204.529 58.2747 204.728 58.1808C204.927 58.087 205.156 58.076 205.363 58.1504C205.57 58.2247 205.739 58.3782 205.833 58.5772L206.664 59.8311C206.688 59.8669 206.704 59.9074 206.71 59.9498C206.717 59.9922 206.715 60.0355 206.703 60.0768C206.691 60.1182 206.671 60.1565 206.643 60.1892C206.615 60.222 206.581 60.2483 206.542 60.2665L205.174 60.906C205.135 60.9242 205.093 60.9339 205.05 60.9342C205.007 60.9346 204.964 60.9257 204.925 60.9081Z" fill="#6C63FF"/>
<path d="M209.93 60.1932L208.422 61.2596C208.403 61.2736 208.379 61.2811 208.356 61.2811C208.332 61.2811 208.308 61.2736 208.289 61.2596L207.882 60.9539C207.868 60.944 207.857 60.9312 207.849 60.9164C207.841 60.9017 207.837 60.8853 207.836 60.8685C207.835 60.8518 207.838 60.8351 207.845 60.8197C207.852 60.8043 207.862 60.7906 207.874 60.7796L209.035 59.746C209.05 59.7327 209.068 59.7237 209.088 59.7199C209.108 59.716 209.129 59.7175 209.148 59.7242L209.903 59.994C209.922 60.0012 209.939 60.0135 209.952 60.0296C209.965 60.0457 209.973 60.065 209.976 60.0855C209.979 60.106 209.976 60.1268 209.968 60.1458C209.96 60.1648 209.947 60.1811 209.93 60.1932Z" fill="#3F3D56"/>
<path d="M209.807 60.0923C209.811 60.0823 209.811 60.0712 209.806 60.0615C209.802 60.0518 209.794 60.0442 209.784 60.0404L209.104 59.7973C209.097 59.7949 209.09 59.7943 209.083 59.7956C209.076 59.7969 209.069 59.8001 209.063 59.8047L208.017 60.737L208.011 60.7432C208.008 60.7474 208.006 60.7521 208.005 60.7571C208.004 60.7621 208.004 60.7672 208.004 60.7723C208.005 60.7773 208.007 60.7822 208.01 60.7865C208.013 60.7909 208.016 60.7947 208.02 60.7976L208.387 61.0725C208.394 61.0775 208.402 61.0802 208.41 61.0801C208.419 61.08 208.427 61.0772 208.434 61.0721L209.793 60.111C209.799 60.1063 209.804 60.0998 209.807 60.0923Z" fill="white"/>
<path d="M204.436 76.0923H205.196L205.559 73.1602H204.436V76.0923Z" fill="#A0616A"/>
<path d="M204.24 75.8438L205.739 75.8438H205.739C205.864 75.8437 205.988 75.8684 206.104 75.9164C206.22 75.9643 206.325 76.0346 206.414 76.1232C206.503 76.2118 206.573 76.317 206.621 76.4327C206.669 76.5485 206.694 76.6725 206.694 76.7978V76.8288L204.24 76.8289L204.24 75.8438Z" fill="#2F2E41"/>
<path d="M201.889 76.0923H202.65L203.012 73.1602H201.889V76.0923Z" fill="#A0616A"/>
<path d="M201.693 75.8438L203.192 75.8438H203.192C203.317 75.8437 203.442 75.8684 203.557 75.9164C203.673 75.9643 203.779 76.0346 203.867 76.1232C203.956 76.2118 204.026 76.317 204.074 76.4327C204.122 76.5485 204.147 76.6725 204.147 76.7978V76.8288L201.693 76.8289L201.693 75.8438Z" fill="#2F2E41"/>
<path d="M201.728 75.1966C201.676 75.137 201.647 75.0608 201.646 74.9816C201.465 73.1173 201.958 63.3169 203.099 62.4801L203.106 62.4732L206.444 61.8975L206.506 61.9595C206.511 62.0459 207.117 70.6363 205.442 75.0205C205.421 75.0728 205.385 75.1177 205.339 75.1493C205.292 75.181 205.238 75.1979 205.181 75.1979H204.515C204.476 75.1979 204.438 75.1899 204.403 75.1745C204.368 75.1591 204.336 75.1365 204.31 75.1083C204.284 75.08 204.264 75.0466 204.251 75.0103C204.238 74.9739 204.234 74.9354 204.237 74.897L204.776 66.6878C204.778 66.6643 204.771 66.641 204.756 66.6225C204.741 66.6041 204.72 66.5919 204.697 66.5884C204.674 66.585 204.65 66.5905 204.63 66.6039C204.611 66.6173 204.597 66.6376 204.592 66.6607L203.073 74.9926C203.06 75.0512 203.028 75.1042 202.983 75.1436C202.937 75.183 202.881 75.2068 202.821 75.2115L201.945 75.2762C201.939 75.2767 201.932 75.277 201.925 75.277C201.851 75.277 201.781 75.2481 201.728 75.1966Z" fill="#2F2E41"/>
<path d="M206.12 56.8721C206.962 56.8721 207.645 56.1902 207.645 55.3491C207.645 54.508 206.962 53.8262 206.12 53.8262C205.278 53.8262 204.596 54.508 204.596 55.3491C204.596 56.1902 205.278 56.8721 206.12 56.8721Z" fill="#A0616A"/>
<path d="M202.447 63.8134C202.383 63.7479 202.346 63.6603 202.344 63.5685L202.966 60.657C202.47 58.5487 203.131 58.1535 203.877 57.754L203.872 57.7515L204.184 56.9091C204.194 56.8716 204.212 56.8368 204.237 56.8071C204.261 56.7774 204.293 56.7535 204.328 56.7372C204.363 56.721 204.401 56.7127 204.44 56.7129C204.479 56.7131 204.517 56.7219 204.552 56.7387L206.141 57.582C206.213 57.6223 206.266 57.6888 206.289 57.7674C206.316 57.851 206.314 57.9411 206.283 58.0234L206.166 58.3407C206.47 58.7455 206.939 60.3469 206.442 60.967L206.817 63.0334C206.825 63.1094 206.806 63.1859 206.764 63.2494C206.721 63.313 206.658 63.3596 206.584 63.3811L202.669 63.883C202.654 63.8861 202.638 63.8877 202.623 63.8877C202.557 63.8867 202.494 63.8601 202.447 63.8134Z" fill="#6C63FF"/>
<path d="M208.147 60.4745C208.122 60.498 208.099 60.5235 208.078 60.5506L205.007 60.3386L204.678 59.668L203.6 60.0324L204.067 61.2763C204.105 61.3767 204.175 61.4623 204.265 61.52C204.356 61.5777 204.463 61.6046 204.57 61.5964L208.062 61.3319C208.139 61.4392 208.247 61.5204 208.372 61.5647C208.497 61.6091 208.632 61.6145 208.759 61.5802C208.887 61.5459 209.002 61.4736 209.087 61.3728C209.173 61.2721 209.226 61.1476 209.239 61.0161C209.252 60.8846 209.225 60.7522 209.161 60.6365C209.097 60.5209 208.999 60.4274 208.88 60.3686C208.762 60.3098 208.628 60.2885 208.497 60.3074C208.366 60.3263 208.244 60.3846 208.147 60.4745V60.4745Z" fill="#A0616A"/>
<path d="M204.894 60.3484L203.556 60.7935C203.518 60.8062 203.477 60.8105 203.437 60.8062C203.398 60.8019 203.359 60.789 203.325 60.7685C203.29 60.7479 203.26 60.7202 203.238 60.6872C203.215 60.6542 203.199 60.6167 203.192 60.5772L202.949 59.1935C202.885 58.9985 202.901 58.7861 202.994 58.603C203.086 58.4199 203.248 58.2809 203.443 58.2167C203.638 58.1524 203.851 58.1681 204.034 58.2603C204.218 58.3524 204.357 58.5135 204.422 58.7083L205.055 59.9577C205.073 59.9935 205.084 60.0327 205.085 60.0728C205.087 60.1129 205.08 60.1528 205.064 60.1899C205.049 60.2269 205.026 60.2603 204.997 60.2877C204.967 60.315 204.932 60.3357 204.894 60.3484Z" fill="#6C63FF"/>
<path d="M205.263 54.1453C205.948 54.1453 206.504 53.5901 206.504 52.9052C206.504 52.2203 205.948 51.665 205.263 51.665C204.577 51.665 204.021 52.2203 204.021 52.9052C204.021 53.5901 204.577 54.1453 205.263 54.1453Z" fill="#2F2E41"/>
<path d="M207.562 55.5377C207.682 55.5617 207.807 55.5513 207.921 55.5076C207.98 55.4745 208.029 55.4281 208.066 55.3723C208.104 55.3164 208.127 55.2526 208.135 55.186C208.366 53.6508 207.059 53.7771 206.905 53.7106C206.807 53.6534 206.716 53.5867 206.631 53.5113C206.414 53.3907 206.166 53.3362 205.917 53.3544C205.624 53.3273 205.328 53.3635 205.05 53.4604C204.807 53.5739 204.606 53.7593 204.473 53.9914C204.342 54.2225 204.245 54.4719 204.187 54.7314C204.096 55.0249 204.079 55.3367 204.139 55.6384C204.202 55.8636 204.334 56.0633 204.517 56.2096C204.7 56.3559 204.924 56.4415 205.158 56.4543C205.12 56.2737 205.143 56.0858 205.223 55.9196C205.304 55.7535 205.436 55.6183 205.601 55.5351C205.863 55.4063 206.161 55.3708 206.446 55.4345C206.631 55.4719 206.818 55.4952 207.007 55.5043C207.192 55.5112 207.414 55.522 207.562 55.5377Z" fill="#2F2E41"/>
<path d="M326.873 76.3952C326.874 74.7683 327.522 73.2085 328.674 72.0586C329.826 70.9087 331.388 70.2627 333.016 70.2627C334.645 70.2627 336.207 70.9087 337.359 72.0586C338.511 73.2085 339.159 74.7683 339.16 76.3952" fill="#F2F2F2"/>
<path d="M333.016 76.3953C332.972 76.3953 332.929 76.3778 332.898 76.3467C332.867 76.3156 332.85 76.2734 332.85 76.2294V72.995C332.85 72.951 332.867 72.9088 332.898 72.8777C332.929 72.8466 332.972 72.8291 333.016 72.8291C333.06 72.8291 333.102 72.8466 333.133 72.8777C333.164 72.9088 333.182 72.951 333.182 72.995V76.2294C333.182 76.2734 333.164 76.3156 333.133 76.3467C333.102 76.3778 333.06 76.3953 333.016 76.3953Z" fill="#CCCCCC"/>
<path d="M333.017 75.2832C332.977 75.2833 332.939 75.2691 332.909 75.2432L330.916 73.5349C330.9 73.5208 330.886 73.5034 330.876 73.484C330.866 73.4645 330.86 73.4432 330.858 73.4214C330.856 73.3996 330.859 73.3776 330.866 73.3568C330.872 73.3359 330.883 73.3166 330.897 73.3C330.912 73.2834 330.929 73.2698 330.949 73.2599C330.968 73.2501 330.99 73.2442 331.012 73.2426C331.033 73.241 331.055 73.2438 331.076 73.2508C331.097 73.2577 331.116 73.2687 331.133 73.2832L333.125 74.9915C333.151 75.0136 333.169 75.043 333.178 75.0758C333.186 75.1086 333.185 75.1432 333.173 75.175C333.161 75.2068 333.14 75.2342 333.112 75.2536C333.084 75.2729 333.051 75.2833 333.017 75.2833L333.017 75.2832Z" fill="#CCCCCC"/>
<path d="M345.799 76.3952C345.8 74.7683 346.448 73.2085 347.6 72.0586C348.752 70.9087 350.314 70.2627 351.942 70.2627C353.571 70.2627 355.133 70.9087 356.285 72.0586C357.437 73.2085 358.084 74.7683 358.086 76.3952" fill="#F2F2F2"/>
<path d="M351.943 76.3953C351.899 76.3953 351.857 76.3778 351.826 76.3467C351.795 76.3156 351.777 76.2734 351.777 76.2294V72.995C351.777 72.951 351.795 72.9088 351.826 72.8777C351.857 72.8466 351.899 72.8291 351.943 72.8291C351.987 72.8291 352.03 72.8466 352.061 72.8777C352.092 72.9088 352.109 72.951 352.109 72.995V76.2294C352.109 76.2734 352.092 76.3156 352.061 76.3467C352.03 76.3778 351.987 76.3953 351.943 76.3953Z" fill="#CCCCCC"/>
<path d="M351.943 75.2823C351.903 75.2824 351.865 75.2682 351.835 75.2423L349.842 73.534C349.826 73.5199 349.812 73.5026 349.802 73.4831C349.792 73.4636 349.786 73.4423 349.784 73.4205C349.782 73.3986 349.785 73.3767 349.791 73.3558C349.798 73.335 349.809 73.3157 349.823 73.299C349.838 73.2824 349.855 73.2688 349.875 73.2589C349.894 73.2491 349.916 73.2432 349.937 73.2416C349.959 73.2401 349.981 73.2429 350.002 73.2499C350.023 73.2568 350.042 73.2678 350.059 73.2823L352.051 74.9906C352.077 75.0127 352.095 75.0421 352.104 75.0749C352.112 75.1077 352.11 75.1424 352.099 75.1741C352.087 75.2059 352.066 75.2333 352.038 75.2527C352.01 75.272 351.977 75.2824 351.943 75.2824V75.2823Z" fill="#CCCCCC"/>
<rect y="77" width="375" height="17" fill="white"/>
</g>
<defs>
<clipPath id="clip0">
<rect width="375" height="161" fill="white" transform="translate(0 -65)"/>
</clipPath>
</defs>
</svg>
