<svg width="449" height="301" viewBox="0 0 449 301" fill="none" xmlns="http://www.w3.org/2000/svg">
<path opacity="0.08" d="M397.109 144.167C392.693 71.0197 300.254 21.476 190.64 33.5099C81.0279 45.5429 -4.25099 114.598 0.163975 187.745C4.57995 260.894 97.0194 310.438 206.632 298.405C316.246 286.37 401.525 217.316 397.109 144.167Z" fill="#4085C6"/>
<path opacity="0.1" d="M195.225 252.956C244.08 252.956 283.682 245.462 283.682 236.218C283.682 226.977 244.078 219.479 195.225 219.479C146.372 219.479 106.764 226.977 106.764 236.218C106.766 245.462 146.371 252.956 195.225 252.956Z" fill="#242122"/>
<path d="M216.687 216.129C211.663 223.31 193.602 219.506 193.602 219.506L179.608 206.424L177.727 204.653L180.884 197.948C180.884 197.948 181.889 198.224 183.611 198.719C192.659 201.341 220.925 210.093 216.687 216.129Z" fill="black"/>
<path opacity="0.1" d="M183.603 198.717C182.986 200.864 181.293 204.079 179.61 206.424L177.729 204.653L180.886 197.948C180.884 197.948 181.9 198.224 183.603 198.717Z" fill="black"/>
<path opacity="0.1" d="M148.93 174.534C148.93 174.534 146.327 179.87 147.925 179.507C149.528 179.147 148.93 174.534 148.93 174.534Z" fill="black"/>
<path d="M150.193 185.309L188.872 179.021V215.601L152.123 213.679L150.193 185.309Z" fill="#4085C6"/>
<path opacity="0.05" d="M150.193 185.309L188.872 179.021V215.601L152.123 213.679L150.193 185.309Z" fill="black"/>
<path d="M188.873 179.021L235.258 182.488L232.69 214.321L188.875 215.601L188.873 179.021Z" fill="#4085C6"/>
<path opacity="0.1" d="M188.873 179.021L235.258 182.488L232.69 214.321L188.875 215.601L188.873 179.021Z" fill="black"/>
<path d="M203.133 167.855L188.871 179.021L235.255 182.488L242.834 171.062L203.133 167.855Z" fill="#4085C6"/>
<path d="M136.188 173.116L171.01 168.88L188.87 179.021L150.191 185.306L136.188 173.116Z" fill="#4085C6"/>
<path d="M197.351 188.519V238.534L179.234 236.677L171.352 235.875L168.952 235.624L161.075 234.816L150.193 233.701V185.308L188.867 187.938L197.351 188.519Z" fill="#4085C6"/>
<path d="M235.256 182.488V231.263L220.734 234.047L213.671 235.401L197.348 238.534V188.52L235.256 182.488Z" fill="#4085C6"/>
<path opacity="0.05" d="M235.256 182.488V231.263L220.734 234.047L213.671 235.401L197.348 238.534V188.52L235.256 182.488Z" fill="black"/>
<path d="M136.188 195.835L150.193 185.308L197.349 188.519L190.41 200.202L136.188 195.835Z" fill="#4085C6"/>
<path opacity="0.1" d="M136.188 195.835L150.193 185.308L197.349 188.519L190.41 200.202L136.188 195.835Z" fill="white"/>
<path d="M235.256 182.488L197.35 188.52L209.687 199.559L250.29 192.755L235.256 182.488Z" fill="#4085C6"/>
<path opacity="0.1" d="M235.256 182.488L197.35 188.52L209.687 199.559L250.29 192.755L235.256 182.488Z" fill="white"/>
<path d="M292.379 52.5118C292.379 52.5118 271.937 51.2815 274.325 65.6075C274.325 65.6075 273.846 68.1392 276.144 69.2883C276.144 69.2883 276.178 68.2133 278.242 68.5848C278.975 68.7076 279.723 68.7432 280.463 68.6914C281.469 68.6244 282.429 68.2295 283.188 67.5687C283.188 67.5687 288.937 65.1974 291.178 55.8058C291.178 55.8058 292.835 53.7522 292.789 53.2254L289.338 54.7034C289.338 54.7034 290.516 57.1904 289.586 59.2591C289.586 59.2591 289.478 54.7937 288.811 54.8942C288.678 54.8942 287.016 55.7601 287.016 55.7601C287.016 55.7601 289.044 60.0925 287.511 63.2474C287.511 63.2474 288.095 57.903 286.381 56.0738L283.951 57.4929C283.951 57.4929 286.325 61.9664 284.715 65.6228C284.715 65.6228 285.132 60.0184 283.441 57.836L281.235 59.5484C281.235 59.5484 283.466 63.9671 282.105 66.9982C282.105 66.9982 281.928 60.4732 280.754 59.9778C280.754 59.9778 278.828 61.6771 278.535 62.3755C278.535 62.3755 280.056 65.6004 279.112 67.2703C279.112 67.2703 278.529 62.9246 278.036 62.9013C278.036 62.9013 276.116 65.7811 275.916 67.7382C276.01 65.9141 276.578 64.1468 277.569 62.61C276.463 62.817 275.441 63.3469 274.632 64.1306C274.632 64.1306 274.928 62.0933 278.043 61.9166C278.043 61.9166 279.655 59.7291 280.054 59.5941C280.054 59.5941 276.959 59.3363 275.078 60.1687C275.078 60.1687 276.73 58.2501 280.623 59.0937L282.775 57.3203C282.775 57.3203 278.7 56.7833 276.968 57.3812C276.968 57.3812 278.958 55.6819 283.363 56.9183L285.732 55.5043C285.732 55.5043 282.257 54.7531 280.187 55.0272C280.187 55.0272 282.371 53.8507 286.427 55.1236L288.122 54.3654C288.122 54.3654 285.572 53.8649 284.83 53.7857C284.087 53.7055 284.042 53.5005 284.042 53.5005C285.657 53.2315 287.312 53.4183 288.825 54.0385C288.823 54.0436 292.456 52.7382 292.379 52.5118Z" fill="#4085C6"/>
<path opacity="0.25" d="M340.179 130.676C340.179 130.676 336.635 149.871 350.446 149.28C350.446 149.28 352.781 150.027 354.134 147.989C354.134 147.989 353.124 147.832 353.716 145.918C353.915 145.239 354.037 144.538 354.075 143.829C354.125 142.881 353.863 141.944 353.334 141.156C353.334 141.156 351.76 135.431 343.146 132.223C343.146 132.223 341.406 130.42 340.9 130.421L341.89 133.859C341.89 133.859 344.378 133.034 346.222 134.15C346.222 134.15 341.993 133.738 342.012 134.376C341.998 134.504 342.621 136.179 342.621 136.179C342.621 136.179 346.954 134.76 349.751 136.576C349.751 136.576 344.773 135.404 342.842 136.814L343.887 139.253C343.887 139.253 348.391 137.531 351.656 139.477C351.656 139.477 346.411 138.432 344.152 139.776L345.519 142.057C345.519 142.057 349.945 140.466 352.652 142.102C352.652 142.102 346.467 141.51 345.864 142.562C345.864 142.562 347.244 144.58 347.871 144.943C347.871 144.943 351.094 143.873 352.563 144.964C352.563 144.964 348.389 145.008 348.31 145.474C348.31 145.474 350.807 147.625 352.631 148.041C350.92 147.735 349.317 146.991 347.983 145.875C348.053 146.946 348.432 147.976 349.077 148.835C349.077 148.835 347.189 148.313 347.384 145.345C347.384 145.345 345.504 143.59 345.425 143.17C345.425 143.17 344.82 146.074 345.388 147.944C345.388 147.944 343.77 146.158 345.044 142.581L343.619 140.338C343.619 140.338 342.636 144.139 343 145.841C343 145.841 341.626 143.762 343.309 139.734L342.25 137.331C342.25 137.331 341.141 140.536 341.152 142.529C341.152 142.529 340.296 140.319 341.971 136.629L341.453 134.939C341.453 134.939 340.685 137.293 340.52 137.99C340.358 138.689 340.161 138.7 340.161 138.7C340.096 137.143 340.463 135.595 341.226 134.235C341.22 134.234 340.398 130.64 340.179 130.676Z" fill="#4085C6"/>
<path opacity="0.35" d="M241.509 116.662C241.509 116.662 235.03 98.2642 223.34 105.698C223.34 105.698 220.936 106.221 220.781 108.656C220.781 108.656 221.728 108.297 222.172 110.237C222.334 110.919 222.573 111.582 222.888 112.209C223.316 113.063 224.016 113.754 224.874 114.174C224.874 114.174 229.084 118.341 238.142 116.827C238.142 116.827 240.556 117.515 240.99 117.26L238.426 114.779C238.426 114.779 236.674 116.738 234.511 116.688C234.511 116.688 238.393 114.928 238.065 114.404C237.995 114.299 236.649 113.151 236.649 113.151C236.649 113.151 233.593 116.536 230.252 116.363C230.252 116.363 235.159 114.89 236.14 112.708L234.005 111.088C234.005 111.088 230.937 114.842 227.145 114.779C227.145 114.779 232.223 113.062 233.515 110.771L231.196 109.475C231.196 109.475 228.144 113.069 224.978 113.005C224.978 113.005 230.633 110.429 230.646 109.217C230.646 109.217 228.444 108.157 227.721 108.16C227.721 108.16 225.469 110.688 223.638 110.486C223.638 110.486 227.236 108.364 227.08 107.941C227.08 107.941 223.844 107.328 222.033 107.881C223.672 107.288 225.436 107.129 227.15 107.425C226.557 106.533 225.714 105.835 224.729 105.414C224.729 105.414 226.629 104.923 227.955 107.598C227.955 107.598 230.46 108.179 230.732 108.502C230.732 108.502 229.815 105.692 228.388 104.352C228.388 104.352 230.685 105.088 231.36 108.821L233.72 110.073C233.72 110.073 232.703 106.285 231.521 105.002C231.521 105.002 233.748 106.113 234.288 110.437L236.41 111.988C236.41 111.988 235.78 108.658 234.781 106.95C234.781 106.95 236.625 108.431 237.003 112.464L238.296 113.664C238.296 113.664 237.79 111.244 237.584 110.563C237.379 109.881 237.544 109.767 237.544 109.767C238.379 111.083 238.829 112.604 238.848 114.163C238.845 114.16 241.338 116.803 241.509 116.662Z" fill="#4085C6"/>
<path opacity="0.35" d="M112.831 98.4433C112.831 98.4433 114.568 79.0144 100.85 80.9207C100.85 80.9207 98.4482 80.3959 97.293 82.5489C97.293 82.5489 98.3021 82.6159 97.9015 84.5649C97.7686 85.2552 97.7108 85.9556 97.7372 86.657C97.7757 87.6122 98.1246 88.5319 98.7291 89.2689C98.7291 89.2689 100.837 94.8092 109.703 97.1957C109.703 97.1957 111.614 98.8239 112.116 98.7722L110.81 95.4498C110.81 95.4498 108.405 96.5034 106.456 95.5594C106.456 95.5594 110.718 95.5716 110.635 94.9575C110.617 94.8316 109.867 93.2287 109.867 93.2287C109.867 93.2287 105.682 95.0387 102.717 93.4957C102.717 93.4957 107.79 94.1941 109.588 92.6156L108.318 90.2555C108.318 90.2555 103.969 92.3953 100.546 90.7641C100.546 90.7641 105.877 91.3092 108.002 89.7632L106.429 87.6234C106.429 87.6234 102.161 89.6231 99.3083 88.2497C99.3083 88.2497 105.52 88.2558 106.036 87.1575C106.036 87.1575 104.47 85.2785 103.811 84.9791C103.811 84.9791 100.716 86.3464 99.1318 85.3983C99.1318 85.3983 103.287 84.9628 103.321 84.5121C103.321 84.5121 100.629 82.6088 98.7524 82.3621C100.49 82.5022 102.16 83.094 103.597 84.0746C103.427 83.0148 102.949 82.0272 102.227 81.2364C102.227 81.2364 104.16 81.5805 104.256 84.5629C104.256 84.5629 106.295 86.1342 106.408 86.5393C106.408 86.5393 106.738 83.6006 105.998 81.7886C105.998 81.7886 107.782 83.4128 106.848 87.0905L108.477 89.209C108.477 89.209 109.122 85.3415 108.578 83.6848C108.578 83.6848 110.147 85.6206 108.844 89.7784L110.133 92.0705C110.133 92.0705 110.938 88.7816 110.741 86.8113C110.741 86.8113 111.805 88.9227 110.474 92.7506L111.154 94.3799C111.154 94.3799 111.698 91.969 111.792 91.2635C111.888 90.557 112.085 90.5235 112.085 90.5235C112.3 92.0675 112.077 93.6378 111.448 95.063C111.446 95.0579 112.62 98.5001 112.831 98.4433Z" fill="#4085C6"/>
<path opacity="0.15" d="M208.458 133.994C208.458 133.994 193.126 122.538 187.645 134.948C187.645 134.948 185.973 136.679 187.175 138.75C187.175 138.75 187.746 137.943 189.183 139.282C189.689 139.754 190.255 140.166 190.86 140.508C191.681 140.962 192.627 141.14 193.554 141.009C193.554 141.009 199.262 142.106 205.833 135.93C205.833 135.93 208.178 135.176 208.399 134.736L204.938 134.129C204.938 134.129 204.579 136.672 202.794 137.811C202.794 137.811 205 134.268 204.425 134.013C204.31 133.958 202.584 133.762 202.584 133.762C202.584 133.762 201.941 138.187 199.128 139.859C199.128 139.859 202.327 135.99 201.931 133.682L199.303 133.541C199.303 133.541 198.857 138.253 195.722 140.28C195.722 140.28 198.921 136.12 198.737 133.551L196.137 133.763C196.137 133.763 195.608 138.345 192.994 140.01C192.994 140.01 196.204 134.831 195.546 133.848C195.546 133.848 193.171 134.185 192.583 134.576C192.583 134.576 192.125 137.857 190.519 138.691C190.519 138.691 192.303 135.004 191.937 134.746C191.937 134.746 188.957 136.006 187.788 137.442C188.802 136.067 190.154 134.98 191.719 134.29C190.744 133.887 189.676 133.774 188.642 133.969C188.642 133.969 189.918 132.534 192.439 133.994C192.439 133.994 194.799 133.106 195.203 133.216C195.203 133.216 192.917 131.425 191.023 131.113C191.023 131.113 193.304 130.461 195.891 133.121L198.497 132.855C198.497 132.855 195.601 130.345 193.937 129.924C193.937 129.924 196.365 129.619 199.16 132.84L201.731 132.955C201.731 132.955 199.407 130.586 197.653 129.733C197.653 129.733 199.959 129.934 202.47 133.01L204.183 133.286C204.183 133.286 202.449 131.59 201.907 131.148C201.365 130.708 201.442 130.522 201.442 130.522C202.84 131.14 204.038 132.133 204.9 133.392C204.902 133.392 208.394 134.2 208.458 133.994Z" fill="#4085C6"/>
<path opacity="0.12" d="M236.237 4.82215C236.237 4.82215 220.905 -6.63828 215.426 5.77634C215.426 5.77634 213.751 7.50809 214.954 9.5799C214.954 9.5799 215.524 8.77087 216.961 10.1108C217.473 10.5818 218.037 10.9909 218.644 11.3299C219.464 11.7857 220.411 11.9633 221.341 11.8314C221.341 11.8314 227.045 12.9297 233.617 6.7488C233.617 6.7488 235.962 6.00067 236.179 5.55505L232.718 4.95817C232.718 4.95817 232.362 7.50301 230.574 8.64093C230.574 8.64093 232.787 5.09825 232.213 4.84245C232.095 4.78763 230.37 4.59071 230.37 4.59071C230.37 4.59071 229.708 9.02667 226.893 10.6874C226.893 10.6874 230.088 6.81884 229.696 4.51051L227.069 4.37145C227.069 4.37145 226.618 9.08352 223.489 11.1056C223.489 11.1056 226.687 6.94572 226.503 4.37652L223.904 4.58766C223.904 4.58766 223.374 9.17386 220.756 10.8406C220.756 10.8406 223.972 5.66163 223.312 4.67902C223.312 4.67902 220.936 5.01501 220.348 5.40582C220.348 5.40582 219.891 8.68763 218.282 9.52102C218.282 9.52102 220.069 5.83217 219.703 5.5723C219.703 5.5723 216.723 6.83711 215.554 8.27144C216.565 6.89599 217.92 5.80983 219.485 5.11957C218.509 4.71455 217.439 4.60187 216.406 4.7988C216.406 4.7988 217.687 3.36447 220.208 4.82418C220.208 4.82418 222.568 3.93191 222.971 4.04662C222.971 4.04662 220.685 2.25497 218.791 1.93826C218.791 1.93826 221.067 1.29063 223.653 3.9451L226.26 3.67915C226.26 3.67915 223.367 1.16983 221.7 0.743495C221.7 0.743495 224.127 0.443025 226.929 3.66392L229.502 3.77355C229.502 3.77355 227.175 1.40533 225.417 0.556715C225.417 0.556715 227.728 0.75669 230.24 3.83344L231.95 4.10955C231.95 4.10955 230.206 2.43363 229.668 2.0012C229.127 1.56978 229.201 1.37894 229.201 1.37894C230.601 1.99612 231.8 2.9899 232.663 4.24862C232.662 4.25166 236.152 5.014 236.237 4.82215Z" fill="#4085C6"/>
<path opacity="0.12" d="M294.821 26.7231C294.821 26.7231 288.692 8.60366 277.135 15.7246C277.135 15.7246 274.775 16.226 274.588 18.5892C274.588 18.5892 275.517 18.2481 275.927 20.1554C276.081 20.8335 276.311 21.4923 276.617 22.1166C277.032 22.9591 277.71 23.6433 278.546 24.0686C278.546 24.0686 282.625 28.2092 291.545 26.8388C291.545 26.8388 293.903 27.5514 294.334 27.3048L291.823 24.8401C291.823 24.8401 290.083 26.7312 287.963 26.6571C287.963 26.6571 291.798 24.9903 291.48 24.4544C291.416 24.3488 290.105 23.2099 290.105 23.2099C290.105 23.2099 287.061 26.4866 283.796 26.2714C283.796 26.2714 288.623 24.897 289.607 22.7592L287.526 21.1594C287.526 21.1594 284.483 24.7823 280.751 24.6716C280.751 24.6716 285.772 23.0606 287.044 20.8325L284.783 19.5322C284.783 19.5322 281.767 23.0099 278.645 22.8982C278.645 22.8982 284.231 20.4549 284.244 19.2703C284.244 19.2703 282.1 18.2014 281.392 18.1912C281.392 18.1912 279.152 20.6346 277.372 20.4133C277.372 20.4133 280.929 18.3811 280.778 17.9649C280.778 17.9649 277.61 17.3172 275.83 17.839C277.444 17.2776 279.174 17.1477 280.854 17.4634C280.281 16.5803 279.461 15.8819 278.498 15.4556C278.498 15.4556 280.367 14.9998 281.618 17.6289C281.618 17.6289 284.07 18.2359 284.329 18.5526C284.329 18.5526 283.465 15.7865 282.084 14.4516C282.084 14.4516 284.329 15.2109 284.942 18.8774L287.242 20.1321C287.242 20.1321 286.293 16.4128 285.151 15.1145C285.151 15.1145 287.326 16.2382 287.795 20.4793L289.855 22.0303C289.855 22.0303 289.283 18.7587 288.319 17.0624C288.319 17.0624 290.107 18.5384 290.428 22.4973L291.677 23.691C291.677 23.691 291.216 21.3127 291.026 20.6407C290.835 19.9677 290.99 19.923 290.99 19.923C291.789 21.2243 292.211 22.7216 292.209 24.2493C292.213 24.2493 294.644 26.853 294.821 26.7231Z" fill="#4085C6"/>
<path opacity="0.12" d="M254.824 15.6971C254.824 15.6971 235.784 13.5786 237.356 27.0733C237.356 27.0733 236.789 29.4121 238.861 30.5855C238.861 30.5855 238.946 29.5816 240.87 30.0333C241.55 30.1785 242.244 30.2485 242.942 30.2394C243.879 30.2221 244.787 29.9003 245.53 29.3207C245.53 29.3207 251.01 27.3788 253.566 18.7231C253.566 18.7231 255.206 16.8909 255.169 16.3955L251.879 17.6096C251.879 17.6096 252.883 19.9829 251.879 21.8699C251.879 21.8699 251.984 17.6999 251.378 17.7659C251.255 17.7659 249.665 18.4886 249.665 18.4886C249.665 18.4886 251.355 22.6282 249.778 25.5131C249.778 25.5131 250.567 20.5564 249.059 18.7688L246.722 19.9737C246.722 19.9737 248.732 24.2645 247.048 27.595C247.048 27.595 247.701 22.3876 246.227 20.2732L244.093 21.7786C244.093 21.7786 245.962 25.9993 244.549 28.7634C244.549 28.7634 244.695 22.6729 243.625 22.1541C243.625 22.1541 241.745 23.6595 241.439 24.2818C241.439 24.2818 242.71 27.3423 241.753 28.8731C241.753 28.8731 241.415 24.7934 240.971 24.7538C240.971 24.7538 239.044 27.3484 238.761 29.1786C238.934 27.4814 239.549 25.8582 240.549 24.4726C239.511 24.6158 238.529 25.0614 237.738 25.7516C237.738 25.7516 238.109 23.8697 241.021 23.8504C241.021 23.8504 242.606 21.8882 243.031 21.7826C243.031 21.7826 240.152 21.3969 238.359 22.0841C238.359 22.0841 239.993 20.3676 243.58 21.3664L245.695 19.8154C245.695 19.8154 241.872 19.0419 240.255 19.5433C240.255 19.5433 242.194 18.0379 246.243 19.4185L248.516 18.2095C248.516 18.2095 245.307 17.3467 243.362 17.503C243.362 17.503 245.456 16.4991 249.177 17.8887L250.797 17.2614C250.797 17.2614 248.44 16.6737 247.747 16.564C247.053 16.4534 247.029 16.2625 247.029 16.2625C248.548 16.0879 250.085 16.3377 251.469 16.9843C251.474 16.9853 254.86 15.9073 254.824 15.6971Z" fill="#4085C6"/>
<path opacity="0.35" d="M368.243 32.3494C368.243 32.3494 352.604 20.6637 347.013 33.3229C347.013 33.3229 345.308 35.0892 346.533 37.2026C346.533 37.2026 347.115 36.3773 348.583 37.7437C349.1 38.2269 349.677 38.6451 350.294 38.9933C351.131 39.4571 352.096 39.6388 353.041 39.5059C353.041 39.5059 358.863 40.6265 365.57 34.3248C365.57 34.3248 367.958 33.5574 368.182 33.1077L364.659 32.4723C364.659 32.4723 364.293 35.0679 362.474 36.2291C362.474 36.2291 364.723 32.6154 364.138 32.3545C364.021 32.2987 362.265 32.0977 362.265 32.0977C362.265 32.0977 361.604 36.6118 358.734 38.3162C358.734 38.3162 361.998 34.3705 361.594 32.0165L358.914 31.8723C358.914 31.8723 358.458 36.6778 355.259 38.7456C355.259 38.7456 358.528 34.5025 358.334 31.8815L355.684 32.0967C355.684 32.0967 355.172 36.7702 352.476 38.4684C352.476 38.4684 355.754 33.1859 355.079 32.183C355.079 32.183 352.656 32.5261 352.056 32.925C352.056 32.925 351.596 36.2728 349.955 37.1224C349.955 37.1224 351.769 33.3615 351.4 33.0986C351.4 33.0986 348.359 34.3857 347.169 35.8475C348.202 34.4456 349.581 33.3381 351.175 32.6327C350.184 32.2205 349.093 32.1068 348.037 32.3068C348.037 32.3068 349.343 30.843 351.915 32.3291C351.915 32.3291 354.321 31.4237 354.728 31.5364C354.728 31.5364 352.396 29.7102 350.464 29.3925C350.464 29.3925 352.791 28.7286 355.431 31.4399L358.088 31.1679C358.088 31.1679 355.138 28.6088 353.436 28.1794C353.436 28.1794 355.911 27.8678 358.766 31.1537L361.394 31.2714C361.394 31.2714 359.017 28.8555 357.228 27.9866C357.228 27.9866 359.588 28.1916 362.142 31.3283L363.89 31.6084C363.89 31.6084 362.123 29.8797 361.571 29.43C361.015 28.9793 361.099 28.8311 361.099 28.8311C362.522 29.4615 363.742 30.4766 364.626 31.7587C364.627 31.7607 368.177 32.5586 368.243 32.3494Z" fill="#4085C6"/>
<path opacity="0.25" d="M392.851 102.73C392.851 102.73 411.204 96.1524 403.721 84.4737C403.721 84.4737 403.192 82.072 400.756 81.9248C400.756 81.9248 401.118 82.8678 399.184 83.3266C398.487 83.4921 397.816 83.7398 397.179 84.0667C396.326 84.5031 395.636 85.2107 395.215 86.0745C395.215 86.0745 391.079 90.3135 392.642 99.3905C392.642 99.3905 391.967 101.805 392.221 102.242L394.69 99.6555C394.69 99.6555 392.723 97.9166 392.761 95.7565C392.761 95.7565 394.543 99.6291 395.071 99.286C395.178 99.218 396.318 97.8628 396.318 97.8628C396.318 97.8628 392.916 94.8216 393.076 91.4829C393.076 91.4829 394.568 96.3879 396.752 97.3481L398.346 95.1911C398.346 95.1911 394.595 92.1509 394.628 88.3412C394.628 88.3412 396.372 93.4106 398.661 94.6937L399.943 92.36C399.943 92.36 396.34 89.3269 396.394 86.1588C396.394 86.1588 398.996 91.8138 400.201 91.8088C400.201 91.8088 401.247 89.5938 401.243 88.8701C401.243 88.8701 398.714 86.6328 398.903 84.7965C398.903 84.7965 401.041 88.392 401.462 88.2295C401.462 88.2295 402.061 84.9853 401.499 83.1784C402.097 84.8097 402.259 86.5689 401.972 88.2864C402.86 87.6855 403.556 86.8348 403.969 85.8451C403.969 85.8451 404.476 87.7433 401.818 89.067C401.818 89.067 401.249 91.5733 400.931 91.8514C400.931 91.8514 403.735 90.9155 405.063 89.4791C405.063 89.4791 404.339 91.7875 400.609 92.4808L399.372 94.852C399.372 94.852 403.15 93.8095 404.427 92.6178C404.427 92.6178 403.324 94.8561 399.015 95.4225L397.478 97.5796C397.478 97.5796 400.797 96.9309 402.497 95.9158C402.497 95.9158 401.025 97.7714 397.001 98.1734L395.805 99.4727C395.805 99.4727 398.22 98.9591 398.906 98.7622C399.59 98.5632 399.696 98.7114 399.696 98.7114C398.387 99.555 396.868 100.018 395.313 100.043C395.314 100.043 392.717 102.554 392.851 102.73Z" fill="#4085C6"/>
<path d="M237.509 147.809C237.509 147.809 257.985 148.162 254.979 133.935C254.979 133.935 255.369 131.394 253.014 130.328C253.014 130.328 253.018 131.395 250.947 131.122C250.208 131.028 249.462 131.024 248.725 131.112C247.727 131.217 246.789 131.652 246.056 132.348C246.056 132.348 240.411 134.97 238.572 144.464C238.572 144.464 237.006 146.587 237.091 147.108L240.485 145.479C240.485 145.479 239.2 143.038 240.047 140.931C240.047 140.931 240.325 145.384 240.999 145.256C241.129 145.234 242.752 144.32 242.752 144.32C242.752 144.32 240.55 140.07 241.947 136.848C241.947 136.848 241.588 142.22 243.374 143.979L245.74 142.452C245.74 142.452 243.19 138.075 244.647 134.354C244.647 134.354 244.468 139.977 246.244 142.087L248.374 140.268C248.374 140.268 245.961 135.951 247.198 132.863C247.198 132.863 247.647 139.379 248.834 139.822C248.834 139.822 250.683 138.039 250.939 137.343C250.939 137.343 249.284 134.203 250.158 132.471C250.158 132.471 250.921 136.797 251.397 136.795C251.397 136.795 253.192 133.832 253.315 131.845C253.295 133.675 252.8 135.47 251.873 137.051C252.968 136.794 253.966 136.222 254.742 135.404C254.742 135.404 254.531 137.451 251.443 137.74C251.443 137.74 249.962 139.984 249.53 140.149C249.53 140.149 252.661 140.281 254.477 139.356C254.477 139.356 252.901 141.351 248.986 140.647L246.89 142.517C246.89 142.517 250.984 142.894 252.681 142.205C252.681 142.205 250.766 143.993 246.32 142.942L244.025 144.471C244.025 144.471 247.524 145.068 249.583 144.704C249.583 144.704 247.453 145.98 243.351 144.873L241.688 145.71C241.688 145.71 244.245 146.112 244.998 146.151C245.751 146.189 245.792 146.399 245.792 146.399C244.192 146.738 242.532 146.627 240.993 146.075C240.991 146.081 237.435 147.588 237.509 147.809Z" fill="#4085C6"/>
<path d="M355.171 93.684C355.171 93.684 344.719 76.065 334.189 86.0911C334.189 86.0911 331.821 87.1133 332.155 89.6622C332.155 89.6622 333.053 89.0917 333.915 90.998C334.223 91.6761 334.611 92.3156 335.072 92.9013C335.689 93.6931 336.551 94.2605 337.525 94.5143C337.525 94.5143 342.714 97.9423 351.76 94.5143C351.76 94.5143 354.385 94.7346 354.783 94.3854L351.625 92.3532C351.625 92.3532 350.226 94.7245 347.989 95.1153C347.989 95.1153 351.631 92.5187 351.173 92.0304C351.078 91.9289 349.452 91.0265 349.452 91.0265C349.452 91.0265 346.995 95.1376 343.535 95.637C343.535 95.637 348.292 93.1216 348.842 90.6824L346.306 89.4876C346.306 89.4876 343.924 93.9641 339.99 94.6798C339.99 94.6798 344.87 91.8781 345.732 89.2612L343.073 88.4014C343.073 88.4014 340.662 92.6993 337.392 93.2922C337.392 93.2922 342.695 89.4856 342.448 88.2461C342.448 88.2461 339.966 87.6005 339.221 87.7508C339.221 87.7508 337.417 90.8092 335.486 90.9747C335.486 90.9747 338.761 88.0634 338.516 87.6543C338.516 87.6543 335.049 87.6787 333.3 88.6207C334.869 87.6756 336.655 87.159 338.484 87.1173C337.688 86.3185 336.676 85.7683 335.574 85.5379C335.574 85.5379 337.43 84.6395 339.338 87.1173C339.338 87.1173 342.027 87.2077 342.388 87.4818C342.388 87.4818 340.866 84.7948 339.121 83.6874C339.121 83.6874 341.641 83.9787 343.098 87.6858L345.788 88.4918C345.788 88.4918 343.964 84.805 342.479 83.7188C342.479 83.7188 345.006 84.4121 346.45 88.7496L348.952 89.9139C348.952 89.9139 347.623 86.6199 346.263 85.079C346.263 85.079 348.462 86.222 349.683 90.2966L351.261 91.2752C351.261 91.2752 350.249 88.8846 349.893 88.2228C349.539 87.562 349.69 87.4158 349.69 87.4158C350.818 88.6004 351.595 90.0723 351.933 91.6721C351.93 91.6751 355.013 93.8626 355.171 93.684Z" fill="#4085C6"/>
<path d="M417.989 66.8378C417.989 66.8378 438.336 69.1482 436.711 54.6952C436.711 54.6952 437.329 52.1859 435.098 50.915C435.098 50.915 435.009 51.9748 432.971 51.5109C432.242 51.3465 431.499 51.2713 430.755 51.2835C429.751 51.2987 428.78 51.6429 427.989 52.2661C427.989 52.2661 422.123 54.3329 419.388 63.6189C419.388 63.6189 417.626 65.5791 417.665 66.1069L421.193 64.8167C421.193 64.8167 420.15 62.2658 421.188 60.2478C421.188 60.2478 421.056 64.7213 421.722 64.6513C421.86 64.634 423.562 63.8839 423.562 63.8839C423.562 63.8839 421.772 59.4388 423.464 56.3773C423.464 56.3773 422.596 61.6903 424.204 63.6057L426.686 62.3054C426.686 62.3054 424.561 57.6989 426.369 54.1309C426.369 54.1309 425.649 59.7149 427.213 61.9816L429.503 60.3808C429.503 60.3808 427.537 55.8616 429.04 52.8965C429.04 52.8965 428.866 59.4266 430.004 59.9778C430.004 59.9778 432.017 58.3871 432.348 57.703C432.348 57.703 431 54.4191 432.033 52.7757C432.033 52.7757 432.373 57.1487 432.849 57.1975C432.849 57.1975 434.923 54.4202 435.229 52.457C435.033 54.276 434.367 56.0118 433.298 57.4969C434.415 57.3467 435.465 56.8696 436.314 56.1326C436.314 56.1326 435.908 58.1537 432.783 58.1811C432.783 58.1811 431.084 60.2712 430.65 60.393C430.65 60.393 433.709 60.801 435.643 60.0803C435.643 60.0803 433.889 61.9126 430.057 60.8345L427.789 62.4932C427.789 62.4932 431.827 63.2657 433.586 62.7368C433.586 62.7368 431.51 64.3336 427.183 62.8637L424.744 64.1539C424.744 64.1539 428.17 65.0857 430.221 64.9315C430.221 64.9315 427.98 65.9943 424 64.5092L422.265 65.1761C422.265 65.1761 424.781 65.8136 425.524 65.9293C426.265 66.045 426.29 66.2531 426.29 66.2531C424.666 66.4389 423.024 66.1678 421.544 65.4715C421.544 65.4705 417.942 66.6064 417.989 66.8378Z" fill="#4085C6"/>
<path d="M428.816 12.9646C429.036 11.3445 429.7 9.81578 430.737 8.55098C430.737 8.55098 430.895 8.68294 430.592 9.37016C430.287 10.0584 429.457 12.518 429.457 12.518L430.956 11.4227C431.869 7.26992 433.977 5.96248 433.977 5.96248C432.735 7.60186 431.659 10.9892 431.659 10.9892L434.064 9.63713C435.178 5.20319 437.645 4.32311 437.645 4.32311C436.248 5.51686 434.707 9.33057 434.707 9.33057L437.33 8.32359C438.504 4.518 440.991 4.03786 440.991 4.03786C439.337 5.27222 438.019 8.06677 438.019 8.06677C438.358 7.76631 441.034 7.47294 441.034 7.47294C442.75 4.86111 444.67 5.61431 444.67 5.61431C443.591 5.93 442.62 6.55428 441.887 7.41001C443.714 7.31256 445.536 7.69626 447.168 8.52052C445.354 7.7125 441.897 7.95004 441.897 7.95004C441.681 8.37536 445.168 11.0349 445.168 11.0349C443.23 11.0136 441.201 8.09824 441.201 8.09824C440.449 8.00485 438.02 8.8352 438.02 8.8352C437.865 10.0899 443.441 13.4864 443.441 13.4864C440.136 13.1422 437.412 9.03517 437.412 9.03517L434.823 10.0929C435.877 12.6377 440.956 15.0628 440.956 15.0628C436.98 14.6476 434.268 10.3609 434.268 10.3609L431.829 11.7445C432.563 14.136 437.495 16.288 437.495 16.288C434.007 16.0505 431.247 12.1343 431.247 12.1343C431.247 12.1343 429.693 13.1595 429.603 13.2661C429.183 13.7868 433.012 16.1033 433.012 16.1033C430.752 15.882 429.178 13.6214 429.178 13.6214L426.183 15.886C426.606 16.2068 429.205 15.7866 429.205 15.7866C438.485 18.5222 443.402 14.7126 443.402 14.7126C444.352 14.3888 445.172 13.7594 445.726 12.922C446.142 12.3038 446.481 11.6369 446.737 10.9364C447.455 8.97021 448.391 9.47166 448.391 9.47166C448.534 6.90652 446.095 6.06399 446.095 6.06399C434.842 -3.14088 425.744 15.2191 425.744 15.2191C425.91 15.3826 428.819 12.9707 428.816 12.9646Z" fill="#4085C6"/>
<path d="M292.437 115.425C292.437 115.425 292.972 94.9504 278.731 97.8364C278.731 97.8364 276.181 97.4435 275.105 99.7762C275.105 99.7762 276.183 99.7772 275.883 101.845C275.783 102.584 275.773 103.33 275.85 104.07C275.949 105.073 276.373 106.017 277.062 106.756C277.062 106.756 279.627 112.421 289.099 114.345C289.099 114.345 291.204 115.93 291.731 115.844L290.116 112.449C290.116 112.449 287.668 113.705 285.563 112.851C285.563 112.851 290.033 112.587 289.906 111.931C289.906 111.798 288.981 110.165 288.981 110.165C288.981 110.165 284.71 112.341 281.509 110.913C281.509 110.913 286.889 111.315 288.647 109.545L287.144 107.166C287.144 107.166 282.744 109.681 279.032 108.198C279.032 108.198 284.654 108.426 286.784 106.668L284.992 104.517C284.992 104.517 280.652 106.892 277.574 105.636C277.574 105.636 284.092 105.242 284.568 104.055C284.568 104.055 282.802 102.19 282.092 101.905C282.092 101.905 278.941 103.518 277.216 102.646C277.216 102.646 281.521 101.925 281.548 101.446C281.548 101.446 278.605 99.6239 276.618 99.4889C278.447 99.5214 280.237 100.032 281.81 100.973C281.564 99.8736 281.001 98.8718 280.194 98.0861C280.194 98.0861 282.244 98.3185 282.525 101.42C282.525 101.42 284.765 102.934 284.912 103.353C284.912 103.353 285.066 100.252 284.171 98.4038C284.171 98.4038 286.148 99.9884 285.409 103.901L287.253 106.018C287.253 106.018 287.675 101.923 286.999 100.218C286.999 100.218 288.764 102.149 287.679 106.587L289.171 108.902C289.171 108.902 289.806 105.406 289.466 103.345C289.466 103.345 290.715 105.495 289.575 109.584L290.392 111.25C290.392 111.25 290.806 108.689 290.861 107.94C290.915 107.194 291.117 107.147 291.117 107.147C291.443 108.75 291.316 110.41 290.747 111.945C290.753 111.948 292.2 115.495 292.437 115.425Z" fill="#4085C6"/>
<path opacity="0.1" d="M67.2174 239.631C78.6398 239.631 87.8997 238.066 87.8997 236.141C87.8997 234.215 78.6398 232.65 67.2174 232.65C55.7951 232.65 46.5352 234.216 46.5352 236.141C46.5341 238.065 55.7961 239.631 67.2174 239.631Z" fill="#242122"/>
<path opacity="0.1" d="M122.143 266.737C129.612 266.737 135.669 265.716 135.669 264.454C135.669 263.194 129.612 262.172 122.143 262.172C114.673 262.172 108.615 263.196 108.615 264.454C108.615 265.716 114.672 266.737 122.143 266.737Z" fill="#242122"/>
<path d="M282.977 274.371C294.132 274.371 303.177 272.843 303.177 270.961C303.177 269.075 294.133 267.548 282.977 267.548C271.82 267.548 262.779 269.076 262.779 270.961C262.779 272.843 271.821 274.371 282.977 274.371Z" fill="#4085C6"/>
<path d="M280.16 265.616C281.081 264.873 281.752 263.861 282.084 262.719C282.334 261.561 281.841 260.185 280.742 259.763C279.506 259.292 278.185 260.146 277.18 261.009C276.175 261.873 275.035 262.86 273.724 262.679C274.398 262.066 274.899 261.294 275.184 260.431C275.468 259.568 275.529 258.645 275.351 257.756C275.291 257.387 275.135 257.039 274.898 256.753C274.21 256.017 272.969 256.336 272.147 256.914C269.534 258.752 268.806 262.292 268.788 265.481C268.527 264.331 268.751 263.133 268.742 261.97C268.738 260.807 268.413 259.463 267.414 258.849C266.8 258.505 266.105 258.334 265.402 258.345C264.23 258.305 262.917 258.422 262.121 259.279C261.115 260.345 261.382 262.133 262.244 263.294C263.109 264.454 264.428 265.201 265.646 266.014C266.622 266.595 267.449 267.384 268.076 268.327C268.146 268.458 268.207 268.596 268.252 268.739H275.618C277.266 267.91 278.794 266.859 280.16 265.616Z" fill="#4085C6"/>
<path opacity="0.15" d="M429.625 178.321C429.625 178.321 445.758 173.075 439.569 162.769C439.569 162.769 439.174 160.675 437.072 160.483C437.072 160.483 437.37 161.324 435.652 161.669C435.049 161.794 434.465 161.992 433.906 162.258C433.153 162.614 432.535 163.207 432.153 163.945C432.153 163.945 428.438 167.516 429.551 175.425C429.551 175.425 428.898 177.509 429.108 177.891L431.324 175.713C431.324 175.713 429.646 174.161 429.766 172.269C429.766 172.269 431.205 175.678 431.669 175.399C431.77 175.354 432.789 174.195 432.789 174.195C432.789 174.195 429.915 171.467 430.136 168.563C430.136 168.563 431.303 172.852 433.178 173.744L434.621 171.913C434.621 171.913 431.434 169.185 431.572 165.883C431.572 165.883 432.952 170.324 434.909 171.496L436.083 169.499C436.083 169.499 433.036 166.776 433.169 164.032C433.169 164.032 435.273 169.002 436.325 169.024C436.325 169.024 437.287 167.125 437.313 166.508C437.313 166.508 435.167 164.503 435.386 162.916C435.386 162.916 437.148 166.085 437.52 165.957C437.52 165.957 438.133 163.156 437.689 161.577C438.169 163.012 438.262 164.548 437.964 166.031C438.751 165.537 439.38 164.818 439.766 163.969C439.766 163.969 440.156 165.63 437.81 166.71C437.81 166.71 437.242 168.875 436.942 169.109C436.942 169.109 439.409 168.373 440.603 167.164C440.603 167.164 439.908 169.14 436.648 169.646L435.511 171.67C435.511 171.67 438.82 170.864 439.964 169.868C439.964 169.868 438.951 171.793 435.181 172.163L433.783 173.966C433.783 173.966 436.687 173.488 438.201 172.653C438.201 172.653 436.875 174.23 433.363 174.467L432.288 175.57C432.288 175.57 434.404 175.18 435.001 175.013C435.6 174.846 435.691 174.993 435.691 174.993C434.529 175.692 433.197 176.053 431.845 176.037C431.843 176.037 429.505 178.163 429.625 178.321Z" fill="#4085C6"/>
<path opacity="0.15" d="M424.886 179.088C424.886 179.088 409.683 171.558 406.912 183.254C406.912 183.254 405.736 185.03 407.102 186.636C407.102 186.636 407.475 185.825 408.941 186.784C409.46 187.115 410.016 187.379 410.598 187.579C411.383 187.845 412.233 187.854 413.02 187.6C413.02 187.6 418.17 187.644 422.896 181.203C422.896 181.203 424.819 180.176 424.936 179.749L421.83 179.76C421.83 179.76 421.946 182.044 420.54 183.311C420.54 183.311 421.89 179.869 421.363 179.738C421.258 179.701 419.72 179.817 419.72 179.817C419.72 179.817 419.87 183.775 417.685 185.7C417.685 185.7 419.845 181.816 419.127 179.871L416.818 180.167C416.818 180.167 417.192 184.348 414.787 186.614C414.787 186.614 416.905 182.474 416.319 180.267L414.085 180.875C414.085 180.875 414.363 184.955 412.357 186.83C412.357 186.83 414.321 181.796 413.583 181.046C413.583 181.046 411.568 181.731 411.12 182.155C411.12 182.155 411.258 185.092 409.989 186.073C409.989 186.073 410.942 182.574 410.588 182.407C410.588 182.407 408.196 183.984 407.413 185.425C408.068 184.063 409.074 182.899 410.32 182.047C409.412 181.851 408.461 181.926 407.593 182.259C407.593 182.259 408.478 180.801 410.909 181.674C410.909 181.674 412.823 180.52 413.21 180.562C413.21 180.562 410.93 179.366 409.228 179.396C409.228 179.396 411.109 178.462 413.795 180.383L416.02 179.73C416.02 179.73 413.089 177.992 411.573 177.903C411.573 177.903 413.643 177.239 416.596 179.617L418.857 179.3C418.857 179.3 416.444 177.607 414.78 177.147C414.78 177.147 416.829 176.948 419.503 179.236L421.041 179.202C421.041 179.202 419.257 177.999 418.72 177.7C418.179 177.4 418.205 177.229 418.205 177.229C419.525 177.546 420.728 178.223 421.687 179.178C421.688 179.171 424.862 179.282 424.886 179.088Z" fill="#4085C6"/>
<path opacity="0.15" d="M431.336 146.169C431.336 146.169 448.274 146.46 445.789 134.689C445.789 134.689 446.11 132.587 444.162 131.706C444.162 131.706 444.165 132.588 442.45 132.363C441.838 132.286 441.223 132.283 440.612 132.356C439.787 132.443 439.01 132.802 438.403 133.378C438.403 133.378 433.734 135.547 432.212 143.403C432.212 143.403 430.917 145.158 430.987 145.589L433.796 144.241C433.796 144.241 432.733 142.221 433.432 140.478C433.432 140.478 433.665 144.162 434.219 144.058C434.326 144.036 435.671 143.281 435.671 143.281C435.671 143.281 433.847 139.765 435.006 137.099C435.006 137.099 434.708 141.544 436.186 143L438.144 141.736C438.144 141.736 436.035 138.116 437.239 135.038C437.239 135.038 437.091 139.69 438.56 141.436L440.32 139.93C440.32 139.93 438.324 136.359 439.347 133.804C439.347 133.804 439.718 139.194 440.701 139.563C440.701 139.563 442.232 138.088 442.443 137.511C442.443 137.511 441.073 134.913 441.797 133.479C441.797 133.479 442.427 137.059 442.822 137.057C442.822 137.057 444.306 134.605 444.406 132.962C444.392 134.475 443.981 135.96 443.215 137.269C444.122 137.056 444.947 136.582 445.589 135.906C445.589 135.906 445.414 137.6 442.862 137.839C442.862 137.839 441.636 139.696 441.279 139.832C441.279 139.832 443.87 139.939 445.37 139.175C445.37 139.175 444.067 140.825 440.827 140.242L439.092 141.79C439.092 141.79 442.479 142.104 443.885 141.531C443.885 141.531 442.301 143.01 438.623 142.141L436.723 143.407C436.723 143.407 439.617 143.9 441.321 143.6C441.321 143.6 439.56 144.656 436.165 143.741L434.789 144.432C434.789 144.432 436.907 144.765 437.529 144.798C438.151 144.829 438.185 145.003 438.185 145.003C436.861 145.285 435.487 145.192 434.215 144.735C434.216 144.739 431.276 145.986 431.336 146.169Z" fill="#4085C6"/>
</svg>
