<svg width="61" height="61" viewBox="0 0 61 61" fill="none" xmlns="http://www.w3.org/2000/svg">
<circle cx="33.999" cy="26.7827" r="21" fill="#FFF9E7"/>
<g filter="url(#filter0_d)">
<path d="M34 51.7835C20.1929 51.7835 9 40.5906 9 26.7835C9 17.19 14.4037 8.85864 22.3333 4.66699" stroke="black" stroke-linecap="round"/>
</g>
<path d="M59 27C59 40.8071 47.8071 52 34 52C20.1929 52 9 40.8071 9 27C9 13.1929 20.1929 2 34 2C35.5948 2 37.1548 2.14934 38.6667 2.43479" stroke="url(#paint0_linear)" stroke-width="3" stroke-linecap="round"/>
<path d="M59 27C59 40.8071 47.8071 52 34 52C20.1929 52 9 40.8071 9 27C9 13.1929 20.1929 2 34 2C35.5948 2 37.1548 2.14934 38.6667 2.43479" stroke="url(#paint1_linear)" stroke-opacity="0.4" stroke-width="3" stroke-linecap="round"/>
<path d="M22.1299 30.3449C23.6544 30.3449 24.6707 29.3861 24.6707 28.0373C24.6707 26.7909 23.8014 25.9024 22.6253 25.9024C22.0052 25.9024 21.4907 26.1677 21.2733 26.5288H21.235L21.3852 24.9851H24.284V23.7099H20.0844L19.8 27.2383L21.1966 27.5004C21.3724 27.2064 21.7368 27.0242 22.1203 27.0274C22.7211 27.0274 23.1494 27.4525 23.1462 28.0821C23.1494 28.7085 22.7275 29.1304 22.1299 29.1304C21.6217 29.1304 21.203 28.814 21.1807 28.3314H19.6466C19.6657 29.5075 20.6981 30.3449 22.1299 30.3449ZM28.3731 30.4152C30.0861 30.4184 31.1376 29.1527 31.1408 26.9922C31.144 24.8445 30.0861 23.6204 28.3731 23.6204C26.66 23.6204 25.6117 24.8413 25.6085 26.9922C25.6021 29.1464 26.66 30.4152 28.3731 30.4152ZM28.3731 29.1208C27.6923 29.1208 27.2289 28.4368 27.2353 26.9922C27.2385 25.5764 27.6955 24.9052 28.3731 24.9052C29.0538 24.9052 29.5109 25.5764 29.5141 26.9922C29.5172 28.4368 29.057 29.1208 28.3731 29.1208ZM35.2163 23.4031H33.8836L31.7742 31.2397H33.1069L35.2163 23.4031ZM38.4185 30.3449C39.943 30.3449 40.9593 29.3861 40.9593 28.0373C40.9593 26.7909 40.09 25.9024 38.9139 25.9024C38.2938 25.9024 37.7793 26.1677 37.562 26.5288H37.5236L37.6738 24.9851H40.5726V23.7099H36.373L36.0886 27.2383L37.4853 27.5004C37.661 27.2064 38.0254 27.0242 38.4089 27.0274C39.0098 27.0274 39.438 27.4525 39.4348 28.0821C39.438 28.7085 39.0161 29.1304 38.4185 29.1304C37.9103 29.1304 37.4916 28.814 37.4693 28.3314H35.9352C35.9544 29.5075 36.9867 30.3449 38.4185 30.3449ZM44.6617 30.4152C46.3748 30.4184 47.4262 29.1527 47.4294 26.9922C47.4326 24.8445 46.3748 23.6204 44.6617 23.6204C42.9486 23.6204 41.9003 24.8413 41.8971 26.9922C41.8907 29.1464 42.9486 30.4152 44.6617 30.4152ZM44.6617 29.1208C43.9809 29.1208 43.5175 28.4368 43.5239 26.9922C43.5271 25.5764 43.9841 24.9052 44.6617 24.9052C45.3424 24.9052 45.7995 25.5764 45.8027 26.9922C45.8059 28.4368 45.3456 29.1208 44.6617 29.1208Z" fill="#FC9801"/>
<defs>
<filter id="filter0_d" x="0.5" y="0.166992" width="38" height="60.1166" filterUnits="userSpaceOnUse" color-interpolation-filters="sRGB">
<feFlood flood-opacity="0" result="BackgroundImageFix"/>
<feColorMatrix in="SourceAlpha" type="matrix" values="0 0 0 0 0 0 0 0 0 0 0 0 0 0 0 0 0 0 127 0"/>
<feOffset dx="-2" dy="2"/>
<feGaussianBlur stdDeviation="3"/>
<feColorMatrix type="matrix" values="0 0 0 0 0 0 0 0 0 0 0 0 0 0 0 0 0 0 0.31 0"/>
<feBlend mode="normal" in2="BackgroundImageFix" result="effect1_dropShadow"/>
<feBlend mode="normal" in="SourceGraphic" in2="effect1_dropShadow" result="shape"/>
</filter>
<linearGradient id="paint0_linear" x1="10.6667" y1="18.7491" x2="59.2528" y2="28.8532" gradientUnits="userSpaceOnUse">
<stop stop-color="#FEA929"/>
<stop offset="1" stop-color="#FBFAF9"/>
</linearGradient>
<linearGradient id="paint1_linear" x1="51.3333" y1="32.191" x2="8.99883" y2="32.8192" gradientUnits="userSpaceOnUse">
<stop stop-color="#FEA929" stop-opacity="0"/>
<stop offset="1" stop-color="#FB9700"/>
</linearGradient>
</defs>
</svg>
