<svg width="87" height="87" viewBox="0 0 87 87" fill="none" xmlns="http://www.w3.org/2000/svg">
<circle cx="46.5" cy="40.1748" r="31.5" fill="#FFF9E7"/>
<g filter="url(#filter0_d)">
<path d="M46.5 77.6748C25.7893 77.6748 9 60.8854 9 40.1748C9 25.7846 17.1055 13.2875 29 7" stroke="black" stroke-linecap="round"/>
</g>
<path d="M84 40.5C84 61.2107 67.2107 78 46.5 78C25.7893 78 9 61.2107 9 40.5C9 19.7893 25.7893 3 46.5 3C48.8923 3 51.2322 3.22401 53.5 3.65219" stroke="url(#paint0_linear)" stroke-width="5" stroke-linecap="round"/>
<path d="M84 40.5C84 61.2107 67.2107 78 46.5 78C25.7893 78 9 61.2107 9 40.5C9 19.7893 25.7893 3 46.5 3C48.8923 3 51.2322 3.22401 53.5 3.65219" stroke="url(#paint1_linear)" stroke-opacity="0.4" stroke-width="5" stroke-linecap="round"/>
<path d="M30.9844 44.7941C33.017 44.7941 34.3722 43.5157 34.3722 41.7174C34.3722 40.0555 33.2131 38.8708 31.6449 38.8708C30.8182 38.8708 30.1321 39.2245 29.8423 39.7061H29.7912L29.9915 37.6478H33.8565V35.9475H28.2571L27.8778 40.6521L29.7401 41.0015C29.9744 40.6095 30.4602 40.3666 30.9716 40.3708C31.7727 40.3708 32.3438 40.9376 32.3395 41.7771C32.3438 42.6123 31.7812 43.1748 30.9844 43.1748C30.3068 43.1748 29.7486 42.7529 29.7188 42.1095H27.6733C27.6989 43.6776 29.0753 44.7941 30.9844 44.7941ZM39.2664 44.8879C41.5505 44.8921 42.9524 43.2046 42.9567 40.324C42.961 37.4603 41.5505 35.8282 39.2664 35.8282C36.9823 35.8282 35.5845 37.4561 35.5803 40.324C35.5718 43.1961 36.9823 44.8879 39.2664 44.8879ZM39.2664 43.162C38.3587 43.162 37.7408 42.2501 37.7493 40.324C37.7536 38.4362 38.363 37.5413 39.2664 37.5413C40.174 37.5413 40.7834 38.4362 40.7877 40.324C40.7919 42.2501 40.1783 43.162 39.2664 43.162ZM48.3484 35.5384H46.5714L43.7589 45.9873H45.5359L48.3484 35.5384ZM52.5757 44.7941C54.6084 44.7941 55.9635 43.5157 55.9635 41.7174C55.9635 40.0555 54.8044 38.8708 53.2362 38.8708C52.4095 38.8708 51.7234 39.2245 51.4337 39.7061H51.3825L51.5828 37.6478H55.4479V35.9475H49.8484L49.4692 40.6521L51.3314 41.0015C51.5658 40.6095 52.0516 40.3666 52.5629 40.3708C53.3641 40.3708 53.9351 40.9376 53.9308 41.7771C53.9351 42.6123 53.3726 43.1748 52.5757 43.1748C51.8982 43.1748 51.3399 42.7529 51.3101 42.1095H49.2646C49.2902 43.6776 50.6666 44.7941 52.5757 44.7941ZM60.8577 44.8879C63.1418 44.8921 64.5438 43.2046 64.548 40.324C64.5523 37.4603 63.1418 35.8282 60.8577 35.8282C58.5736 35.8282 57.1759 37.4561 57.1716 40.324C57.1631 43.1961 58.5736 44.8879 60.8577 44.8879ZM60.8577 43.162C59.95 43.162 59.3321 42.2501 59.3407 40.324C59.3449 38.4362 59.9543 37.5413 60.8577 37.5413C61.7654 37.5413 62.3748 38.4362 62.379 40.324C62.3833 42.2501 61.7696 43.162 60.8577 43.162Z" fill="#FC9801"/>
<defs>
<filter id="filter0_d" x="0.5" y="2.49988" width="50.5" height="83.6749" filterUnits="userSpaceOnUse" color-interpolation-filters="sRGB">
<feFlood flood-opacity="0" result="BackgroundImageFix"/>
<feColorMatrix in="SourceAlpha" type="matrix" values="0 0 0 0 0 0 0 0 0 0 0 0 0 0 0 0 0 0 127 0"/>
<feOffset dx="-2" dy="2"/>
<feGaussianBlur stdDeviation="3"/>
<feColorMatrix type="matrix" values="0 0 0 0 0 0 0 0 0 0 0 0 0 0 0 0 0 0 0.31 0"/>
<feBlend mode="normal" in2="BackgroundImageFix" result="effect1_dropShadow"/>
<feBlend mode="normal" in="SourceGraphic" in2="effect1_dropShadow" result="shape"/>
</filter>
<linearGradient id="paint0_linear" x1="11.5" y1="28.1237" x2="84.3791" y2="43.2798" gradientUnits="userSpaceOnUse">
<stop stop-color="#FEA929"/>
<stop offset="1" stop-color="#FBFAF9"/>
</linearGradient>
<linearGradient id="paint1_linear" x1="72.5" y1="48.2865" x2="8.99824" y2="49.2288" gradientUnits="userSpaceOnUse">
<stop stop-color="#FEA929" stop-opacity="0"/>
<stop offset="1" stop-color="#FB9700"/>
</linearGradient>
</defs>
</svg>
