<svg width="18" height="18" viewBox="0 0 18 18" fill="none" xmlns="http://www.w3.org/2000/svg">
<path d="M13.801 10.6103C13.3285 10.6135 12.8626 10.7211 12.4367 10.9255C12.0108 11.1299 11.6355 11.4259 11.3378 11.7924L7.25916 9.91546C7.45093 9.329 7.45093 8.69683 7.25916 8.11037L11.3378 6.23341C11.819 6.81324 12.4897 7.2047 13.2317 7.33869C13.9737 7.47269 14.7393 7.3406 15.3933 6.96575C16.0473 6.5909 16.5476 5.99737 16.8061 5.28993C17.0646 4.58249 17.0645 3.8066 16.8059 3.0992C16.5473 2.39181 16.0468 1.79838 15.3928 1.42364C14.7387 1.04891 13.9732 0.916962 13.2312 1.05109C12.4892 1.18522 11.8185 1.5768 11.3375 2.15672C10.8564 2.73664 10.596 3.46762 10.6021 4.22066C10.6045 4.41094 10.6232 4.60066 10.6581 4.78775L6.43543 6.72861C5.98524 6.28898 5.41516 5.99181 4.79661 5.87433C4.17806 5.75685 3.53855 5.82429 2.9582 6.06818C2.37786 6.31208 1.88248 6.7216 1.53414 7.24542C1.18581 7.76925 1 8.38409 1 9.01291C1 9.64174 1.18581 10.2566 1.53414 10.7804C1.88248 11.3042 2.37786 11.7137 2.9582 11.9576C3.53855 12.2015 4.17806 12.269 4.79661 12.1515C5.41516 12.034 5.98524 11.7368 6.43543 11.2972L10.6581 13.2381C10.6232 13.4252 10.6045 13.6149 10.6021 13.8052C10.6021 14.437 10.7897 15.0547 11.1412 15.5801C11.4927 16.1055 11.9923 16.515 12.5768 16.7568C13.1614 16.9986 13.8046 17.0619 14.4251 16.9386C15.0457 16.8153 15.6157 16.5111 16.063 16.0643C16.5104 15.6174 16.8151 15.0482 16.9385 14.4284C17.062 13.8087 16.9986 13.1663 16.7565 12.5826C16.5144 11.9988 16.1044 11.4998 15.5783 11.1488C15.0522 10.7977 14.4337 10.6103 13.801 10.6103ZM13.801 2.62325C14.1174 2.62325 14.4266 2.71693 14.6897 2.89246C14.9527 3.06799 15.1577 3.31747 15.2788 3.60936C15.3998 3.90125 15.4315 4.22244 15.3698 4.53231C15.3081 4.84217 15.1557 5.12681 14.932 5.35021C14.7084 5.57361 14.4234 5.72575 14.1131 5.78739C13.8028 5.84902 13.4812 5.81739 13.1889 5.69649C12.8967 5.57558 12.6469 5.37084 12.4711 5.10814C12.2954 4.84545 12.2016 4.5366 12.2016 4.22066C12.2016 3.797 12.3701 3.39069 12.67 3.09112C12.97 2.79155 13.3768 2.62325 13.801 2.62325ZM4.20416 10.6103C3.88781 10.6103 3.57857 10.5166 3.31553 10.3411C3.0525 10.1656 2.84749 9.91611 2.72643 9.62422C2.60537 9.33233 2.57369 9.01114 2.63541 8.70127C2.69713 8.39141 2.84946 8.10677 3.07315 7.88337C3.29684 7.65997 3.58185 7.50783 3.89211 7.44619C4.20238 7.38456 4.52398 7.41619 4.81625 7.53709C5.10852 7.658 5.35832 7.86274 5.53408 8.12544C5.70983 8.38813 5.80364 8.69698 5.80364 9.01291C5.80364 9.43658 5.63512 9.84289 5.33516 10.1425C5.0352 10.442 4.62837 10.6103 4.20416 10.6103ZM13.801 15.4026C13.4847 15.4026 13.1754 15.3089 12.9124 15.1334C12.6494 14.9578 12.4444 14.7084 12.3233 14.4165C12.2023 14.1246 12.1706 13.8034 12.2323 13.4935C12.294 13.1837 12.4463 12.899 12.67 12.6756C12.8937 12.4522 13.1787 12.3001 13.489 12.2384C13.7993 12.1768 14.1209 12.2084 14.4131 12.3293C14.7054 12.4502 14.9552 12.655 15.131 12.9177C15.3067 13.1804 15.4005 13.4892 15.4005 13.8052C15.4005 14.2288 15.232 14.6351 14.932 14.9347C14.6321 15.2343 14.2252 15.4026 13.801 15.4026Z" fill="#A4A3B4"/>
</svg>
