<svg width="18" height="18" viewBox="0 0 18 18" fill="none" xmlns="http://www.w3.org/2000/svg">
<path d="M8.99996 11.0085C10.1091 11.0085 11.0082 10.1093 11.0082 9.00021C11.0082 7.89107 10.1091 6.99194 8.99996 6.99194C7.89083 6.99194 6.9917 7.89107 6.9917 9.00021C6.9917 10.1093 7.89083 11.0085 8.99996 11.0085Z" stroke="#A4A3B4" stroke-width="1.6" stroke-linecap="round" stroke-linejoin="round"/>
<path d="M13.9537 11.0084C13.8646 11.2103 13.838 11.4343 13.8774 11.6514C13.9168 11.8686 14.0203 12.069 14.1746 12.2267L14.2148 12.2669C14.3393 12.3912 14.438 12.5389 14.5054 12.7014C14.5728 12.864 14.6074 13.0382 14.6074 13.2141C14.6074 13.3901 14.5728 13.5643 14.5054 13.7268C14.438 13.8893 14.3393 14.037 14.2148 14.1613C14.0904 14.2858 13.9428 14.3846 13.7802 14.452C13.6177 14.5193 13.4435 14.554 13.2675 14.554C13.0916 14.554 12.9174 14.5193 12.7549 14.452C12.5923 14.3846 12.4447 14.2858 12.3203 14.1613L12.2802 14.1212C12.1224 13.9669 11.922 13.8633 11.7048 13.824C11.4877 13.7846 11.2637 13.8112 11.0618 13.9003C10.8638 13.9851 10.695 14.126 10.576 14.3056C10.4571 14.4852 10.3932 14.6957 10.3924 14.9111V15.0249C10.3924 15.38 10.2513 15.7205 10.0002 15.9716C9.74916 16.2227 9.40863 16.3637 9.05354 16.3637C8.69846 16.3637 8.35792 16.2227 8.10684 15.9716C7.85576 15.7205 7.7147 15.38 7.7147 15.0249V14.9647C7.70952 14.7431 7.63779 14.5282 7.50886 14.3479C7.37992 14.1676 7.19974 14.0303 6.99172 13.9538C6.78982 13.8647 6.56584 13.8381 6.34869 13.8775C6.13153 13.9169 5.93115 14.0204 5.77338 14.1747L5.73321 14.2149C5.60887 14.3394 5.46121 14.4381 5.29868 14.5055C5.13614 14.5729 4.96193 14.6076 4.78598 14.6076C4.61004 14.6076 4.43582 14.5729 4.27328 14.5055C4.11075 14.4381 3.96309 14.3394 3.83875 14.2149C3.71427 14.0906 3.61552 13.9429 3.54814 13.7804C3.48076 13.6178 3.44608 13.4436 3.44608 13.2677C3.44608 13.0917 3.48076 12.9175 3.54814 12.755C3.61552 12.5924 3.71427 12.4448 3.83875 12.3204L3.87891 12.2803C4.03324 12.1225 4.13677 11.9221 4.17614 11.705C4.21552 11.4878 4.18893 11.2638 4.09982 11.0619C4.01497 10.8639 3.87406 10.6951 3.69447 10.5761C3.51487 10.4572 3.30441 10.3934 3.089 10.3925H2.9752C2.62011 10.3925 2.27957 10.2515 2.02849 10.0004C1.77741 9.74929 1.63635 9.40875 1.63635 9.05366C1.63635 8.69858 1.77741 8.35804 2.02849 8.10696C2.27957 7.85588 2.62011 7.71482 2.9752 7.71482H3.03544C3.25702 7.70964 3.47191 7.63792 3.65218 7.50898C3.83245 7.38005 3.96977 7.19986 4.04627 6.99185C4.13538 6.78994 4.16196 6.56596 4.12259 6.34881C4.08321 6.13165 3.97969 5.93127 3.82536 5.7735L3.7852 5.73333C3.66071 5.60899 3.56196 5.46133 3.49459 5.2988C3.42721 5.13627 3.39253 4.96205 3.39253 4.7861C3.39253 4.61016 3.42721 4.43594 3.49459 4.27341C3.56196 4.11087 3.66071 3.96321 3.7852 3.83887C3.90954 3.71439 4.0572 3.61564 4.21973 3.54826C4.38226 3.48089 4.55648 3.44621 4.73243 3.44621C4.90837 3.44621 5.08259 3.48089 5.24512 3.54826C5.40766 3.61564 5.55532 3.71439 5.67966 3.83887L5.71982 3.87904C5.87759 4.03336 6.07797 4.13689 6.29513 4.17626C6.51229 4.21564 6.73626 4.18906 6.93817 4.09995H6.99172C7.18972 4.01509 7.35858 3.87419 7.47752 3.69459C7.59646 3.51499 7.66029 3.30453 7.66115 3.08912V2.97532C7.66115 2.62023 7.8022 2.27969 8.05328 2.02861C8.30437 1.77753 8.64491 1.63647 8.99999 1.63647C9.35507 1.63647 9.69561 1.77753 9.94669 2.02861C10.1978 2.27969 10.3388 2.62023 10.3388 2.97532V3.03557C10.3397 3.25098 10.4035 3.46143 10.5225 3.64103C10.6414 3.82063 10.8103 3.96153 11.0083 4.04639C11.2102 4.1355 11.4341 4.16208 11.6513 4.12271C11.8684 4.08333 12.0688 3.97981 12.2266 3.82548L12.2668 3.78532C12.3911 3.66084 12.5388 3.56208 12.7013 3.49471C12.8638 3.42733 13.0381 3.39265 13.214 3.39265C13.3899 3.39265 13.5642 3.42733 13.7267 3.49471C13.8892 3.56208 14.0369 3.66084 14.1612 3.78532C14.2857 3.90966 14.3845 4.05732 14.4518 4.21985C14.5192 4.38238 14.5539 4.5566 14.5539 4.73255C14.5539 4.90849 14.5192 5.08271 14.4518 5.24525C14.3845 5.40778 14.2857 5.55544 14.1612 5.67978L14.1211 5.71995C13.9667 5.87771 13.8632 6.0781 13.8238 6.29525C13.7845 6.51241 13.811 6.73638 13.9002 6.93829V6.99185C13.985 7.18984 14.1259 7.3587 14.3055 7.47764C14.4851 7.59658 14.6956 7.66041 14.911 7.66127H15.0248C15.3799 7.66127 15.7204 7.80232 15.9715 8.05341C16.2226 8.30449 16.3636 8.64503 16.3636 9.00011C16.3636 9.35519 16.2226 9.69573 15.9715 9.94682C15.7204 10.1979 15.3799 10.339 15.0248 10.339H14.9645C14.7491 10.3398 14.5387 10.4036 14.3591 10.5226C14.1795 10.6415 14.0386 10.8104 13.9537 11.0084V11.0084Z" stroke="#A4A3B4" stroke-width="1.6" stroke-linecap="round" stroke-linejoin="round"/>
</svg>
