<svg width="15" height="15" viewBox="0 0 15 15" fill="none" xmlns="http://www.w3.org/2000/svg">
<path fill-rule="evenodd" clip-rule="evenodd" d="M14.1856 5.69406L14.5004 5.90945C14.9809 6.24081 15.0637 6.93668 14.6495 7.36745L14.401 7.64911C14.1193 7.96391 14.0696 8.42782 14.285 8.79232L14.4838 9.12369C14.7655 9.6373 14.5501 10.2835 14.0034 10.5154L13.6554 10.6645C13.2744 10.8302 13.0258 11.2279 13.059 11.6421L13.0755 12.0231C13.1252 12.603 12.6448 13.1001 12.0483 13.0669L11.6672 13.0504C11.253 13.0172 10.8554 13.2657 10.7063 13.6634L10.5572 14.0279C10.3252 14.5746 9.67905 14.8066 9.16543 14.5249L8.83407 14.3427C8.453 14.1273 8.00566 14.1936 7.69086 14.4752L7.4092 14.7403C6.97842 15.138 6.29913 15.0717 5.95119 14.5912L5.71924 14.2764C5.48728 13.945 5.03994 13.7959 4.6423 13.9119L4.2778 14.0279C3.71448 14.1936 3.13459 13.8291 3.03518 13.2492L2.96891 12.8681C2.90264 12.4539 2.57127 12.1391 2.15707 12.0728L1.776 12.0066C1.19611 11.9072 0.815039 11.3273 0.980721 10.7639L1.12984 10.3829C1.24581 9.98524 1.0967 9.53789 0.748766 9.30594L0.433969 9.09055C-0.0630781 8.75919 -0.145919 8.07989 0.251718 7.63255L0.500242 7.35089C0.781902 7.03609 0.831607 6.57218 0.61622 6.20768L0.417401 5.87631C0.135741 5.3627 0.351128 4.71654 0.89788 4.48458L1.24581 4.33547C1.62688 4.16978 1.87541 3.77215 1.84227 3.35794L1.80913 2.97687C1.75943 2.39698 2.23991 1.89993 2.83636 1.93307L3.21743 1.94964C3.63164 1.98278 4.02928 1.73425 4.17839 1.33661L4.32751 0.972113C4.55946 0.425361 5.20562 0.193405 5.71924 0.475065L6.0506 0.657316C6.43167 0.872703 6.87901 0.80643 7.19381 0.52477L7.47547 0.259678C7.90625 -0.13796 8.58554 -0.0716867 8.93348 0.408792L9.16543 0.740157C9.39739 1.07152 9.84473 1.22064 10.2424 1.10466L10.6069 0.988681C11.1702 0.822998 11.7501 1.1875 11.8495 1.76739L11.9158 2.14846C11.982 2.56266 12.3134 2.87746 12.7276 2.94373L13.1087 3.01001C13.6886 3.10942 14.0696 3.6893 13.9039 4.25262L13.8045 4.61713C13.6886 5.01476 13.8377 5.46211 14.1856 5.69406ZM4.41278 6.82998L6.10488 8.47546L10.3789 4.32292L11.4583 5.37518L6.10488 10.5729L3.33333 7.88224L4.41278 6.82998Z" fill="#4F8DFF"/>
</svg>
