<svg width="22" height="15" viewBox="0 0 22 15" fill="none" xmlns="http://www.w3.org/2000/svg">
<path d="M11 2.03127C14.79 2.03127 18.17 4.01999 19.82 7.16644C18.17 10.3129 14.8 12.3016 11 12.3016C7.2 12.3016 3.83 10.3129 2.18 7.16644C3.83 4.01999 7.21 2.03127 11 2.03127ZM11 0.16394C6 0.16394 1.73 3.06764 0 7.16644C1.73 11.2652 6 14.1689 11 14.1689C16 14.1689 20.27 11.2652 22 7.16644C20.27 3.06764 16 0.16394 11 0.16394ZM11 4.83228C12.38 4.83228 13.5 5.87798 13.5 7.16644C13.5 8.4549 12.38 9.50061 11 9.50061C9.62 9.50061 8.5 8.4549 8.5 7.16644C8.5 5.87798 9.62 4.83228 11 4.83228ZM11 2.96494C8.52 2.96494 6.5 4.85095 6.5 7.16644C6.5 9.48194 8.52 11.3679 11 11.3679C13.48 11.3679 15.5 9.48194 15.5 7.16644C15.5 4.85095 13.48 2.96494 11 2.96494Z" fill="black"/>
</svg>
