<svg width="20" height="25" viewBox="0 0 20 25" fill="none" xmlns="http://www.w3.org/2000/svg">
<circle cx="9.98656" cy="9.98656" r="9.98656" fill="#F8E645" fill-opacity="0.24"/>
<path d="M4.51585 6.10202C5.73809 4.36306 7.7305 3.32812 9.85603 3.32812H10.1149C12.2404 3.32812 14.2328 4.36306 15.4551 6.10202C17.0069 8.30984 17.04 11.245 15.5385 13.4873L14.0748 15.673C13.7036 16.2273 13.5054 16.8795 13.5054 17.5466V18.8442C13.5054 19.0105 13.3707 19.1452 13.2044 19.1452H6.76651C6.60027 19.1452 6.46551 19.0105 6.46551 18.8442V17.5466C6.46551 16.8795 6.26732 16.2273 5.8961 15.673L4.43246 13.4873C2.93091 11.245 2.96406 8.30984 4.51585 6.10202Z" fill="#F8DB45"/>
<path d="M8.47852 23.3145H11.4885V23.9165C11.4885 24.4152 11.0842 24.8195 10.5855 24.8195H9.38152C8.8828 24.8195 8.47852 24.4152 8.47852 23.9165V23.3145Z" fill="#404040"/>
<path d="M7.87646 19.1016H12.0905C12.0905 18.2704 11.4167 17.5966 10.5855 17.5966H9.38147C8.55028 17.5966 7.87646 18.2704 7.87646 19.1016Z" fill="#FFA337"/>
<path d="M7.27441 20.6055H12.6924V22.1105C12.6924 22.7754 12.1534 23.3145 11.4884 23.3145H8.47842C7.81346 23.3145 7.27441 22.7754 7.27441 22.1105V20.6055Z" fill="#7C7C7C"/>
<path d="M10.2845 20.6055H12.6926V22.1105C12.6926 22.7754 12.1535 23.3145 11.4885 23.3145H10.2845V20.6055Z" fill="#646464"/>
<path d="M6.37134 18.5H13.5954V19.704C13.5954 20.5352 12.9215 21.209 12.0904 21.209H7.87634C7.04515 21.209 6.37134 20.5352 6.37134 19.704V18.5Z" fill="#D9D9D9"/>
<path d="M9.68262 18.5H13.5956V19.704C13.5956 20.5352 12.9218 21.209 12.0906 21.209H9.68262V18.5Z" fill="#AAAAAA"/>
<path d="M8.77954 18.5H11.1875V20.005C11.1875 20.67 10.6485 21.209 9.98354 21.209C9.31859 21.209 8.77954 20.67 8.77954 20.005V18.5Z" fill="#BABABA"/>
<path fill-rule="evenodd" clip-rule="evenodd" d="M8.47843 9.61936C8.06283 9.61936 7.72593 9.95627 7.72593 10.3719C7.72593 10.7875 8.06283 11.1244 8.47843 11.1244H9.23093V10.3719C9.23093 9.95627 8.89402 9.61936 8.47843 9.61936ZM9.53193 11.1244V10.3719C9.53193 9.79003 9.06026 9.31836 8.47843 9.31836C7.8966 9.31836 7.42493 9.79003 7.42493 10.3719C7.42493 10.9537 7.8966 11.4254 8.47843 11.4254H9.23093V18.3484H9.53193V11.4254H10.4349V18.0474H10.7359V11.4254H11.4884C12.0703 11.4254 12.5419 10.9537 12.5419 10.3719C12.5419 9.79003 12.0703 9.31836 11.4884 9.31836C10.9066 9.31836 10.4349 9.79003 10.4349 10.3719V11.1244H9.53193ZM10.7359 11.1244H11.4884C11.904 11.1244 12.2409 10.7875 12.2409 10.3719C12.2409 9.95627 11.904 9.61936 11.4884 9.61936C11.0728 9.61936 10.7359 9.95627 10.7359 10.3719V11.1244Z" fill="#FFA337"/>
<g style="mix-blend-mode:color-burn">
<path d="M13.8965 10.372C13.8965 12.5331 12.1445 14.285 9.98344 14.285C7.82235 14.285 6.07043 12.5331 6.07043 10.372C6.07043 8.2109 7.82235 6.45898 9.98344 6.45898C12.1445 6.45898 13.8965 8.2109 13.8965 10.372Z" fill="#C4C4C4"/>
</g>
<g style="mix-blend-mode:screen">
<path d="M8.77954 7.06164C8.77954 7.89284 8.10573 8.56665 7.27454 8.56665C6.44334 8.56665 5.76953 7.89284 5.76953 7.06164C5.76953 6.23045 6.44334 5.55664 7.27454 5.55664C8.10573 5.55664 8.77954 6.23045 8.77954 7.06164Z" fill="#888888"/>
</g>
</svg>
