<svg width="20" height="25" viewBox="0 0 20 25" fill="none" xmlns="http://www.w3.org/2000/svg">
<circle cx="9.98656" cy="9.98656" r="9.98656" fill="#F8E645" fill-opacity="0.24"/>
<path d="M4.51597 6.10202C5.73821 4.36306 7.73063 3.32812 9.85615 3.32812H10.115C12.2406 3.32812 14.233 4.36306 15.4552 6.10202C17.007 8.30984 17.0401 11.245 15.5386 13.4873L14.075 15.673C13.7037 16.2273 13.5056 16.8795 13.5056 17.5466V18.8442C13.5056 19.0105 13.3708 19.1452 13.2045 19.1452H6.76663C6.60039 19.1452 6.46563 19.0105 6.46563 18.8442V17.5466C6.46563 16.8795 6.26745 16.2273 5.89623 15.673L4.43258 13.4873C2.93104 11.245 2.96418 8.30984 4.51597 6.10202Z" fill="#F8DB45"/>
<path d="M8.47852 23.3145H11.4885V23.9165C11.4885 24.4152 11.0842 24.8195 10.5855 24.8195H9.38152C8.8828 24.8195 8.47852 24.4152 8.47852 23.9165V23.3145Z" fill="#404040"/>
<path d="M7.87671 19.1016H12.0907C12.0907 18.2704 11.4169 17.5966 10.5857 17.5966H9.38171C8.55052 17.5966 7.87671 18.2704 7.87671 19.1016Z" fill="#FFA337"/>
<path d="M7.27466 20.6055H12.6927V22.1105C12.6927 22.7754 12.1536 23.3145 11.4887 23.3145H8.47866C7.81371 23.3145 7.27466 22.7754 7.27466 22.1105V20.6055Z" fill="#7C7C7C"/>
<path d="M10.2847 20.6055H12.6927V22.1105C12.6927 22.7754 12.1536 23.3145 11.4887 23.3145H10.2847V20.6055Z" fill="#646464"/>
<path d="M6.37158 18.5H13.5956V19.704C13.5956 20.5352 12.9218 21.209 12.0906 21.209H7.87659C7.0454 21.209 6.37158 20.5352 6.37158 19.704V18.5Z" fill="#D9D9D9"/>
<path d="M9.68286 18.5H13.5959V19.704C13.5959 20.5352 12.9221 21.209 12.0909 21.209H9.68286V18.5Z" fill="#AAAAAA"/>
<path d="M8.77979 18.5H11.1878V20.005C11.1878 20.67 10.6487 21.209 9.98379 21.209C9.31884 21.209 8.77979 20.67 8.77979 20.005V18.5Z" fill="#BABABA"/>
<path fill-rule="evenodd" clip-rule="evenodd" d="M8.47855 9.61936C8.06296 9.61936 7.72605 9.95627 7.72605 10.3719C7.72605 10.7875 8.06296 11.1244 8.47855 11.1244H9.23105V10.3719C9.23105 9.95627 8.89415 9.61936 8.47855 9.61936ZM9.53205 11.1244V10.3719C9.53205 9.79003 9.06039 9.31836 8.47855 9.31836C7.89672 9.31836 7.42505 9.79003 7.42505 10.3719C7.42505 10.9537 7.89672 11.4254 8.47855 11.4254H9.23105V18.3484H9.53205V11.4254H10.4351V18.0474H10.7361V11.4254H11.4886C12.0704 11.4254 12.5421 10.9537 12.5421 10.3719C12.5421 9.79003 12.0704 9.31836 11.4886 9.31836C10.9067 9.31836 10.4351 9.79003 10.4351 10.3719V11.1244H9.53205ZM10.7361 11.1244H11.4886C11.9042 11.1244 12.2411 10.7875 12.2411 10.3719C12.2411 9.95627 11.9042 9.61936 11.4886 9.61936C11.073 9.61936 10.7361 9.95627 10.7361 10.3719V11.1244Z" fill="#FFA337"/>
<g style="mix-blend-mode:color-burn">
<path d="M13.8966 10.372C13.8966 12.5331 12.1447 14.285 9.98357 14.285C7.82247 14.285 6.07056 12.5331 6.07056 10.372C6.07056 8.2109 7.82247 6.45898 9.98357 6.45898C12.1447 6.45898 13.8966 8.2109 13.8966 10.372Z" fill="#C4C4C4"/>
</g>
<g style="mix-blend-mode:screen">
<path d="M8.77954 7.06164C8.77954 7.89284 8.10573 8.56665 7.27454 8.56665C6.44334 8.56665 5.76953 7.89284 5.76953 7.06164C5.76953 6.23045 6.44334 5.55664 7.27454 5.55664C8.10573 5.55664 8.77954 6.23045 8.77954 7.06164Z" fill="#888888"/>
</g>
</svg>
