<svg width="24" height="24" viewBox="0 0 24 24" fill="none" xmlns="http://www.w3.org/2000/svg">
<path d="M14.8238 1.93352L14.8232 1.93413L12.8069 3.90382C12.6258 4.10234 12.5263 4.36191 12.5284 4.63065C12.5304 4.90029 12.6345 5.15915 12.8197 5.35515C13.0048 5.55115 13.2574 5.66974 13.5265 5.68706C13.794 5.70427 14.0581 5.62014 14.2663 5.45149L16.2809 3.44855C16.8412 2.88831 17.601 2.57357 18.3933 2.57357C19.1856 2.57357 19.9454 2.88831 20.5057 3.44855C21.0659 4.00878 21.3807 4.76863 21.3807 5.56092C21.3807 6.35318 21.0659 7.11299 20.5058 7.67322C20.5057 7.67325 20.5057 7.67327 20.5057 7.6733M14.8238 1.93352L20.435 7.60259L20.5057 7.6733M14.8238 1.93352C15.7865 0.976815 17.0886 0.439844 18.4458 0.439844C19.8028 0.439844 21.1047 0.976652 22.0674 1.93309C23.0177 2.90176 23.5463 4.20706 23.5378 5.56408C23.5292 6.92131 22.984 8.22002 22.0212 9.17665L22.0209 9.17688L16.7126 14.4852L16.7125 14.4853C15.7982 15.4009 14.5709 15.936 13.2777 15.9827C11.9846 16.0294 10.7218 15.5843 9.74378 14.737L9.74382 14.737L9.74144 14.735C9.65037 14.6609 9.56357 14.5816 9.48147 14.4977L9.48149 14.4977L9.47993 14.4961C9.27765 14.2981 9.16232 14.0278 9.15932 13.7447C9.15632 13.4617 9.26589 13.189 9.46393 12.9867C9.66197 12.7844 9.93225 12.6691 10.2153 12.6661C10.4984 12.6631 10.7711 12.7727 10.9733 12.9707L10.9731 12.9709L10.9793 12.9761L11.1178 13.0915C11.6835 13.6011 12.4233 13.874 13.1844 13.8538C13.9463 13.8335 14.6711 13.5213 15.2091 12.9815L20.5057 7.6733M14.8238 1.93352L20.5057 7.6733M12.9799 11.0311L12.9802 11.0309L12.974 11.0258L12.8355 10.9103C12.2698 10.4008 11.53 10.1279 10.7688 10.1481C10.007 10.1683 9.28214 10.4806 8.74415 11.0203L3.44759 16.3285C2.88736 16.8888 2.57262 17.6486 2.57262 18.4409C2.57262 19.2332 2.88736 19.9931 3.44759 20.5533C4.00783 21.1135 4.76768 21.4283 5.55997 21.4283C6.35203 21.4283 7.11166 21.1137 7.67185 20.5538C7.67201 20.5536 7.67218 20.5535 7.67235 20.5533L9.73318 18.5507C9.94146 18.3818 10.2058 18.2976 10.4735 18.3148C10.7425 18.3321 10.9951 18.4507 11.1803 18.6467C11.3655 18.8427 11.4695 19.1016 11.4716 19.3712C11.4736 19.6399 11.3741 19.8995 11.1931 20.098L9.17787 22.0666C8.20441 22.9605 6.92336 23.4438 5.60204 23.4159C4.28023 23.3879 3.02033 22.8503 2.08545 21.9154C1.15058 20.9806 0.61302 19.7207 0.585037 18.3988C0.55707 17.0778 1.04023 15.7971 1.93367 14.8237L7.29863 9.51702L7.29921 9.51643C8.21213 8.59835 9.43987 8.06158 10.7337 8.01484C12.026 7.96815 13.2878 8.41378 14.264 9.26155C14.3346 9.33615 14.4014 9.41421 14.4642 9.49544L14.4634 9.49602L14.4733 9.50571C14.6756 9.70375 14.791 9.97404 14.794 10.2571C14.797 10.5402 14.6874 10.8128 14.4893 11.0151C14.2913 11.2174 14.021 11.3327 13.738 11.3357C13.4549 11.3387 13.1822 11.2292 12.9799 11.0311Z" fill="#C4B9AC" stroke="#F5F0EA" stroke-width="0.2"/>
</svg>
