<svg width="16" height="20" viewBox="0 0 16 20" fill="none" xmlns="http://www.w3.org/2000/svg">
<path d="M15.0419 6.9462V6.96256L15.0472 6.97808C15.0713 7.04997 15.088 7.12416 15.0969 7.19947V7.2487V16.4154C15.0969 17.1182 14.8177 17.7922 14.3208 18.2892C13.8238 18.7862 13.1498 19.0654 12.4469 19.0654H3.28027C2.57745 19.0654 1.90341 18.7862 1.40644 18.2892C0.909469 17.7922 0.630273 17.1182 0.630273 16.4154V3.58203C0.630273 2.87921 0.909469 2.20517 1.40644 1.7082C1.90341 1.21123 2.57745 0.932031 3.28027 0.932031H8.81857L9.0961 1.02743L9.1119 1.03286H9.12861H9.18825C9.26492 1.07104 9.33564 1.12021 9.39816 1.17884L14.896 6.67665C14.9546 6.73917 15.0038 6.80989 15.0419 6.88655V6.9462ZM9.76765 3.88715L9.59694 3.71644V3.95786V6.33203V6.43203H9.69694H12.0711H12.3125L12.1418 6.26132L9.76765 3.88715ZM7.96361 2.66536V2.56536H7.86361H3.28027C3.01064 2.56536 2.75204 2.67248 2.56138 2.86314C2.37072 3.0538 2.26361 3.31239 2.26361 3.58203V16.4154C2.26361 16.685 2.37072 16.9436 2.56138 17.1343C2.75204 17.3249 3.01064 17.432 3.28027 17.432H12.4469C12.7166 17.432 12.9752 17.3249 13.1658 17.1343C13.3565 16.9436 13.4636 16.685 13.4636 16.4154V8.16536V8.06536H13.3636H8.78027C8.56368 8.06536 8.35596 7.97932 8.2028 7.82617C8.04965 7.67301 7.96361 7.46529 7.96361 7.2487V2.66536Z" fill="#A4A3B4" stroke="white" stroke-width="0.2"/>
</svg>
