<svg width="23" height="22" viewBox="0 0 23 22" fill="none" xmlns="http://www.w3.org/2000/svg">
<path d="M19.0419 7.9462V7.96256L19.0472 7.97808C19.0713 8.04997 19.088 8.12416 19.0969 8.19947V8.2487V17.4154C19.0969 18.1182 18.8177 18.7922 18.3208 19.2892C17.8238 19.7862 17.1498 20.0654 16.4469 20.0654H7.28027C6.57745 20.0654 5.90341 19.7862 5.40644 19.2892C4.90947 18.7922 4.63027 18.1182 4.63027 17.4154V4.58203C4.63027 3.87921 4.90947 3.20517 5.40644 2.7082C5.90341 2.21123 6.57745 1.93203 7.28027 1.93203H12.8186L13.0961 2.02743L13.1119 2.03286H13.1286H13.1883C13.2649 2.07104 13.3356 2.12021 13.3982 2.17884L18.896 7.67665C18.9546 7.73917 19.0038 7.80989 19.0419 7.88655V7.9462ZM13.7677 4.88715L13.5969 4.71644V4.95786V7.33203V7.43203H13.6969H16.0711H16.3125L16.1418 7.26132L13.7677 4.88715ZM11.9636 3.66536V3.56536H11.8636H7.28027C7.01064 3.56536 6.75204 3.67248 6.56138 3.86314C6.37072 4.0538 6.26361 4.31239 6.26361 4.58203V17.4154C6.26361 17.685 6.37072 17.9436 6.56138 18.1343C6.75204 18.3249 7.01064 18.432 7.28027 18.432H16.4469C16.7166 18.432 16.9752 18.3249 17.1658 18.1343C17.3565 17.9436 17.4636 17.685 17.4636 17.4154V9.16536V9.06536H17.3636H12.7803C12.5637 9.06536 12.356 8.97932 12.2028 8.82617C12.0496 8.67301 11.9636 8.46529 11.9636 8.2487V3.66536Z" fill="#A4A3B4" stroke="white" stroke-width="0.2"/>
<path d="M10.1665 12.6667C10.1665 13.22 9.71988 13.6667 9.16654 13.6667H8.49988V15H7.49988V11H9.16654C9.71988 11 10.1665 11.4467 10.1665 12V12.6667ZM13.4999 14C13.4999 14.5533 13.0532 15 12.4999 15H10.8332V11H12.4999C13.0532 11 13.4999 11.4467 13.4999 12V14ZM16.1665 12H15.1665V12.6667H16.1665V13.6667H15.1665V15H14.1665V11H16.1665V12ZM8.49988 12.6667H9.16654V12H8.49988V12.6667ZM11.8332 14H12.4999V12H11.8332V14Z" fill="#A4A3B4"/>
</svg>
