<svg width="13" height="11" viewBox="0 0 13 11" fill="none" xmlns="http://www.w3.org/2000/svg">
<path d="M12.92 6.21C12.8724 6.08725 12.801 5.9751 12.71 5.88L9.71 2.88C9.5217 2.6917 9.2663 2.58591 9 2.58591C8.7337 2.58591 8.4783 2.6917 8.29 2.88C8.1017 3.0683 7.99591 3.3237 7.99591 3.59C7.99591 3.8563 8.1017 4.1117 8.29 4.3L9.59 5.59H3C2.73478 5.59 2.48043 5.48464 2.29289 5.29711C2.10536 5.10957 2 4.85522 2 4.59V1C2 0.447716 1.55228 0 1 0C0.447715 0 0 0.447715 0 1V4.59C0 5.38565 0.31607 6.14871 0.87868 6.71132C1.44129 7.27393 2.20435 7.59 3 7.59H9.59L8.29 8.88C8.19627 8.97297 8.12188 9.08356 8.07111 9.20542C8.02034 9.32728 7.9942 9.45799 7.9942 9.59C7.9942 9.72201 8.02034 9.85272 8.07111 9.97458C8.12188 10.0964 8.19627 10.207 8.29 10.3C8.38296 10.3937 8.49356 10.4681 8.61542 10.5189C8.73728 10.5697 8.86799 10.5958 9 10.5958C9.13201 10.5958 9.26272 10.5697 9.38458 10.5189C9.50644 10.4681 9.61704 10.3937 9.71 10.3L12.71 7.3C12.801 7.2049 12.8724 7.09275 12.92 6.97C13.02 6.72654 13.02 6.45346 12.92 6.21Z" fill="#4F8DFF"/>
</svg>
