<svg width="4" height="16" viewBox="0 0 4 16" fill="none" xmlns="http://www.w3.org/2000/svg">
<path d="M-8.30516e-08 13.2992C-3.73732e-08 14.3442 0.855 15.1992 1.9 15.1992C2.945 15.1992 3.8 14.3442 3.8 13.2992C3.8 12.2542 2.945 11.3992 1.9 11.3992C0.855 11.3992 -1.2873e-07 12.2542 -8.30516e-08 13.2992ZM-5.81361e-07 1.89922C-5.35683e-07 2.94422 0.854999 3.79922 1.9 3.79922C2.945 3.79922 3.8 2.94422 3.8 1.89922C3.8 0.854218 2.945 -0.000781188 1.9 -0.000781142C0.854999 -0.000781097 -6.2704e-07 0.854218 -5.81361e-07 1.89922ZM-3.32207e-07 7.59922C-2.86528e-07 8.64422 0.855 9.49922 1.9 9.49922C2.945 9.49922 3.8 8.64422 3.8 7.59922C3.8 6.55422 2.945 5.69922 1.9 5.69922C0.855 5.69922 -3.77885e-07 6.55422 -3.32207e-07 7.59922Z" fill="#CECECE"/>
</svg>
