<svg width="22" height="22" viewBox="0 0 22 22" fill="none" xmlns="http://www.w3.org/2000/svg">
<path d="M13.2667 6.25V5.13333C13.2667 4.02876 12.3713 3.13333 11.2667 3.13333H2.80006C1.69549 3.13333 0.800057 4.02876 0.800057 5.13333V9.74444C0.800057 13.5222 4.95561 14.4667 4.95561 14.4667L4.52273 12.1055C4.47768 11.8598 4.66637 11.6333 4.91617 11.6333H8.85145" stroke="#353535"/>
<path d="M6.414 9.614C6.13 9.614 5.882 9.568 5.67 9.476C5.462 9.38 5.288 9.252 5.148 9.092C5.008 8.932 4.904 8.752 4.836 8.552C4.768 8.348 4.734 8.138 4.734 7.922V7.808C4.734 7.508 4.796 7.228 4.92 6.968C5.048 6.708 5.236 6.498 5.484 6.338C5.736 6.178 6.044 6.098 6.408 6.098C6.704 6.098 6.966 6.156 7.194 6.272C7.422 6.384 7.604 6.542 7.74 6.746C7.876 6.95 7.952 7.184 7.968 7.448H7.026C7.01 7.3 6.95 7.176 6.846 7.076C6.742 6.972 6.596 6.92 6.408 6.92C6.164 6.92 5.984 7.008 5.868 7.184C5.752 7.356 5.694 7.584 5.694 7.868C5.694 8.136 5.748 8.358 5.856 8.534C5.968 8.706 6.154 8.792 6.414 8.792C6.606 8.792 6.756 8.742 6.864 8.642C6.972 8.542 7.036 8.41 7.056 8.246H7.992C7.976 8.518 7.898 8.758 7.758 8.966C7.622 9.17 7.436 9.33 7.2 9.446C6.968 9.558 6.706 9.614 6.414 9.614ZM5.784 5.828L5.166 4.574H5.976L6.354 5.378H6.426L6.756 4.574H7.542L6.972 5.828H5.784Z" fill="#353535"/>
<path d="M8.7334 8.53334C8.7334 7.42877 9.62883 6.53334 10.7334 6.53334H19.2001C20.3046 6.53334 21.2001 7.42877 21.2001 8.53334V13.8056C21.2001 17.9611 17.0445 19 17.0445 19L17.4863 16.3491C17.527 16.1053 17.3389 15.8833 17.0918 15.8833H10.7334C9.62883 15.8833 8.7334 14.9879 8.7334 13.8833V8.53334Z" stroke="#353535"/>
<path d="M14.6407 13.084C14.2847 13.084 13.9967 12.992 13.7767 12.808C13.5607 12.624 13.4527 12.364 13.4527 12.028C13.4527 11.788 13.5147 11.592 13.6387 11.44C13.7627 11.284 13.9367 11.17 14.1607 11.098C14.3847 11.022 14.6427 10.984 14.9347 10.984H15.5287V10.972C15.5287 10.636 15.3607 10.468 15.0247 10.468C14.9367 10.468 14.8207 10.472 14.6767 10.48C14.5327 10.484 14.3827 10.49 14.2267 10.498C14.0747 10.502 13.9387 10.508 13.8187 10.516V9.706C13.9587 9.694 14.1307 9.684 14.3347 9.676C14.5387 9.664 14.7267 9.658 14.8987 9.658C15.4027 9.658 15.7867 9.766 16.0507 9.982C16.3187 10.194 16.4527 10.528 16.4527 10.984V13H15.6907V12.382C15.6187 12.61 15.4947 12.784 15.3187 12.904C15.1427 13.024 14.9167 13.084 14.6407 13.084ZM14.9287 12.418C15.0847 12.418 15.2207 12.374 15.3367 12.286C15.4527 12.198 15.5167 12.03 15.5287 11.782V11.518H14.9287C14.7607 11.518 14.6307 11.56 14.5387 11.644C14.4507 11.728 14.4067 11.838 14.4067 11.974C14.4067 12.106 14.4507 12.214 14.5387 12.298C14.6307 12.378 14.7607 12.418 14.9287 12.418Z" fill="#353535"/>
</svg>
