<?xml version="1.0" encoding="utf-8"?>
<!-- Generator: Adobe Illustrator 22.1.0, SVG Export Plug-In . SVG Version: 6.00 Build 0)  -->
<svg version="1.1" id="Layer_1" xmlns="http://www.w3.org/2000/svg" xmlns:xlink="http://www.w3.org/1999/xlink" x="0px" y="0px"
	 viewBox="0 0 512 512" style="enable-background:new 0 0 512 512;" xml:space="preserve">
<g>
	<g>
		<g>
			<path d="M345.4,201.4c0-4.7-3.8-8.5-8.5-8.5s-8.5,3.8-8.5,8.5v17.1c0,4.7,3.8,8.5,8.5,8.5s8.5-3.8,8.5-8.5V201.4z"/>
			<path d="M345.4,252.6c0-4.7-3.8-8.5-8.5-8.5s-8.5,3.8-8.5,8.5v17.1c0,4.7,3.8,8.5,8.5,8.5s8.5-3.8,8.5-8.5V252.6z"/>
			<path d="M299.1,201.4c0-4.7-3.8-8.5-8.5-8.5s-8.5,3.8-8.5,8.5v17.1c0,4.7,3.8,8.5,8.5,8.5s8.5-3.8,8.5-8.5V201.4z"/>
			<path d="M373.4,134.1V117c0-4.7-3.8-8.5-8.5-8.5s-8.5,3.8-8.5,8.5v17.1c0,4.7,3.8,8.5,8.5,8.5S373.4,138.8,373.4,134.1z"/>
			<path d="M299.1,252.6c0-4.7-3.8-8.5-8.5-8.5s-8.5,3.8-8.5,8.5v17.1c0,4.7,3.8,8.5,8.5,8.5s8.5-3.8,8.5-8.5V252.6z"/>
			<path d="M384,144.6"/>
			<path d="M290.6,295.3c-4.7,0-8.5,3.8-8.5,8.5v17.1c0,4.7,3.8,8.5,8.5,8.5s8.5-3.8,8.5-8.5v-17.1
				C299.1,299.1,295.3,295.3,290.6,295.3z"/>
			<path d="M315.7,143.6c4.7,0,8.5-3.8,8.5-8.5v-26l85.3-21.3v142.7c0,3.6,2.2,6.7,5.5,8l62.7,23.5v88c0,4.7,3.8,8.5,8.5,8.5
				s8.5-3.8,8.5-8.5V256c0-3.6-2.2-6.7-5.5-8l-62.7-23.5V59.7c0-4.7-3.8-8.5-8.5-8.5s-8.5,3.8-8.5,8.5v10.4l-95.9,24
				c-3.8,0.9-6.5,4.4-6.5,8.3v32.7C307.2,139.8,311,143.6,315.7,143.6z"/>
			<path d="M444.7,281.6c0-4.7-3.8-8.5-8.5-8.5s-8.5,3.8-8.5,8.5v17.1c0,4.7,3.8,8.5,8.5,8.5s8.5-3.8,8.5-8.5V281.6z"/>
			<path d="M345.4,353c0-4.7-3.8-8.5-8.5-8.5s-8.5,3.8-8.5,8.5v17.1c0,4.7,3.8,8.5,8.5,8.5s8.5-3.8,8.5-8.5V353z"/>
			<path d="M444.7,332.8c0-4.7-3.8-8.5-8.5-8.5s-8.5,3.8-8.5,8.5v17.1c0,4.7,3.8,8.5,8.5,8.5s8.5-3.8,8.5-8.5V332.8z"/>
			<path d="M336.9,392.7"/>
			<path d="M345.4,303.8c0-4.7-3.8-8.5-8.5-8.5s-8.5,3.8-8.5,8.5v17.1c0,4.7,3.8,8.5,8.5,8.5s8.5-3.8,8.5-8.5V303.8z"/>
			<path d="M384,477.9c4.7,0,8.5-3.8,8.5-8.5V164.3c0-3.9-2.7-10.3-6.5-11.3l-136.5,0.9c-2.5-0.6-5.3-0.1-7.3,1.6
				c-2.1,1.6-3.3,4.1-3.3,6.7v187.7c0,4.7,3.8,8.5,8.5,8.5s8.5-3.8,8.5-8.5V173h119.5v296.3C375.5,474,379.3,477.9,384,477.9z"/>
			<path d="M203.7,179.2c0-4.7-3.8-8.5-8.5-8.5s-8.5,3.8-8.5,8.5v17.1c0,4.7,3.8,8.5,8.5,8.5s8.5-3.8,8.5-8.5V179.2z"/>
			<path d="M203.7,128c0-4.7-3.8-8.5-8.5-8.5s-8.5,3.8-8.5,8.5v17.1c0,4.7,3.8,8.5,8.5,8.5s8.5-3.8,8.5-8.5V128z"/>
			<path d="M42.7,307.2c4.7,0,8.5-3.8,8.5-8.5V256h85.3v213.3c0,4.7,3.8,8.5,8.5,8.5s8.5-3.8,8.5-8.5V247.5c0-4.7-3.8-8.5-8.5-8.5
				H42.7c-4.7,0-8.5,3.8-8.5,8.5v51.2C34.1,303.4,38,307.2,42.7,307.2z"/>
			<path d="M136.5,179.2v17.1c0,4.7,3.8,8.5,8.5,8.5s8.5-3.8,8.5-8.5v-17.1c0-4.7-3.8-8.5-8.5-8.5
				C140.4,170.7,136.5,174.5,136.5,179.2z"/>
			<path d="M203.7,76.8c0-4.7-3.8-8.5-8.5-8.5s-8.5,3.8-8.5,8.5v17.1c0,4.7,3.8,8.5,8.5,8.5s8.5-3.8,8.5-8.5V76.8z"/>
			<path d="M503.5,494.9h-17.1v-52.4c14.7-3.8,25.6-17.1,25.6-32.9c0-18.8-15.3-34.1-34.1-34.1s-34.1,15.3-34.1,34.1
				c0,15.9,10.9,29.1,25.6,32.9v52.4H256v-35c19.4-4,34.1-21.2,34.1-41.8c0-23.5-19.1-42.7-42.7-42.7c-23.5,0-42.7,19.1-42.7,42.7
				c0,20.6,14.7,37.8,34.1,41.8v35H51.2v-86.2c19.4-4,34.1-21.2,34.1-41.8c0-23.5-19.1-42.7-42.7-42.7C19.1,324.3,0,343.4,0,366.9
				c0,20.6,14.7,37.8,34.1,41.8v86.2H8.5c-4.7,0-8.5,3.8-8.5,8.5s3.8,8.5,8.5,8.5h494.9c4.7,0,8.5-3.8,8.5-8.5
				S508.2,494.9,503.5,494.9z M17.1,366.9c0-14.1,11.5-25.6,25.6-25.6s25.6,11.5,25.6,25.6s-11.5,25.6-25.6,25.6
				S17.1,381,17.1,366.9z M221.9,418.1c0-14.1,11.5-25.6,25.6-25.6s25.6,11.5,25.6,25.6s-11.5,25.6-25.6,25.6
				S221.9,432.2,221.9,418.1z M460.8,409.6c0-9.4,7.7-17.1,17.1-17.1s17.1,7.7,17.1,17.1c0,9.4-7.7,17.1-17.1,17.1
				S460.8,419,460.8,409.6z"/>
			<path d="M102.5,281.6c0-4.7-3.8-8.5-8.5-8.5s-8.5,3.8-8.5,8.5v17.1c0,4.7,3.8,8.5,8.5,8.5s8.5-3.8,8.5-8.5V281.6z"/>
			<path d="M102.5,413.9c0-4.7-3.8-8.5-8.5-8.5s-8.5,3.8-8.5,8.5V431c0,4.7,3.8,8.5,8.5,8.5s8.5-3.8,8.5-8.5V413.9z"/>
			<path d="M203.7,332.8c0-4.7-3.8-8.5-8.5-8.5s-8.5,3.8-8.5,8.5v17.1c0,4.7,3.8,8.5,8.5,8.5s8.5-3.8,8.5-8.5V332.8z"/>
			<path d="M110.9,221.9c4.7,0,8.5-3.8,8.5-8.5v-63l29.4-14.7c2.9-1.5,4.7-4.4,4.7-7.6V56.5l42.7-21.3l42.7,21.3V128
				c0,4.7,3.8,8.5,8.5,8.5s8.5-3.8,8.5-8.5V51.2c0-3.2-1.8-6.2-4.7-7.6l-46.5-23.2V8.5c0-4.7-3.8-8.5-8.5-8.5s-8.5,3.8-8.5,8.5v11.8
				l-46.5,23.2c-2.9,1.5-4.7,4.4-4.7,7.6v71.5l-29.4,14.7c-2.9,1.5-4.7,4.4-4.7,7.6v68.3C102.4,218,106.2,221.9,110.9,221.9z"/>
			<path d="M203.7,281.6c0-4.7-3.8-8.5-8.5-8.5s-8.5,3.8-8.5,8.5v17.1c0,4.7,3.8,8.5,8.5,8.5s8.5-3.8,8.5-8.5V281.6z"/>
			<path d="M203.7,230.4c0-4.7-3.8-8.5-8.5-8.5s-8.5,3.8-8.5,8.5v17.1c0,4.7,3.8,8.5,8.5,8.5s8.5-3.8,8.5-8.5V230.4z"/>
		</g>
	</g>
</g>
<path d="M345.4,402.1c0-4.7-3.8-8.5-8.5-8.5s-8.5,3.8-8.5,8.5v17.1c0,4.7,3.8,8.5,8.5,8.5s8.5-3.8,8.5-8.5V402.1z"/>
</svg>
