<svg width="125" height="34" viewBox="0 0 125 34" fill="none" xmlns="http://www.w3.org/2000/svg">
<path fill-rule="evenodd" clip-rule="evenodd" d="M28.553 5.47126V0H31.6794V5.47126H28.553Z" fill="#F8F145"/>
<path fill-rule="evenodd" clip-rule="evenodd" d="M23.682 7.89274L20.9464 3.15449L23.654 1.59127L26.3896 6.32952L23.682 7.89274Z" fill="#F8F145"/>
<path fill-rule="evenodd" clip-rule="evenodd" d="M36.55 7.89274L39.2856 3.15449L36.5781 1.59127L33.8424 6.32952L36.55 7.89274Z" fill="#F8F145"/>
<path d="M7.23862 29.2548C6.01519 29.2548 4.95319 29.0729 4.05261 28.7091C3.15203 28.3295 2.39588 27.8233 1.78417 27.1906C1.18945 26.5579 0.739155 25.8382 0.433298 25.0316C0.144433 24.2249 0 23.3865 0 22.5166V22.0421C0 20.8241 0.271873 19.7011 0.815619 18.673C1.37636 17.629 2.19198 16.7907 3.26248 16.158C4.34997 15.5253 5.67535 15.209 7.23862 15.209C8.53002 15.209 9.66849 15.4462 10.654 15.9208C11.6396 16.3953 12.4212 17.0517 12.9989 17.89C13.5937 18.7125 13.925 19.9651 13.993 21.0407H9.45609C9.40511 20.5187 9.19271 19.7723 8.81889 19.4085C8.46205 19.0447 7.9353 18.8628 7.23862 18.8628C6.35503 18.8628 5.70084 19.1791 5.27604 19.8118C4.85124 20.4287 4.63884 21.2512 4.63884 22.2793C4.63884 23.26 4.82575 24.0588 5.19957 24.6757C5.59039 25.2925 6.27007 25.601 7.23862 25.601C7.95229 25.601 8.49604 25.427 8.86986 25.079C9.26068 24.731 9.49007 23.9529 9.55804 23.3519H14.0949C14.027 24.4591 13.6871 25.7354 13.0754 26.5737C12.4807 27.4121 11.6821 28.0685 10.6795 28.543C9.67699 29.0175 8.53002 29.2548 7.23862 29.2548Z" fill="#292929"/>
<path d="M18.3404 14.336C17.5078 14.336 16.8876 14.1383 16.4798 13.7428C16.089 13.3316 15.8935 12.8096 15.8935 12.1769C15.8935 11.5442 16.089 11.0302 16.4798 10.6347C16.8876 10.2235 17.5078 10.0178 18.3404 10.0178C19.19 10.0178 19.8102 10.2235 20.201 10.6347C20.5918 11.0302 20.7873 11.5442 20.7873 12.1769C20.7873 12.8096 20.5918 13.3316 20.201 13.7428C19.8102 14.1383 19.19 14.336 18.3404 14.336ZM16.1509 28.7803V15.6835H20.7897V28.7803H16.1509Z" fill="#292929"/>
<path d="M26.4987 28.7803L22.4716 15.6835H27.2124L29.9396 25.1739H30.4748L32.7943 15.6835H37.2292L33.7628 28.7803H26.4987Z" fill="#292929"/>
<path d="M45.6885 29.2548C44.0403 29.2548 42.63 28.9543 41.4575 28.3532C40.2851 27.7363 39.393 26.9217 38.7813 25.9094C38.1695 24.8971 37.8637 23.782 37.8637 22.564V21.9946C37.8637 20.7134 38.178 19.5667 38.8067 18.5543C39.4524 17.5262 40.3615 16.7116 41.534 16.1106C42.7064 15.5095 44.0913 15.209 45.6885 15.209C47.2858 15.209 48.6706 15.5095 49.8431 16.1106C51.0155 16.7116 51.9161 17.5262 52.5448 18.5543C53.1905 19.5667 53.5134 20.7134 53.5134 21.9946V22.564C53.5134 23.782 53.2075 24.8971 52.5958 25.9094C51.9841 26.9217 51.092 27.7363 49.9196 28.3532C48.7641 28.9543 47.3538 29.2548 45.6885 29.2548ZM45.6885 25.6484C46.742 25.6484 47.5322 25.3321 48.0589 24.6994C48.6027 24.0667 48.8745 23.26 48.8745 22.2793C48.8745 21.267 48.5942 20.4366 48.0334 19.7881C47.4897 19.1396 46.7081 18.8153 45.6885 18.8153C44.669 18.8153 43.8789 19.1396 43.3181 19.7881C42.7744 20.4366 42.5025 21.267 42.5025 22.2793C42.5025 23.26 42.7659 24.0667 43.2927 24.6994C43.8364 25.3321 44.635 25.6484 45.6885 25.6484Z" fill="#292929"/>
<path d="M62.1241 29.2548C60.9006 29.2548 59.8386 29.0729 58.938 28.7091C58.0375 28.3295 57.2813 27.8233 56.6696 27.1906C56.0749 26.5579 55.6246 25.8382 55.3187 25.0316C55.0299 24.2249 54.8854 23.3865 54.8854 22.5166V22.0421C54.8854 20.8241 55.1573 19.7011 55.7011 18.673C56.2618 17.629 57.0774 16.7907 58.1479 16.158C59.2354 15.5253 60.5608 15.209 62.1241 15.209C63.4155 15.209 64.5539 15.4462 65.5395 15.9208C66.525 16.3953 67.3066 17.0517 67.8844 17.89C68.4791 18.7125 68.8104 19.9651 68.8784 21.0407H64.3415C64.2905 20.5187 64.0781 19.7723 63.7043 19.4085C63.3475 19.0447 62.8207 18.8628 62.1241 18.8628C61.2405 18.8628 60.5863 19.1791 60.1615 19.8118C59.7367 20.4287 59.5243 21.2512 59.5243 22.2793C59.5243 23.26 59.7112 24.0588 60.085 24.6757C60.4758 25.2925 61.1555 25.601 62.1241 25.601C62.8377 25.601 63.3815 25.427 63.7553 25.079C64.1461 24.731 64.3755 23.9529 64.4435 23.3519H68.9804C68.9124 24.4591 68.5725 25.7354 67.9608 26.5737C67.3661 27.4121 66.5675 28.0685 65.5649 28.543C64.5624 29.0175 63.4155 29.2548 62.1241 29.2548Z" fill="#292929"/>
<path d="M70.9805 28.7803V15.6835H74.6507V20.3101C74.8037 18.8074 75.2794 17.629 76.0781 16.7749C76.8937 15.9208 77.9982 15.4937 79.3915 15.4937H79.9523V19.4774H78.8818C77.8453 19.4774 77.0381 19.7384 76.4604 20.2604C75.8997 20.7823 75.6193 21.5777 75.6193 22.2319V28.7803H70.9805Z" fill="#292929"/>
<path d="M85.3841 29.1124C83.8888 29.1124 82.6654 28.7486 81.7138 28.021C80.7792 27.2776 80.312 26.2495 80.312 24.9366C80.312 23.956 80.5923 23.1651 81.1531 22.564C81.7138 21.9472 82.487 21.4964 83.4725 21.2117C84.458 20.927 85.588 20.7846 86.8624 20.7846H89.0799C89.0629 20.1835 88.9015 19.7486 88.5956 19.4797C88.3067 19.195 87.831 19.0526 87.1683 19.0526C86.8454 19.0526 86.3696 19.0605 85.7409 19.0763C85.1122 19.0921 84.4495 19.1159 83.7529 19.1475C83.0562 19.1791 82.419 19.2108 81.8413 19.2424V15.636C82.2491 15.6044 82.7333 15.5728 83.2941 15.5411C83.8548 15.5095 84.4325 15.4858 85.0273 15.47C85.639 15.4541 86.1997 15.4462 86.7095 15.4462C88.8845 15.4462 90.5582 15.8891 91.7306 16.7749C92.9201 17.6607 93.5148 19.0131 93.5148 20.832C93.5148 23.4656 94.122 28.7803 94.122 28.7803H89.8445V26.3602C89.5387 27.246 89.0119 27.9261 88.2643 28.4006C87.5166 28.8752 86.5565 29.1124 85.3841 29.1124ZM86.8624 26.2179C87.4571 26.2179 87.9584 26.0597 88.3662 25.7433C88.791 25.4112 89.0289 24.8101 89.0799 23.9402V23.0148H86.8624C86.2337 23.0148 85.7494 23.1651 85.4096 23.4656C85.0697 23.7503 84.8998 24.1379 84.8998 24.6282C84.8998 25.1027 85.0697 25.4903 85.4096 25.7908C85.7494 26.0755 86.2337 26.2179 86.8624 26.2179Z" fill="#292929"/>
<path d="M102.685 29.2548C101.462 29.2548 100.4 29.0729 99.4994 28.7091C98.5988 28.3295 97.8427 27.8233 97.231 27.1906C96.6362 26.5579 96.186 25.8382 95.8801 25.0316C95.5912 24.2249 95.4468 23.3865 95.4468 22.5166V22.0421C95.4468 20.8241 95.7187 19.7011 96.2624 18.673C96.8232 17.629 97.6388 16.7907 98.7093 16.158C99.7968 15.5253 101.122 15.209 102.685 15.209C103.977 15.209 105.115 15.4462 106.101 15.9208C107.086 16.3953 107.868 17.0517 108.446 17.89C109.04 18.7125 109.372 19.9651 109.44 21.0407H104.903C104.852 20.5187 104.64 19.7723 104.266 19.4085C103.909 19.0447 103.382 18.8628 102.685 18.8628C101.802 18.8628 101.148 19.1791 100.723 19.8118C100.298 20.4287 100.086 21.2512 100.086 22.2793C100.086 23.26 100.273 24.0588 100.646 24.6757C101.037 25.2925 101.717 25.601 102.685 25.601C103.399 25.601 103.943 25.427 104.317 25.079C104.707 24.731 104.937 23.9529 105.005 23.3519H109.542C109.474 24.4591 109.134 25.7354 108.522 26.5737C107.927 27.4121 107.129 28.0685 106.126 28.543C105.124 29.0175 103.977 29.2548 102.685 29.2548Z" fill="#292929"/>
<path d="M113.963 28.4956L109.86 15.6835H114.498L117.353 25.1739H117.812L120.08 15.6835H124.464L120.769 29.7293C120.497 30.8049 120.114 31.6511 119.622 32.268C119.146 32.9007 118.483 33.3436 117.633 33.5966C116.801 33.8655 115.713 34 114.371 34H111.644V30.3936H114.881C115.475 30.3936 115.926 30.2829 116.232 30.0615C116.554 29.8558 116.784 29.4683 116.92 28.8989L117.022 28.4956H113.963Z" fill="#292929"/>
</svg>
