<svg width="375" height="59" viewBox="0 0 375 59" fill="none" xmlns="http://www.w3.org/2000/svg">
<path fill-rule="evenodd" clip-rule="evenodd" d="M47.6744 18.3448V14H50.1571V18.3448H47.6744Z" fill="#F8F145"/>
<path fill-rule="evenodd" clip-rule="evenodd" d="M43.8063 20.2666L41.6339 16.5039L43.784 15.2625L45.9565 19.0253L43.8063 20.2666Z" fill="#F8F145"/>
<path fill-rule="evenodd" clip-rule="evenodd" d="M54.025 20.2666L56.1974 16.5039L54.0473 15.2625L51.8748 19.0253L54.025 20.2666Z" fill="#F8F145"/>
<path d="M30.7483 37.2334C29.7768 37.2334 28.9334 37.089 28.2182 36.8001C27.5031 36.4986 26.9026 36.0967 26.4168 35.5942C25.9446 35.0918 25.587 34.5203 25.3441 33.8797C25.1147 33.2391 25 32.5734 25 31.8825V31.5057C25 30.5385 25.2159 29.6467 25.6477 28.8302C26.093 28.0012 26.7407 27.3355 27.5908 26.8331C28.4544 26.3306 29.5069 26.0794 30.7483 26.0794C31.7738 26.0794 32.6779 26.2678 33.4606 26.6446C34.2432 27.0215 34.8639 27.5427 35.3227 28.2085C35.795 28.8616 36.0581 29.8563 36.1121 30.7105H32.5092C32.4688 30.296 32.3001 29.7032 32.0032 29.4143C31.7199 29.1254 31.3016 28.981 30.7483 28.981C30.0466 28.981 29.5271 29.2322 29.1898 29.7346C28.8525 30.2245 28.6838 30.8776 28.6838 31.6941C28.6838 32.4729 28.8322 33.1072 29.1291 33.5971C29.4394 34.0869 29.9792 34.3319 30.7483 34.3319C31.3151 34.3319 31.7469 34.1937 32.0437 33.9174C32.3541 33.641 32.5362 33.0231 32.5902 32.5458H36.193C36.1391 33.4251 35.8692 34.4386 35.3834 35.1044C34.9111 35.7701 34.2769 36.2914 33.4808 36.6682C32.6847 37.045 31.7738 37.2334 30.7483 37.2334Z" fill="#292929"/>
<path d="M39.5644 25.3861C38.9032 25.3861 38.4107 25.2291 38.0869 24.9151C37.7765 24.5885 37.6213 24.174 37.6213 23.6716C37.6213 23.1692 37.7765 22.7609 38.0869 22.4469C38.4107 22.1203 38.9032 21.957 39.5644 21.957C40.2391 21.957 40.7316 22.1203 41.042 22.4469C41.3524 22.7609 41.5075 23.1692 41.5075 23.6716C41.5075 24.174 41.3524 24.5885 41.042 24.9151C40.7316 25.2291 40.2391 25.3861 39.5644 25.3861ZM37.8257 36.8566V26.4562H41.5095V36.8566H37.8257Z" fill="#292929"/>
<path d="M46.0431 36.8566L42.8451 26.4562H46.6098L48.7756 33.9927H49.2006L51.0425 26.4562H54.5644L51.8116 36.8566H46.0431Z" fill="#292929"/>
<path d="M61.2821 37.2334C59.9732 37.2334 58.8532 36.9948 57.9221 36.5175C56.9911 36.0276 56.2827 35.3807 55.7969 34.5768C55.3111 33.7729 55.0682 32.8874 55.0682 31.9202V31.468C55.0682 30.4506 55.3179 29.5399 55.8171 28.736C56.3299 27.9196 57.0518 27.2727 57.9829 26.7954C58.9139 26.3181 60.0137 26.0794 61.2821 26.0794C62.5505 26.0794 63.6502 26.3181 64.5813 26.7954C65.5123 27.2727 66.2275 27.9196 66.7268 28.736C67.2395 29.5399 67.4959 30.4506 67.4959 31.468V31.9202C67.4959 32.8874 67.253 33.7729 66.7673 34.5768C66.2815 35.3807 65.5731 36.0276 64.642 36.5175C63.7244 36.9948 62.6045 37.2334 61.2821 37.2334ZM61.2821 34.3696C62.1187 34.3696 62.7461 34.1183 63.1644 33.6159C63.5962 33.1135 63.8121 32.4729 63.8121 31.6941C63.8121 30.8902 63.5895 30.2308 63.1442 29.7158C62.7124 29.2008 62.0917 28.9433 61.2821 28.9433C60.4725 28.9433 59.845 29.2008 59.3997 29.7158C58.9679 30.2308 58.752 30.8902 58.752 31.6941C58.752 32.4729 58.9612 33.1135 59.3795 33.6159C59.8113 34.1183 60.4455 34.3696 61.2821 34.3696Z" fill="#292929"/>
<path d="M74.3338 37.2334C73.3623 37.2334 72.5189 37.089 71.8037 36.8001C71.0886 36.4986 70.4881 36.0967 70.0023 35.5942C69.5301 35.0918 69.1725 34.5203 68.9296 33.8797C68.7002 33.2391 68.5855 32.5734 68.5855 31.8825V31.5057C68.5855 30.5385 68.8014 29.6467 69.2332 28.8302C69.6785 28.0012 70.3262 27.3355 71.1763 26.8331C72.0399 26.3306 73.0924 26.0794 74.3338 26.0794C75.3593 26.0794 76.2634 26.2678 77.046 26.6446C77.8287 27.0215 78.4494 27.5427 78.9082 28.2085C79.3805 28.8616 79.6436 29.8563 79.6976 30.7105H76.0947C76.0543 30.296 75.8856 29.7032 75.5887 29.4143C75.3054 29.1254 74.8871 28.981 74.3338 28.981C73.6321 28.981 73.1126 29.2322 72.7753 29.7346C72.438 30.2245 72.2693 30.8776 72.2693 31.6941C72.2693 32.4729 72.4177 33.1072 72.7146 33.5971C73.0249 34.0869 73.5647 34.3319 74.3338 34.3319C74.9006 34.3319 75.3323 34.1937 75.6292 33.9174C75.9396 33.641 76.1217 33.0231 76.1757 32.5458H79.7785C79.7245 33.4251 79.4547 34.4386 78.9689 35.1044C78.4966 35.7701 77.8624 36.2914 77.0663 36.6682C76.2702 37.045 75.3593 37.2334 74.3338 37.2334Z" fill="#292929"/>
<path d="M81.3668 36.8566V26.4562H84.2815V30.1303C84.4029 28.937 84.7807 28.0012 85.4149 27.3229C86.0626 26.6446 86.9397 26.3055 88.0462 26.3055H88.4915V29.469H87.6414C86.8183 29.469 86.1773 29.6763 85.7186 30.0908C85.2733 30.5053 85.0506 31.1369 85.0506 31.6564V36.8566H81.3668Z" fill="#292929"/>
<path d="M92.805 37.1204C91.6176 37.1204 90.646 36.8315 89.8904 36.2537C89.1482 35.6633 88.7772 34.8469 88.7772 33.8043C88.7772 33.0255 88.9998 32.3975 89.4451 31.9202C89.8904 31.4303 90.5044 31.0723 91.287 30.8462C92.0696 30.6201 92.9669 30.5071 93.979 30.5071H95.7399C95.7264 30.0298 95.5982 29.6844 95.3553 29.4708C95.1259 29.2447 94.7481 29.1317 94.2219 29.1317C93.9655 29.1317 93.5877 29.138 93.0884 29.1505C92.5891 29.1631 92.0629 29.1819 91.5096 29.207C90.9564 29.2322 90.4504 29.2573 89.9916 29.2824V26.4185C90.3154 26.3934 90.7 26.3683 91.1453 26.3432C91.5906 26.3181 92.0494 26.2992 92.5217 26.2867C93.0074 26.2741 93.4527 26.2678 93.8575 26.2678C95.5847 26.2678 96.9139 26.6195 97.8449 27.3229C98.7895 28.0263 99.2618 29.1003 99.2618 30.5448C99.2618 32.6362 99.7439 36.8566 99.7439 36.8566H96.3471V34.9348C96.1042 35.6382 95.6859 36.1783 95.0922 36.5551C94.4985 36.932 93.7361 37.1204 92.805 37.1204ZM93.979 34.8217C94.4513 34.8217 94.8493 34.6961 95.1732 34.4449C95.5105 34.1811 95.6994 33.7038 95.7399 33.013V32.2782H93.979C93.4797 32.2782 93.0951 32.3975 92.8253 32.6362C92.5554 32.8623 92.4205 33.17 92.4205 33.5594C92.4205 33.9362 92.5554 34.2439 92.8253 34.4826C93.0951 34.7087 93.4797 34.8217 93.979 34.8217Z" fill="#292929"/>
<path d="M106.544 37.2334C105.573 37.2334 104.729 37.089 104.014 36.8001C103.299 36.4986 102.699 36.0967 102.213 35.5942C101.741 35.0918 101.383 34.5203 101.14 33.8797C100.911 33.2391 100.796 32.5734 100.796 31.8825V31.5057C100.796 30.5385 101.012 29.6467 101.444 28.8302C101.889 28.0012 102.537 27.3355 103.387 26.8331C104.25 26.3306 105.303 26.0794 106.544 26.0794C107.57 26.0794 108.474 26.2678 109.257 26.6446C110.039 27.0215 110.66 27.5427 111.119 28.2085C111.591 28.8616 111.854 29.8563 111.908 30.7105H108.305C108.265 30.296 108.096 29.7032 107.799 29.4143C107.516 29.1254 107.098 28.981 106.544 28.981C105.843 28.981 105.323 29.2322 104.986 29.7346C104.648 30.2245 104.48 30.8776 104.48 31.6941C104.48 32.4729 104.628 33.1072 104.925 33.5971C105.235 34.0869 105.775 34.3319 106.544 34.3319C107.111 34.3319 107.543 34.1937 107.84 33.9174C108.15 33.641 108.332 33.0231 108.386 32.5458H111.989C111.935 33.4251 111.665 34.4386 111.179 35.1044C110.707 35.7701 110.073 36.2914 109.277 36.6682C108.481 37.045 107.57 37.2334 106.544 37.2334Z" fill="#292929"/>
<path d="M115.5 36.6305L112.241 26.4562H115.925L118.192 33.9927H118.557L120.358 26.4562H123.839L120.904 37.6102C120.689 38.4644 120.385 39.1364 119.994 39.6263C119.616 40.1287 119.09 40.4804 118.415 40.6814C117.754 40.8949 116.89 41.0017 115.824 41.0017H113.658V38.1378H116.229C116.701 38.1378 117.059 38.0499 117.302 37.874C117.558 37.7107 117.74 37.403 117.848 36.9508L117.929 36.6305H115.5Z" fill="#292929"/>
</svg>
