<svg width="35" height="35" viewBox="0 0 35 35" fill="none" xmlns="http://www.w3.org/2000/svg">
<path d="M17.4998 0C7.83508 0 0 7.83508 0 17.4998C0 27.1649 7.83508 35 17.4998 35C27.1649 35 35 27.1651 35 17.4998C34.9998 7.83508 27.1649 0 17.4998 0ZM19.1185 23.1978L15.2392 27.076C14.271 28.0455 12.9558 28.5881 11.5853 28.5832C8.7288 28.5818 6.41495 26.265 6.4166 23.4085C6.41742 22.0402 6.96111 20.7273 7.92809 19.7587L12.6276 15.0561C13.5962 14.0846 14.9127 13.5397 16.285 13.5421C17.2734 13.5421 18.2419 13.8257 19.0743 14.3585C19.3881 14.5585 19.6795 14.7923 19.9425 15.0567C20.2423 15.3574 20.3975 15.7714 20.3709 16.1943C20.3456 16.5482 20.1933 16.8818 19.9425 17.1323C19.3593 17.6821 18.4497 17.6821 17.8661 17.1323C17.0006 16.2686 15.599 16.2686 14.7332 17.1323L10.0154 21.846C9.14922 22.7117 9.14922 24.116 10.0154 24.9817C10.8819 25.8479 12.2856 25.8479 13.152 24.9817L15.9412 22.1894C16.0463 22.0837 16.2054 22.052 16.3437 22.1084C17.094 22.4131 17.8978 22.5693 18.708 22.5664H18.8559C19.0597 22.565 19.2265 22.73 19.2274 22.9334C19.2282 23.0323 19.1887 23.1276 19.1185 23.1978ZM27.0692 15.2446L22.3662 19.9472C21.7054 20.6092 20.8767 21.0788 19.9688 21.3066H19.9283L19.714 21.3511L19.5955 21.3731L19.3412 21.4101H19.2154C19.1197 21.4101 19.0345 21.4284 18.9531 21.4319L18.7316 21.4577H18.7096H18.4511C18.2674 21.4503 18.0834 21.433 17.9009 21.406C17.749 21.3801 17.6017 21.3507 17.4539 21.314L17.236 21.2548C17.158 21.2327 17.0765 21.207 16.9991 21.177C16.9213 21.1478 16.8398 21.1218 16.7625 21.0887C16.6847 21.0554 16.6073 21.0257 16.5297 20.9887C15.9799 20.7343 15.4792 20.3841 15.0518 19.9548C14.7524 19.6546 14.596 19.2401 14.6229 18.8168C14.647 18.461 14.7989 18.125 15.0518 17.8717C15.6346 17.3228 16.5445 17.3228 17.1279 17.8717C17.9929 18.7353 19.3953 18.7353 20.2606 17.8717L21.4729 16.6674L21.5023 16.6341L24.9678 13.1732C25.8339 12.307 25.8339 10.9027 24.9678 10.037C24.1016 9.17124 22.6973 9.17124 21.8312 10.037L19.0489 12.8143C18.9436 12.9209 18.7849 12.9526 18.6458 12.8958C17.897 12.5895 17.0946 12.4325 16.2855 12.434H16.1488C15.9976 12.4371 15.8601 12.3477 15.8014 12.2086C15.7422 12.0697 15.7722 11.9098 15.8788 11.8024L19.7544 7.93139C21.7744 5.9114 25.0492 5.9114 27.0694 7.93139C29.0882 9.95055 29.0882 13.2258 27.0692 15.2446Z" fill="#97989F"/>
</svg>
