<svg width="22" height="22" viewBox="0 0 22 22" fill="none" xmlns="http://www.w3.org/2000/svg">
<path d="M11 5.6C10.7613 5.6 10.5324 5.69482 10.3636 5.8636C10.1948 6.03239 10.1 6.2613 10.1 6.5V15.5C10.1 15.7387 10.1948 15.9676 10.3636 16.1364C10.5324 16.3052 10.7613 16.4 11 16.4C11.2387 16.4 11.4676 16.3052 11.6364 16.1364C11.8052 15.9676 11.9 15.7387 11.9 15.5V6.5C11.9 6.2613 11.8052 6.03239 11.6364 5.8636C11.4676 5.69482 11.2387 5.6 11 5.6ZM6.5 11C6.2613 11 6.03239 11.0948 5.8636 11.2636C5.69482 11.4324 5.6 11.6613 5.6 11.9V15.5C5.6 15.7387 5.69482 15.9676 5.8636 16.1364C6.03239 16.3052 6.2613 16.4 6.5 16.4C6.73869 16.4 6.96761 16.3052 7.1364 16.1364C7.30518 15.9676 7.4 15.7387 7.4 15.5V11.9C7.4 11.6613 7.30518 11.4324 7.1364 11.2636C6.96761 11.0948 6.73869 11 6.5 11ZM15.5 9.2C15.2613 9.2 15.0324 9.29482 14.8636 9.4636C14.6948 9.63239 14.6 9.8613 14.6 10.1V15.5C14.6 15.7387 14.6948 15.9676 14.8636 16.1364C15.0324 16.3052 15.2613 16.4 15.5 16.4C15.7387 16.4 15.9676 16.3052 16.1364 16.1364C16.3052 15.9676 16.4 15.7387 16.4 15.5V10.1C16.4 9.8613 16.3052 9.63239 16.1364 9.4636C15.9676 9.29482 15.7387 9.2 15.5 9.2ZM17.3 2H4.7C3.98392 2 3.29716 2.28446 2.79081 2.79081C2.28446 3.29716 2 3.98392 2 4.7V17.3C2 18.0161 2.28446 18.7028 2.79081 19.2092C3.29716 19.7155 3.98392 20 4.7 20H17.3C18.0161 20 18.7028 19.7155 19.2092 19.2092C19.7155 18.7028 20 18.0161 20 17.3V4.7C20 3.98392 19.7155 3.29716 19.2092 2.79081C18.7028 2.28446 18.0161 2 17.3 2ZM18.2 17.3C18.2 17.5387 18.1052 17.7676 17.9364 17.9364C17.7676 18.1052 17.5387 18.2 17.3 18.2H4.7C4.46131 18.2 4.23239 18.1052 4.0636 17.9364C3.89482 17.7676 3.8 17.5387 3.8 17.3V4.7C3.8 4.46131 3.89482 4.23239 4.0636 4.0636C4.23239 3.89482 4.46131 3.8 4.7 3.8H17.3C17.5387 3.8 17.7676 3.89482 17.9364 4.0636C18.1052 4.23239 18.2 4.46131 18.2 4.7V17.3Z" fill="#988E89"/>
</svg>
