<svg width="35" height="35" viewBox="0 0 35 35" fill="none" xmlns="http://www.w3.org/2000/svg">
<path d="M17.5 35C27.165 35 35 27.165 35 17.5C35 7.83502 27.165 0 17.5 0C7.83502 0 0 7.83502 0 17.5C0 27.165 7.83502 35 17.5 35Z" fill="#6B6C76" fill-opacity="0.7"/>
<path d="M28.1424 8.80762H6.8588C6.29289 8.80762 5.83398 9.26631 5.83398 9.83243V25.2054C5.83398 25.7717 6.29289 26.2304 6.8588 26.2304H28.1424C28.7087 26.2304 29.1672 25.7717 29.1672 25.2054V9.83243C29.167 9.26652 28.7083 8.80762 28.1424 8.80762ZM17.2417 17.6959L9.92089 11.1484H24.9725L17.2417 17.6959ZM16.527 19.8544C16.9081 20.1954 17.4823 20.2026 17.8722 19.8725L26.6593 12.4315V23.8376H8.34169V12.5336L16.527 19.8544Z" fill="#FAFAFA"/>
</svg>
