<svg width="590" height="16" viewBox="0 0 590 16" fill="none" xmlns="http://www.w3.org/2000/svg">
<path d="M0.118608 11H1.65483V7.42045H3.7429C6.1044 7.42045 7.27273 5.99361 7.27273 4.11435C7.27273 2.24006 6.11435 0.818182 3.74787 0.818182H0.118608V11ZM1.65483 6.1179V2.13565H3.58381C5.10511 2.13565 5.72656 2.96094 5.72656 4.11435C5.72656 5.26776 5.10511 6.1179 3.60369 6.1179H1.65483ZM10.5409 0.818182H9.05437V11H10.5409V0.818182ZM15.9319 11.1541C17.5974 11.1541 18.7756 10.3338 19.1137 9.09091L17.7067 8.83736C17.4383 9.55824 16.792 9.92614 15.9468 9.92614C14.6741 9.92614 13.819 9.10085 13.7792 7.62926H19.2082V7.10227C19.2082 4.34304 17.5576 3.2642 15.8275 3.2642C13.6996 3.2642 12.2977 4.88494 12.2977 7.23153C12.2977 9.60298 13.6798 11.1541 15.9319 11.1541ZM13.7842 6.51562C13.8438 5.43182 14.6293 4.49219 15.8374 4.49219C16.9908 4.49219 17.7465 5.3473 17.7515 6.51562H13.7842ZM23.1798 11.169C24.4426 11.169 25.1535 10.5277 25.4369 9.95597H25.4966V11H26.9483V5.92898C26.9483 3.70668 25.1983 3.2642 23.9852 3.2642C22.6031 3.2642 21.3304 3.82102 20.8332 5.21307L22.2302 5.53125C22.449 4.98935 23.0058 4.46733 24.0051 4.46733C24.9646 4.46733 25.4568 4.96946 25.4568 5.83452V5.86932C25.4568 6.41122 24.9 6.40128 23.5278 6.56037C22.0811 6.7294 20.5995 7.10724 20.5995 8.84233C20.5995 10.3438 21.7281 11.169 23.1798 11.169ZM23.5029 9.97585C22.6627 9.97585 22.0562 9.59801 22.0562 8.86222C22.0562 8.06676 22.7622 7.78338 23.6223 7.66903C24.1045 7.6044 25.248 7.47514 25.4618 7.26136V8.24574C25.4618 9.15057 24.7409 9.97585 23.5029 9.97585ZM34.7505 5.22798C34.4423 4.03977 33.5126 3.2642 31.862 3.2642C30.1369 3.2642 28.9138 4.17401 28.9138 5.52628C28.9138 6.61009 29.5701 7.33097 31.0019 7.64915L32.2945 7.93253C33.0303 8.09659 33.3734 8.42472 33.3734 8.90199C33.3734 9.49361 32.742 9.95597 31.7675 9.95597C30.8776 9.95597 30.3059 9.57315 30.1269 8.82244L28.6901 9.04119C28.9387 10.3935 30.0623 11.1541 31.7775 11.1541C33.6219 11.1541 34.8996 10.1747 34.8996 8.79261C34.8996 7.71378 34.2136 7.04759 32.8116 6.72443L31.5985 6.44602C30.7583 6.24716 30.3954 5.96378 30.4004 5.44673C30.3954 4.86009 31.0317 4.44247 31.8769 4.44247C32.8016 4.44247 33.2292 4.95455 33.4032 5.46662L34.7505 5.22798ZM39.9252 11.1541C41.5907 11.1541 42.769 10.3338 43.1071 9.09091L41.7001 8.83736C41.4316 9.55824 40.7853 9.92614 39.9402 9.92614C38.6674 9.92614 37.8123 9.10085 37.7725 7.62926H43.2015V7.10227C43.2015 4.34304 41.551 3.2642 39.8208 3.2642C37.693 3.2642 36.291 4.88494 36.291 7.23153C36.291 9.60298 37.6731 11.1541 39.9252 11.1541ZM37.7775 6.51562C37.8372 5.43182 38.6227 4.49219 39.8308 4.49219C40.9842 4.49219 41.7399 5.3473 41.7449 6.51562H37.7775ZM51.9576 14.0227C53.9015 14.0227 55.4029 13.1328 55.4029 11.169V3.36364H53.9463V4.60156H53.8369C53.5734 4.12926 53.0464 3.2642 51.6245 3.2642C49.7801 3.2642 48.4228 4.72088 48.4228 7.15199C48.4228 9.58807 49.8099 10.8857 51.6146 10.8857C53.0166 10.8857 53.5585 10.0952 53.827 9.60795H53.9214V11.1094C53.9214 12.3075 53.1011 12.8246 51.9726 12.8246C50.7346 12.8246 50.2524 12.2031 49.9889 11.7656L48.7112 12.2926C49.1139 13.2273 50.1331 14.0227 51.9576 14.0227ZM51.9427 9.6527C50.6153 9.6527 49.9243 8.63352 49.9243 7.1321C49.9243 5.66548 50.6004 4.52699 51.9427 4.52699C53.2403 4.52699 53.9363 5.58594 53.9363 7.1321C53.9363 8.7081 53.2254 9.6527 51.9427 9.6527ZM60.7132 11.1541C62.8659 11.1541 64.2728 9.57812 64.2728 7.21662C64.2728 4.8402 62.8659 3.2642 60.7132 3.2642C58.5605 3.2642 57.1535 4.8402 57.1535 7.21662C57.1535 9.57812 58.5605 11.1541 60.7132 11.1541ZM60.7181 9.90625C59.3112 9.90625 58.6549 8.67827 58.6549 7.21165C58.6549 5.75 59.3112 4.5071 60.7181 4.5071C62.1152 4.5071 62.7714 5.75 62.7714 7.21165C62.7714 8.67827 62.1152 9.90625 60.7181 9.90625ZM73.4018 3.36364H71.8358V1.53409H70.3493V3.36364H69.2306V4.55682H70.3493V9.06605C70.3443 10.4531 71.4032 11.1243 72.5765 11.0994C73.0488 11.0945 73.367 11.005 73.541 10.9403L73.2725 9.71236C73.1731 9.73224 72.9892 9.77699 72.7505 9.77699C72.2683 9.77699 71.8358 9.6179 71.8358 8.75781V4.55682H73.4018V3.36364ZM78.2808 11.1541C80.4335 11.1541 81.8404 9.57812 81.8404 7.21662C81.8404 4.8402 80.4335 3.2642 78.2808 3.2642C76.1281 3.2642 74.7211 4.8402 74.7211 7.21662C74.7211 9.57812 76.1281 11.1541 78.2808 11.1541ZM78.2857 9.90625C76.8788 9.90625 76.2225 8.67827 76.2225 7.21165C76.2225 5.75 76.8788 4.5071 78.2857 4.5071C79.6827 4.5071 80.339 5.75 80.339 7.21165C80.339 8.67827 79.6827 9.90625 78.2857 9.90625ZM87.4048 11H88.8913V3.36364H87.4048V11ZM88.1555 2.18537C88.6675 2.18537 89.0951 1.78764 89.0951 1.30043C89.0951 0.81321 88.6675 0.410511 88.1555 0.410511C87.6384 0.410511 87.2158 0.81321 87.2158 1.30043C87.2158 1.78764 87.6384 2.18537 88.1555 2.18537ZM92.4776 6.46591C92.4776 5.24787 93.2233 4.55185 94.2574 4.55185C95.2667 4.55185 95.8782 5.21307 95.8782 6.32173V11H97.3647V6.14276C97.3647 4.25355 96.3256 3.2642 94.7645 3.2642C93.6161 3.2642 92.8654 3.79616 92.5124 4.60653H92.4179V3.36364H90.9911V11H92.4776V6.46591ZM99.5776 11H101.029V9.81179H101.154C101.422 10.299 101.969 11.1491 103.361 11.1491C105.21 11.1491 106.553 9.66761 106.553 7.19673C106.553 4.72088 105.191 3.2642 103.346 3.2642C101.929 3.2642 101.417 4.12926 101.154 4.60156H101.064V0.818182H99.5776V11ZM101.034 7.18182C101.034 5.58594 101.73 4.52699 103.028 4.52699C104.375 4.52699 105.051 5.66548 105.051 7.18182C105.051 8.71307 104.355 9.88139 103.028 9.88139C101.75 9.88139 101.034 8.78764 101.034 7.18182ZM111.539 11.1541C113.691 11.1541 115.098 9.57812 115.098 7.21662C115.098 4.8402 113.691 3.2642 111.539 3.2642C109.386 3.2642 107.979 4.8402 107.979 7.21662C107.979 9.57812 109.386 11.1541 111.539 11.1541ZM111.544 9.90625C110.137 9.90625 109.48 8.67827 109.48 7.21165C109.48 5.75 110.137 4.5071 111.544 4.5071C112.941 4.5071 113.597 5.75 113.597 7.21165C113.597 8.67827 112.941 9.90625 111.544 9.90625ZM117.716 3.36364H116.086L118.432 7.18182L116.056 11H117.687L119.402 8.14631L121.122 11H122.748L120.346 7.18182L122.728 3.36364H121.102L119.402 6.33665L117.716 3.36364ZM130.381 11.169C131.644 11.169 132.355 10.5277 132.638 9.95597H132.698V11H134.15V5.92898C134.15 3.70668 132.4 3.2642 131.187 3.2642C129.805 3.2642 128.532 3.82102 128.035 5.21307L129.432 5.53125C129.651 4.98935 130.207 4.46733 131.207 4.46733C132.166 4.46733 132.658 4.96946 132.658 5.83452V5.86932C132.658 6.41122 132.102 6.40128 130.729 6.56037C129.283 6.7294 127.801 7.10724 127.801 8.84233C127.801 10.3438 128.93 11.169 130.381 11.169ZM130.705 9.97585C129.864 9.97585 129.258 9.59801 129.258 8.86222C129.258 8.06676 129.964 7.78338 130.824 7.66903C131.306 7.6044 132.45 7.47514 132.663 7.26136V8.24574C132.663 9.15057 131.942 9.97585 130.705 9.97585ZM137.716 6.46591C137.716 5.24787 138.462 4.55185 139.496 4.55185C140.505 4.55185 141.117 5.21307 141.117 6.32173V11H142.603V6.14276C142.603 4.25355 141.564 3.2642 140.003 3.2642C138.855 3.2642 138.104 3.79616 137.751 4.60653H137.657V3.36364H136.23V11H137.716V6.46591ZM147.556 11.1491C148.948 11.1491 149.495 10.299 149.763 9.81179H149.887V11H151.339V0.818182H149.852V4.60156H149.763C149.495 4.12926 148.987 3.2642 147.566 3.2642C145.721 3.2642 144.364 4.72088 144.364 7.19673C144.364 9.66761 145.701 11.1491 147.556 11.1491ZM147.884 9.88139C146.556 9.88139 145.865 8.71307 145.865 7.18182C145.865 5.66548 146.541 4.52699 147.884 4.52699C149.181 4.52699 149.877 5.58594 149.877 7.18182C149.877 8.78764 149.166 9.88139 147.884 9.88139ZM160.582 11.1541C162.387 11.1541 163.555 10.0703 163.719 8.58381H162.273C162.084 9.40909 161.442 9.89631 160.592 9.89631C159.334 9.89631 158.524 8.8473 158.524 7.18182C158.524 5.54616 159.349 4.51705 160.592 4.51705C161.537 4.51705 162.114 5.11364 162.273 5.82955H163.719C163.56 4.28835 162.302 3.2642 160.567 3.2642C158.415 3.2642 157.023 4.88494 157.023 7.21662C157.023 9.51847 158.365 11.1541 160.582 11.1541ZM168.626 11.1541C170.778 11.1541 172.185 9.57812 172.185 7.21662C172.185 4.8402 170.778 3.2642 168.626 3.2642C166.473 3.2642 165.066 4.8402 165.066 7.21662C165.066 9.57812 166.473 11.1541 168.626 11.1541ZM168.631 9.90625C167.224 9.90625 166.567 8.67827 166.567 7.21165C166.567 5.75 167.224 4.5071 168.631 4.5071C170.028 4.5071 170.684 5.75 170.684 7.21165C170.684 8.67827 170.028 9.90625 168.631 9.90625ZM175.431 6.46591C175.431 5.24787 176.177 4.55185 177.211 4.55185C178.22 4.55185 178.832 5.21307 178.832 6.32173V11H180.318V6.14276C180.318 4.25355 179.279 3.2642 177.718 3.2642C176.57 3.2642 175.819 3.79616 175.466 4.60653H175.371V3.36364H173.945V11H175.431V6.46591ZM186.046 3.36364H184.4V2.67756C184.4 2.00142 184.679 1.63352 185.405 1.63352C185.713 1.63352 185.932 1.70312 186.071 1.74787L186.419 0.544744C186.21 0.465199 185.778 0.340908 185.176 0.340908C183.968 0.340908 182.909 1.04688 182.909 2.47869V3.36364H181.731V4.55682H182.909V11H184.4V4.55682H186.046V3.36364ZM187.68 11H189.166V3.36364H187.68V11ZM188.43 2.18537C188.943 2.18537 189.37 1.78764 189.37 1.30043C189.37 0.81321 188.943 0.410511 188.43 0.410511C187.913 0.410511 187.491 0.81321 187.491 1.30043C187.491 1.78764 187.913 2.18537 188.43 2.18537ZM191.266 11H192.753V6.33665C192.753 5.33736 193.523 4.61648 194.577 4.61648C194.885 4.61648 195.233 4.67116 195.353 4.70597V3.28409C195.204 3.2642 194.91 3.24929 194.721 3.24929C193.826 3.24929 193.061 3.75639 192.782 4.5767H192.703V3.36364H191.266V11ZM196.739 11H198.226V6.2919C198.226 5.26278 198.947 4.54688 199.792 4.54688C200.617 4.54688 201.189 5.09375 201.189 5.92401V11H202.67V6.13281C202.67 5.21307 203.232 4.54688 204.201 4.54688C204.987 4.54688 205.633 4.98438 205.633 6.01847V11H207.12V5.87926C207.12 4.13423 206.145 3.2642 204.763 3.2642C203.665 3.2642 202.839 3.79119 202.471 4.60653H202.392C202.059 3.77131 201.358 3.2642 200.339 3.2642C199.329 3.2642 198.579 3.76633 198.26 4.60653H198.166V3.36364H196.739V11ZM213.957 13.8636C215.185 13.8636 215.96 13.2223 216.403 12.0192L219.56 3.37855L217.954 3.36364L216.02 9.28977H215.941L214.007 3.36364H212.416L215.21 11.0994L215.026 11.6065C214.648 12.6207 214.116 12.7053 213.301 12.4815L212.943 13.6996C213.122 13.7791 213.509 13.8636 213.957 13.8636ZM224.004 11.1541C226.156 11.1541 227.563 9.57812 227.563 7.21662C227.563 4.8402 226.156 3.2642 224.004 3.2642C221.851 3.2642 220.444 4.8402 220.444 7.21662C220.444 9.57812 221.851 11.1541 224.004 11.1541ZM224.009 9.90625C222.602 9.90625 221.946 8.67827 221.946 7.21165C221.946 5.75 222.602 4.5071 224.009 4.5071C225.406 4.5071 226.062 5.75 226.062 7.21165C226.062 8.67827 225.406 9.90625 224.009 9.90625ZM234.16 7.8331C234.165 9.13068 233.201 9.74716 232.365 9.74716C231.446 9.74716 230.809 9.08097 230.809 8.0419V3.36364H229.323V8.22088C229.323 10.1151 230.362 11.0994 231.828 11.0994C232.977 11.0994 233.757 10.4929 234.11 9.67756H234.19V11H235.652V3.36364H234.16V7.8331ZM237.749 11H239.235V6.33665C239.235 5.33736 240.006 4.61648 241.06 4.61648C241.368 4.61648 241.716 4.67116 241.836 4.70597V3.28409C241.686 3.2642 241.393 3.24929 241.204 3.24929C240.309 3.24929 239.544 3.75639 239.265 4.5767H239.186V3.36364H237.749V11ZM250.318 11.1541C251.984 11.1541 253.162 10.3338 253.5 9.09091L252.093 8.83736C251.825 9.55824 251.178 9.92614 250.333 9.92614C249.06 9.92614 248.205 9.10085 248.166 7.62926H253.595V7.10227C253.595 4.34304 251.944 3.2642 250.214 3.2642C248.086 3.2642 246.684 4.88494 246.684 7.23153C246.684 9.60298 248.066 11.1541 250.318 11.1541ZM248.17 6.51562C248.23 5.43182 249.016 4.49219 250.224 4.49219C251.377 4.49219 252.133 5.3473 252.138 6.51562H248.17ZM255.344 11H256.83V6.2919C256.83 5.26278 257.551 4.54688 258.396 4.54688C259.222 4.54688 259.793 5.09375 259.793 5.92401V11H261.275V6.13281C261.275 5.21307 261.837 4.54688 262.806 4.54688C263.592 4.54688 264.238 4.98438 264.238 6.01847V11H265.724V5.87926C265.724 4.13423 264.75 3.2642 263.368 3.2642C262.269 3.2642 261.444 3.79119 261.076 4.60653H260.997C260.663 3.77131 259.962 3.2642 258.943 3.2642C257.934 3.2642 257.183 3.76633 256.865 4.60653H256.771V3.36364H255.344V11ZM270.039 11.169C271.302 11.169 272.013 10.5277 272.296 9.95597H272.356V11H273.808V5.92898C273.808 3.70668 272.058 3.2642 270.845 3.2642C269.462 3.2642 268.19 3.82102 267.693 5.21307L269.09 5.53125C269.308 4.98935 269.865 4.46733 270.864 4.46733C271.824 4.46733 272.316 4.96946 272.316 5.83452V5.86932C272.316 6.41122 271.759 6.40128 270.387 6.56037C268.94 6.7294 267.459 7.10724 267.459 8.84233C267.459 10.3438 268.587 11.169 270.039 11.169ZM270.362 9.97585C269.522 9.97585 268.916 9.59801 268.916 8.86222C268.916 8.06676 269.622 7.78338 270.482 7.66903C270.964 7.6044 272.107 7.47514 272.321 7.26136V8.24574C272.321 9.15057 271.6 9.97585 270.362 9.97585ZM275.888 11H277.374V3.36364H275.888V11ZM276.638 2.18537C277.15 2.18537 277.578 1.78764 277.578 1.30043C277.578 0.81321 277.15 0.410511 276.638 0.410511C276.121 0.410511 275.699 0.81321 275.699 1.30043C275.699 1.78764 276.121 2.18537 276.638 2.18537ZM280.96 0.818182H279.474V11H280.96V0.818182ZM292.588 5.22798C292.279 4.03977 291.35 3.2642 289.699 3.2642C287.974 3.2642 286.751 4.17401 286.751 5.52628C286.751 6.61009 287.407 7.33097 288.839 7.64915L290.132 7.93253C290.867 8.09659 291.21 8.42472 291.21 8.90199C291.21 9.49361 290.579 9.95597 289.605 9.95597C288.715 9.95597 288.143 9.57315 287.964 8.82244L286.527 9.04119C286.776 10.3935 287.899 11.1541 289.615 11.1541C291.459 11.1541 292.737 10.1747 292.737 8.79261C292.737 7.71378 292.051 7.04759 290.649 6.72443L289.436 6.44602C288.595 6.24716 288.233 5.96378 288.237 5.44673C288.233 4.86009 288.869 4.44247 289.714 4.44247C290.639 4.44247 291.066 4.95455 291.24 5.46662L292.588 5.22798ZM297.688 11.1541C299.84 11.1541 301.247 9.57812 301.247 7.21662C301.247 4.8402 299.84 3.2642 297.688 3.2642C295.535 3.2642 294.128 4.8402 294.128 7.21662C294.128 9.57812 295.535 11.1541 297.688 11.1541ZM297.693 9.90625C296.286 9.90625 295.63 8.67827 295.63 7.21165C295.63 5.75 296.286 4.5071 297.693 4.5071C299.09 4.5071 299.746 5.75 299.746 7.21165C299.746 8.67827 299.09 9.90625 297.693 9.90625ZM308.467 11H309.979L311.53 5.48651H311.644L313.195 11H314.712L316.954 3.36364H315.418L313.931 8.94673H313.857L312.365 3.36364H310.829L309.327 8.97159H309.253L307.756 3.36364H306.22L308.467 11ZM321.523 11.1541C323.189 11.1541 324.367 10.3338 324.705 9.09091L323.298 8.83736C323.03 9.55824 322.383 9.92614 321.538 9.92614C320.265 9.92614 319.41 9.10085 319.371 7.62926H324.8V7.10227C324.8 4.34304 323.149 3.2642 321.419 3.2642C319.291 3.2642 317.889 4.88494 317.889 7.23153C317.889 9.60298 319.271 11.1541 321.523 11.1541ZM319.376 6.51562C319.435 5.43182 320.221 4.49219 321.429 4.49219C322.582 4.49219 323.338 5.3473 323.343 6.51562H319.376ZM333.571 11.1541C335.375 11.1541 336.544 10.0703 336.708 8.58381H335.261C335.072 9.40909 334.431 9.89631 333.581 9.89631C332.323 9.89631 331.512 8.8473 331.512 7.18182C331.512 5.54616 332.338 4.51705 333.581 4.51705C334.525 4.51705 335.102 5.11364 335.261 5.82955H336.708C336.549 4.28835 335.291 3.2642 333.556 3.2642C331.403 3.2642 330.011 4.88494 330.011 7.21662C330.011 9.51847 331.353 11.1541 333.571 11.1541ZM340.62 11.169C341.882 11.169 342.593 10.5277 342.877 9.95597H342.936V11H344.388V5.92898C344.388 3.70668 342.638 3.2642 341.425 3.2642C340.043 3.2642 338.77 3.82102 338.273 5.21307L339.67 5.53125C339.889 4.98935 340.446 4.46733 341.445 4.46733C342.404 4.46733 342.897 4.96946 342.897 5.83452V5.86932C342.897 6.41122 342.34 6.40128 340.968 6.56037C339.521 6.7294 338.039 7.10724 338.039 8.84233C338.039 10.3438 339.168 11.169 340.62 11.169ZM340.943 9.97585C340.103 9.97585 339.496 9.59801 339.496 8.86222C339.496 8.06676 340.202 7.78338 341.062 7.66903C341.544 7.6044 342.688 7.47514 342.902 7.26136V8.24574C342.902 9.15057 342.181 9.97585 340.943 9.97585ZM347.955 6.46591C347.955 5.24787 348.7 4.55185 349.734 4.55185C350.744 4.55185 351.355 5.21307 351.355 6.32173V11H352.842V6.14276C352.842 4.25355 351.803 3.2642 350.241 3.2642C349.093 3.2642 348.342 3.79616 347.989 4.60653H347.895V3.36364H346.468V11H347.955V6.46591ZM365.273 3.36364H363.677L361.748 9.24006H361.669L359.735 3.36364H358.139L360.913 11H362.504L365.273 3.36364ZM369.788 11.1541C371.453 11.1541 372.631 10.3338 372.97 9.09091L371.563 8.83736C371.294 9.55824 370.648 9.92614 369.803 9.92614C368.53 9.92614 367.675 9.10085 367.635 7.62926H373.064V7.10227C373.064 4.34304 371.413 3.2642 369.683 3.2642C367.555 3.2642 366.154 4.88494 366.154 7.23153C366.154 9.60298 367.536 11.1541 369.788 11.1541ZM367.64 6.51562C367.7 5.43182 368.485 4.49219 369.693 4.49219C370.847 4.49219 371.602 5.3473 371.607 6.51562H367.64ZM374.813 11H376.3V6.33665C376.3 5.33736 377.07 4.61648 378.124 4.61648C378.433 4.61648 378.781 4.67116 378.9 4.70597V3.28409C378.751 3.2642 378.458 3.24929 378.269 3.24929C377.374 3.24929 376.608 3.75639 376.33 4.5767H376.25V3.36364H374.813V11ZM380.286 11H381.773V3.36364H380.286V11ZM381.037 2.18537C381.549 2.18537 381.977 1.78764 381.977 1.30043C381.977 0.81321 381.549 0.410511 381.037 0.410511C380.52 0.410511 380.097 0.81321 380.097 1.30043C380.097 1.78764 380.52 2.18537 381.037 2.18537ZM387.507 3.36364H385.861V2.67756C385.861 2.00142 386.14 1.63352 386.866 1.63352C387.174 1.63352 387.393 1.70312 387.532 1.74787L387.88 0.544744C387.671 0.465199 387.239 0.340908 386.637 0.340908C385.429 0.340908 384.37 1.04688 384.37 2.47869V3.36364H383.192V4.55682H384.37V11H385.861V4.55682H387.507V3.36364ZM390.08 13.8636C391.308 13.8636 392.084 13.2223 392.526 12.0192L395.683 3.37855L394.077 3.36364L392.144 9.28977H392.064L390.13 3.36364H388.539L391.333 11.0994L391.149 11.6065C390.771 12.6207 390.239 12.7053 389.424 12.4815L389.066 13.6996C389.245 13.7791 389.633 13.8636 390.08 13.8636ZM401.929 13.8636C403.157 13.8636 403.932 13.2223 404.375 12.0192L407.532 3.37855L405.926 3.36364L403.992 9.28977H403.912L401.978 3.36364H400.388L403.182 11.0994L402.998 11.6065C402.62 12.6207 402.088 12.7053 401.273 12.4815L400.915 13.6996C401.094 13.7791 401.481 13.8636 401.929 13.8636ZM411.976 11.1541C414.128 11.1541 415.535 9.57812 415.535 7.21662C415.535 4.8402 414.128 3.2642 411.976 3.2642C409.823 3.2642 408.416 4.8402 408.416 7.21662C408.416 9.57812 409.823 11.1541 411.976 11.1541ZM411.981 9.90625C410.574 9.90625 409.917 8.67827 409.917 7.21165C409.917 5.75 410.574 4.5071 411.981 4.5071C413.378 4.5071 414.034 5.75 414.034 7.21165C414.034 8.67827 413.378 9.90625 411.981 9.90625ZM422.132 7.8331C422.137 9.13068 421.172 9.74716 420.337 9.74716C419.417 9.74716 418.781 9.08097 418.781 8.0419V3.36364H417.295V8.22088C417.295 10.1151 418.334 11.0994 419.8 11.0994C420.949 11.0994 421.729 10.4929 422.082 9.67756H422.162V11H423.623V3.36364H422.132V7.8331ZM425.721 11H427.207V6.33665C427.207 5.33736 427.978 4.61648 429.032 4.61648C429.34 4.61648 429.688 4.67116 429.807 4.70597V3.28409C429.658 3.2642 429.365 3.24929 429.176 3.24929C428.281 3.24929 427.516 3.75639 427.237 4.5767H427.158V3.36364H425.721V11ZM437.221 11.169C438.484 11.169 439.195 10.5277 439.478 9.95597H439.538V11H440.99V5.92898C440.99 3.70668 439.24 3.2642 438.027 3.2642C436.644 3.2642 435.372 3.82102 434.875 5.21307L436.272 5.53125C436.49 4.98935 437.047 4.46733 438.046 4.46733C439.006 4.46733 439.498 4.96946 439.498 5.83452V5.86932C439.498 6.41122 438.941 6.40128 437.569 6.56037C436.122 6.7294 434.641 7.10724 434.641 8.84233C434.641 10.3438 435.769 11.169 437.221 11.169ZM437.544 9.97585C436.704 9.97585 436.098 9.59801 436.098 8.86222C436.098 8.06676 436.804 7.78338 437.664 7.66903C438.146 7.6044 439.289 7.47514 439.503 7.26136V8.24574C439.503 9.15057 438.782 9.97585 437.544 9.97585ZM446.286 11.1541C448.091 11.1541 449.259 10.0703 449.423 8.58381H447.977C447.788 9.40909 447.146 9.89631 446.296 9.89631C445.038 9.89631 444.228 8.8473 444.228 7.18182C444.228 5.54616 445.053 4.51705 446.296 4.51705C447.241 4.51705 447.817 5.11364 447.977 5.82955H449.423C449.264 4.28835 448.006 3.2642 446.271 3.2642C444.119 3.2642 442.727 4.88494 442.727 7.21662C442.727 9.51847 444.069 11.1541 446.286 11.1541ZM454.33 11.1541C456.134 11.1541 457.303 10.0703 457.467 8.58381H456.02C455.831 9.40909 455.19 9.89631 454.34 9.89631C453.082 9.89631 452.271 8.8473 452.271 7.18182C452.271 5.54616 453.097 4.51705 454.34 4.51705C455.284 4.51705 455.861 5.11364 456.02 5.82955H457.467C457.308 4.28835 456.05 3.2642 454.315 3.2642C452.162 3.2642 450.77 4.88494 450.77 7.21662C450.77 9.51847 452.112 11.1541 454.33 11.1541ZM462.373 11.1541C464.526 11.1541 465.933 9.57812 465.933 7.21662C465.933 4.8402 464.526 3.2642 462.373 3.2642C460.22 3.2642 458.813 4.8402 458.813 7.21662C458.813 9.57812 460.22 11.1541 462.373 11.1541ZM462.378 9.90625C460.971 9.90625 460.315 8.67827 460.315 7.21165C460.315 5.75 460.971 4.5071 462.378 4.5071C463.775 4.5071 464.431 5.75 464.431 7.21165C464.431 8.67827 463.775 9.90625 462.378 9.90625ZM472.529 7.8331C472.534 9.13068 471.57 9.74716 470.734 9.74716C469.815 9.74716 469.178 9.08097 469.178 8.0419V3.36364H467.692V8.22088C467.692 10.1151 468.731 11.0994 470.198 11.0994C471.346 11.0994 472.127 10.4929 472.479 9.67756H472.559V11H474.021V3.36364H472.529V7.8331ZM477.605 6.46591C477.605 5.24787 478.35 4.55185 479.384 4.55185C480.394 4.55185 481.005 5.21307 481.005 6.32173V11H482.492V6.14276C482.492 4.25355 481.453 3.2642 479.891 3.2642C478.743 3.2642 477.992 3.79616 477.639 4.60653H477.545V3.36364H476.118V11H477.605V6.46591ZM488.15 3.36364H486.584V1.53409H485.097V3.36364H483.979V4.55682H485.097V9.06605C485.092 10.4531 486.151 11.1243 487.325 11.0994C487.797 11.0945 488.115 11.005 488.289 10.9403L488.021 9.71236C487.921 9.73224 487.737 9.77699 487.499 9.77699C487.016 9.77699 486.584 9.6179 486.584 8.75781V4.55682H488.15V3.36364ZM490.874 11.0945C491.416 11.0945 491.868 10.652 491.868 10.1001C491.868 9.55824 491.416 9.1108 490.874 9.1108C490.327 9.1108 489.879 9.55824 489.879 10.1001C489.879 10.652 490.327 11.0945 490.874 11.0945ZM497.486 11H499.638V7.39062H501.209L503.138 11H505.515L503.352 7.04261C504.511 6.54545 505.152 5.53622 505.152 4.14418C505.152 2.12074 503.815 0.818182 501.503 0.818182H497.486V11ZM499.638 5.66051V2.57812H501.09C502.333 2.57812 502.935 3.12997 502.935 4.14418C502.935 5.15341 502.333 5.66051 501.1 5.66051H499.638ZM510.091 11.1491C511.98 11.1491 513.252 10.2294 513.551 8.8125L511.592 8.68324C511.378 9.26491 510.831 9.56818 510.125 9.56818C509.066 9.56818 508.395 8.86719 508.395 7.72869V7.72372H513.595V7.14205C513.595 4.54688 512.024 3.2642 510.006 3.2642C507.759 3.2642 506.302 4.86009 506.302 7.21662C506.302 9.63778 507.739 11.1491 510.091 11.1491ZM508.395 6.41122C508.44 5.54119 509.101 4.84517 510.041 4.84517C510.961 4.84517 511.597 5.50142 511.602 6.41122H508.395ZM521.431 5.54119C521.242 4.13423 520.109 3.2642 518.18 3.2642C516.226 3.2642 514.938 4.16903 514.943 5.64062C514.938 6.78409 515.659 7.52486 517.151 7.82315L518.473 8.08665C519.139 8.22088 519.443 8.46449 519.453 8.8473C519.443 9.29972 518.95 9.62287 518.21 9.62287C517.454 9.62287 516.952 9.29972 516.823 8.67827L514.74 8.78764C514.938 10.2493 516.181 11.1491 518.205 11.1491C520.183 11.1491 521.6 10.1399 521.605 8.63352C521.6 7.52983 520.879 6.86861 519.398 6.56534L518.016 6.28693C517.305 6.13281 517.041 5.8892 517.046 5.52131C517.041 5.06392 517.558 4.76562 518.215 4.76562C518.95 4.76562 519.388 5.16832 519.492 5.66051L521.431 5.54119ZM526.519 11.1491C528.408 11.1491 529.681 10.2294 529.979 8.8125L528.02 8.68324C527.807 9.26491 527.26 9.56818 526.554 9.56818C525.495 9.56818 524.824 8.86719 524.824 7.72869V7.72372H530.024V7.14205C530.024 4.54688 528.453 3.2642 526.434 3.2642C524.187 3.2642 522.731 4.86009 522.731 7.21662C522.731 9.63778 524.167 11.1491 526.519 11.1491ZM524.824 6.41122C524.868 5.54119 525.53 4.84517 526.469 4.84517C527.389 4.84517 528.025 5.50142 528.03 6.41122H524.824ZM533.624 6.58523C533.629 5.60085 534.216 5.02415 535.071 5.02415C535.921 5.02415 536.433 5.58097 536.428 6.51562V11H538.546V6.13778C538.546 4.35795 537.502 3.2642 535.911 3.2642C534.777 3.2642 533.957 3.82102 533.614 4.71094H533.525V3.36364H531.506V11H533.624V6.58523ZM543.129 11.1243C544.362 11.1243 545.003 10.4134 545.297 9.77699H545.386V11H547.474V0.818182H545.361V4.64631H545.297C545.013 4.02486 544.402 3.2642 543.124 3.2642C541.449 3.2642 540.032 4.56676 540.032 7.19176C540.032 9.74716 541.389 11.1243 543.129 11.1243ZM543.8 9.43892C542.761 9.43892 542.194 8.5142 542.194 7.18182C542.194 5.85938 542.751 4.94957 543.8 4.94957C544.829 4.94957 545.406 5.8196 545.406 7.18182C545.406 8.54403 544.819 9.43892 543.8 9.43892ZM556.136 11.1491C558.025 11.1491 559.298 10.2294 559.596 8.8125L557.637 8.68324C557.423 9.26491 556.877 9.56818 556.171 9.56818C555.112 9.56818 554.441 8.86719 554.441 7.72869V7.72372H559.641V7.14205C559.641 4.54688 558.07 3.2642 556.051 3.2642C553.804 3.2642 552.347 4.86009 552.347 7.21662C552.347 9.63778 553.784 11.1491 556.136 11.1491ZM554.441 6.41122C554.485 5.54119 555.146 4.84517 556.086 4.84517C557.006 4.84517 557.642 5.50142 557.647 6.41122H554.441ZM561.123 11H563.241V6.41619C563.241 5.57102 563.778 5.00923 564.484 5.00923C565.18 5.00923 565.647 5.48651 565.647 6.23722V11H567.7V6.33665C567.7 5.54616 568.153 5.00923 568.923 5.00923C569.599 5.00923 570.107 5.43182 570.107 6.28196V11H572.219V5.86435C572.219 4.20881 571.235 3.2642 569.813 3.2642C568.695 3.2642 567.825 3.83594 567.511 4.71094H567.432C567.188 3.82599 566.408 3.2642 565.359 3.2642C564.33 3.2642 563.549 3.81108 563.231 4.71094H563.141V3.36364H561.123V11ZM576.17 11.1442C577.299 11.1442 578.029 10.652 578.402 9.94105H578.462V11H580.47V5.84943C580.47 4.02983 578.929 3.2642 577.229 3.2642C575.399 3.2642 574.196 4.1392 573.903 5.53125L575.862 5.69034C576.006 5.18324 576.458 4.81037 577.219 4.81037C577.94 4.81037 578.353 5.1733 578.353 5.79972V5.82955C578.353 6.32173 577.831 6.38636 576.503 6.51562C574.992 6.65483 573.634 7.16193 573.634 8.86719C573.634 10.3786 574.713 11.1442 576.17 11.1442ZM576.777 9.68253C576.125 9.68253 575.658 9.37926 575.658 8.79759C575.658 8.20099 576.15 7.90767 576.896 7.80327C577.358 7.73864 578.114 7.62926 578.367 7.46023V8.2706C578.367 9.07102 577.706 9.68253 576.777 9.68253ZM582.214 11H584.331V3.36364H582.214V11ZM583.277 2.37926C583.909 2.37926 584.426 1.89702 584.426 1.3054C584.426 0.71875 583.909 0.236505 583.277 0.236505C582.651 0.236505 582.134 0.71875 582.134 1.3054C582.134 1.89702 582.651 2.37926 583.277 2.37926ZM588.246 0.818182H586.128V11H588.246V0.818182Z" fill="white"/>
<path d="M496.601 13.8288H589.091V15.1662H496.601V13.8288Z" fill="white"/>
</svg>