<?xml version="1.0" encoding="UTF-8"?>
<!-- Created with Inkscape (http://www.inkscape.org/) -->
<svg version="1.1" viewBox="0 0 57.558 67.277" xmlns="http://www.w3.org/2000/svg" xmlns:cc="http://creativecommons.org/ns#" xmlns:dc="http://purl.org/dc/elements/1.1/" xmlns:rdf="http://www.w3.org/1999/02/22-rdf-syntax-ns#">
 <metadata>
  <rdf:RDF>
   <cc:Work rdf:about="">
    <dc:format>image/svg+xml</dc:format>
    <dc:type rdf:resource="http://purl.org/dc/dcmitype/StillImage"/>
    <dc:title/>
   </cc:Work>
  </rdf:RDF>
 </metadata>
 <g transform="translate(-13.477 -61.222)">
  <path d="m15.629 127.88-.90171-.6189-1.107-1.494v-61.783l1.4826-1.9437 1.5339-.79319h1.6661l1.8102.85899 1.0522 1.4777.33469 1.6734 1.3808.52534 3.784 1.0385 5.4477.47319 8.5329-1.2399 5.2542-1.0713 6.0854-1.0626 5.2917-.54274 2.3812-.20491 4.7625.48776 3.175.79002 2.3812.84842.52917.49493.52916.49493v38.132l-.62462.50579-.62463.50579h-1.485l-1.2442-.53333-1.2442-.53334-4.5669-.81376-5.2917.01-5.5562.79047-3.7042.79906-7.2841 1.5999-5.9451.71016-7.1438-.39179-3.9688-1.1366-.92604-.2971v19.781l-.97972 1.8268-1.3621 1.017-2.553.23785z" fill="#e0e7eb"/>
  <path d="m15.979 128.08-.81619-.35537-1.1439-1.4543-.54195-2.0126.14328-59.963 1.0583-1.7968 1.494-1.1136h2.5682l1.494 1.107 1.1906 1.7494v1.2447h-.97632l-.87576.96771v12.01l1.4552.56378 5.7638 1.0126 6.0101.34326v-13.205l5.424-.66493 7.8543-1.5562h.21552v13.462l2.249-.74347 4.7625-.78513 6.2177-.3633v-13.309l4.1556.35712 1.7975.36407 4.3901 1.307 1.0339 1.0339v12.228l-1.4552-.37792-4.7557-.98678-5.1661-.35581v13.225l5.272.3455 2.7978.55304 3.3073.84704v12.621l-1.0583 1.0583h-1.1508l-3.7439-1.2911-1.7198-.27849-1.7198-.2785-2.1167-.004.15034-13.31-7.0295.31607-3.175.58864-3.0338.83002-.14124 13.282-5.2857 1.1722-5.8268.78986-2.249.24875v-13.362l-6.2177-.34076-4.3307-.76803-2.6904-.79897.07099 6.1335.07099 6.1336.85641.53443.85641.53444-.12532 20.373-.52917.72376-.52917.72375-1.0757.53302-1.0757.53301-1.2881-.0208zm22.701-34.701 2.9857-.41623 3.4396-.77972.92604-.27557v-13.225l-.48748.30128-7.0531 1.3454-5.6885.31592v13.15h2.8922z" fill="#ccd2d7"/>
  <path d="m16.304 128.19-.75603-.23482-.52782-.47767-.52782-.47768-.73957-1.4302v-61.596l1.2012-1.798 1.8415-.95375 2.0709.25354 1.3687 1.0135 1.1906 1.7494v.92831l-1.5905.55446-.53628 1.4105.14244 11.425 2.1916.63418 4.9522.85314 6.2177.33673v-13.31l1.7198-.000104 6.6146-1.0688 4.8856-1.0478h.27381v13.453l3.5719-.98538 3.9688-.53291 5.6885-.34394v-13.257l4.4195.31189 4.215 1.0762 1.8962.79228.84648.84648v12.133h-.40037l-1.8486-.54713-3.9687-.77875-5.1594-.34116v13.309h2.2628l4.484.54913 4.6302 1.1218v12.617l-1.0583 1.0583h-1.3033l-2.7977-1.1061-3.883-.74596h-2.3347v-13.229h-4.6441l-4.484.55089-4.0921 1.0922-.14126 13.306-5.5562 1.1643-5.44.82007h-2.3652v-13.149l-5.9531-.34461-4.4979-.75563-2.6458-.82676-.39688-.0058v11.343l.48465 1.2747.81601.338.81601.33801v19.966l-1.1906 1.7494-1.3229.9472-.92604.13156-.92604.13155zm22.55-34.812 2.8121-.41549 4.2333-.92296.14146-13.364-.48128.29745-7.3331 1.3593-5.424.31195v13.149h3.2394z" fill="#b9c0c6"/>
  <path d="m16.453 128.18-.87073-.19583-.54542-.49359-.54542-.4936-.73957-1.4302v-61.479l1.0677-1.7275 1.4459-.94908 2.5156-.0012 1.4204 1.0605.93486 1.2902.34583 1.4552h-.87517l-.64943.64943-.64943.64941v11.943l1.4552.56738 5.5562 1.0198 6.4823.33347v-13.196l5.6885-.66615 6.6146-1.3306.92604-.27031v13.529h.46264l2.1157-.74648 5.29-.84102 2.8473-.0046 2.7781-.33369v-13.155h2.3119l4.6185.8054 3.256 1.0901 1.1906 1.1071v12.14l-1.1906-.35355-4.7625-1.0308-5.424-.34528v13.195l6.4823.6412 3.4396.74934.72761.28137.7276.28137v12.449l-1.1102 1.1102-.83397-.12469-.83397-.1247-1.4788-.55005-1.4788-.55006-1.6962-.27521-1.6962-.27522-2.249-.004v-13.307l-7.5406.3016-3.7042.80756-2.1167.74134-.14116 13.205-7.2672 1.4076-1.9028.27424-1.9028.27423h-2.1476v-13.15l-5.6885-.34696-4.7625-.77403-2.6458-.80493-.39688-.0058v11.93l1.2989 1.2989h.83579l-.15028 20.335-1.091 1.4606-1.2902.90503-1.5875.24318zm22.661-34.806 2.8084-.41701 3.9761-.90624.14118-13.246-6.1489 1.218-4.2972.53882h-2.792v13.229h3.504z" fill="#a9b7c1"/>
  <path d="m15.576 127.79-.6897-.37487-.77683-1.2134-.35399-.96064 1.0804.3429.76836-.63768v-57.871l1.5088-1.6887 3.386-.23514-1.1906 1.2881v12.018l1.4552.56237 5.0271.97647 5.2917.32506 1.7198.26364v13.205l3.5719-.0104 3.7042-.50197 5.9531-1.1754v-13.45l-.92604.35968-7.0477 1.2627-5.2555.36196v-13.569h2.0746l7.5827-1.2939 3.5719-.75819v13.491l1.1906-.35355 4.7625-1.0395 5.2917-.28064 2.249-.27254v-13.197l2.249.004 3.4396.54615 4.4979 1.35 1.1906 1.1025v12.114l-.92604-.27237-3.175-.78814-2.0697-.28132-2.0697-.28135h-3.1367v13.142l6.593.63926 4.6518 1.1677v12.643l-.73029.54524-.73029.54523-2.1801-.71677-2.1801-.7168-2.8504-.52581h-2.5736v-13.413l-5.424.22715-5.0558.72124-2.8817.95547-.26458 13.229-5.5562 1.1551-5.6525.82923h-1.8881v-13.182l-4.6302-.32073-4.7625-.5829-3.7042-.9835-.40663-.0124.14204 12.299 1.0039.64945 1.0039.64946-.15572 19.896-.95479 1.4562-1.691 1.0311-2.3812-.02z" fill="#899aa6"/>
  <path d="m32.802 100.69v-6.5955l2.7781-.2814 3.7042-.30683 6.4672-1.3019h.28895l-.14154 13.075-4.4979.92119-6.9708 1.0854h-1.6282zm34.165 4.0606-1.6862-.65725-4.036-.5531-1.7198-.24748v-13.205l-1.4552.0011-6.9299.52866-3.918 1.0372-1.1906.34662v-13.304l1.4552-.5696 4.7625-1.0155 7.276-.33516v13.249l1.1906.31907 2.6458.0094 4.7625.77654 2.7781.82934v12.092l-.92604 1.0944-1.3229.26158-1.6862-.65725zm-41.176-11.246-1.5875-.22219-4.8948-1.1771v-13.395h.31543l2.7273.77202 5.5562.7769 4.8948.35935v-13.275l1.1906-.22892 6.6146-.90038 4.4979-.986.92604-.0114v13.484l-1.1906.27546-5.5562 1.0629-6.4823.60477v13.148l-5.424-.06452zm43.656-15.479-1.3229-.37292-4.7625-.79221-2.9994-.0022-.83703-.3212v-13.172l1.4552.0032 5.0271.76032 3.9688 1.3397.92604 1.1305v11.848l-.1322-.04732-1.3229-.37292z" fill="#595f65"/>
  <path d="m32.802 100.67v-6.6146h2.3541l6.1395-.80482 4.4914-1.0473h.24409v12.907l-.68251.1713-.6825.17129-4.8938 1.007-6.2869.82449h-.68344zm33.573 3.8169-1.7485-.62892-5.102-.627v-12.96l5.4737.33491 3.919.82333 1.9844.59343v11.969l-.41188.58804-.41188.58803-1.9544-.052-1.7485-.62892zm-38.6-10.836-.39688-.07849-4.4979-.61218-3.4396-.94304-.1415-13.368.93525.37422 4.7625.96844 5.1385.56957h2.6667v13.229l-4.6302-.06138zm18.582-8.3766.07067-6.6441 2.0416-.70656 4.5729-.79927 6.4823-.34759v13.228l-6.8144.34489-4.2792.81175-2.1446.75667zm-13.555-11.46v-6.4823h.51097l5.9713-.83074 6.4736-1.2859h.27327v13.241l-1.1906.51511-7.8376 1.3256h-4.2009zm35.19 3.8145-1.9844-.49293-6.4823-.63066v-13.142l.66146.0104 5.5562.75058 4.2333 1.3739.92604 1.0988v11.583l-.92604-.05818z" fill="#30363c"/>
 </g>
</svg>
