<?xml version="1.0" encoding="UTF-8" standalone="no"?>
<!-- Created with Inkscape (http://www.inkscape.org/) -->

<svg
   xmlns:dc="http://purl.org/dc/elements/1.1/"
   xmlns:cc="http://creativecommons.org/ns#"
   xmlns:rdf="http://www.w3.org/1999/02/22-rdf-syntax-ns#"
   xmlns:svg="http://www.w3.org/2000/svg"
   xmlns="http://www.w3.org/2000/svg"
   xmlns:sodipodi="http://sodipodi.sourceforge.net/DTD/sodipodi-0.dtd"
   xmlns:inkscape="http://www.inkscape.org/namespaces/inkscape"
   viewBox="0 0 5.9991636 6.0375752"
   version="1.1"
   id="svg655"
   inkscape:version="0.92.4 (5da689c313, 2019-01-14)"
   sodipodi:docname="ICONS.svg">
  <defs
     id="defs649">
    <clipPath
       id="clipPath228"
       clipPathUnits="userSpaceOnUse">
      <path
         inkscape:connector-curvature="0"
         id="path226"
         d="M 0,0 H 1247.244 V 907.087 H 0 Z" />
    </clipPath>
    <clipPath
       id="clipPath228-7"
       clipPathUnits="userSpaceOnUse">
      <path
         inkscape:connector-curvature="0"
         id="path226-5"
         d="M 0,0 H 1247.244 V 907.087 H 0 Z" />
    </clipPath>
  </defs>
  <sodipodi:namedview
     id="base"
     pagecolor="#ffffff"
     bordercolor="#666666"
     borderopacity="1.0"
     inkscape:pageopacity="0.0"
     inkscape:pageshadow="2"
     inkscape:zoom="22.627417"
     inkscape:cx="-1.782323"
     inkscape:cy="7.2772086"
     inkscape:document-units="mm"
     inkscape:current-layer="layer3"
     showgrid="false"
     fit-margin-top="0"
     fit-margin-left="0"
     fit-margin-right="0"
     fit-margin-bottom="0"
     inkscape:window-width="2016"
     inkscape:window-height="959"
     inkscape:window-x="383"
     inkscape:window-y="358"
     inkscape:window-maximized="0"
     showguides="true"
     inkscape:guide-bbox="true">
    <sodipodi:guide
       position="2.9934188,1.3680859"
       orientation="1,0"
       id="guide995"
       inkscape:locked="false" />
    <sodipodi:guide
       position="2.7478649,2.9934188"
       orientation="0,1"
       id="guide997"
       inkscape:locked="false" />
  </sodipodi:namedview>
  <metadata
     id="metadata652">
    <rdf:RDF>
      <cc:Work
         rdf:about="">
        <dc:format>image/svg+xml</dc:format>
        <dc:type
           rdf:resource="http://purl.org/dc/dcmitype/StillImage" />
        <dc:title></dc:title>
      </cc:Work>
    </rdf:RDF>
  </metadata>
  <g
     inkscape:groupmode="layer"
     id="layer3"
     inkscape:label="header-bell.svg"
     style="display:inline">
    <g
       transform="matrix(0.35277777,0,0,-0.35277777,5.3282571,4.7449828)"
       id="g66">
      <path
         inkscape:connector-curvature="0"
         id="path68"
         style="fill:none;stroke:#918f90;stroke-width:0.69999999;stroke-linecap:butt;stroke-linejoin:miter;stroke-miterlimit:10;stroke-dasharray:none;stroke-opacity:1"
         d="m 0,0 c -0.048,0.031 -0.409,0.284 -0.77,1.048 -0.663,1.405 -0.802,3.383 -0.802,4.794 0,0.007 -10e-4,0.013 -10e-4,0.019 -0.007,1.866 -1.124,3.475 -2.723,4.196 v 1.104 c 0,1.002 -1.238,1.817 -2.237,1.817 h -0.151 c -1,0 -2.238,-0.815 -2.238,-1.817 v -1.104 c -1.604,-0.724 -2.723,-2.34 -2.723,-4.215 0,-1.411 -0.139,-3.389 -0.802,-4.794 -0.362,-0.764 -0.722,-1.017 -0.77,-1.048 -0.202,-0.094 -0.302,-0.309 -0.255,-0.528 0.047,-0.221 0.253,-0.374 0.479,-0.374 h 3.501 c 0.019,-1.342 1.539,-2.428 2.883,-2.428 1.345,0 2.864,1.086 2.884,2.428 h 3.501 c 0.225,0 0.432,0.153 0.479,0.374 C 0.301,-0.309 0.202,-0.094 0,0 Z m -7.966,11.161 c 0,0.474 0.809,0.86 1.282,0.86 h 0.151 c 0.473,0 1.282,-0.386 1.282,-0.86 v -0.794 c -0.301,0.063 -1.038,0.096 -1.358,0.096 -0.319,0 -1.056,-0.033 -1.357,-0.095 z m 1.357,-13.534 c -0.817,0 -1.909,0.657 -1.928,1.471 H -4.68 C -4.7,-1.716 -5.791,-2.373 -6.609,-2.373 Z m 2.348,2.428 h -7.644 c 0.083,0.129 0.167,0.275 0.251,0.44 0.64,1.263 0.964,3.062 0.964,5.347 0,2.02 2.065,3.664 4.081,3.664 2.016,0 4.081,-1.644 4.081,-3.665 0,-0.006 0,-0.012 0,-0.018 0.002,-2.276 0.327,-4.069 0.965,-5.328 0.084,-0.165 0.168,-0.311 0.25,-0.44 z" />
    </g>
  </g>
</svg>
