<svg width="18" height="19" viewBox="0 0 18 19" fill="none" xmlns="http://www.w3.org/2000/svg">
<path d="M16.3835 5.52194L10.8835 0.700271C10.3793 0.249312 9.72657 0 9.05013 0C8.3737 0 7.72099 0.249312 7.2168 0.700271L1.7168 5.52194C1.42564 5.78234 1.19329 6.10178 1.03523 6.459C0.877176 6.81621 0.797031 7.203 0.800136 7.5936V15.6053C0.800136 16.3346 1.08987 17.0341 1.60559 17.5498C2.12132 18.0655 2.82079 18.3553 3.55014 18.3553H14.5501C15.2795 18.3553 15.979 18.0655 16.4947 17.5498C17.0104 17.0341 17.3001 16.3346 17.3001 15.6053V7.58444C17.3019 7.19537 17.2212 6.81035 17.0631 6.45481C16.9051 6.09927 16.6735 5.78131 16.3835 5.52194ZM10.8835 16.5219H7.2168V11.9386C7.2168 11.6955 7.31338 11.4623 7.48529 11.2904C7.6572 11.1185 7.89035 11.0219 8.13347 11.0219H9.9668C10.2099 11.0219 10.4431 11.1185 10.615 11.2904C10.7869 11.4623 10.8835 11.6955 10.8835 11.9386V16.5219ZM15.4668 15.6053C15.4668 15.8484 15.3702 16.0815 15.1983 16.2535C15.0264 16.4254 14.7932 16.5219 14.5501 16.5219H12.7168V11.9386C12.7168 11.2093 12.4271 10.5098 11.9113 9.99406C11.3956 9.47834 10.6961 9.1886 9.9668 9.1886H8.13347C7.40412 9.1886 6.70465 9.47834 6.18892 9.99406C5.6732 10.5098 5.38347 11.2093 5.38347 11.9386V16.5219H3.55014C3.30702 16.5219 3.07386 16.4254 2.90195 16.2535C2.73005 16.0815 2.63347 15.8484 2.63347 15.6053V7.58444C2.63363 7.45428 2.66151 7.32566 2.71525 7.20712C2.76899 7.08858 2.84736 6.98284 2.94514 6.89694L8.44513 2.08444C8.61242 1.93748 8.82747 1.85643 9.05013 1.85643C9.2728 1.85643 9.48785 1.93748 9.65513 2.08444L15.1551 6.89694C15.2529 6.98284 15.3313 7.08858 15.385 7.20712C15.4388 7.32566 15.4666 7.45428 15.4668 7.58444V15.6053Z" fill="#988E89"/>
</svg>
