<?xml version="1.0" encoding="utf-8"?>
<!-- Generator: Adobe Illustrator 17.1.0, SVG Export Plug-In . SVG Version: 6.00 Build 0)  -->
<!DOCTYPE svg PUBLIC "-//W3C//DTD SVG 1.1//EN" "http://www.w3.org/Graphics/SVG/1.1/DTD/svg11.dtd" [
	<!ENTITY ns_extend "http://ns.adobe.com/Extensibility/1.0/">
	<!ENTITY ns_ai "http://ns.adobe.com/AdobeIllustrator/10.0/">
	<!ENTITY ns_graphs "http://ns.adobe.com/Graphs/1.0/">
	<!ENTITY ns_vars "http://ns.adobe.com/Variables/1.0/">
	<!ENTITY ns_imrep "http://ns.adobe.com/ImageReplacement/1.0/">
	<!ENTITY ns_sfw "http://ns.adobe.com/SaveForWeb/1.0/">
	<!ENTITY ns_custom "http://ns.adobe.com/GenericCustomNamespace/1.0/">
	<!ENTITY ns_adobe_xpath "http://ns.adobe.com/XPath/1.0/">
]>
<svg version="1.1" id="Calque_1" xmlns:x="&ns_extend;" xmlns:i="&ns_ai;" xmlns:graph="&ns_graphs;"
	 xmlns="http://www.w3.org/2000/svg" xmlns:xlink="http://www.w3.org/1999/xlink" x="0px" y="0px" viewBox="0 0 350.8 350.4"
	 enable-background="new 0 0 350.8 350.4" xml:space="preserve" preserveAspectRatio="xMinYMid" width="350.8" height="350.4">
<metadata>
	<sfw  xmlns="&ns_sfw;">
		<slices></slices>
		<sliceSourceBounds  width="272.1" height="345.9" bottomLeftOrigin="true" y="39.7" x="289.7"></sliceSourceBounds>
	</sfw>
</metadata>
<g>
	<path fill="none" stroke="#7F1436" stroke-width="8" stroke-miterlimit="10" d="M218,343.9c1.2-7.7,1.9-15.3,2-22.9
		c0.3-22.7-3.6-44.6-12.5-65.5c-0.7-1.6-1.5-2.3-3.4-2.3c-52.6,0.1-105.2,0-157.9,0.1c-2,0-2.5-0.5-2.5-2.5
		c0.1-80.7,0.1-161.3,0-242c0-2,0.5-2.5,2.5-2.5c86.4,0.1,172.7,0.1,259.1,0c2.2,0,2.5,0.6,2.5,2.6c-0.1,80.6-0.1,161.2,0,241.8
		c0,2.1-0.6,2.6-2.6,2.5c-7.8-0.1-15.7,0-23.5-0.1c-2.1,0-2.7,0.5-2.9,2.6c-2,20.7-8.7,39.8-21.3,56.5
		c-9.6,12.8-21.5,22.9-35.8,30.1c-1,0.5-2,0.9-3,1.4C218.6,343.9,218.4,343.9,218,343.9z"/>
	<path fill="#7F1436" stroke="#000000" stroke-width="2" stroke-miterlimit="10" d="M133.7,197.5c0.8-5.5,1.3-11,1.1-16.6
		c-0.4-10-2.3-19.8-6.1-29.1c-0.5-1.3-1.2-1.8-2.7-1.8c-8.7,0.1-17.3,0-26,0.1c-1.4,0-1.9-0.3-1.9-1.8c0-27.9,0-55.8,0-83.7
		c0-1.4,0.3-1.7,1.7-1.7c21.6,0,43.1,0,64.7,0c1.2,0,1.6,0.3,1.6,1.6c0,28.4,0.7,56.8-0.3,85.1c-0.7,21.4-11.6,37.3-30.6,47.5
		C134.9,197.3,134.5,197.7,133.7,197.5z"/>
	<path fill="#7F1436" stroke="#000000" stroke-width="2" stroke-miterlimit="10" d="M220,197.5c0.3-3.1,0.7-6.1,0.9-9.2
		c0.7-12.5-1.3-24.5-5.8-36.1c-0.6-1.7-1.4-2.3-3.3-2.3c-8.4,0.1-16.9,0-25.3,0.1c-1.5,0-2.1-0.3-2.1-2c0.1-27.7,0.1-55.5,0-83.2
		c0-1.5,0.3-2,1.9-2c21.4,0.1,42.9,0.1,64.3,0c1.4,0,1.9,0.4,1.8,1.8c0,28.2,0.6,56.5-0.2,84.7c-0.7,21.6-11.6,37.6-30.8,47.8
		C220.9,197.4,220.5,197.7,220,197.5z"/>
</g>
</svg>
