<svg width="28" height="20" viewBox="0 0 28 20" fill="none" xmlns="http://www.w3.org/2000/svg">
	<path d="M7.99999 0C5.25041 0 3 2.25044 3 4.99999C3 7.74954 5.25041 9.99998 7.99999 9.99998C10.7496 9.99998 13 7.74954 13 4.99999C13 2.25044 10.7496 0 7.99999 0Z" fill="#6B6C76" fill-opacity="0.8"/>
	<path d="M20 0C17.2504 0 15 2.25044 15 4.99999C15 7.74954 17.2504 9.99998 20 9.99998C22.7496 9.99998 25 7.74954 25 4.99999C25 2.25044 22.7496 0 20 0ZM20 2C21.6687 2 23 3.33132 23 5.00003C23 6.66874 21.6687 8.00002 20 8.00002C18.3313 8.00002 17 6.66874 17 5.00003C17 3.33132 18.3313 2 20 2Z" fill="#6B6C76" fill-opacity="0.8"/>
	<path d="M4.99998 12C2.2473 12 0 14.2473 0 17V19C0.000105833 19.5522 0.44771 19.9999 1.00002 20C9.66673 20 18.3333 20 27.0001 20C27.5523 19.9999 28 19.5523 28 19V17C28 14.2473 25.7527 12 23.0001 12H17C15.8709 12 14.8388 12.3914 14 13.0274C13.1612 12.3914 12.1291 12 11 12H4.99998V12ZM17 14H23C24.6793 14 26 15.3207 26 17V18H16V17C16 16.0899 15.7369 15.2464 15.3086 14.5098C15.7876 14.1872 16.3682 14 17 14Z" fill="#6B6C76" fill-opacity="0.8"/>
</svg>
