<svg width="21" height="21" viewBox="0 0 21 21" fill="none" xmlns="http://www.w3.org/2000/svg">
<path d="M19.25 12.8333H17.4167V10.0833C17.4167 9.84022 17.3201 9.60706 17.1482 9.43515C16.9763 9.26324 16.7431 9.16667 16.5 9.16667H11V7.33333H12.8333C13.0764 7.33333 13.3096 7.23676 13.4815 7.06485C13.6534 6.89294 13.75 6.65978 13.75 6.41667V0.916667C13.75 0.673551 13.6534 0.440394 13.4815 0.268485C13.3096 0.0965771 13.0764 0 12.8333 0H7.33333C7.09022 0 6.85706 0.0965771 6.68515 0.268485C6.51324 0.440394 6.41667 0.673551 6.41667 0.916667V6.41667C6.41667 6.65978 6.51324 6.89294 6.68515 7.06485C6.85706 7.23676 7.09022 7.33333 7.33333 7.33333H9.16667V9.16667H3.66667C3.42355 9.16667 3.19039 9.26324 3.01849 9.43515C2.84658 9.60706 2.75 9.84022 2.75 10.0833V12.8333H0.916667C0.673551 12.8333 0.440394 12.9299 0.268485 13.1018C0.0965771 13.2737 0 13.5069 0 13.75V19.25C0 19.4931 0.0965771 19.7263 0.268485 19.8982C0.440394 20.0701 0.673551 20.1667 0.916667 20.1667H6.41667C6.65978 20.1667 6.89294 20.0701 7.06485 19.8982C7.23676 19.7263 7.33333 19.4931 7.33333 19.25V13.75C7.33333 13.5069 7.23676 13.2737 7.06485 13.1018C6.89294 12.9299 6.65978 12.8333 6.41667 12.8333H4.58333V11H15.5833V12.8333H13.75C13.5069 12.8333 13.2737 12.9299 13.1018 13.1018C12.9299 13.2737 12.8333 13.5069 12.8333 13.75V19.25C12.8333 19.4931 12.9299 19.7263 13.1018 19.8982C13.2737 20.0701 13.5069 20.1667 13.75 20.1667H19.25C19.4931 20.1667 19.7263 20.0701 19.8982 19.8982C20.0701 19.7263 20.1667 19.4931 20.1667 19.25V13.75C20.1667 13.5069 20.0701 13.2737 19.8982 13.1018C19.7263 12.9299 19.4931 12.8333 19.25 12.8333ZM5.5 14.6667V18.3333H1.83333V14.6667H5.5ZM8.25 5.5V1.83333H11.9167V5.5H8.25ZM18.3333 18.3333H14.6667V14.6667H18.3333V18.3333Z" fill="#988E89"/>
</svg>
