<svg width="17" height="15" viewBox="0 0 17 15" fill="none" xmlns="http://www.w3.org/2000/svg">
	<path d="M16.7381 7.49292L14.9624 5.51667L15.2098 2.90292L12.5827 2.32208L11.2072 0.0625L8.73292 1.09667L6.25861 0.0625L4.88318 2.32208L2.25604 2.89583L2.50347 5.51667L0.727783 7.49292L2.50347 9.46917L2.25604 12.09L4.88318 12.6708L6.25861 14.9375L8.73292 13.8962L11.2072 14.9304L12.5827 12.6708L15.2098 12.09L14.9624 9.47625L16.7381 7.49292ZM13.8635 8.54125L13.4559 9.00167L13.5142 9.60375L13.6452 10.985L12.2625 11.2896L11.6512 11.4242L11.331 11.9483L10.6105 13.1383L9.31511 12.5929L8.73292 12.3521L8.15801 12.5929L6.86263 13.1383L6.14217 11.9554L5.82196 11.4312L5.21066 11.2967L3.82795 10.9921L3.95895 9.60375L4.01717 9.00167L3.60963 8.54125L2.67085 7.5L3.60963 6.45167L4.01717 5.99125L3.95167 5.38208L3.82068 4.00792L5.20338 3.70333L5.81468 3.56875L6.13489 3.04458L6.85535 1.85458L8.15073 2.4L8.73292 2.64083L9.30783 2.4L10.6032 1.85458L11.3237 3.04458L11.6439 3.56875L12.2552 3.70333L13.6379 4.00792L13.5069 5.38917L13.4487 5.99125L13.8562 6.45167L14.795 7.49292L13.8635 8.54125Z" fill="white"/>
	<path d="M7.34293 8.73922L5.65457 7.0888L4.57751 8.14422L7.34293 10.843L12.6845 5.62964L11.6075 4.57422L7.34293 8.73922Z" fill="white"/>
</svg>
