<svg width="23" height="22" viewBox="0 0 23 22" fill="none" xmlns="http://www.w3.org/2000/svg">
<path d="M19.0419 7.94766V7.96403L19.0472 7.97954C19.0713 8.05143 19.088 8.12562 19.0969 8.20093V8.25016V17.4168C19.0969 18.1197 18.8177 18.7937 18.3208 19.2907C17.8238 19.7876 17.1498 20.0668 16.4469 20.0668H7.28027C6.57745 20.0668 5.90341 19.7876 5.40644 19.2907C4.90947 18.7937 4.63027 18.1197 4.63027 17.4168V4.5835C4.63027 3.88067 4.90947 3.20663 5.40644 2.70966C5.90341 2.21269 6.57745 1.9335 7.28027 1.9335H12.8186L13.0961 2.0289L13.1119 2.03433H13.1286H13.1883C13.2649 2.0725 13.3356 2.12167 13.3982 2.18031L18.896 7.67812C18.9546 7.74064 19.0038 7.81136 19.0419 7.88802V7.94766ZM13.7677 4.88862L13.5969 4.71791V4.95933V7.3335V7.4335H13.6969H16.0711H16.3125L16.1418 7.26279L13.7677 4.88862ZM11.9636 3.66683V3.56683H11.8636H7.28027C7.01064 3.56683 6.75204 3.67394 6.56138 3.8646C6.37072 4.05527 6.26361 4.31386 6.26361 4.5835V17.4168C6.26361 17.6865 6.37072 17.9451 6.56138 18.1357C6.75204 18.3264 7.01064 18.4335 7.28027 18.4335H16.4469C16.7166 18.4335 16.9752 18.3264 17.1658 18.1357C17.3565 17.9451 17.4636 17.6865 17.4636 17.4168V9.16683V9.06683H17.3636H12.7803C12.5637 9.06683 12.356 8.98079 12.2028 8.82763C12.0496 8.67448 11.9636 8.46676 11.9636 8.25016V3.66683Z" fill="#A4A3B4" stroke="white" stroke-width="0.2"/>
<path d="M10.1667 12.6667C10.1667 13.22 9.72 13.6667 9.16667 13.6667H8.5V15H7.5V11H9.16667C9.72 11 10.1667 11.4467 10.1667 12V12.6667ZM13.5 14C13.5 14.5533 13.0533 15 12.5 15H10.8333V11H12.5C13.0533 11 13.5 11.4467 13.5 12V14ZM16.1667 12H15.1667V12.6667H16.1667V13.6667H15.1667V15H14.1667V11H16.1667V12ZM8.5 12.6667H9.16667V12H8.5V12.6667ZM11.8333 14H12.5V12H11.8333V14Z" fill="#A4A3B4"/>
</svg>

