<svg width="20" height="20" viewBox="0 0 20 20" fill="none" xmlns="http://www.w3.org/2000/svg">
<path d="M15.8332 4.58351H10.5998L10.3332 3.75018C10.1603 3.26121 9.83963 2.8381 9.41559 2.53948C8.99155 2.24086 8.48514 2.08152 7.9665 2.08351H4.1665C3.50346 2.08351 2.86758 2.34691 2.39874 2.81575C1.9299 3.28459 1.6665 3.92047 1.6665 4.58351V15.4168C1.6665 16.0799 1.9299 16.7158 2.39874 17.1846C2.86758 17.6535 3.50346 17.9168 4.1665 17.9168H15.8332C16.4962 17.9168 17.1321 17.6535 17.6009 17.1846C18.0698 16.7158 18.3332 16.0799 18.3332 15.4168V7.08351C18.3332 6.42047 18.0698 5.78459 17.6009 5.31575C17.1321 4.84691 16.4962 4.58351 15.8332 4.58351ZM16.6665 15.4168C16.6665 15.6379 16.5787 15.8498 16.4224 16.0061C16.2661 16.1624 16.0542 16.2502 15.8332 16.2502H4.1665C3.94549 16.2502 3.73353 16.1624 3.57725 16.0061C3.42097 15.8498 3.33317 15.6379 3.33317 15.4168V4.58351C3.33317 4.3625 3.42097 4.15054 3.57725 3.99426C3.73353 3.83798 3.94549 3.75018 4.1665 3.75018H7.9665C8.14121 3.74973 8.31163 3.8042 8.45369 3.90588C8.59576 4.00757 8.70227 4.15133 8.75817 4.31685L9.20817 5.68351C9.26408 5.84903 9.37059 5.99279 9.51265 6.09448C9.65471 6.19617 9.82513 6.25063 9.99984 6.25018H15.8332C16.0542 6.25018 16.2661 6.33798 16.4224 6.49426C16.5787 6.65054 16.6665 6.8625 16.6665 7.08351V15.4168Z" fill="#988E89"/>
</svg>
