<svg width="22" height="22" viewBox="0 0 22 22" fill="none" xmlns="http://www.w3.org/2000/svg">
<path d="M17.4167 5.04168H11.66L11.3667 4.12501C11.1765 3.58714 10.8238 3.12172 10.3574 2.79324C9.89092 2.46476 9.33387 2.28948 8.76337 2.29168H4.58337C3.85403 2.29168 3.15456 2.58141 2.63883 3.09713C2.12311 3.61286 1.83337 4.31233 1.83337 5.04168V16.9583C1.83337 17.6877 2.12311 18.3872 2.63883 18.9029C3.15456 19.4186 3.85403 19.7083 4.58337 19.7083H17.4167C18.1461 19.7083 18.8455 19.4186 19.3613 18.9029C19.877 18.3872 20.1667 17.6877 20.1667 16.9583V7.79168C20.1667 7.06233 19.877 6.36286 19.3613 5.84713C18.8455 5.33141 18.1461 5.04168 17.4167 5.04168ZM18.3334 16.9583C18.3334 17.2015 18.2368 17.4346 18.0649 17.6065C17.893 17.7784 17.6598 17.875 17.4167 17.875H4.58337C4.34026 17.875 4.1071 17.7784 3.93519 17.6065C3.76328 17.4346 3.66671 17.2015 3.66671 16.9583V5.04168C3.66671 4.79856 3.76328 4.5654 3.93519 4.3935C4.1071 4.22159 4.34026 4.12501 4.58337 4.12501H8.76337C8.95555 4.12451 9.14302 4.18443 9.29928 4.29628C9.45555 4.40814 9.57271 4.56627 9.63421 4.74834L10.1292 6.25168C10.1907 6.43375 10.3079 6.59188 10.4641 6.70374C10.6204 6.81559 10.8079 6.87551 11 6.87501H17.4167C17.6598 6.87501 17.893 6.97159 18.0649 7.1435C18.2368 7.3154 18.3334 7.54856 18.3334 7.79168V16.9583Z" fill="#988E89"/>
</svg>
