<svg width="18" height="18" viewBox="0 0 18 18" fill="none" xmlns="http://www.w3.org/2000/svg">
<path d="M15.5 7.5C15.5 12.5556 9 16.8889 9 16.8889C9 16.8889 2.5 12.5556 2.5 7.5C2.5 5.77609 3.18482 4.12279 4.40381 2.90381C5.62279 1.68482 7.27609 1 9 1C10.7239 1 12.3772 1.68482 13.5962 2.90381C14.8152 4.12279 15.5 5.77609 15.5 7.5Z" stroke="#A4A3B4" stroke-width="1.4" stroke-linecap="round" stroke-linejoin="round"/>
<path d="M8.99967 9.66665C10.1963 9.66665 11.1663 8.6966 11.1663 7.49998C11.1663 6.30336 10.1963 5.33331 8.99967 5.33331C7.80306 5.33331 6.83301 6.30336 6.83301 7.49998C6.83301 8.6966 7.80306 9.66665 8.99967 9.66665Z" stroke="#A4A3B4" stroke-width="1.4" stroke-linecap="round" stroke-linejoin="round"/>
</svg>
