<svg width="488" height="20" left='-30' viewBox="0 0 488 20" fill="none" xmlns="http://www.w3.org/2000/svg">
<path d="M174.959 9.90909C174.959 6.6875 173.069 4.67898 170.464 4.67898C167.859 4.67898 165.97 6.6875 165.97 9.90909C165.97 13.1307 167.859 15.1392 170.464 15.1392C173.069 15.1392 174.959 13.1307 174.959 9.90909ZM173.765 9.90909C173.765 12.554 172.314 13.9858 170.464 13.9858C168.615 13.9858 167.163 12.554 167.163 9.90909C167.163 7.2642 168.615 5.83239 170.464 5.83239C172.314 5.83239 173.765 7.2642 173.765 9.90909ZM176.873 15H178.046V10.1676C178.046 9.13352 178.861 8.37784 179.975 8.37784C180.288 8.37784 180.611 8.4375 180.691 8.45739V7.2642C180.557 7.25426 180.248 7.24432 180.074 7.24432C179.16 7.24432 178.364 7.76136 178.086 8.51705H178.006V7.36364H176.873V15ZM191.428 9.07386C191.06 7.99006 190.235 7.2642 188.724 7.2642C187.113 7.2642 185.92 8.17898 185.92 9.47159C185.92 10.5256 186.546 11.2315 187.948 11.5597L189.221 11.858C189.991 12.0369 190.354 12.4048 190.354 12.9318C190.354 13.5881 189.658 14.125 188.565 14.125C187.605 14.125 187.004 13.7124 186.795 12.892L185.681 13.1705C185.955 14.468 187.023 15.1591 188.585 15.1591C190.359 15.1591 191.567 14.1896 191.567 12.8722C191.567 11.8082 190.901 11.1371 189.539 10.804L188.406 10.5256C187.501 10.3018 187.093 9.99858 187.093 9.41193C187.093 8.75568 187.789 8.27841 188.724 8.27841C189.748 8.27841 190.17 8.84517 190.374 9.37216L191.428 9.07386ZM193.334 15H194.507V7.36364H193.334V15ZM193.93 6.09091C194.388 6.09091 194.765 5.73295 194.765 5.29545C194.765 4.85795 194.388 4.5 193.93 4.5C193.473 4.5 193.095 4.85795 193.095 5.29545C193.095 5.73295 193.473 6.09091 193.93 6.09091ZM199.738 18.0227C201.568 18.0227 203.039 17.1875 203.039 15.2188V7.36364H201.906V8.5767H201.787C201.528 8.17898 201.051 7.2642 199.559 7.2642C197.63 7.2642 196.298 8.79545 196.298 11.142C196.298 13.5284 197.69 14.8807 199.539 14.8807C201.031 14.8807 201.508 14.0057 201.767 13.5881H201.866V15.1392C201.866 16.4119 200.971 16.9886 199.738 16.9886C198.351 16.9886 197.864 16.2578 197.551 15.8352L196.616 16.4915C197.093 17.2919 198.033 18.0227 199.738 18.0227ZM199.699 13.8267C198.227 13.8267 197.471 12.7131 197.471 11.1222C197.471 9.57102 198.207 8.31818 199.699 8.31818C201.13 8.31818 201.886 9.47159 201.886 11.1222C201.886 12.8125 201.11 13.8267 199.699 13.8267ZM206.36 10.4062C206.36 9.07386 207.186 8.31818 208.309 8.31818C209.398 8.31818 210.059 9.02912 210.059 10.2273V15H211.233V10.1477C211.233 8.19886 210.194 7.2642 208.647 7.2642C207.494 7.2642 206.778 7.78125 206.42 8.55682H206.321V7.36364H205.187V15H206.36V10.4062ZM222.127 11.8778C222.127 13.3097 221.033 13.9659 220.158 13.9659C219.183 13.9659 218.487 13.25 218.487 12.1364V7.36364H217.314V12.2159C217.314 14.1648 218.348 15.0994 219.78 15.0994C220.933 15.0994 221.689 14.483 222.047 13.7074H222.127V15H223.3V7.36364H222.127V11.8778ZM225.449 17.8636H226.622V13.8267H226.722C226.98 14.2443 227.477 15.1591 228.949 15.1591C230.858 15.1591 232.19 13.6278 232.19 11.2017C232.19 8.79545 230.858 7.2642 228.929 7.2642C227.438 7.2642 226.98 8.17898 226.722 8.5767H226.582V7.36364H225.449V17.8636ZM226.602 11.1818C226.602 9.47159 227.358 8.31818 228.79 8.31818C230.281 8.31818 231.017 9.57102 231.017 11.1818C231.017 12.8125 230.261 14.1051 228.79 14.1051C227.378 14.1051 226.602 12.9119 226.602 11.1818ZM239.648 15H240.801L242.472 9.13352H242.591L244.261 15H245.415L247.741 7.36364H246.509L244.858 13.1903H244.778L243.168 7.36364H241.915L240.284 13.2102H240.205L238.554 7.36364H237.321L239.648 15ZM249.293 15H250.466V7.36364H249.293V15ZM249.889 6.09091C250.347 6.09091 250.724 5.73295 250.724 5.29545C250.724 4.85795 250.347 4.5 249.889 4.5C249.432 4.5 249.054 4.85795 249.054 5.29545C249.054 5.73295 249.432 6.09091 249.889 6.09091ZM255.936 7.36364H254.305V5.53409H253.132V7.36364H251.979V8.35795H253.132V13.1307C253.132 14.4631 254.206 15.0994 255.2 15.0994C255.638 15.0994 255.916 15.0199 256.075 14.9602L255.836 13.9062C255.737 13.9261 255.578 13.9659 255.319 13.9659C254.802 13.9659 254.305 13.8068 254.305 12.8125V8.35795H255.936V7.36364ZM259.038 10.4062C259.038 9.07386 259.888 8.31818 261.047 8.31818C262.15 8.31818 262.817 9.0142 262.817 10.2273V15H263.99V10.1477C263.99 8.18395 262.946 7.2642 261.385 7.2642C260.182 7.2642 259.496 7.76633 259.138 8.55682H259.038V4.81818H257.865V15H259.038V10.4062ZM272.321 15.179C273.653 15.179 274.349 14.4631 274.588 13.9659H274.648V15H275.821V9.96875C275.821 7.54261 273.972 7.2642 272.997 7.2642C271.844 7.2642 270.531 7.66193 269.935 9.05398L271.048 9.4517C271.307 8.89489 271.918 8.2983 273.037 8.2983C274.116 8.2983 274.648 8.87003 274.648 9.84943V9.8892C274.648 10.456 274.071 10.4062 272.679 10.5852C271.262 10.7692 269.716 11.0824 269.716 12.8324C269.716 14.3239 270.869 15.179 272.321 15.179ZM272.5 14.125C271.565 14.125 270.889 13.7074 270.889 12.892C270.889 11.9972 271.705 11.7188 272.619 11.5994C273.116 11.5398 274.449 11.4006 274.648 11.1619V12.2358C274.648 13.1903 273.892 14.125 272.5 14.125ZM279.136 10.4062C279.136 9.07386 279.961 8.31818 281.085 8.31818C282.173 8.31818 282.835 9.02912 282.835 10.2273V15H284.008V10.1477C284.008 8.19886 282.969 7.2642 281.423 7.2642C280.269 7.2642 279.553 7.78125 279.195 8.55682H279.096V7.36364H277.963V15H279.136V10.4062ZM293.291 15.1591C294.842 15.1591 295.976 14.3835 296.334 13.2301L295.2 12.9119C294.902 13.7074 294.211 14.1051 293.291 14.1051C291.914 14.1051 290.964 13.2152 290.91 11.5795H296.453V11.0824C296.453 8.23864 294.763 7.2642 293.172 7.2642C291.104 7.2642 289.732 8.89489 289.732 11.2415C289.732 13.5881 291.084 15.1591 293.291 15.1591ZM290.91 10.5653C290.989 9.37713 291.83 8.31818 293.172 8.31818C294.445 8.31818 295.26 9.27273 295.26 10.5653H290.91ZM298.238 15H299.411V10.2273C299.411 9.10866 300.227 8.31818 301.141 8.31818C302.031 8.31818 302.653 8.89986 302.653 9.76989V15H303.846V10.0284C303.846 9.04403 304.462 8.31818 305.536 8.31818C306.371 8.31818 307.087 8.76065 307.087 9.8892V15H308.261V9.8892C308.261 8.09446 307.296 7.2642 305.934 7.2642C304.84 7.2642 304.04 7.76633 303.647 8.55682H303.567C303.19 7.74148 302.523 7.2642 301.519 7.2642C300.525 7.2642 299.789 7.74148 299.471 8.55682H299.371V7.36364H298.238V15ZM312.653 15.179C313.985 15.179 314.681 14.4631 314.92 13.9659H314.98V15H316.153V9.96875C316.153 7.54261 314.304 7.2642 313.329 7.2642C312.176 7.2642 310.863 7.66193 310.267 9.05398L311.38 9.4517C311.639 8.89489 312.25 8.2983 313.369 8.2983C314.448 8.2983 314.98 8.87003 314.98 9.84943V9.8892C314.98 10.456 314.403 10.4062 313.011 10.5852C311.594 10.7692 310.048 11.0824 310.048 12.8324C310.048 14.3239 311.201 15.179 312.653 15.179ZM312.832 14.125C311.897 14.125 311.221 13.7074 311.221 12.892C311.221 11.9972 312.037 11.7188 312.951 11.5994C313.449 11.5398 314.781 11.4006 314.98 11.1619V12.2358C314.98 13.1903 314.224 14.125 312.832 14.125ZM318.295 15H319.468V7.36364H318.295V15ZM318.891 6.09091C319.349 6.09091 319.726 5.73295 319.726 5.29545C319.726 4.85795 319.349 4.5 318.891 4.5C318.434 4.5 318.056 4.85795 318.056 5.29545C318.056 5.73295 318.434 6.09091 318.891 6.09091ZM322.79 4.81818H321.617V15H322.79V4.81818Z" fill="#6E757D"/>
<line x1="339" y1="11.5" x2="488" y2="11.5" stroke="#DADADA"/>
<line y1="11.5" x2="149" y2="11.5" stroke="#DADADA"/>
</svg>
