<svg width="16" height="16" viewBox="0 0 16 16" fill="none" xmlns="http://www.w3.org/2000/svg">
  <path
     d="m 14.116942,8.7833335 c 0.03427,-0.25 0.0514,-0.5083333 0.0514,-0.7833333 0,-0.2666667 -0.01713,-0.5333334 -0.05997,-0.7833334 L 15.847505,5.9000001 C 16.001713,5.7833335 16.044549,5.5583335 15.95031,5.3916668 L 14.305419,2.6250001 C 14.202613,2.4416667 13.988434,2.3833334 13.799957,2.4416667 L 11.75241,3.2416668 C 11.324052,2.9250001 10.869993,2.6583334 10.364532,2.4583334 L 10.056115,0.34166667 C 10.021847,0.14166667 9.8505034,0 9.6448919,0 H 6.3551082 C 6.1494968,0 5.9867209,0.14166667 5.9524524,0.34166667 L 5.6440352,2.4583334 c -0.5054616,0.2 -0.9680874,0.475 -1.3878776,0.7833334 L 2.20861,2.4416667 c -0.1884772,-0.066667 -0.4026559,0 -0.5054616,0.1833334 L 0.06682399,5.3916668 c -0.10280574,0.175 -0.06853722,0.3916667 0.10280548,0.5083333 L 1.9087599,7.2166668 c -0.042836,0.25 -0.077104,0.525 -0.077104,0.7833334 0,0.2583333 0.017134,0.5333333 0.05997,0.7833333 L 0.15249518,10.1 c -0.1542084,0.116667 -0.19704399,0.341667 -0.1028054,0.508334 l 1.64489152,2.766667 c 0.1028057,0.183332 0.3169843,0.241666 0.5054615,0.183332 l 2.0475477,-0.8 c 0.4283573,0.316668 0.882416,0.583334 1.3878776,0.783334 l 0.3084172,2.116666 C 5.9867213,15.858334 6.1494968,16 6.3551082,16 h 3.2897837 c 0.2056115,0 0.3769551,-0.141666 0.4026561,-0.341667 l 0.308417,-2.116666 c 0.505461,-0.2 0.968087,-0.466666 1.387877,-0.783334 l 2.047548,0.8 c 0.188477,0.06667 0.402656,0 0.505462,-0.183332 l 1.644891,-2.766667 C 16.044549,10.425 16.001713,10.216667 15.838938,10.1 Z M 8.0000001,11 C 6.3037054,11 4.9158278,9.6500002 4.9158278,8.0000002 c 0,-1.6500001 1.3878776,-3.0000001 3.0841723,-3.0000001 1.6962947,0 3.0841729,1.35 3.0841729,3.0000001 C 11.084173,9.6500002 9.6962948,11 8.0000001,11 Z"
     fill="#000000"
     id="path10"
     style="stroke-width:0.844944" />
</svg>
