<svg width="278" height="45" viewBox="0 0 278 45" fill="none" xmlns="http://www.w3.org/2000/svg">
<path d="M0 3C0 1.34315 1.34315 0 3 0H275C276.657 0 278 1.34315 278 3V42C278 43.6569 276.657 45 275 45H3C1.34314 45 0 43.6569 0 42V3Z" fill="#146EE0"/>
<g clip-path="url(#clip0)">
<path d="M62.8364 19.8154H59.6148V17.6677C59.6148 17.0749 60.0959 16.5938 60.6887 16.5938H61.7625V13.9092H59.6148C57.8354 13.9092 56.3932 15.3514 56.3932 17.1308V19.8154H54.2455V22.5001H56.3932V31.091H59.6148V22.5001H61.7625L62.8364 19.8154Z" fill="white"/>
</g>
<path d="M82.5947 19.9929H84.0763C84.0315 18.3622 82.5898 17.179 80.5216 17.179C78.4782 17.179 76.9122 18.3473 76.9122 20.1023C76.9122 21.5192 77.9264 22.3494 79.5621 22.7919L80.7652 23.12C81.854 23.4084 82.6942 23.7663 82.6942 24.6712C82.6942 25.6655 81.7446 26.3217 80.4371 26.3217C79.2538 26.3217 78.2694 25.7947 78.18 24.6861H76.6388C76.7382 26.5305 78.165 27.669 80.447 27.669C82.8383 27.669 84.2155 26.4112 84.2155 24.6861C84.2155 22.8516 82.5798 22.1406 81.2872 21.8224L80.2929 21.5639C79.4974 21.3601 78.4385 20.9872 78.4434 20.0128C78.4434 19.1477 79.2339 18.5064 80.4868 18.5064C81.6551 18.5064 82.4854 19.0533 82.5947 19.9929ZM85.9319 27.5H87.4184V19.8636H85.9319V27.5ZM86.6826 18.6854C87.1947 18.6854 87.6222 18.2876 87.6222 17.8004C87.6222 17.3132 87.1947 16.9105 86.6826 16.9105C86.1656 16.9105 85.743 17.3132 85.743 17.8004C85.743 18.2876 86.1656 18.6854 86.6826 18.6854ZM92.6199 30.5227C94.5638 30.5227 96.0653 29.6328 96.0653 27.669V19.8636H94.6086V21.1016H94.4992C94.2357 20.6293 93.7087 19.7642 92.2868 19.7642C90.4424 19.7642 89.0851 21.2209 89.0851 23.652C89.0851 26.0881 90.4722 27.3857 92.2769 27.3857C93.6789 27.3857 94.2208 26.5952 94.4893 26.108H94.5837V27.6094C94.5837 28.8075 93.7634 29.3246 92.6349 29.3246C91.3969 29.3246 90.9147 28.7031 90.6512 28.2656L89.3735 28.7926C89.7762 29.7273 90.7954 30.5227 92.6199 30.5227ZM92.605 26.1527C91.2776 26.1527 90.5866 25.1335 90.5866 23.6321C90.5866 22.1655 91.2627 21.027 92.605 21.027C93.9026 21.027 94.5986 22.0859 94.5986 23.6321C94.5986 25.2081 93.8877 26.1527 92.605 26.1527ZM99.5454 22.9659C99.5454 21.7479 100.291 21.0518 101.325 21.0518C102.334 21.0518 102.946 21.7131 102.946 22.8217V27.5H104.432V22.6428C104.432 20.7536 103.393 19.7642 101.832 19.7642C100.684 19.7642 99.9331 20.2962 99.5802 21.1065H99.4857V19.8636H98.0589V27.5H99.5454V22.9659ZM114.968 24.3331C114.973 25.6307 114.009 26.2472 113.174 26.2472C112.254 26.2472 111.618 25.581 111.618 24.5419V19.8636H110.131V24.7209C110.131 26.6151 111.17 27.5994 112.637 27.5994C113.785 27.5994 114.566 26.9929 114.919 26.1776H114.998V27.5H116.46V19.8636H114.968V24.3331ZM118.457 30.3636H119.944V26.3118H120.033C120.302 26.799 120.849 27.6491 122.241 27.6491C124.09 27.6491 125.432 26.1676 125.432 23.6967C125.432 21.2209 124.07 19.7642 122.226 19.7642C120.809 19.7642 120.297 20.6293 120.033 21.1016H119.909V19.8636H118.457V30.3636ZM119.914 23.6818C119.914 22.0859 120.61 21.027 121.908 21.027C123.255 21.027 123.931 22.1655 123.931 23.6818C123.931 25.2131 123.235 26.3814 121.908 26.3814C120.63 26.3814 119.914 25.2876 119.914 23.6818ZM132.459 27.5H133.97L135.521 21.9865H135.635L137.187 27.5H138.703L140.945 19.8636H139.409L137.922 25.4467H137.848L136.356 19.8636H134.82L133.319 25.4716H133.244L131.748 19.8636H130.211L132.459 27.5ZM142.356 27.5H143.842V19.8636H142.356V27.5ZM143.106 18.6854C143.619 18.6854 144.046 18.2876 144.046 17.8004C144.046 17.3132 143.619 16.9105 143.106 16.9105C142.589 16.9105 142.167 17.3132 142.167 17.8004C142.167 18.2876 142.589 18.6854 143.106 18.6854ZM149.407 19.8636H147.841V18.0341H146.354V19.8636H145.236V21.0568H146.354V25.5661C146.349 26.9531 147.408 27.6243 148.581 27.5994C149.054 27.5945 149.372 27.505 149.546 27.4403L149.277 26.2124C149.178 26.2322 148.994 26.277 148.755 26.277C148.273 26.277 147.841 26.1179 147.841 25.2578V21.0568H149.407V19.8636ZM152.702 22.9659C152.702 21.7479 153.472 21.0518 154.531 21.0518C155.555 21.0518 156.167 21.7031 156.167 22.8217V27.5H157.653V22.6428C157.653 20.7386 156.609 19.7642 155.038 19.7642C153.85 19.7642 153.134 20.2812 152.776 21.1065H152.682V17.3182H151.215V27.5H152.702V22.9659ZM163.461 27.5H164.998V23.0604H169.323V21.7429H164.998V18.6406H169.775V17.3182H163.461V27.5ZM173.74 27.669C175.003 27.669 175.714 27.0277 175.997 26.456H176.057V27.5H177.509V22.429C177.509 20.2067 175.759 19.7642 174.546 19.7642C173.163 19.7642 171.891 20.321 171.394 21.7131L172.791 22.0312C173.009 21.4893 173.566 20.9673 174.565 20.9673C175.525 20.9673 176.017 21.4695 176.017 22.3345V22.3693C176.017 22.9112 175.46 22.9013 174.088 23.0604C172.641 23.2294 171.16 23.6072 171.16 25.3423C171.16 26.8438 172.288 27.669 173.74 27.669ZM174.063 26.4759C173.223 26.4759 172.617 26.098 172.617 25.3622C172.617 24.5668 173.323 24.2834 174.183 24.169C174.665 24.1044 175.808 23.9751 176.022 23.7614V24.7457C176.022 25.6506 175.301 26.4759 174.063 26.4759ZM182.705 27.6541C184.51 27.6541 185.678 26.5703 185.842 25.0838H184.396C184.207 25.9091 183.565 26.3963 182.715 26.3963C181.457 26.3963 180.647 25.3473 180.647 23.6818C180.647 22.0462 181.472 21.017 182.715 21.017C183.66 21.017 184.236 21.6136 184.396 22.3295H185.842C185.683 20.7884 184.425 19.7642 182.69 19.7642C180.538 19.7642 179.146 21.3849 179.146 23.7166C179.146 26.0185 180.488 27.6541 182.705 27.6541ZM190.723 27.6541C192.389 27.6541 193.567 26.8338 193.905 25.5909L192.498 25.3374C192.229 26.0582 191.583 26.4261 190.738 26.4261C189.465 26.4261 188.61 25.6009 188.57 24.1293H193.999V23.6023C193.999 20.843 192.349 19.7642 190.619 19.7642C188.491 19.7642 187.089 21.3849 187.089 23.7315C187.089 26.103 188.471 27.6541 190.723 27.6541ZM188.575 23.0156C188.635 21.9318 189.421 20.9922 190.629 20.9922C191.782 20.9922 192.538 21.8473 192.543 23.0156H188.575ZM195.768 27.5H197.22V26.3118H197.344C197.612 26.799 198.159 27.6491 199.551 27.6491C201.401 27.6491 202.743 26.1676 202.743 23.6967C202.743 21.2209 201.381 19.7642 199.536 19.7642C198.12 19.7642 197.608 20.6293 197.344 21.1016H197.255V17.3182H195.768V27.5ZM197.225 23.6818C197.225 22.0859 197.921 21.027 199.218 21.027C200.566 21.027 201.242 22.1655 201.242 23.6818C201.242 25.2131 200.546 26.3814 199.218 26.3814C197.941 26.3814 197.225 25.2876 197.225 23.6818ZM207.629 27.6541C209.782 27.6541 211.189 26.0781 211.189 23.7166C211.189 21.3402 209.782 19.7642 207.629 19.7642C205.476 19.7642 204.069 21.3402 204.069 23.7166C204.069 26.0781 205.476 27.6541 207.629 27.6541ZM207.634 26.4062C206.227 26.4062 205.571 25.1783 205.571 23.7116C205.571 22.25 206.227 21.0071 207.634 21.0071C209.031 21.0071 209.687 22.25 209.687 23.7116C209.687 25.1783 209.031 26.4062 207.634 26.4062ZM216.065 27.6541C218.217 27.6541 219.624 26.0781 219.624 23.7166C219.624 21.3402 218.217 19.7642 216.065 19.7642C213.912 19.7642 212.505 21.3402 212.505 23.7166C212.505 26.0781 213.912 27.6541 216.065 27.6541ZM216.07 26.4062C214.663 26.4062 214.006 25.1783 214.006 23.7116C214.006 22.25 214.663 21.0071 216.07 21.0071C217.467 21.0071 218.123 22.25 218.123 23.7116C218.123 25.1783 217.467 26.4062 216.07 26.4062ZM221.283 27.5H222.77V24.7905L223.511 24.0497L226.106 27.5H227.93L224.629 23.1399L227.722 19.8636H225.942L222.899 23.0952H222.77V17.3182H221.283V27.5Z" fill="white"/>
<defs>
<clipPath id="clip0">
<rect width="18" height="18" fill="white" transform="translate(49.5 13.5)"/>
</clipPath>
</defs>
</svg>
