<svg width="56" height="56" viewBox="0 0 56 56" fill="none" xmlns="http://www.w3.org/2000/svg">
<rect width="56" height="56" rx="18" fill="#41B7FA"/>
<path d="M23.0797 41.1C33.9751 41.1 39.933 32.0737 39.933 24.2467C39.933 23.9903 39.9277 23.7351 39.9162 23.481C41.0728 22.6449 42.0781 21.6015 42.8709 20.4138C41.8096 20.8855 40.6675 21.2031 39.4693 21.3463C40.6923 20.613 41.6312 19.4529 42.0741 18.07C40.9296 18.7485 39.6622 19.2416 38.3127 19.5078C37.2318 18.3564 35.693 17.6364 33.989 17.6364C30.7179 17.6364 28.0652 20.289 28.0652 23.559C28.0652 24.0238 28.1172 24.4759 28.2188 24.9096C23.2957 24.6619 18.9303 22.3048 16.0092 18.7208C15.5004 19.5961 15.2071 20.613 15.2071 21.698C15.2071 23.753 16.2528 25.5673 17.8431 26.6286C16.8712 26.5986 15.9583 26.3318 15.1603 25.8877C15.1595 25.9126 15.1595 25.9368 15.1595 25.9634C15.1595 28.832 17.2012 31.2272 19.9117 31.77C19.4139 31.9057 18.8902 31.9784 18.3497 31.9784C17.9686 31.9784 17.5973 31.9409 17.2365 31.8716C17.9906 34.2252 20.1773 35.9378 22.7699 35.9857C20.7426 37.5748 18.1886 38.5212 15.413 38.5212C14.9354 38.5212 14.4637 38.494 14 38.4392C16.6215 40.1195 19.7344 41.1 23.08 41.1" fill="white"/>
</svg>
