<svg width="22" height="22" viewBox="0 0 22 22" fill="none" xmlns="http://www.w3.org/2000/svg">
<path d="M11.3583 10.9933C11.8474 10.57 12.2398 10.0463 12.5086 9.45794C12.7775 8.86957 12.9167 8.23023 12.9167 7.58333C12.9167 6.36776 12.4338 5.20197 11.5742 4.34243C10.7147 3.48289 9.54891 3 8.33333 3C7.11776 3 5.95197 3.48289 5.09243 4.34243C4.23289 5.20197 3.75 6.36776 3.75 7.58333C3.74999 8.23023 3.88915 8.86957 4.15803 9.45794C4.42691 10.0463 4.81922 10.57 5.30833 10.9933C4.02513 11.5744 2.93643 12.5127 2.1724 13.6962C1.40837 14.8796 1.00135 16.258 1 17.6667C1 17.9098 1.09658 18.1429 1.26849 18.3148C1.44039 18.4868 1.67355 18.5833 1.91667 18.5833C2.15978 18.5833 2.39294 18.4868 2.56485 18.3148C2.73676 18.1429 2.83333 17.9098 2.83333 17.6667C2.83333 16.208 3.4128 14.809 4.44425 13.7776C5.4757 12.7461 6.87464 12.1667 8.33333 12.1667C9.79202 12.1667 11.191 12.7461 12.2224 13.7776C13.2539 14.809 13.8333 16.208 13.8333 17.6667C13.8333 17.9098 13.9299 18.1429 14.1018 18.3148C14.2737 18.4868 14.5069 18.5833 14.75 18.5833C14.9931 18.5833 15.2263 18.4868 15.3982 18.3148C15.5701 18.1429 15.6667 17.9098 15.6667 17.6667C15.6653 16.258 15.2583 14.8796 14.4943 13.6962C13.7302 12.5127 12.6415 11.5744 11.3583 10.9933ZM8.33333 10.3333C7.78943 10.3333 7.25775 10.172 6.80551 9.86987C6.35328 9.5677 6.00081 9.13821 5.79266 8.63571C5.58452 8.13322 5.53006 7.58028 5.63617 7.04684C5.74228 6.51339 6.0042 6.02338 6.38879 5.63879C6.77338 5.2542 7.26339 4.99228 7.79683 4.88617C8.33028 4.78007 8.88322 4.83452 9.38571 5.04267C9.88821 5.25081 10.3177 5.60328 10.6199 6.05552C10.922 6.50775 11.0833 7.03943 11.0833 7.58333C11.0833 8.31268 10.7936 9.01215 10.2779 9.52788C9.76215 10.0436 9.06268 10.3333 8.33333 10.3333ZM17.2617 10.6267C17.8483 9.96605 18.2315 9.14997 18.3652 8.27664C18.4988 7.40332 18.3772 6.50998 18.015 5.70417C17.6527 4.89835 17.0653 4.2144 16.3234 3.73464C15.5816 3.25488 14.7168 2.99976 13.8333 3C13.5902 3 13.3571 3.09658 13.1852 3.26849C13.0132 3.44039 12.9167 3.67355 12.9167 3.91667C12.9167 4.15978 13.0132 4.39294 13.1852 4.56485C13.3571 4.73676 13.5902 4.83333 13.8333 4.83333C14.5627 4.83333 15.2622 5.12307 15.7779 5.63879C16.2936 6.15452 16.5833 6.85399 16.5833 7.58333C16.582 8.0648 16.4544 8.5375 16.2131 8.95414C15.9718 9.37078 15.6253 9.71677 15.2083 9.9575C15.0724 10.0359 14.9589 10.1479 14.8787 10.2827C14.7984 10.4175 14.7541 10.5707 14.75 10.7275C14.7462 10.8831 14.782 11.0371 14.8542 11.1751C14.9264 11.313 15.0325 11.4303 15.1625 11.5158L15.52 11.7542L15.6392 11.8183C16.7441 12.3424 17.6763 13.1713 18.3259 14.2075C18.9755 15.2436 19.3155 16.4438 19.3058 17.6667C19.3058 17.9098 19.4024 18.1429 19.5743 18.3148C19.7462 18.4868 19.9794 18.5833 20.2225 18.5833C20.4656 18.5833 20.6988 18.4868 20.8707 18.3148C21.0426 18.1429 21.1392 17.9098 21.1392 17.6667C21.1467 16.26 20.7943 14.8747 20.1157 13.6426C19.437 12.4104 18.4546 11.3722 17.2617 10.6267Z" fill="#988E89"/>
</svg>
