<svg width="56" height="56" viewBox="0 0 56 56" fill="none" xmlns="http://www.w3.org/2000/svg">
<rect width="56" height="56" rx="18" fill="#4CC651"/>
<path fill-rule="evenodd" clip-rule="evenodd" d="M28.4964 14H28.5036C36.4986 14 43 20.5051 43 28.5C43 36.4949 36.4986 43 28.5036 43C25.5547 43 22.8196 42.1228 20.5268 40.6039L14.9534 42.3856L16.7604 36.9988C15.0223 34.6117 14 31.6719 14 28.5C14 20.5032 20.5014 14 28.4964 14ZM34.0954 36.5215C35.2028 36.2823 36.5912 35.463 36.941 34.4752C37.2908 33.4856 37.2908 32.6428 37.1893 32.4633C37.1073 32.321 36.9136 32.2277 36.6242 32.0884C36.5489 32.0521 36.4671 32.0127 36.3791 31.9685C35.9532 31.7565 33.8815 30.7324 33.49 30.5965C33.1058 30.4515 32.7396 30.5022 32.4496 30.9118C32.3945 30.9891 32.3394 31.0665 32.2847 31.1434C31.9348 31.6355 31.5974 32.1101 31.3168 32.4126C31.0612 32.6845 30.6444 32.7189 30.2946 32.5739C30.2564 32.558 30.2127 32.5404 30.1637 32.5206C29.6099 32.2969 28.3814 31.8007 26.8943 30.4768C25.6401 29.3603 24.7882 27.9702 24.5417 27.5533C24.2997 27.1351 24.5084 26.8899 24.7014 26.6632C24.7049 26.659 24.7085 26.6548 24.7121 26.6507C24.8365 26.4967 24.9572 26.3686 25.0785 26.2398C25.1658 26.1471 25.2533 26.0542 25.3428 25.951C25.3561 25.9357 25.369 25.9209 25.3816 25.9064C25.5716 25.6879 25.6848 25.5578 25.8122 25.2858C25.9572 25.0049 25.8539 24.7149 25.7506 24.501C25.6795 24.3513 25.2404 23.2858 24.8635 22.3713C24.7022 21.9799 24.5523 21.6162 24.4474 21.3636C24.1665 20.6912 23.9526 20.6658 23.5267 20.6477C23.5136 20.647 23.5004 20.6463 23.4871 20.6457C23.3525 20.6389 23.2042 20.6313 23.0409 20.6313C22.4863 20.6313 21.9081 20.7945 21.5583 21.1515C21.5461 21.164 21.5333 21.177 21.5201 21.1904C21.0726 21.6456 20.0757 22.6594 20.0757 24.6805C20.0757 26.7054 21.5125 28.6651 21.7783 29.0277C21.7856 29.0377 21.7921 29.0465 21.7976 29.054C21.8136 29.075 21.8437 29.1187 21.8876 29.1822C22.4304 29.9683 25.0743 33.7971 29.0167 35.4304C32.3481 36.8115 33.3377 36.6828 34.0954 36.5215Z" fill="white"/>
</svg>
