<svg class="icon-logo" xmlns="http://www.w3.org/2000/svg" viewBox="0 0 793.18 215.256"><circle cx="736.488" cy="56.692" r="56.692" fill="#7f1336"></circle><path stroke-miterlimit="10" d="M716.24 30.987c-9.394 0-17.008 7.615-17.008 17.008 0 8.363 6.038 15.311 13.99 16.736-.337 2.346-1.106 5.33-2.733 8.781-3.23 6.854-9.98 11.604-9.98 11.604s13.738 1.598 23.75-11.75c10.5-14 8.99-25.371 8.99-25.371 0-9.393-7.616-17.008-17.009-17.008zM773.915 47.995c0-9.393-7.614-17.008-17.008-17.008-9.394 0-17.008 7.615-17.008 17.008 0 8.363 6.037 15.311 13.99 16.736-.338 2.346-1.106 5.33-2.733 8.781-3.231 6.854-9.981 11.604-9.981 11.604s13.739 1.598 23.75-11.75c10.5-14 8.99-25.371 8.99-25.371z" fill="#fff" stroke="#fff" stroke-linecap="round" stroke-linejoin="round"></path><g fill="#2d2e2f"><path d="M26.115 178.45c-8.145-4.721-14.534-11.266-19.166-19.635C2.316 150.448 0 141.081 0 130.71c0-10.369 2.316-19.736 6.949-28.105 4.631-8.366 11.046-14.911 19.239-19.635 8.193-4.721 17.359-7.084 27.504-7.084 7.607 0 14.63 1.336 21.067 4.004 6.438 2.672 11.898 6.572 16.386 11.704l-6.876 7.238C76.27 90.311 66.176 86.05 53.985 86.05c-8.097 0-15.46 1.951-22.091 5.852-6.634 3.903-11.828 9.24-15.581 16.017-3.756 6.776-5.632 14.375-5.632 22.792 0 8.42 1.876 16.016 5.632 22.791 3.753 6.777 8.947 12.117 15.581 16.018 6.631 3.902 13.995 5.852 22.091 5.852 12.289 0 22.384-4.312 30.284-12.936l6.876 7.236c-4.487 5.137-9.974 9.062-16.458 11.781-6.488 2.723-13.533 4.082-21.141 4.082-10.145-.001-19.288-2.363-27.431-7.085zM108.993 83.585c-1.463-1.54-2.194-3.388-2.194-5.544 0-2.053.731-3.85 2.194-5.391 1.463-1.539 3.267-2.31 5.413-2.31 2.144 0 3.95.746 5.413 2.233 1.463 1.489 2.194 3.26 2.194 5.312 0 2.26-.731 4.158-2.194 5.698s-3.269 2.31-5.413 2.31c-2.146.002-3.95-.768-5.413-2.308zm.147 20.021h10.387v81.004H109.14zM210.232 103.606l-34.234 81.004h-10.68l-34.088-81.004h10.826l28.821 68.992 29.114-68.992zM231.152 180.067c-5.95-3.543-10.632-8.443-14.045-14.707-3.415-6.262-5.12-13.346-5.12-21.252 0-7.904 1.705-14.989 5.12-21.252 3.413-6.262 8.095-11.139 14.045-14.631 5.948-3.488 12.63-5.236 20.043-5.236 7.411 0 14.093 1.748 20.043 5.236 5.948 3.492 10.606 8.369 13.972 14.631 3.365 6.263 5.047 13.348 5.047 21.252 0 7.906-1.683 14.99-5.047 21.252-3.365 6.264-8.024 11.164-13.972 14.707-5.95 3.541-12.632 5.312-20.043 5.312-7.413 0-14.094-1.771-20.043-5.312zm34.746-8.317c4.339-2.617 7.729-6.338 10.168-11.166 2.437-4.824 3.658-10.316 3.658-16.477s-1.221-11.651-3.658-16.479c-2.439-4.824-5.829-8.547-10.168-11.165-4.341-2.618-9.242-3.927-14.703-3.927-5.463 0-10.364 1.309-14.703 3.927-4.341 2.618-7.754 6.341-10.241 11.165-2.487 4.827-3.731 10.318-3.731 16.479s1.244 11.652 3.731 16.477c2.487 4.828 5.9 8.549 10.241 11.166 4.339 2.617 9.24 3.928 14.703 3.928 5.462 0 10.363-1.31 14.703-3.928zM320.029 180.143c-5.999-3.488-10.705-8.393-14.118-14.707-3.415-6.314-5.12-13.422-5.12-21.328 0-7.904 1.705-14.989 5.12-21.252 3.413-6.262 8.12-11.139 14.118-14.631 5.998-3.488 12.801-5.236 20.409-5.236 6.632 0 12.557 1.362 17.775 4.082 5.217 2.721 9.338 6.699 12.363 11.935l-7.754 5.544c-2.538-4.004-5.756-7.007-9.656-9.009-3.902-2.002-8.145-3.003-12.728-3.003-5.559 0-10.559 1.309-14.996 3.927-4.439 2.618-7.9 6.341-10.387 11.165-2.487 4.827-3.731 10.318-3.731 16.479 0 6.264 1.244 11.781 3.731 16.555 2.487 4.773 5.948 8.471 10.387 11.088 4.437 2.617 9.437 3.928 14.996 3.928 4.583 0 8.826-.975 12.728-2.928 3.9-1.947 7.119-4.928 9.656-8.932l7.754 5.545c-3.024 5.236-7.169 9.215-12.436 11.936s-11.169 4.08-17.703 4.08c-7.606-.002-14.41-1.746-20.408-5.238zM408.832 107.147c4.828-2.771 10.802-4.158 17.922-4.158v10.627l-2.487-.154c-8.097 0-14.436 2.618-19.019 7.854-4.586 5.236-6.876 12.578-6.876 22.021v41.273h-10.388v-81.004h9.948v15.861c2.438-5.44 6.072-9.548 10.9-12.32zM492.442 110.92c5.362 5.289 8.046 13.116 8.046 23.484v50.205h-9.948V171.98c-2.341 4.211-5.778 7.496-10.313 9.855-4.536 2.363-9.926 3.543-16.167 3.543-8.583 0-15.411-2.156-20.481-6.469-5.072-4.311-7.607-10.01-7.607-17.094 0-6.877 2.363-12.42 7.095-16.631 4.73-4.209 12.265-6.314 22.604-6.314h24.433v-4.928c0-6.98-1.854-12.294-5.56-15.939-3.708-3.643-9.121-5.467-16.239-5.467-4.878 0-9.56.847-14.045 2.541-4.487 1.693-8.339 4.03-11.558 7.007l-4.682-8.162c3.899-3.489 8.581-6.185 14.045-8.085 5.461-1.898 11.215-2.85 17.264-2.85 10.042.002 17.748 2.646 23.113 7.933zm-11.704 61.6c4.192-2.822 7.314-6.902 9.363-12.242v-13.244h-24.14c-13.167 0-19.751 4.826-19.751 14.477 0 4.723 1.706 8.445 5.121 11.164 3.413 2.721 8.192 4.082 14.337 4.082 5.853-.001 10.874-1.411 15.07-4.237zM537.575 180.143c-5.998-3.488-10.704-8.393-14.117-14.707-3.415-6.314-5.121-13.422-5.121-21.328 0-7.904 1.706-14.989 5.121-21.252 3.413-6.262 8.119-11.139 14.117-14.631 5.999-3.488 12.802-5.236 20.409-5.236 6.632 0 12.557 1.362 17.775 4.082 5.217 2.721 9.338 6.699 12.362 11.935l-7.754 5.544c-2.537-4.004-5.756-7.007-9.655-9.009-3.902-2.002-8.146-3.003-12.729-3.003-5.56 0-10.559 1.309-14.995 3.927-4.439 2.618-7.9 6.341-10.388 11.165-2.487 4.827-3.73 10.318-3.73 16.479 0 6.264 1.243 11.781 3.73 16.555 2.487 4.774 5.948 8.471 10.388 11.088 4.437 2.617 9.436 3.928 14.995 3.928 4.583 0 8.826-.975 12.729-2.928 3.899-1.947 7.118-4.928 9.655-8.932l7.754 5.545c-3.024 5.236-7.168 9.215-12.436 11.936-5.267 2.721-11.169 4.08-17.702 4.08-7.607-.002-14.409-1.746-20.408-5.238z"></path><path d="M669.024 103.606l-38.477 90.705c-3.123 7.598-6.73 12.986-10.827 16.17-4.096 3.182-9.022 4.775-14.775 4.775-3.708 0-7.169-.617-10.388-1.85-3.219-1.23-5.998-3.08-8.339-5.543l4.827-8.162c3.9 4.105 8.582 6.16 14.045 6.16 3.512 0 6.511-1.027 8.998-3.08 2.487-2.055 4.803-5.545 6.949-10.473l3.364-7.854-34.38-80.85h10.826l28.967 68.838 28.968-68.838h10.242z"></path></g></svg>
