<svg width="22" height="22" viewBox="0 0 22 22" fill="none" xmlns="http://www.w3.org/2000/svg">
<circle cx="11" cy="11" r="10.5" fill="#BC1C31" stroke="#BC1C31"/>
<path d="M6.25378 12.8303C6.58121 13.2634 7.17269 13.3479 7.58461 13.369C8.08103 13.4007 8.53521 13.3796 9.06332 13.3373C9.08444 13.4007 9.10557 13.538 9.08444 13.8232C9.01051 14.6682 8.91545 15.2913 8.84151 15.7877L8.83095 15.83C8.74645 16.3687 9.04219 16.8228 9.54918 16.9601C10.0245 17.0869 10.6476 16.9179 10.88 16.3581C10.9117 16.2842 10.9434 16.1891 10.9856 16.0729C11.2814 15.2913 11.9468 13.5063 13.0241 12.862L13.0241 12.9571C13.0241 13.0944 13.1298 13.2 13.2671 13.2L15.802 13.2C15.9393 13.2 16.0449 13.0944 16.0449 12.9571L16.0449 7.67598C16.0449 7.53867 15.9393 7.43306 15.802 7.43306L13.2671 7.43306C13.1298 7.43306 13.0241 7.53867 13.0241 7.67598L13.0241 7.72879C12.1792 7.49643 10.1512 7 8.7042 7C7.94372 7 6.99313 7 6.72908 8.19353C6.51783 9.13357 6.24321 10.5278 6.06365 11.4889C5.93691 12.0699 6.00029 12.5135 6.25378 12.8303ZM6.67627 11.5946C6.85582 10.6334 7.13044 9.26031 7.34168 8.32027C7.47899 7.70767 7.7536 7.62317 8.7042 7.62317C10.0984 7.62317 12.1052 8.13016 12.8974 8.34141C12.9713 8.36253 13.0136 8.41534 13.0241 8.48928L13.0241 10.1792L13.0241 12.0487C13.0241 12.1121 12.9925 12.1755 12.9396 12.1966C11.5243 12.8515 10.7638 14.8794 10.4047 15.8511C10.3625 15.9567 10.3308 16.0518 10.2991 16.1152C10.2252 16.2842 10.0456 16.3687 9.86604 16.3687C9.81323 16.3687 9.76042 16.3581 9.71817 16.3475C9.5703 16.3053 9.41187 16.1997 9.45412 15.9145L9.46468 15.8722C9.53861 15.3653 9.64424 14.7421 9.71817 13.8654C9.76042 13.369 9.68649 13.031 9.50693 12.8515C9.40131 12.7458 9.25344 12.693 9.095 12.7036C8.55633 12.7564 8.12328 12.7775 7.64798 12.7458C7.19381 12.7141 6.90863 12.6191 6.77132 12.4501C6.62345 12.2811 6.59177 11.9959 6.67627 11.5946Z" fill="white"/>
</svg>
