<svg xmlns="http://www.w3.org/2000/svg" viewBox="0 0 26 18" width="26" height="18">
	<style>
		tspan { white-space:pre }
		.shp0 { fill: #c4c4c4 } 
		.shp1 { fill: #ababab } 
		.shp2 { fill: #939393 } 
	</style>
	<path id="Layer" class="shp0" d="M6.5 15C2.91 15 0 12.09 0 8.5C0 4.91 2.91 2 6.5 2C10.09 2 13 4.91 13 8.5C13 12.09 10.09 15 6.5 15Z" />
	<path id="Layer" class="shp1" d="M12.5 15C8.91 15 6 12.09 6 8.5C6 4.91 8.91 2 12.5 2C16.09 2 19 4.91 19 8.5C19 12.09 16.09 15 12.5 15Z" />
	<path id="Layer" class="shp2" d="M18.5 15C14.91 15 12 12.09 12 8.5C12 4.91 14.91 2 18.5 2C22.09 2 25 4.91 25 8.5C25 12.09 22.09 15 18.5 15Z" />
</svg>