<svg width="16" height="20" viewBox="0 0 16 20" fill="none" xmlns="http://www.w3.org/2000/svg">
<path d="M15.0419 6.94815V6.96452L15.0472 6.98003C15.0713 7.05192 15.088 7.12611 15.0969 7.20142V7.25065V16.4173C15.0969 17.1201 14.8177 17.7942 14.3208 18.2912C13.8238 18.7881 13.1498 19.0673 12.4469 19.0673H3.28027C2.57745 19.0673 1.90341 18.7881 1.40644 18.2912C0.909469 17.7942 0.630273 17.1201 0.630273 16.4173V3.58398C0.630273 2.88116 0.909469 2.20712 1.40644 1.71015C1.90341 1.21318 2.57745 0.933984 3.28027 0.933984H8.81857L9.0961 1.02939L9.1119 1.03482H9.12861H9.18825C9.26492 1.07299 9.33564 1.12216 9.39816 1.1808L14.896 6.67861C14.9546 6.74113 15.0038 6.81184 15.0419 6.88851V6.94815ZM9.76765 3.88911L9.59694 3.7184V3.95982V6.33398V6.43398H9.69694H12.0711H12.3125L12.1418 6.26327L9.76765 3.88911ZM7.96361 2.66732V2.56732H7.86361H3.28027C3.01064 2.56732 2.75204 2.67443 2.56138 2.86509C2.37072 3.05575 2.26361 3.31435 2.26361 3.58398V16.4173C2.26361 16.687 2.37072 16.9455 2.56138 17.1362C2.75204 17.3269 3.01064 17.434 3.28027 17.434H12.4469C12.7166 17.434 12.9752 17.3269 13.1658 17.1362C13.3565 16.9455 13.4636 16.687 13.4636 16.4173V8.16732V8.06732H13.3636H8.78027C8.56368 8.06732 8.35596 7.98128 8.2028 7.82812C8.04965 7.67497 7.96361 7.46724 7.96361 7.25065V2.66732Z" fill="#A4A3B4" stroke="white" stroke-width="0.2"/>
</svg>
