<svg width="26" height="26" viewBox="0 0 72 72" fill="none" xmlns="http://www.w3.org/2000/svg">
<path d="M12.2589 63.95C12.4974 63.9501 12.727 63.8595 12.9011 63.6966L16.7463 60.0998L13.5377 56.6696L7.49467 62.3223C6.87256 62.9042 7.28402 63.9473 8.13588 63.9477L12.2589 63.95Z" fill="#353535"/>
<path d="M60.8407 23.3559C61.9039 24.4926 63.6873 24.5521 64.824 23.4889L67.5681 20.922C68.7048 19.8587 68.7643 18.0754 67.7011 16.9387L60.0004 8.70622C58.9372 7.56955 57.1538 7.51003 56.0171 8.57327L53.273 11.1402C52.1363 12.2034 52.0768 13.9868 53.14 15.1235L60.8407 23.3559Z" fill="#F8D145"/>
<path fill-rule="evenodd" clip-rule="evenodd" d="M65.643 18.8639L62.8988 21.4308L55.1981 13.1983L57.9423 10.6314L65.643 18.8639ZM64.824 23.4889C63.6873 24.5521 61.9039 24.4926 60.8407 23.3559L53.14 15.1235C52.0768 13.9868 52.1363 12.2034 53.273 11.1402L56.0171 8.57327C57.1538 7.51003 58.9372 7.56955 60.0004 8.70622L67.7011 16.9387C68.7643 18.0754 68.7048 19.8587 67.5681 20.922L64.824 23.4889Z" fill="#353535"/>
<path d="M28.0521 57.0352C30.159 58.5117 33.0284 58.2277 34.8049 56.3668L64.3117 25.4595C65.3437 24.3784 65.3524 22.6797 64.3314 21.5883L55.1355 11.7573C54.1145 10.6658 52.419 10.5612 51.2715 11.5188L18.4655 38.8991C16.4903 40.5476 16.0156 43.3917 17.3483 45.5923V45.5923C18.7511 47.9085 18.3396 50.8906 16.3621 52.7404L15.4367 53.606C15.1695 53.8559 15.1555 54.2752 15.4055 54.5424L18.9924 58.377C19.2423 58.6442 19.6616 58.6582 19.9288 58.4082L20.8541 57.5427C22.8317 55.6929 25.8346 55.4812 28.0521 57.0352V57.0352Z" fill="#F8D145"/>
<path fill-rule="evenodd" clip-rule="evenodd" d="M65.0124 22.8491C62.1051 21.043 58.6744 20 55 20C44.5066 20 36 28.5066 36 39C36 43.4619 37.5381 47.5647 40.1129 50.8069L64.3117 25.4595C64.9966 24.742 65.2308 23.7526 65.0124 22.8491Z" fill="white" fill-opacity="0.3"/>
<path fill-rule="evenodd" clip-rule="evenodd" d="M27.2432 58.1892C29.9204 60.0654 33.5665 59.7045 35.8239 57.3399L65.3307 26.4325C66.8787 24.811 66.8917 22.263 65.3602 20.6257L56.1643 10.7948C54.6329 9.15754 52.0896 9.00059 50.3685 10.4371L17.5624 37.8173C15.0526 39.912 14.4494 43.526 16.1429 46.3223C17.2004 48.0685 16.8902 50.3168 15.3993 51.7114L14.474 52.577C13.6384 53.3585 13.5947 54.6695 14.3762 55.505L17.9631 59.3396C18.7447 60.1752 20.0556 60.2189 20.8912 59.4374L21.8165 58.5718C23.3074 57.1772 25.5714 57.0176 27.2432 58.1892ZM33.7855 55.3939C32.4899 56.751 30.3972 56.9582 28.8606 55.8813C26.0974 53.9449 22.3555 54.2087 19.8914 56.5137L19.5112 56.8692L16.9444 54.1251L17.3245 53.7695C19.7886 51.4645 20.3013 47.7486 18.5534 44.8624C17.5815 43.2575 17.9277 41.1832 19.3682 39.981L52.1743 12.6007C52.748 12.1219 53.5957 12.1742 54.1062 12.7199L63.3021 22.5509C63.8126 23.0966 63.8083 23.946 63.2923 24.4865L33.7855 55.3939Z" fill="#353535"/>
<path fill-rule="evenodd" clip-rule="evenodd" d="M37.0628 33.4704C36.5312 32.902 36.5609 32.0103 37.1293 31.4787L49.478 19.9277C50.0463 19.3961 50.938 19.4258 51.4696 19.9942C52.0013 20.5625 51.9715 21.4542 51.4032 21.9858L39.0545 33.5368C38.4861 34.0685 37.5944 34.0387 37.0628 33.4704Z" fill="#353535"/>
<path fill-rule="evenodd" clip-rule="evenodd" d="M40.9136 37.5876C40.382 37.0192 40.4118 36.1275 40.9801 35.5959L47.8405 29.1787C48.4088 28.6471 49.3005 28.6768 49.8322 29.2451C50.3638 29.8135 50.334 30.7052 49.7657 31.2368L42.9053 37.654C42.3369 38.1857 41.4453 38.1559 40.9136 37.5876Z" fill="#353535"/>
<path d="M35.8765 54.4241C36.9397 55.5608 38.7231 55.6203 39.8598 54.557L41.2318 53.2736C42.3685 52.2103 42.428 50.427 41.3648 49.2903L25.9634 32.8253C24.9002 31.6887 23.1168 31.6291 21.9801 32.6924L20.608 33.9758C19.4714 35.0391 19.4118 36.8225 20.4751 37.9591L35.8765 54.4241Z" fill="#F8D145"/>
<path fill-rule="evenodd" clip-rule="evenodd" d="M34.8472 55.388C36.4421 57.093 39.1172 57.1823 40.8222 55.5875L42.1942 54.304C43.8992 52.7091 43.9885 50.0341 42.3937 48.3291L26.9923 31.8641C25.3974 30.1591 22.7223 30.0698 21.0173 31.6647L19.6453 32.9481C17.9403 34.543 17.851 37.2181 19.4458 38.9231L34.8472 55.388ZM38.897 53.5293C38.3287 54.061 37.437 54.0312 36.9053 53.4629L21.504 36.9979C20.9723 36.4296 21.0021 35.5379 21.5704 35.0063L22.9425 33.7228C23.5109 33.1912 24.4025 33.221 24.9342 33.7893L40.3355 50.2542C40.8672 50.8226 40.8374 51.7143 40.2691 52.2459L38.897 53.5293Z" fill="#353535"/>
</svg>
