<?xml version="1.0" encoding="UTF-8" standalone="no"?>
<svg
   xmlns:dc="http://purl.org/dc/elements/1.1/"
   xmlns:cc="http://creativecommons.org/ns#"
   xmlns:rdf="http://www.w3.org/1999/02/22-rdf-syntax-ns#"
   xmlns:svg="http://www.w3.org/2000/svg"
   xmlns="http://www.w3.org/2000/svg"
   xmlns:sodipodi="http://sodipodi.sourceforge.net/DTD/sodipodi-0.dtd"
   xmlns:inkscape="http://www.inkscape.org/namespaces/inkscape"
   width="59"
   height="59"
   viewBox="0 0 59 59"
   fill="none"
   version="1.1"
   id="svg51"
   sodipodi:docname="highlight-new.svg"
   inkscape:version="0.92.4 (5da689c313, 2019-01-14)">
  <metadata
     id="metadata55">
    <rdf:RDF>
      <cc:Work
         rdf:about="">
        <dc:format>image/svg+xml</dc:format>
        <dc:type
           rdf:resource="http://purl.org/dc/dcmitype/StillImage" />
        <dc:title></dc:title>
      </cc:Work>
    </rdf:RDF>
  </metadata>
  <sodipodi:namedview
     pagecolor="#ffffff"
     bordercolor="#666666"
     borderopacity="1"
     objecttolerance="10"
     gridtolerance="10"
     guidetolerance="10"
     inkscape:pageopacity="0"
     inkscape:pageshadow="2"
     inkscape:window-width="1719"
     inkscape:window-height="1171"
     id="namedview53"
     showgrid="false"
     inkscape:zoom="16"
     inkscape:cx="30.310881"
     inkscape:cy="36.891642"
     inkscape:window-x="701"
     inkscape:window-y="21"
     inkscape:window-maximized="0"
     inkscape:current-layer="g28" />
  <g
     filter="url(#filter0_d-hightlight)"
     id="g4">
    <circle
       cx="29.5"
       cy="26.5"
       r="20.5"
       fill="white"
       id="circle2" />
  </g>
  <circle
     cx="29.9866"
     cy="23.9866"
     r="9.98656"
     fill="#F8E645"
     fill-opacity="0.24"
     id="circle6" />
  <path
     d="M24.5158 20.102C25.7381 18.3631 27.7305 17.3281 29.856 17.3281H30.1149C32.2404 17.3281 34.2328 18.3631 35.4551 20.102C37.0069 22.3098 37.04 25.245 35.5385 27.4873L34.0748 29.673C33.7036 30.2273 33.5054 30.8795 33.5054 31.5466V32.8442C33.5054 33.0105 33.3707 33.1452 33.2044 33.1452H26.7665C26.6003 33.1452 26.4655 33.0105 26.4655 32.8442V31.5466C26.4655 30.8795 26.2673 30.2273 25.8961 29.673L24.4325 27.4873C22.9309 25.245 22.9641 22.3098 24.5158 20.102Z"
     fill="#F8DB45"
     id="path8" />
  <path
     d="M28.4785 37.3154H31.4885V37.9174C31.4885 38.4161 31.0842 38.8204 30.5855 38.8204H29.3815C28.8828 38.8204 28.4785 38.4161 28.4785 37.9174V37.3154Z"
     fill="#404040"
     id="path10" />
  <path
     d="M27.8765 33.1006H32.0905C32.0905 32.2694 31.4167 31.5956 30.5855 31.5956H29.3815C28.5503 31.5956 27.8765 32.2694 27.8765 33.1006Z"
     fill="#FFA337"
     id="path12" />
  <path
     d="M27.2744 34.6055H32.6924V36.1105C32.6924 36.7754 32.1534 37.3145 31.4884 37.3145H28.4784C27.8135 37.3145 27.2744 36.7754 27.2744 36.1105V34.6055Z"
     fill="#7C7C7C"
     id="path14" />
  <path
     d="M30.2845 34.6055H32.6926V36.1105C32.6926 36.7754 32.1535 37.3145 31.4885 37.3145H30.2845V34.6055Z"
     fill="#646464"
     id="path16" />
  <path
     d="M26.3713 32.499H33.5954V33.703C33.5954 34.5342 32.9215 35.208 32.0904 35.208H27.8763C27.0452 35.208 26.3713 34.5342 26.3713 33.703V32.499Z"
     fill="#D9D9D9"
     id="path18" />
  <path
     d="M29.6826 32.499H33.5956V33.703C33.5956 34.5342 32.9218 35.208 32.0906 35.208H29.6826V32.499Z"
     fill="#AAAAAA"
     id="path20" />
  <path
     d="M28.7795 32.499H31.1875V34.004C31.1875 34.669 30.6485 35.208 29.9835 35.208C29.3186 35.208 28.7795 34.669 28.7795 34.004V32.499Z"
     fill="#BABABA"
     id="path22" />
  <g
     style="mix-blend-mode:color-burn"
     id="g28">
    <path
       d="m 33.8965,24.373 c 0,2.1611 -1.752,3.913 -3.9131,3.913 -2.1611,0 -3.913,-1.7519 -3.913,-3.913 0,-2.1611 1.7519,-3.913 3.913,-3.913 2.1611,0 3.9131,1.7519 3.9131,3.913 z"
       id="path26"
       inkscape:connector-curvature="0"
       style="opacity:0.776;fill:#f6ba0d;fill-opacity:1" />
  </g>
  <path
     fill-rule="evenodd"
     clip-rule="evenodd"
     d="M28.4784 23.6203C28.0628 23.6203 27.7259 23.9572 27.7259 24.3728C27.7259 24.7884 28.0628 25.1253 28.4784 25.1253H29.2309V24.3728C29.2309 23.9572 28.894 23.6203 28.4784 23.6203ZM29.5319 25.1253V24.3728C29.5319 23.791 29.0603 23.3193 28.4784 23.3193C27.8966 23.3193 27.4249 23.791 27.4249 24.3728C27.4249 24.9547 27.8966 25.4263 28.4784 25.4263H29.2309V32.3494H29.5319V25.4263H30.4349V32.0484H30.7359V25.4263H31.4884C32.0703 25.4263 32.5419 24.9547 32.5419 24.3728C32.5419 23.791 32.0703 23.3193 31.4884 23.3193C30.9066 23.3193 30.4349 23.791 30.4349 24.3728V25.1253H29.5319ZM30.7359 25.1253H31.4884C31.904 25.1253 32.2409 24.7884 32.2409 24.3728C32.2409 23.9572 31.904 23.6203 31.4884 23.6203C31.0728 23.6203 30.7359 23.9572 30.7359 24.3728V25.1253Z"
     fill="#FFA337"
     id="path24"
     style="fill:#ff4337;fill-opacity:1" />
  <g
     style="mix-blend-mode:screen"
     id="g32">
    <path
       d="m 28.7795,21.0616 c 0,0.8312 -0.6738,1.505 -1.505,1.505 -0.8312,0 -1.505,-0.6738 -1.505,-1.505 0,-0.8311 0.6738,-1.505 1.505,-1.505 0.8312,0 1.505,0.6739 1.505,1.505 z"
       id="path30"
       inkscape:connector-curvature="0"
       style="opacity:0.51799999;fill:#f8f9e5;fill-opacity:1" />
  </g>
  <defs
     id="defs49">
    <filter
       id="filter0_d-hightlight"
       x="0"
       y="0"
       width="59"
       height="59"
       filterUnits="userSpaceOnUse"
       color-interpolation-filters="sRGB">
      <feFlood
         flood-opacity="0"
         result="BackgroundImageFix"
         id="feFlood34" />
      <feColorMatrix
         in="SourceAlpha"
         type="matrix"
         values="0 0 0 0 0 0 0 0 0 0 0 0 0 0 0 0 0 0 127 0"
         id="feColorMatrix36" />
      <feOffset
         dy="3"
         id="feOffset38" />
      <feGaussianBlur
         stdDeviation="4.5"
         id="feGaussianBlur40" />
      <feColorMatrix
         type="matrix"
         values="0 0 0 0 0 0 0 0 0 0 0 0 0 0 0 0 0 0 0.15 0"
         id="feColorMatrix42" />
      <feBlend
         mode="normal"
         in2="BackgroundImageFix"
         result="effect1_dropShadow"
         id="feBlend44" />
      <feBlend
         mode="normal"
         in="SourceGraphic"
         in2="effect1_dropShadow"
         result="shape"
         id="feBlend46" />
    </filter>
  </defs>
</svg>
