<svg width="20" height="25" viewBox="0 0 20 25" fill="none" xmlns="http://www.w3.org/2000/svg">
<circle cx="9.98656" cy="9.98656" r="9.98656" fill="#F8E645" fill-opacity="0.24"/>
<path d="M4.51588 6.10202C5.73812 4.36306 7.73053 3.32812 9.85606 3.32812H10.1149C12.2405 3.32812 14.2329 4.36306 15.4551 6.10202C17.0069 8.30984 17.0401 11.245 15.5385 13.4873L14.0749 15.673C13.7036 16.2273 13.5055 16.8795 13.5055 17.5466V18.8442C13.5055 19.0105 13.3707 19.1452 13.2045 19.1452H6.76654C6.6003 19.1452 6.46554 19.0105 6.46554 18.8442V17.5466C6.46554 16.8795 6.26735 16.2273 5.89614 15.673L4.43249 13.4873C2.93094 11.245 2.96409 8.30984 4.51588 6.10202Z" fill="#F8DB45"/>
<path d="M8.47852 23.3154H11.4885V23.9174C11.4885 24.4161 11.0842 24.8204 10.5855 24.8204H9.38152C8.8828 24.8204 8.47852 24.4161 8.47852 23.9174V23.3154Z" fill="#404040"/>
<path d="M7.87653 19.1006H12.0905C12.0905 18.2694 11.4167 17.5956 10.5855 17.5956H9.38153C8.55034 17.5956 7.87653 18.2694 7.87653 19.1006Z" fill="#FFA337"/>
<path d="M7.27444 20.6055H12.6925V22.1105C12.6925 22.7754 12.1534 23.3145 11.4885 23.3145H8.47845C7.8135 23.3145 7.27444 22.7754 7.27444 22.1105V20.6055Z" fill="#7C7C7C"/>
<path d="M10.2845 20.6055H12.6925V22.1105C12.6925 22.7754 12.1535 23.3145 11.4885 23.3145H10.2845V20.6055Z" fill="#646464"/>
<path d="M6.37137 18.499H13.5954V19.703C13.5954 20.5342 12.9216 21.208 12.0904 21.208H7.87637C7.04518 21.208 6.37137 20.5342 6.37137 19.703V18.499Z" fill="#D9D9D9"/>
<path d="M9.68268 18.499H13.5957V19.703C13.5957 20.5342 12.9219 21.208 12.0907 21.208H9.68268V18.499Z" fill="#AAAAAA"/>
<path d="M8.7796 18.499H11.1876V20.004C11.1876 20.669 10.6486 21.208 9.98361 21.208C9.31865 21.208 8.7796 20.669 8.7796 20.004V18.499Z" fill="#BABABA"/>
<path fill-rule="evenodd" clip-rule="evenodd" d="M8.47849 9.62034C8.0629 9.62034 7.72599 9.95724 7.72599 10.3728C7.72599 10.7884 8.0629 11.1253 8.47849 11.1253H9.23099V10.3728C9.23099 9.95724 8.89409 9.62034 8.47849 9.62034ZM9.53199 11.1253V10.3728C9.53199 9.79101 9.06032 9.31934 8.47849 9.31934C7.89666 9.31934 7.42499 9.79101 7.42499 10.3728C7.42499 10.9547 7.89666 11.4263 8.47849 11.4263H9.23099V18.3494H9.53199V11.4263H10.435V18.0484H10.736V11.4263H11.4885C12.0703 11.4263 12.542 10.9547 12.542 10.3728C12.542 9.79101 12.0703 9.31934 11.4885 9.31934C10.9067 9.31934 10.435 9.79101 10.435 10.3728V11.1253H9.53199ZM10.736 11.1253H11.4885C11.9041 11.1253 12.241 10.7884 12.241 10.3728C12.241 9.95724 11.9041 9.62034 11.4885 9.62034C11.0729 9.62034 10.736 9.95724 10.736 10.3728V11.1253Z" fill="#FFA337"/>
<g style="mix-blend-mode:color-burn">
<path d="M13.8965 10.373C13.8965 12.5341 12.1446 14.286 9.98354 14.286C7.82244 14.286 6.07053 12.5341 6.07053 10.373C6.07053 8.21188 7.82244 6.45996 9.98354 6.45996C12.1446 6.45996 13.8965 8.21188 13.8965 10.373Z" fill="#C4C4C4"/>
</g>
<g style="mix-blend-mode:screen">
<path d="M8.77954 7.06164C8.77954 7.89284 8.10573 8.56665 7.27454 8.56665C6.44334 8.56665 5.76953 7.89284 5.76953 7.06164C5.76953 6.23045 6.44334 5.55664 7.27454 5.55664C8.10573 5.55664 8.77954 6.23045 8.77954 7.06164Z" fill="#888888"/>
</g>
</svg>
