<?xml version="1.0" encoding="UTF-8"?>
<svg fill="none" version="1.1" height="25" width="20" viewBox="0 0 19.973 24.82" xmlns="http://www.w3.org/2000/svg" xmlns:cc="http://creativecommons.org/ns#" xmlns:dc="http://purl.org/dc/elements/1.1/" xmlns:rdf="http://www.w3.org/1999/02/22-rdf-syntax-ns#">
 <metadata>
  <rdf:RDF>
   <cc:Work rdf:about="">
    <dc:format>image/svg+xml</dc:format>
    <dc:type rdf:resource="http://purl.org/dc/dcmitype/StillImage"/>
    <dc:title/>
   </cc:Work>
  </rdf:RDF>
 </metadata>
 <circle cx="9.9866" cy="9.9866" r="9.9866" fill="#f8e645" fill-opacity=".24"/>
 <path d="m4.5158 6.102c1.2223-1.7389 3.2147-2.7739 5.3402-2.7739h0.2589c2.1255 0 4.1179 1.035 5.3402 2.7739 1.5518 2.2078 1.5849 5.143 0.0834 7.3853l-1.4637 2.1857c-0.3712 0.5543-0.5694 1.2065-0.5694 1.8736v1.2976c0 0.1663-0.1347 0.301-0.301 0.301h-6.4379c-0.1662 0-0.301-0.1347-0.301-0.301v-1.2976c0-0.6671-0.1982-1.3193-0.5694-1.8736l-1.4636-2.1857c-1.5016-2.2423-1.4684-5.1775 0.0833-7.3853z" fill="#f8db45"/>
 <path d="m8.4785 23.315h3.01v0.602c0 0.4987-0.4043 0.903-0.903 0.903h-1.204c-0.4987 0-0.903-0.4043-0.903-0.903z" fill="#404040"/>
 <path d="m7.8765 19.101h4.214c0-0.8312-0.6738-1.505-1.505-1.505h-1.204c-0.8312 0-1.505 0.6738-1.505 1.505z" fill="#ffa337"/>
 <path d="m7.2744 20.605h5.418v1.505c0 0.6649-0.539 1.204-1.204 1.204h-3.01c-0.6649 0-1.204-0.5391-1.204-1.204z" fill="#7c7c7c"/>
 <path d="m10.284 20.605h2.4081v1.505c0 0.6649-0.5391 1.204-1.2041 1.204h-1.204z" fill="#646464"/>
 <path d="m6.3713 18.499h7.2241v1.204c0 0.8312-0.6739 1.505-1.505 1.505h-4.2141c-0.8311 0-1.505-0.6738-1.505-1.505z" fill="#d9d9d9"/>
 <path d="m9.6826 18.499h3.913v1.204c0 0.8312-0.6738 1.505-1.505 1.505h-2.408z" fill="#aaa"/>
 <path d="m8.7795 18.499h2.408v1.505c0 0.665-0.539 1.204-1.204 1.204-0.6649 0-1.204-0.539-1.204-1.204z" fill="#bababa"/>
 <g transform="translate(-20 -14)" style="mix-blend-mode:color-burn">
  <path d="m33.896 24.373c0 2.1611-1.752 3.913-3.9131 3.913s-3.913-1.7519-3.913-3.913 1.7519-3.913 3.913-3.913 3.9131 1.7519 3.9131 3.913z" fill="#f6ba0d" opacity=".776"/>
 </g>
 <path d="m8.4784 9.6203c-0.4156 0-0.7525 0.3369-0.7525 0.7525s0.3369 0.7525 0.7525 0.7525h0.7525v-0.7525c0-0.4156-0.3369-0.7525-0.7525-0.7525zm1.0535 1.505v-0.7525c0-0.5818-0.4716-1.0535-1.0535-1.0535-0.5818 0-1.0535 0.4717-1.0535 1.0535 0 0.5819 0.4717 1.0535 1.0535 1.0535h0.7525v6.9231h0.301v-6.9231h0.903v6.6221h0.301v-6.6221h0.7525c0.5819 0 1.0535-0.4716 1.0535-1.0535 0-0.5818-0.4716-1.0535-1.0535-1.0535-0.5818 0-1.0535 0.4717-1.0535 1.0535v0.7525zm1.204 0h0.7525c0.4156 0 0.7525-0.3369 0.7525-0.7525s-0.3369-0.7525-0.7525-0.7525-0.7525 0.3369-0.7525 0.7525z" clip-rule="evenodd" fill="#ff4337" fill-rule="evenodd"/>
 <g transform="translate(-20 -14)" style="mix-blend-mode:screen">
  <path d="m28.78 21.062c0 0.8312-0.6738 1.505-1.505 1.505s-1.505-0.6738-1.505-1.505c0-0.8311 0.6738-1.505 1.505-1.505s1.505 0.6739 1.505 1.505z" fill="#f8f9e5" opacity=".518"/>
 </g>
</svg>
