<svg width="20" height="18" viewBox="0 0 20 18" fill="none" xmlns="http://www.w3.org/2000/svg">
<path d="M7.49967 17.4997H14.9997C15.6913 17.4997 16.283 17.083 16.533 16.483L19.0497 10.608C19.1247 10.4163 19.1663 10.2163 19.1663 9.99967V8.33301C19.1663 7.41634 18.4163 6.66634 17.4997 6.66634H12.2413L13.033 2.85801L13.058 2.59134C13.058 2.24967 12.9163 1.93301 12.6913 1.70801L11.808 0.833008L6.31634 6.32468C6.01634 6.62467 5.83301 7.04134 5.83301 7.49967V15.833C5.83301 16.7497 6.58301 17.4997 7.49967 17.4997ZM7.49967 7.49967L11.1163 3.88301L9.99967 8.33301H17.4997V9.99967L14.9997 15.833H7.49967V7.49967ZM0.833008 7.49967H4.16634V17.4997H0.833008V7.49967Z" fill="#696F70"/>
</svg>
