<svg width="23" height="22" viewBox="0 0 23 22" fill="none" xmlns="http://www.w3.org/2000/svg">
<path fill-rule="evenodd" clip-rule="evenodd" d="M5.82491 13.8297L5.05839 14.3148L9.21983 10.1442C9.66453 9.69802 10.2637 9.43988 10.8934 9.42317C11.3667 9.4106 11.83 9.53512 12.2295 9.77687C12.3605 9.85611 12.4846 9.94794 12.6 10.0517L12.707 10.1409L12.7132 10.146L12.7189 10.1516C12.8548 10.2847 13.038 10.3583 13.2282 10.3563C13.4185 10.3543 13.6001 10.2768 13.7331 10.1409C13.8662 10.0049 13.9398 9.82172 13.9378 9.63151C13.9358 9.4413 13.8583 9.25968 13.7224 9.12661L13.7125 9.11696L13.7041 9.10605C13.6584 9.04698 13.6099 8.99014 13.5587 8.93574C12.8155 8.29237 11.8561 7.95429 10.8735 7.98979C9.88764 8.0254 8.9522 8.43438 8.25663 9.13388L8.25546 9.13506L8.25546 9.13505L4.04223 13.3025C3.36266 14.044 2.99521 15.019 3.0165 16.0247C3.03783 17.032 3.44746 17.9921 4.15986 18.7045C4.87226 19.4169 5.83234 19.8265 6.8396 19.8478C7.84586 19.8691 8.82148 19.5013 9.56312 18.8209L11.1425 17.2781C11.2627 17.145 11.3287 16.9717 11.3274 16.7922C11.326 16.611 11.2561 16.4371 11.1317 16.3054C11.0072 16.1737 10.8376 16.0941 10.6568 16.0824C10.4787 16.071 10.3028 16.1264 10.1635 16.2376L8.54853 17.807C8.08567 18.2693 7.45821 18.529 6.80398 18.529C6.14926 18.529 5.52135 18.2689 5.05839 17.806C4.59543 17.343 4.33534 16.7151 4.33534 16.0604C4.33534 15.4057 4.59537 14.7779 5.05823 14.3149L5.82477 13.8299L5.82491 13.8297ZM14.1671 3.1776L14.1683 3.17639C14.9019 2.4473 15.8942 2.03809 16.9286 2.03809C17.9625 2.03809 18.9544 2.44698 19.688 3.17552C20.4119 3.91368 20.8145 4.90818 20.808 5.94208C20.8014 6.9764 20.3859 7.96612 19.6522 8.69515L19.6517 8.69561L15.4809 12.8664L15.4808 12.8665C14.7841 13.5642 13.8489 13.972 12.8635 14.0076C11.8782 14.0432 10.916 13.704 10.1708 13.0584L10.1708 13.0583L10.1661 13.0544C10.0981 12.9991 10.0333 12.9399 9.97198 12.8772L9.97201 12.8772L9.96889 12.8741C9.83297 12.741 9.75547 12.5594 9.75346 12.3692C9.75144 12.179 9.82507 11.9958 9.95814 11.8599C10.0912 11.7239 10.2728 11.6464 10.463 11.6444C10.6533 11.6424 10.8365 11.716 10.9724 11.8491L10.9781 11.8547L10.9843 11.8598L11.0913 11.9491C11.5587 12.3693 12.1695 12.5942 12.7979 12.5776C13.4276 12.5608 14.0268 12.3027 14.4715 11.8566L18.6329 7.68595L18.6331 7.68579C19.0959 7.22285 19.3559 6.59501 19.3559 5.94036C19.3559 5.28564 19.0959 4.65773 18.6329 4.19478C18.1699 3.73182 17.542 3.47173 16.8873 3.47173C16.2327 3.47173 15.6049 3.73171 15.142 4.19448L15.1417 4.19478L13.5636 5.76374C13.4245 5.87456 13.2489 5.92973 13.0712 5.91829C12.8904 5.90665 12.7207 5.82697 12.5963 5.69529C12.4719 5.5636 12.4019 5.38968 12.4006 5.20851C12.3992 5.02908 12.4652 4.85572 12.5854 4.72267L14.1671 3.1776L14.1671 3.1776Z" fill="#A4A3B4"/>
</svg>
