<svg width="81" height="81" viewBox="0 0 81 81" fill="none" xmlns="http://www.w3.org/2000/svg">
<rect width="81" height="81" rx="5" fill="#C4C4C4"/>
<path d="M45.75 36H41.55V38H45.75C47.4825 38 48.9 39.35 48.9 41C48.9 42.65 47.4825 44 45.75 44H41.55V46H45.75C48.648 46 51 43.76 51 41C51 38.24 48.648 36 45.75 36ZM39.45 44H35.25C33.5175 44 32.1 42.65 32.1 41C32.1 39.35 33.5175 38 35.25 38H39.45V36H35.25C32.352 36 30 38.24 30 41C30 43.76 32.352 46 35.25 46H39.45V44ZM36.3 40H44.7V42H36.3V40Z" fill="white"/>
</svg>
