<svg width="14.93" height="15.01" viewBox="0 0 16 16" fill="none" xmlns="http://www.w3.org/2000/svg">
<path d="M10.7825 8.53272C11.5178 7.95421 12.0545 7.16091 12.3179 6.26317C12.5814 5.36544 12.5584 4.40792 12.2523 3.52382C11.9462 2.63972 11.3722 1.87301 10.61 1.33036C9.84791 0.787705 8.93559 0.496094 8 0.496094C7.06441 0.496094 6.15208 0.787705 5.38994 1.33036C4.62781 1.87301 4.05376 2.63972 3.74766 3.52382C3.44156 4.40792 3.41863 5.36544 3.68207 6.26317C3.9455 7.16091 4.4822 7.95421 5.2175 8.53272C3.95756 9.0375 2.85821 9.87473 2.03667 10.9552C1.21512 12.0356 0.70217 13.3187 0.552498 14.6677C0.541663 14.7662 0.550335 14.8659 0.578017 14.961C0.605698 15.0562 0.651848 15.1449 0.713831 15.2222C0.839012 15.3783 1.02109 15.4783 1.22 15.5002C1.41891 15.5221 1.61837 15.4641 1.77449 15.3389C1.93062 15.2137 2.03062 15.0316 2.0525 14.8327C2.21719 13.3666 2.91626 12.0126 4.01616 11.0293C5.11606 10.046 6.53967 9.50249 8.015 9.50249C9.49032 9.50249 10.9139 10.046 12.0138 11.0293C13.1137 12.0126 13.8128 13.3666 13.9775 14.8327C13.9979 15.017 14.0858 15.1872 14.2243 15.3105C14.3628 15.4337 14.5421 15.5013 14.7275 15.5002H14.81C15.0066 15.4776 15.1863 15.3782 15.3099 15.2237C15.4335 15.0691 15.4911 14.872 15.47 14.6752C15.3196 13.3224 14.8039 12.036 13.9781 10.9539C13.1524 9.87178 12.0477 9.03483 10.7825 8.53272ZM8 8.00022C7.40665 8.00022 6.82663 7.82427 6.33329 7.49463C5.83994 7.16498 5.45542 6.69645 5.22836 6.14827C5.0013 5.60009 4.94189 4.99689 5.05764 4.41495C5.1734 3.833 5.45912 3.29845 5.87868 2.8789C6.29823 2.45934 6.83278 2.17362 7.41473 2.05786C7.99667 1.9421 8.59987 2.00151 9.14805 2.22858C9.69623 2.45564 10.1648 2.84016 10.4944 3.33351C10.824 3.82685 11 4.40687 11 5.00022C11 5.79587 10.6839 6.55893 10.1213 7.12154C9.55871 7.68415 8.79565 8.00022 8 8.00022Z" fill="#A4A3B4"/>
</svg>
