<svg width="10" height="14" viewBox="0 0 10 14" fill="none" xmlns="http://www.w3.org/2000/svg">
<path d="M0 0V11.3503L4.63749 14L9.27498 11.3503V0H0ZM8.11561 10.6778L4.63749 12.6656L1.15937 10.6778V1.15937H8.11561V10.6778Z" fill="#373F41"/>
<path d="M4.63726 3.62304L6.60819 5.10124L7.30382 4.17375L4.63726 2.17383L1.9707 4.17375L2.66633 5.10124L4.63726 3.62304Z" fill="#373F41"/>
<path d="M4.63726 5.9414L6.60819 7.4196L7.30382 6.4921L4.63726 4.49219L1.9707 6.4921L2.66633 7.4196L4.63726 5.9414Z" fill="#373F41"/>
<path d="M4.63726 8.25976L6.60819 9.73796L7.30382 8.81046L4.63726 6.81055L1.9707 8.81046L2.66633 9.73796L4.63726 8.25976Z" fill="#373F41"/>
</svg>
