<svg width="22" height="22" viewBox="0 0 22 22" fill="none" xmlns="http://www.w3.org/2000/svg">
<path d="M15.7911 9.16966C15.4637 8.73661 14.8722 8.65212 14.4603 8.63099C13.9639 8.59931 13.5097 8.62043 12.9816 8.66268C12.9605 8.59931 12.9394 8.462 12.9605 8.17682C13.0344 7.33185 13.1295 6.70867 13.2034 6.21225L13.214 6.17001C13.2985 5.63133 13.0027 5.17716 12.4957 5.03985C12.0204 4.9131 11.3973 5.0821 11.1649 5.6419C11.1332 5.71583 11.1015 5.81089 11.0593 5.92708C10.7635 6.70868 10.0981 8.49368 9.02078 9.13798V9.04292C9.02078 8.90561 8.91516 8.79999 8.77785 8.79999H6.24293C6.10562 8.79999 6 8.90561 6 9.04292V14.324C6 14.4613 6.10562 14.5669 6.24293 14.5669H8.77785C8.91516 14.5669 9.02078 14.4613 9.02078 14.324V14.2712C9.86576 14.5036 11.8937 15 13.3407 15C14.1012 15 15.0518 15 15.3158 13.8065C15.5271 12.8664 15.8017 11.4722 15.9813 10.5111C16.108 9.93014 16.0446 9.48653 15.7911 9.16966ZM15.3687 10.4054C15.1891 11.3666 14.9145 12.7397 14.7032 13.6797C14.5659 14.2923 14.2913 14.3768 13.3407 14.3768C11.9465 14.3768 9.9397 13.8698 9.14753 13.6586C9.0736 13.6375 9.03135 13.5847 9.02078 13.5107V11.8208V9.95127C9.02078 9.88789 9.05247 9.82452 9.10528 9.80339C10.5206 9.14854 11.2811 7.1206 11.6402 6.14888C11.6825 6.04326 11.7141 5.9482 11.7458 5.88482C11.8198 5.71583 11.9993 5.63133 12.1789 5.63133C12.2317 5.63133 12.2845 5.64189 12.3267 5.65246C12.4746 5.6947 12.6331 5.80033 12.5908 6.08551L12.5802 6.12775C12.5063 6.63474 12.4007 7.25791 12.3267 8.13457C12.2845 8.63099 12.3584 8.96899 12.538 9.14854C12.6436 9.25417 12.7915 9.30697 12.9499 9.29641C13.4886 9.2436 13.9216 9.22248 14.3969 9.25417C14.8511 9.28585 15.1363 9.38091 15.2736 9.54991C15.4215 9.7189 15.4532 10.0041 15.3687 10.4054Z" fill="#517926"/>
<circle cx="11" cy="11" r="10.5" stroke="#517926"/>
</svg>
