<svg width="22" height="21" viewBox="0 0 22 21" fill="none" xmlns="http://www.w3.org/2000/svg">
<path d="M19.6139 18.1898C20.2406 17.3498 20.6707 16.3797 20.8724 15.3512C21.0741 14.3228 21.0422 13.2621 20.7792 12.2476C20.5163 11.2331 20.0288 10.2905 19.3529 9.48956C18.6769 8.68859 17.8298 8.04962 16.8739 7.61981C16.6657 6.42191 16.1872 5.28723 15.4747 4.30198C14.7623 3.31673 13.8346 2.50684 12.7622 1.93384C11.6899 1.36084 10.501 1.03981 9.28595 0.995147C8.07092 0.950481 6.86168 1.18335 5.75013 1.67607C4.63858 2.16879 3.65397 2.90838 2.87109 3.83866C2.08822 4.76894 1.52769 5.86543 1.23209 7.04481C0.936495 8.22418 0.913609 9.45542 1.16517 10.645C1.41674 11.8345 1.93614 12.9511 2.6839 13.9098L1.2939 15.2898C1.15514 15.4304 1.06114 15.609 1.02377 15.803C0.986395 15.997 1.00732 16.1977 1.0839 16.3798C1.15892 16.5624 1.28632 16.7188 1.45004 16.8291C1.61376 16.9394 1.80647 16.9988 2.0039 16.9998H7.6939C8.26054 18.1944 9.15393 19.2041 10.2706 19.912C11.3874 20.6199 12.6817 20.9971 14.0039 20.9998H20.0039C20.2013 20.9988 20.394 20.9394 20.5578 20.8291C20.7215 20.7188 20.8489 20.5624 20.9239 20.3798C21.0005 20.1977 21.0214 19.997 20.984 19.803C20.9467 19.609 20.8527 19.4304 20.7139 19.2898L19.6139 18.1898ZM7.0039 13.9998C7.00527 14.3347 7.03201 14.669 7.0839 14.9998H4.4139L4.7639 14.6598C4.85763 14.5668 4.93202 14.4562 4.98279 14.3344C5.03356 14.2125 5.0597 14.0818 5.0597 13.9498C5.0597 13.8178 5.03356 13.6871 4.98279 13.5652C4.93202 13.4434 4.85763 13.3328 4.7639 13.2398C4.20346 12.6855 3.75915 12.0251 3.45695 11.297C3.15475 10.569 3.00073 9.78805 3.0039 8.99981C3.0039 7.40851 3.63604 5.88239 4.76126 4.75717C5.88648 3.63195 7.4126 2.99981 9.0039 2.99981C10.2456 2.99235 11.4584 3.37419 12.4718 4.09167C13.4853 4.80915 14.2484 5.82619 14.6539 6.99981H14.0039C12.1474 6.99981 10.3669 7.73731 9.05415 9.05006C7.7414 10.3628 7.0039 12.1433 7.0039 13.9998ZM17.5439 18.9998L17.5939 19.0498H14.0039C12.8472 19.0477 11.7271 18.6447 10.8342 17.9094C9.94137 17.1741 9.33107 16.152 9.10729 15.0172C8.88352 13.8823 9.06011 12.705 9.60697 11.6858C10.1538 10.6666 11.0372 9.86852 12.1065 9.42751C13.1757 8.9865 14.3649 8.92986 15.4712 9.26724C16.5776 9.60461 17.5328 10.3151 18.174 11.2778C18.8153 12.2404 19.103 13.3956 18.9881 14.5465C18.8732 15.6974 18.3628 16.773 17.5439 17.5898C17.3555 17.7744 17.2477 18.026 17.2439 18.2898C17.2444 18.4221 17.2712 18.553 17.3227 18.6749C17.3742 18.7968 17.4494 18.9072 17.5439 18.9998Z" fill="#FF7F47"/>
</svg>
