<svg width="46" height="46" viewBox="0 0 46 46" fill="none" xmlns="http://www.w3.org/2000/svg">
<g filter="url(#filter0_d)">
<circle cx="23" cy="19" r="18" fill="#F5F5F5"/>
<path d="M32.0014 18.6727L32.0016 18.6732C32.0466 18.7762 32.0698 18.8874 32.0698 18.9998C32.0698 19.1123 32.0466 19.2235 32.0016 19.3265L32.0014 19.3269C30.1608 23.6005 26.7075 26.2332 22.9999 26.2332C19.2923 26.2332 15.8391 23.6005 13.9985 19.3269L13.9983 19.3265C13.9533 19.2235 13.9301 19.1123 13.9301 18.9998C13.9301 18.8874 13.9533 18.7762 13.9983 18.6732L13.9984 18.6727C15.8391 14.3992 19.2923 11.7665 22.9999 11.7665C26.7075 11.7665 30.1608 14.3992 32.0014 18.6727ZM15.6676 18.9576L15.6479 18.9998L15.6676 19.0421C17.264 22.4655 20.043 24.5998 22.9999 24.5998C25.9569 24.5998 28.7359 22.4655 30.3322 19.0421L30.3519 18.9998L30.3322 18.9576C28.7359 15.5342 25.9569 13.3998 22.9999 13.3998C20.043 13.3998 17.264 15.5342 15.6676 18.9576ZM21.0184 16.0343C21.6049 15.6424 22.2945 15.4332 22.9999 15.4332C23.9459 15.4332 24.8531 15.8089 25.522 16.4778C26.1908 17.1467 26.5666 18.0539 26.5666 18.9998C26.5666 19.7053 26.3574 20.3948 25.9655 20.9814C25.5736 21.5679 25.0166 22.0251 24.3648 22.295C23.7131 22.565 22.996 22.6356 22.3041 22.498C21.6123 22.3604 20.9767 22.0207 20.4779 21.5219C19.9791 21.023 19.6394 20.3875 19.5018 19.6957C19.3642 19.0038 19.4348 18.2867 19.7048 17.6349C19.9747 16.9832 20.4319 16.4262 21.0184 16.0343ZM21.9258 20.6073C22.2438 20.8198 22.6176 20.9332 22.9999 20.9332C23.5127 20.9332 24.0044 20.7295 24.367 20.3669C24.7296 20.0043 24.9333 19.5126 24.9333 18.9998C24.9333 18.6175 24.8199 18.2437 24.6074 17.9257C24.395 17.6078 24.0931 17.36 23.7398 17.2137C23.3865 17.0673 22.9978 17.0291 22.6228 17.1037C22.2477 17.1782 21.9032 17.3624 21.6329 17.6328C21.3625 17.9031 21.1784 18.2476 21.1038 18.6227C21.0292 18.9977 21.0674 19.3864 21.2138 19.7397C21.3601 20.093 21.6079 20.3949 21.9258 20.6073Z" fill="#4F8DFF" stroke="#F5F5F5" stroke-width="0.2"/>
</g>
<defs>
<filter id="filter0_d" x="0" y="0" width="46" height="46" filterUnits="userSpaceOnUse" color-interpolation-filters="sRGB">
<feFlood flood-opacity="0" result="BackgroundImageFix"/>
<feColorMatrix in="SourceAlpha" type="matrix" values="0 0 0 0 0 0 0 0 0 0 0 0 0 0 0 0 0 0 127 0"/>
<feOffset dy="4"/>
<feGaussianBlur stdDeviation="2.5"/>
<feColorMatrix type="matrix" values="0 0 0 0 0 0 0 0 0 0 0 0 0 0 0 0 0 0 0.1 0"/>
<feBlend mode="normal" in2="BackgroundImageFix" result="effect1_dropShadow"/>
<feBlend mode="normal" in="SourceGraphic" in2="effect1_dropShadow" result="shape"/>
</filter>
</defs>
</svg>
