<svg width="100%" height="100%" viewBox="0 0 13 17" fill="none" xmlns="http://www.w3.org/2000/svg">
<path d="M12.8334 6.07766C12.8252 6.00494 12.8092 5.93329 12.7859 5.86391V5.79266C12.7478 5.71126 12.6971 5.63644 12.6355 5.571L7.8855 0.820996C7.82005 0.759417 7.74523 0.708644 7.66383 0.670579H7.59258L7.33925 0.583496H2.54175C1.91186 0.583496 1.30777 0.833719 0.862369 1.27912C0.416971 1.72452 0.166748 2.32861 0.166748 2.9585V14.0418C0.166748 14.6717 0.416971 15.2758 0.862369 15.7212C1.30777 16.1666 1.91186 16.4168 2.54175 16.4168H10.4584C11.0883 16.4168 11.6924 16.1666 12.1378 15.7212C12.5832 15.2758 12.8334 14.6717 12.8334 14.0418V6.12516V6.07766ZM8.08341 3.28308L10.1338 5.3335H8.08341V3.28308ZM11.2501 14.0418C11.2501 14.2518 11.1667 14.4532 11.0182 14.6016C10.8697 14.7501 10.6684 14.8335 10.4584 14.8335H2.54175C2.33178 14.8335 2.13042 14.7501 1.98195 14.6016C1.83349 14.4532 1.75008 14.2518 1.75008 14.0418V2.9585C1.75008 2.74853 1.83349 2.54717 1.98195 2.3987C2.13042 2.25024 2.33178 2.16683 2.54175 2.16683H6.50008V6.12516C6.50008 6.33513 6.58349 6.53649 6.73195 6.68496C6.88042 6.83342 7.08178 6.91683 7.29175 6.91683H11.2501V14.0418Z" fill="#D5BC9E"/>
</svg>
