<svg width="24" height="20" viewBox="0 0 17 17" fill="none" xmlns="http://www.w3.org/2000/svg">
<path d="M8.49992 7.7085C8.28996 7.7085 8.0886 7.7919 7.94013 7.94037C7.79166 8.08884 7.70826 8.2902 7.70826 8.50016V11.6668C7.70826 11.8768 7.79166 12.0782 7.94013 12.2266C8.0886 12.3751 8.28996 12.4585 8.49992 12.4585C8.70988 12.4585 8.91125 12.3751 9.05971 12.2266C9.20818 12.0782 9.29159 11.8768 9.29159 11.6668V8.50016C9.29159 8.2902 9.20818 8.08884 9.05971 7.94037C8.91125 7.7919 8.70988 7.7085 8.49992 7.7085ZM8.80076 4.60516C8.60802 4.52598 8.39183 4.52598 8.19909 4.60516C8.10191 4.64284 8.01313 4.69934 7.93784 4.77141C7.86791 4.84836 7.81168 4.93672 7.77159 5.03266C7.72727 5.12662 7.70558 5.22965 7.70826 5.3335C7.70765 5.43768 7.72762 5.54097 7.76702 5.63742C7.80642 5.73388 7.86447 5.82161 7.93784 5.89558C8.01479 5.96551 8.10315 6.02174 8.19909 6.06183C8.31902 6.1111 8.44923 6.13016 8.57825 6.11733C8.70728 6.10451 8.83118 6.06018 8.93907 5.98826C9.04696 5.91633 9.13552 5.81901 9.19699 5.70484C9.25846 5.59068 9.29094 5.46316 9.29159 5.3335C9.28867 5.12389 9.20667 4.92312 9.06201 4.77141C8.98672 4.69934 8.89793 4.64284 8.80076 4.60516ZM8.49992 0.583496C6.93415 0.583496 5.40355 1.0478 4.10166 1.91769C2.79977 2.78759 1.78507 4.024 1.18588 5.47058C0.586682 6.91717 0.429906 8.50894 0.735372 10.0446C1.04084 11.5803 1.79483 12.9909 2.90199 14.0981C4.00916 15.2053 5.41977 15.9592 6.95546 16.2647C8.49114 16.5702 10.0829 16.4134 11.5295 15.8142C12.9761 15.215 14.2125 14.2003 15.0824 12.8984C15.9523 11.5965 16.4166 10.0659 16.4166 8.50016C16.4166 7.46053 16.2118 6.43108 15.814 5.47058C15.4161 4.51009 14.833 3.63736 14.0978 2.90223C13.3627 2.1671 12.49 1.58397 11.5295 1.18612C10.569 0.788267 9.53955 0.583496 8.49992 0.583496ZM8.49992 14.8335C7.24731 14.8335 6.02282 14.4621 4.98131 13.7661C3.9398 13.0702 3.12804 12.0811 2.64869 10.9238C2.16933 9.76656 2.04391 8.49314 2.28828 7.26459C2.53266 6.03604 3.13585 4.90755 4.02158 4.02182C4.90731 3.13609 6.0358 2.5329 7.26435 2.28852C8.4929 2.04415 9.76632 2.16957 10.9236 2.64893C12.0808 3.12828 13.07 3.94004 13.7659 4.98155C14.4618 6.02306 14.8333 7.24755 14.8333 8.50016C14.8333 10.1799 14.166 11.7908 12.9783 12.9785C11.7905 14.1662 10.1796 14.8335 8.49992 14.8335Z" fill="#A8B6CD"/>
</svg>
