<svg width="512" height="360" viewBox="0 0 512 360" fill="none" xmlns="http://www.w3.org/2000/svg">
<g clip-path="url(#clip0)">
<path opacity="0.1" d="M454.421 304.046C450.694 305.969 446.789 307.628 442.937 309.283C428.704 315.295 414.257 321.36 398.968 323.422C370.252 327.244 340.619 316.771 312.407 323.306C288.774 328.764 269.227 339.626 246.139 347.074C235.403 350.536 224.233 351.892 212.964 351.892H211.508C210.113 351.874 208.728 351.839 207.352 351.788C195.926 351.359 184.452 349.666 173.251 347.503C137.882 340.695 101.884 334.075 74.8439 311.1C153.578 296.709 315.766 274.621 454.421 304.046Z" fill="#242122"/>
<path opacity="0.25" d="M481.864 131.781V98.2654H461.974V131.781H438.419V79.9364H421.146V41.1843H407.013V1.38348H377.7V41.1833H363.567V79.9355H346.818V33.3286H337.396V9.76347H331.638V33.3296H298.138V182.055H272.488V166.346H256.785V182.055H231.138V131.782H185.075V98.2664H165.184V131.782H164.138V196.196H143.199V158.49H118.075V196.196H97.1375V79.9364H80.9108V41.1843H21.2382V79.9364H5.53479V284.696H97.1365H164.137H231.137H298.137H346.817H438.418H505.418V131.781H481.864Z" fill="#2A78CD"/>
<path opacity="0.2" d="M37.466 91.9807H15.4808V104.549H37.466V91.9807Z" fill="#2A78CD"/>
<path opacity="0.2" d="M64.6842 104.55H86.6683V91.9807H64.6842V104.55Z" fill="#2A78CD"/>
<path opacity="0.2" d="M37.466 116.593H15.4808V129.162H37.466V116.593Z" fill="#2A78CD"/>
<path opacity="0.2" d="M64.6842 129.163H86.6683V116.594H64.6842V129.163Z" fill="#2A78CD"/>
<path opacity="0.2" d="M37.466 141.207H15.4808V153.776H37.466V141.207Z" fill="#2A78CD"/>
<path opacity="0.2" d="M64.6842 153.776H86.6683V141.207H64.6842V153.776Z" fill="#2A78CD"/>
<path opacity="0.2" d="M37.466 165.82H15.4808V178.388H37.466V165.82Z" fill="#2A78CD"/>
<path opacity="0.2" d="M64.6842 178.388H86.6683V165.82H64.6842V178.388Z" fill="#2A78CD"/>
<path opacity="0.2" d="M37.466 190.434H15.4808V203.002H37.466V190.434Z" fill="#2A78CD"/>
<path opacity="0.2" d="M64.6842 203.002H86.6683V190.434H64.6842V203.002Z" fill="#2A78CD"/>
<path opacity="0.2" d="M37.466 215.046H15.4808V227.615H37.466V215.046Z" fill="#2A78CD"/>
<path opacity="0.2" d="M64.6842 227.615H86.6683V215.046H64.6842V227.615Z" fill="#2A78CD"/>
<path opacity="0.2" d="M37.466 239.659H15.4808V252.227H37.466V239.659Z" fill="#2A78CD"/>
<path opacity="0.2" d="M64.6842 252.227H86.6683V239.659H64.6842V252.227Z" fill="#2A78CD"/>
<path opacity="0.2" d="M156.286 208.761H104.989V215.046H156.286V208.761Z" fill="#2A78CD"/>
<path opacity="0.2" d="M156.286 218.188H104.989V224.474H156.286V218.188Z" fill="#2A78CD"/>
<path opacity="0.2" d="M156.286 227.615H104.989V233.9H156.286V227.615Z" fill="#2A78CD"/>
<path opacity="0.2" d="M290.285 211.904H238.988V218.188H290.285V211.904Z" fill="#2A78CD"/>
<path opacity="0.2" d="M290.285 221.33H238.988V227.615H290.285V221.33Z" fill="#2A78CD"/>
<path opacity="0.2" d="M290.285 230.757H238.988V237.042H290.285V230.757Z" fill="#2A78CD"/>
<path opacity="0.2" d="M156.286 237.041H104.989V243.325H156.286V237.041Z" fill="#2A78CD"/>
<path opacity="0.2" d="M156.286 246.467H104.989V252.752H156.286V246.467Z" fill="#2A78CD"/>
<path opacity="0.2" d="M156.286 255.894H104.989V262.177H156.286V255.894Z" fill="#2A78CD"/>
<path opacity="0.2" d="M189.263 143.827H175.129V162.156H189.263V143.827Z" fill="#2A78CD"/>
<path opacity="0.2" d="M206.012 162.155H220.146V143.826H206.012V162.155Z" fill="#2A78CD"/>
<path opacity="0.2" d="M189.263 173.152H175.129V191.48H189.263V173.152Z" fill="#2A78CD"/>
<path opacity="0.2" d="M206.012 191.48H220.146V173.152H206.012V191.48Z" fill="#2A78CD"/>
<path opacity="0.2" d="M189.263 202.478H175.129V220.807H189.263V202.478Z" fill="#2A78CD"/>
<path opacity="0.2" d="M206.012 220.807H220.146V202.478H206.012V220.807Z" fill="#2A78CD"/>
<path opacity="0.2" d="M189.263 231.804H175.129V250.132H189.263V231.804Z" fill="#2A78CD"/>
<path opacity="0.2" d="M206.012 250.132H220.146V231.804H206.012V250.132Z" fill="#2A78CD"/>
<path opacity="0.2" d="M316.981 45.3738H298.137V69.4632H316.981V45.3738Z" fill="#2A78CD"/>
<path opacity="0.2" d="M316.981 79.9364H298.137V104.026H316.981V79.9364Z" fill="#2A78CD"/>
<path opacity="0.2" d="M316.981 114.499H298.137V138.589H316.981V114.499Z" fill="#2A78CD"/>
<path opacity="0.2" d="M316.981 149.062H298.137V173.151H316.981V149.062Z" fill="#2A78CD"/>
<path opacity="0.2" d="M316.981 183.625H298.137V207.715H316.981V183.625Z" fill="#2A78CD"/>
<path opacity="0.2" d="M316.981 218.188H298.137V242.278H316.981V218.188Z" fill="#2A78CD"/>
<path opacity="0.2" d="M427.689 94.5992H357.547V115.022H427.689V94.5992Z" fill="#2A78CD"/>
<path opacity="0.2" d="M427.949 138.589H357.808V159.012H427.949V138.589Z" fill="#2A78CD"/>
<path opacity="0.2" d="M428.212 182.578H358.071V203.002H428.212V182.578Z" fill="#2A78CD"/>
<path opacity="0.2" d="M428.473 226.567H358.333V246.992H428.473V226.567Z" fill="#2A78CD"/>
<path opacity="0.2" d="M30.6609 52.1808H21.2393V72.0807H30.6609V52.1808Z" fill="#2A78CD"/>
<path opacity="0.2" d="M505.419 143.827H481.865V174.2H505.419V143.827Z" fill="#2A78CD"/>
<path opacity="0.2" d="M505.419 187.815H481.865V218.187H505.419V187.815Z" fill="#2A78CD"/>
<path opacity="0.2" d="M505.419 231.804H481.865V262.176H505.419V231.804Z" fill="#2A78CD"/>
<path d="M68.2068 317.102C68.2068 317.102 55.2938 273.238 70.6301 240.953C77.069 227.405 79.2043 212.192 76.2303 197.488C74.8088 190.506 72.7507 183.669 70.0804 177.063" stroke="#6B6C76" stroke-width="2" stroke-miterlimit="10"/>
<path d="M79.6026 156.687C79.6026 162.066 69.8715 177.635 69.8715 177.635C69.8715 177.635 60.1403 162.044 60.1403 156.687C60.111 155.389 60.3395 154.1 60.815 152.893C61.2895 151.685 62.0022 150.586 62.9082 149.657C63.8152 148.73 64.897 147.993 66.093 147.489C67.289 146.985 68.5719 146.726 69.8685 146.726C71.1651 146.726 72.45 146.985 73.645 147.489C74.84 147.993 75.9218 148.73 76.8288 149.657C77.7358 150.586 78.4466 151.685 78.9231 152.893C79.3976 154.1 79.628 155.389 79.5967 156.687H79.6026Z" fill="#2A78CD"/>
<path d="M95.7033 186.464C92.7831 190.977 76.1483 198.77 76.1483 198.77C76.1483 198.77 76.452 180.394 79.3722 175.88C80.8054 173.784 83.0002 172.33 85.4889 171.83C87.9776 171.329 90.5629 171.822 92.6943 173.203C94.8256 174.583 96.3331 176.741 96.8945 179.218C97.4568 181.695 97.0302 184.292 95.7043 186.459V186.464H95.7033Z" fill="#2A78CD"/>
<path d="M94.9965 237.351C90.1968 239.77 71.9081 238.1 71.9081 238.1C71.9081 238.1 81.44 222.389 86.2397 219.97C88.537 218.868 91.1741 218.71 93.5847 219.534C95.9962 220.354 97.9889 222.089 99.1361 224.364C100.283 226.639 100.493 229.274 99.72 231.702C98.9477 234.13 97.2537 236.159 95.0023 237.352H94.9965V237.351Z" fill="#2A78CD"/>
<path d="M85.7994 275.731C81.4811 278.925 63.165 280.371 63.165 280.371C63.165 280.371 69.9066 263.278 74.225 260.078C75.2521 259.305 76.4207 258.744 77.6646 258.426C78.9094 258.108 80.205 258.04 81.4752 258.224C82.7464 258.41 83.9688 258.845 85.0701 259.505C86.1724 260.165 87.1331 261.035 87.8976 262.07C88.6611 263.103 89.2137 264.277 89.5212 265.524C89.8288 266.771 89.8873 268.068 89.693 269.338C89.4978 270.608 89.0536 271.827 88.3848 272.924C87.716 274.022 86.8382 274.974 85.7994 275.731Z" fill="#2A78CD"/>
<path d="M55.7175 199.812C59.5701 203.556 77.5298 207.438 77.5298 207.438C77.5298 207.438 73.1324 189.596 69.2807 185.847C68.3718 184.92 67.2871 184.184 66.0891 183.683C64.8921 183.182 63.6073 182.927 62.3107 182.929C61.0131 182.933 59.7292 183.196 58.5352 183.704C57.3402 184.21 56.2603 184.95 55.3553 185.881C54.4512 186.812 53.7433 187.915 53.2708 189.123C52.7992 190.333 52.5727 191.625 52.6069 192.921C52.6411 194.219 52.9349 195.498 53.47 196.68C54.005 197.863 54.7704 198.926 55.7233 199.807L55.7175 199.812Z" fill="#2A78CD"/>
<path d="M45.5314 244.834C50.3311 247.254 68.6198 245.583 68.6198 245.583C68.6198 245.583 59.0878 229.872 54.2872 227.454C51.9908 226.351 49.3538 226.194 46.9432 227.016C44.5326 227.838 42.538 229.571 41.3908 231.847C40.2436 234.122 40.0346 236.757 40.8069 239.186C41.5802 241.614 43.2731 243.641 45.5246 244.835H45.5314V244.834Z" fill="#2A78CD"/>
<path d="M41.6319 289.955C45.9502 293.148 64.2653 294.594 64.2653 294.594C64.2653 294.594 57.5237 277.494 53.2005 274.301C51.1238 272.79 48.5356 272.162 45.9981 272.55C43.4596 272.941 41.1789 274.319 39.6529 276.384C38.1269 278.448 37.4766 281.035 37.8466 283.576C38.2167 286.117 39.5757 288.41 41.626 289.955H41.6319Z" fill="#2A78CD"/>
<path d="M79.6026 156.687C79.6026 162.066 69.8715 177.635 69.8715 177.635C69.8715 177.635 60.1403 162.044 60.1403 156.687C60.111 155.389 60.3395 154.1 60.815 152.893C61.2895 151.685 62.0022 150.586 62.9082 149.657C63.8152 148.73 64.897 147.993 66.093 147.489C67.289 146.985 68.5719 146.726 69.8685 146.726C71.1651 146.726 72.45 146.985 73.645 147.489C74.84 147.993 75.9218 148.73 76.8288 149.657C77.7358 150.586 78.4466 151.685 78.9231 152.893C79.3976 154.1 79.628 155.389 79.5967 156.687H79.6026Z" fill="#2A78CD"/>
<path d="M95.7033 186.464C92.7831 190.977 76.1483 198.77 76.1483 198.77C76.1483 198.77 76.452 180.394 79.3722 175.88C80.8054 173.784 83.0002 172.33 85.4889 171.83C87.9776 171.329 90.5629 171.822 92.6943 173.203C94.8256 174.583 96.3331 176.741 96.8945 179.218C97.4568 181.695 97.0302 184.292 95.7043 186.459V186.464H95.7033Z" fill="#2A78CD"/>
<path d="M94.9965 237.351C90.1968 239.77 71.9081 238.1 71.9081 238.1C71.9081 238.1 81.44 222.389 86.2397 219.97C88.537 218.868 91.1741 218.71 93.5847 219.534C95.9962 220.354 97.9889 222.089 99.1361 224.364C100.283 226.639 100.493 229.274 99.72 231.702C98.9477 234.13 97.2537 236.159 95.0023 237.352H94.9965V237.351Z" fill="#2A78CD"/>
<path d="M85.7994 275.731C81.4811 278.925 63.165 280.371 63.165 280.371C63.165 280.371 69.9066 263.278 74.225 260.078C75.2521 259.305 76.4207 258.744 77.6646 258.426C78.9094 258.108 80.205 258.04 81.4752 258.224C82.7464 258.41 83.9688 258.845 85.0701 259.505C86.1724 260.165 87.1331 261.035 87.8976 262.07C88.6611 263.103 89.2137 264.277 89.5212 265.524C89.8288 266.771 89.8873 268.068 89.693 269.338C89.4978 270.608 89.0536 271.827 88.3848 272.924C87.716 274.022 86.8382 274.974 85.7994 275.731Z" fill="#2A78CD"/>
<path d="M55.7175 199.812C59.5701 203.556 77.5298 207.438 77.5298 207.438C77.5298 207.438 73.1324 189.596 69.2807 185.847C68.3718 184.92 67.2871 184.184 66.0891 183.683C64.8921 183.182 63.6073 182.927 62.3107 182.929C61.0131 182.933 59.7292 183.196 58.5352 183.704C57.3402 184.21 56.2603 184.95 55.3553 185.881C54.4512 186.812 53.7433 187.915 53.2708 189.123C52.7992 190.333 52.5727 191.625 52.6069 192.921C52.6411 194.219 52.9349 195.498 53.47 196.68C54.005 197.863 54.7704 198.926 55.7233 199.807L55.7175 199.812Z" fill="#2A78CD"/>
<path d="M45.5314 244.834C50.3311 247.254 68.6198 245.583 68.6198 245.583C68.6198 245.583 59.0878 229.872 54.2872 227.454C51.9908 226.351 49.3538 226.194 46.9432 227.016C44.5326 227.838 42.538 229.571 41.3908 231.847C40.2436 234.122 40.0346 236.757 40.8069 239.186C41.5802 241.614 43.2731 243.641 45.5246 244.835H45.5314V244.834Z" fill="#2A78CD"/>
<path d="M41.6319 289.955C45.9502 293.148 64.2653 294.594 64.2653 294.594C64.2653 294.594 57.5237 277.494 53.2005 274.301C51.1238 272.79 48.5356 272.162 45.9981 272.55C43.4596 272.941 41.1789 274.319 39.6529 276.384C38.1269 278.448 37.4766 281.035 37.8466 283.576C38.2167 286.117 39.5757 288.41 41.626 289.955H41.6319Z" fill="#2A78CD"/>
<path d="M471.28 305.774C471.28 305.774 458.367 261.911 473.703 229.626C480.142 216.079 482.277 200.866 479.305 186.16C477.883 179.178 475.824 172.343 473.153 165.737" stroke="#696E78" stroke-width="2" stroke-miterlimit="10"/>
<path d="M482.696 145.359C482.696 150.738 472.965 166.307 472.965 166.307C472.965 166.307 463.235 150.717 463.235 145.359C463.205 144.063 463.433 142.772 463.909 141.565C464.384 140.359 465.096 139.258 466.003 138.331C466.909 137.402 467.991 136.665 469.187 136.161C470.382 135.659 471.666 135.399 472.963 135.399C474.26 135.399 475.544 135.659 476.738 136.161C477.934 136.665 479.017 137.402 479.923 138.331C480.83 139.258 481.541 140.359 482.016 141.565C482.491 142.772 482.722 144.063 482.691 145.359H482.696Z" fill="#2A78CD"/>
<path d="M498.776 175.136C495.855 179.651 479.222 187.442 479.222 187.442C479.222 187.442 479.525 169.067 482.446 164.553C483.123 163.445 484.015 162.484 485.071 161.727C486.125 160.969 487.322 160.431 488.589 160.143C489.855 159.855 491.166 159.824 492.444 160.052C493.722 160.278 494.943 160.758 496.032 161.464C497.123 162.17 498.06 163.088 498.79 164.162C499.521 165.236 500.028 166.446 500.283 167.719C500.54 168.993 500.537 170.304 500.278 171.577C500.02 172.85 499.509 174.059 498.776 175.131V175.136Z" fill="#2A78CD"/>
<path d="M498.075 226.022C493.275 228.442 474.986 226.771 474.986 226.771C474.986 226.771 484.519 211.061 489.319 208.642C491.615 207.54 494.252 207.384 496.663 208.205C499.073 209.026 501.067 210.761 502.215 213.036C503.363 215.311 503.572 217.946 502.799 220.374C502.026 222.802 500.332 224.83 498.082 226.023H498.075V226.022Z" fill="#2A78CD"/>
<path d="M488.879 264.404C484.56 267.598 466.245 269.044 466.245 269.044C466.245 269.044 472.987 251.95 477.305 248.751C479.381 247.24 481.97 246.612 484.507 247.002C487.046 247.392 489.326 248.77 490.852 250.835C492.379 252.9 493.028 255.485 492.659 258.026C492.29 260.567 490.93 262.86 488.879 264.404Z" fill="#2A78CD"/>
<path d="M458.791 188.469C462.643 192.213 480.602 196.094 480.602 196.094C480.602 196.094 476.206 178.254 472.354 174.503C470.503 172.704 468.013 171.715 465.431 171.752C462.85 171.789 460.391 172.85 458.592 174.703C456.793 176.555 455.805 179.045 455.842 181.627C455.879 184.208 456.941 186.67 458.791 188.469Z" fill="#2A78CD"/>
<path d="M448.625 233.506C453.425 235.926 471.715 234.256 471.715 234.256C471.715 234.256 462.183 218.544 457.383 216.125C455.087 215.04 452.46 214.895 450.059 215.721C447.66 216.547 445.677 218.278 444.534 220.544C443.392 222.812 443.18 225.437 443.945 227.858C444.709 230.279 446.388 232.307 448.625 233.506Z" fill="#2A78CD"/>
<path d="M444.705 278.627C449.023 281.822 467.339 283.267 467.339 283.267C467.339 283.267 460.598 266.174 456.28 262.974C454.203 261.463 451.615 260.835 449.077 261.225C446.539 261.614 444.258 262.993 442.731 265.057C441.205 267.122 440.555 269.708 440.925 272.248C441.295 274.79 442.654 277.083 444.705 278.627Z" fill="#2A78CD"/>
<path d="M413.033 301.508C413.033 301.508 406.092 277.941 414.335 260.587C417.839 253.332 418.895 245.136 417.346 237.231C416.582 233.484 415.477 229.813 414.042 226.269" stroke="#6B6C76" stroke-width="2" stroke-miterlimit="10"/>
<path d="M419.166 215.299C419.166 218.188 413.933 226.562 413.933 226.562C413.933 226.562 408.699 218.183 408.699 215.299C408.699 213.909 409.25 212.578 410.232 211.596C411.214 210.613 412.545 210.061 413.933 210.061C415.321 210.061 416.652 210.613 417.634 211.596C418.617 212.578 419.166 213.909 419.166 215.299Z" fill="#2A78CD"/>
<path d="M427.81 231.301C426.239 233.725 417.297 237.914 417.297 237.914C417.297 237.914 417.46 228.038 419.03 225.613C419.388 225.002 419.864 224.47 420.433 224.048C421.003 223.626 421.65 223.326 422.338 223.162C423.026 222.998 423.741 222.976 424.437 223.096C425.133 223.216 425.8 223.477 426.394 223.862C426.987 224.247 427.497 224.746 427.893 225.334C428.287 225.922 428.558 226.583 428.69 227.278C428.823 227.974 428.812 228.688 428.661 229.38C428.51 230.072 428.221 230.725 427.81 231.301Z" fill="#2A78CD"/>
<path d="M427.432 258.643C424.851 259.942 415.021 259.046 415.021 259.046C415.021 259.046 420.145 250.605 422.722 249.304C423.951 248.75 425.347 248.689 426.619 249.139C427.893 249.589 428.942 250.513 429.55 251.719C430.157 252.924 430.276 254.318 429.882 255.609C429.488 256.899 428.609 257.989 427.432 258.647V258.643Z" fill="#2A78CD"/>
<path d="M422.486 279.271C420.162 280.989 410.322 281.764 410.322 281.764C410.322 281.764 413.944 272.579 416.267 270.86C417.385 270.114 418.748 269.827 420.071 270.059C421.396 270.289 422.58 271.021 423.381 272.103C424.182 273.185 424.533 274.532 424.366 275.866C424.199 277.2 423.525 278.42 422.486 279.271Z" fill="#2A78CD"/>
<path d="M406.323 238.476C408.416 240.488 418.042 242.576 418.042 242.576C418.042 242.576 415.682 232.988 413.608 230.976C413.125 230.46 412.539 230.047 411.891 229.762C411.242 229.477 410.543 229.327 409.836 229.32C409.128 229.315 408.426 229.451 407.772 229.725C407.119 229.997 406.529 230.399 406.035 230.908C405.541 231.417 405.157 232.021 404.903 232.68C404.648 233.342 404.531 234.048 404.558 234.757C404.585 235.465 404.756 236.16 405.058 236.8C405.363 237.44 405.791 238.012 406.324 238.481V238.476H406.323Z" fill="#2A78CD"/>
<path d="M400.846 262.67C403.427 263.969 413.256 263.074 413.256 263.074C413.256 263.074 408.133 254.631 405.557 253.332C404.327 252.777 402.931 252.717 401.659 253.167C400.385 253.616 399.336 254.54 398.729 255.746C398.12 256.951 398.001 258.345 398.396 259.635C398.79 260.927 399.669 262.015 400.846 262.674V262.67Z" fill="#2A78CD"/>
<path d="M398.752 286.922C401.078 288.639 410.918 289.415 410.918 289.415C410.918 289.415 407.274 280.224 404.97 278.506C403.852 277.745 402.482 277.447 401.15 277.674C399.817 277.9 398.622 278.635 397.82 279.723C397.015 280.812 396.663 282.169 396.836 283.511C397.011 284.853 397.697 286.075 398.752 286.922Z" fill="#2A78CD"/>
<path opacity="0.1" d="M144.08 26.3535H140.478C140.82 26.3692 141.16 26.3155 141.479 26.1954C141.798 26.0753 142.09 25.8917 142.336 25.6564C142.583 25.4202 142.779 25.137 142.913 24.8236C143.048 24.5102 143.116 24.1724 143.116 23.8316C143.116 23.4899 143.048 23.1531 142.913 22.8387C142.779 22.5253 142.583 22.2422 142.336 22.0059C142.09 21.7706 141.798 21.587 141.479 21.4679C141.16 21.3488 140.819 21.2941 140.478 21.3097H111.307C110.659 21.34 110.047 21.6183 109.598 22.0879C109.149 22.5575 108.9 23.1824 108.9 23.8316C108.9 24.4809 109.149 25.1058 109.598 25.5754C110.047 26.045 110.659 26.3243 111.307 26.3535H114.909C114.567 26.3379 114.227 26.3916 113.908 26.5117C113.589 26.6318 113.297 26.8144 113.051 27.0507C112.804 27.286 112.608 27.5691 112.474 27.8835C112.34 28.1979 112.271 28.5347 112.271 28.8764C112.271 29.2182 112.34 29.555 112.474 29.8694C112.608 30.1838 112.804 30.4659 113.051 30.7022C113.297 30.9385 113.589 31.121 113.908 31.2411C114.227 31.3612 114.568 31.4149 114.909 31.3993H109.868C109.527 31.3837 109.187 31.4374 108.867 31.5575C108.548 31.6766 108.256 31.8601 108.01 32.0954C107.763 32.3317 107.567 32.6149 107.433 32.9283C107.299 33.2417 107.23 33.5795 107.23 33.9212C107.23 34.262 107.299 34.5998 107.433 34.9132C107.567 35.2266 107.763 35.5097 108.01 35.746C108.256 35.9813 108.548 36.1649 108.867 36.285C109.187 36.4041 109.528 36.4578 109.868 36.4431H139.039C139.38 36.4587 139.719 36.4041 140.039 36.285C140.358 36.1649 140.65 35.9813 140.897 35.746C141.143 35.5097 141.339 35.2266 141.474 34.9132C141.608 34.5998 141.677 34.262 141.677 33.9212C141.677 33.5795 141.608 33.2427 141.474 32.9283C141.339 32.6149 141.143 32.3317 140.897 32.0954C140.65 31.8601 140.358 31.6766 140.039 31.5575C139.719 31.4374 139.379 31.3837 139.039 31.3993H144.08C144.421 31.4149 144.76 31.3612 145.079 31.2411C145.398 31.121 145.691 30.9385 145.938 30.7022C146.184 30.4669 146.379 30.1838 146.515 29.8694C146.649 29.556 146.718 29.2182 146.718 28.8764C146.718 28.5347 146.649 28.1979 146.515 27.8835C146.379 27.5701 146.184 27.2869 145.938 27.0507C145.691 26.8144 145.398 26.6318 145.079 26.5117C144.76 26.3916 144.42 26.3379 144.08 26.3535Z" fill="#242122"/>
<path opacity="0.1" d="M492.166 6.97698H488.565C488.907 6.9926 489.246 6.9389 489.565 6.81881C489.884 6.69872 490.176 6.51516 490.423 6.27986C490.669 6.04359 490.865 5.76045 490.999 5.44704C491.134 5.13363 491.203 4.79582 491.203 4.45507C491.203 4.11335 491.134 3.77651 490.999 3.46213C490.865 3.14872 490.669 2.86558 490.423 2.6293C490.176 2.394 489.884 2.21045 489.565 2.09134C489.246 1.97222 488.906 1.91755 488.565 1.93317H459.394C458.745 1.96246 458.133 2.24072 457.685 2.71034C457.235 3.17996 456.985 3.80483 456.985 4.4541C456.985 5.10337 457.235 5.72823 457.685 6.19785C458.133 6.66747 458.745 6.94671 459.394 6.976H462.995C462.653 6.96038 462.314 7.01408 461.995 7.13417C461.676 7.25426 461.384 7.43684 461.137 7.67311C460.891 7.90841 460.695 8.19155 460.56 8.50594C460.425 8.82032 460.357 9.15716 460.357 9.49888C460.357 9.8406 460.425 10.1774 460.56 10.4918C460.695 10.8062 460.891 11.0884 461.137 11.3246C461.384 11.5609 461.676 11.7435 461.995 11.8636C462.314 11.9837 462.654 12.0374 462.995 12.0218H457.954C457.612 12.0061 457.273 12.0598 456.954 12.1799C456.635 12.299 456.343 12.4826 456.096 12.7179C455.85 12.9542 455.654 13.2373 455.519 13.5507C455.385 13.8641 455.316 14.2019 455.316 14.5437C455.316 14.8844 455.385 15.2222 455.519 15.5356C455.654 15.849 455.85 16.1322 456.096 16.3685C456.343 16.6038 456.635 16.7873 456.954 16.9074C457.273 17.0275 457.613 17.0802 457.954 17.0656H487.125C487.774 17.0363 488.386 16.757 488.835 16.2874C489.284 15.8178 489.534 15.1929 489.534 14.5437C489.534 13.8934 489.284 13.2695 488.835 12.7999C488.386 12.3303 487.774 12.051 487.125 12.0218H492.166C492.506 12.0374 492.846 11.9837 493.166 11.8636C493.485 11.7435 493.777 11.5609 494.023 11.3246C494.27 11.0893 494.466 10.8062 494.601 10.4918C494.734 10.1784 494.804 9.8406 494.804 9.49888C494.804 9.15813 494.734 8.82032 494.601 8.50594C494.466 8.19253 494.27 7.90939 494.023 7.67311C493.777 7.43684 493.485 7.25426 493.166 7.13417C492.846 7.01408 492.506 6.96135 492.166 6.97698Z" fill="#242122"/>
<path d="M213.64 187.915C213.237 188.207 213.017 188.37 213.017 188.37C213.245 188.249 213.454 188.096 213.64 187.915Z" fill="url(#paint0_linear)"/>
<path d="M214.126 188.408C213.723 188.7 213.502 188.864 213.502 188.864C213.732 188.741 213.94 188.588 214.126 188.408Z" fill="url(#paint1_linear)"/>
<path d="M214.126 187.915C213.723 188.207 213.502 188.37 213.502 188.37C213.732 188.249 213.94 188.096 214.126 187.915Z" fill="url(#paint2_linear)"/>
</g>
<defs>
<linearGradient id="paint0_linear" x1="536.216" y1="188.141" x2="536.957" y2="188.141" gradientUnits="userSpaceOnUse">
<stop stop-color="#7F8080" stop-opacity="0.25"/>
<stop offset="0.54" stop-color="#7F8080" stop-opacity="0.12"/>
<stop offset="1" stop-color="#7F8080" stop-opacity="0.1"/>
</linearGradient>
<linearGradient id="paint1_linear" x1="537.529" y1="188.635" x2="538.278" y2="188.635" gradientUnits="userSpaceOnUse">
<stop stop-color="#7F8080" stop-opacity="0.25"/>
<stop offset="0.54" stop-color="#7F8080" stop-opacity="0.12"/>
<stop offset="1" stop-color="#7F8080" stop-opacity="0.1"/>
</linearGradient>
<linearGradient id="paint2_linear" x1="537.529" y1="188.141" x2="538.278" y2="188.141" gradientUnits="userSpaceOnUse">
<stop stop-color="#7F8080" stop-opacity="0.25"/>
<stop offset="0.54" stop-color="#7F8080" stop-opacity="0.12"/>
<stop offset="1" stop-color="#7F8080" stop-opacity="0.1"/>
</linearGradient>
<clipPath id="clip0">
<rect width="512" height="359.784" fill="white"/>
</clipPath>
</defs>
</svg>
