<svg width="44" height="44" viewBox="0 0 44 44" fill="none" xmlns="http://www.w3.org/2000/svg">
	<path d="M22.0007 11.9167C28.949 11.9167 35.1456 15.8217 38.1707 22C35.1456 28.1783 28.9673 32.0833 22.0007 32.0833C15.034 32.0833 8.85565 28.1783 5.83065 22C8.85565 15.8217 15.0523 11.9167 22.0007 11.9167ZM22.0007 8.25C12.834 8.25 5.00565 13.9517 1.83398 22C5.00565 30.0483 12.834 35.75 22.0007 35.75C31.1673 35.75 38.9957 30.0483 42.1673 22C38.9957 13.9517 31.1673 8.25 22.0007 8.25ZM22.0007 17.4167C24.5306 17.4167 26.584 19.47 26.584 22C26.584 24.53 24.5306 26.5833 22.0007 26.5833C19.4706 26.5833 17.4173 24.53 17.4173 22C17.4173 19.47 19.4706 17.4167 22.0007 17.4167ZM22.0007 13.75C17.454 13.75 13.7507 17.4533 13.7507 22C13.7507 26.5467 17.454 30.25 22.0007 30.25C26.5473 30.25 30.2507 26.5467 30.2507 22C30.2507 17.4533 26.5473 13.75 22.0007 13.75Z" fill="#535461"/>
	<line x1="39.2071" y1="2.54011" x2="4.37377" y2="37.3734" stroke="#535461" stroke-width="2"/>
</svg>
