<svg width="22" height="21" viewBox="0 0 17 20" fill="none" xmlns="http://www.w3.org/2000/svg">
<path d="M9.85632 12H5.85632C5.5911 12 5.33675 12.1054 5.14922 12.2929C4.96168 12.4804 4.85632 12.7348 4.85632 13C4.85632 13.2652 4.96168 13.5196 5.14922 13.7071C5.33675 13.8946 5.5911 14 5.85632 14H9.85632C10.1215 14 10.3759 13.8946 10.5634 13.7071C10.751 13.5196 10.8563 13.2652 10.8563 13C10.8563 12.7348 10.751 12.4804 10.5634 12.2929C10.3759 12.1054 10.1215 12 9.85632 12ZM13.8563 2H12.6763C12.47 1.41645 12.0882 0.910998 11.5834 0.552938C11.0785 0.194879 10.4753 0.00173951 9.85632 0H7.85632C7.23738 0.00173951 6.63412 0.194879 6.12926 0.552938C5.62439 0.910998 5.24264 1.41645 5.03632 2H3.85632C3.06067 2 2.29761 2.31607 1.735 2.87868C1.17239 3.44129 0.856323 4.20435 0.856323 5V17C0.856323 17.7956 1.17239 18.5587 1.735 19.1213C2.29761 19.6839 3.06067 20 3.85632 20H13.8563C14.652 20 15.415 19.6839 15.9776 19.1213C16.5402 18.5587 16.8563 17.7956 16.8563 17V5C16.8563 4.20435 16.5402 3.44129 15.9776 2.87868C15.415 2.31607 14.652 2 13.8563 2ZM6.85632 3C6.85632 2.73478 6.96168 2.48043 7.14921 2.29289C7.33675 2.10536 7.5911 2 7.85632 2H9.85632C10.1215 2 10.3759 2.10536 10.5634 2.29289C10.751 2.48043 10.8563 2.73478 10.8563 3V4H6.85632V3ZM14.8563 17C14.8563 17.2652 14.751 17.5196 14.5634 17.7071C14.3759 17.8946 14.1215 18 13.8563 18H3.85632C3.59111 18 3.33675 17.8946 3.14922 17.7071C2.96168 17.5196 2.85632 17.2652 2.85632 17V5C2.85632 4.73478 2.96168 4.48043 3.14922 4.29289C3.33675 4.10536 3.59111 4 3.85632 4H4.85632V5C4.85632 5.26522 4.96168 5.51957 5.14922 5.70711C5.33675 5.89464 5.5911 6 5.85632 6H11.8563C12.1215 6 12.3759 5.89464 12.5634 5.70711C12.751 5.51957 12.8563 5.26522 12.8563 5V4H13.8563C14.1215 4 14.3759 4.10536 14.5634 4.29289C14.751 4.48043 14.8563 4.73478 14.8563 5V17ZM11.8563 8H5.85632C5.5911 8 5.33675 8.10536 5.14922 8.29289C4.96168 8.48043 4.85632 8.73478 4.85632 9C4.85632 9.26522 4.96168 9.51957 5.14922 9.70711C5.33675 9.89464 5.5911 10 5.85632 10H11.8563C12.1215 10 12.3759 9.89464 12.5634 9.70711C12.751 9.51957 12.8563 9.26522 12.8563 9C12.8563 8.73478 12.751 8.48043 12.5634 8.29289C12.3759 8.10536 12.1215 8 11.8563 8Z" fill="#8C6EE0"/>
</svg>
