<svg width="84" height="51" viewBox="0 0 84 51" fill="none" xmlns="http://www.w3.org/2000/svg">
<path d="M49 7.99927L58.5 15.4993V20.9993H32.5L33 15.4993L38 10.9993L43 14.9993L49 7.99927Z" fill="#A4A3B4"/>
<path fill-rule="evenodd" clip-rule="evenodd" d="M56.4118 1.81176H34.5882C34.1594 1.81176 33.8118 2.1594 33.8118 2.58824V19.4118C33.8118 19.8406 34.1594 20.1882 34.5882 20.1882H56.4118C56.8406 20.1882 57.1882 19.8406 57.1882 19.4118V2.58824C57.1882 2.1594 56.8406 1.81176 56.4118 1.81176ZM34.5882 0C33.1588 0 32 1.15879 32 2.58824V19.4118C32 20.8412 33.1588 22 34.5882 22H56.4118C57.8412 22 59 20.8412 59 19.4118V2.58824C59 1.15879 57.8412 0 56.4118 0H34.5882Z" fill="#A4A3B4"/>
<path d="M41 7.00049C41 8.10506 40.1046 9.00049 39 9.00049C37.8954 9.00049 37 8.10506 37 7.00049C37 5.89592 37.8954 5.00049 39 5.00049C40.1046 5.00049 41 5.89592 41 7.00049Z" fill="#A4A3B4"/>
<path d="M17.1467 48L17.9268 45.6687H21.4815L22.2663 48H24.0945L20.7614 38.5455H18.647L15.3185 48H17.1467ZM18.3885 44.293L19.6673 40.4844H19.7411L21.0199 44.293H18.3885ZM27.8815 48.1246C29.1002 48.1246 29.6496 47.3999 29.9127 46.8828H30.0143V48H31.6577V38.5455H29.982V42.0817H29.9127C29.6588 41.5692 29.1371 40.8168 27.8861 40.8168C26.2472 40.8168 24.9592 42.1001 24.9592 44.4638C24.9592 46.7997 26.2103 48.1246 27.8815 48.1246ZM28.3477 46.7536C27.2444 46.7536 26.6627 45.7841 26.6627 44.4545C26.6627 43.1342 27.2352 42.1879 28.3477 42.1879C29.4234 42.1879 30.0143 43.0788 30.0143 44.4545C30.0143 45.8303 29.4141 46.7536 28.3477 46.7536ZM36.2699 48.1246C37.4887 48.1246 38.0381 47.3999 38.3012 46.8828H38.4028V48H40.0462V38.5455H38.3704V42.0817H38.3012C38.0473 41.5692 37.5256 40.8168 36.2746 40.8168C34.6357 40.8168 33.3477 42.1001 33.3477 44.4638C33.3477 46.7997 34.5988 48.1246 36.2699 48.1246ZM36.7362 46.7536C35.6329 46.7536 35.0512 45.7841 35.0512 44.4545C35.0512 43.1342 35.6236 42.1879 36.7362 42.1879C37.8118 42.1879 38.4028 43.0788 38.4028 44.4545C38.4028 45.8303 37.8026 46.7536 36.7362 46.7536ZM45.4516 48H47.1228V40.9091H45.4516V48ZM46.2918 39.9027C46.8227 39.9027 47.2567 39.4964 47.2567 38.9979C47.2567 38.4947 46.8227 38.0884 46.2918 38.0884C45.7563 38.0884 45.3224 38.4947 45.3224 38.9979C45.3224 39.4964 45.7563 39.9027 46.2918 39.9027ZM49.0413 48H50.7124V43.6882C50.7124 42.8157 51.2941 42.2248 52.0143 42.2248C52.7206 42.2248 53.2053 42.7003 53.2053 43.4297V48H54.8442V43.5774C54.8442 42.7788 55.3197 42.2248 56.1276 42.2248C56.8016 42.2248 57.3371 42.6218 57.3371 43.4989V48H59.0129V43.2404C59.0129 41.657 58.0988 40.8168 56.797 40.8168C55.7675 40.8168 54.9827 41.3246 54.6688 42.114H54.5949C54.3225 41.3107 53.6347 40.8168 52.6791 40.8168C51.7281 40.8168 51.0171 41.3061 50.7217 42.114H50.6386V40.9091H49.0413V48ZM62.9488 48.1431C64.0613 48.1431 64.7261 47.6214 65.0308 47.0259H65.0862V48H66.6927V43.2543C66.6927 41.38 65.1647 40.8168 63.812 40.8168C62.3209 40.8168 61.176 41.4815 60.8067 42.7741L62.3671 42.9957C62.5333 42.511 63.0042 42.0955 63.8213 42.0955C64.5968 42.0955 65.0216 42.4925 65.0216 43.1896V43.2173C65.0216 43.6974 64.5184 43.7205 63.2673 43.8544C61.8916 44.0021 60.5759 44.413 60.5759 46.0103C60.5759 47.4045 61.5961 48.1431 62.9488 48.1431ZM63.3827 46.9151C62.6856 46.9151 62.187 46.5966 62.187 45.9826C62.187 45.3409 62.7456 45.0732 63.4935 44.967C63.9321 44.907 64.8092 44.7962 65.0262 44.6207V45.4563C65.0262 46.2457 64.3891 46.9151 63.3827 46.9151ZM71.6569 50.8068C73.5728 50.8068 74.9854 49.9297 74.9854 48.1154V40.9091H73.3373V42.0817H73.245C72.9911 41.5692 72.4602 40.8168 71.2091 40.8168C69.5703 40.8168 68.2823 42.1001 68.2823 44.4315C68.2823 46.7443 69.5703 47.8984 71.2045 47.8984C72.4186 47.8984 72.9865 47.2475 73.245 46.7259H73.3281V48.0692C73.3281 49.1126 72.6356 49.5419 71.6846 49.5419C70.6782 49.5419 70.2351 49.0664 70.0319 48.6509L68.527 49.0156C68.8316 50.0082 69.8519 50.8068 71.6569 50.8068ZM71.6708 46.5874C70.5674 46.5874 69.9858 45.7287 69.9858 44.4222C69.9858 43.1342 70.5582 42.1879 71.6708 42.1879C72.7464 42.1879 73.3373 43.0788 73.3373 44.4222C73.3373 45.7749 72.7372 46.5874 71.6708 46.5874ZM80.0373 48.1385C81.69 48.1385 82.8257 47.3306 83.1211 46.098L81.5608 45.9226C81.3346 46.5227 80.7806 46.8366 80.0604 46.8366C78.9801 46.8366 78.2646 46.1257 78.2507 44.9116H83.1904V44.3991C83.1904 41.9109 81.6946 40.8168 79.9496 40.8168C77.9184 40.8168 76.5934 42.3079 76.5934 44.4961C76.5934 46.7212 77.8999 48.1385 80.0373 48.1385ZM78.2554 43.7852C78.3061 42.8803 78.9755 42.1186 79.9727 42.1186C80.9329 42.1186 81.5792 42.8203 81.5885 43.7852H78.2554Z" fill="#A4A3B4"/>
<path d="M11.375 44.2964H11.475V44.1964V42.8036V42.7036H11.375H7.29642V38.625V38.525H7.19642H5.80356H5.70356V38.625V42.7036H1.625H1.525V42.8036V44.1964V44.2964H1.625H5.70356V48.375V48.475H5.80356H7.19642H7.29642V48.375V44.2964H11.375Z" fill="#A4A3B4" stroke="#A4A3B4" stroke-width="0.2"/>
</svg>
