<svg width="34" height="34" viewBox="0 0 34 34" fill="none" xmlns="http://www.w3.org/2000/svg">
<circle cx="17" cy="17" r="17" fill="#2A6DE8" fill-opacity="0.1"/>
<path d="M21.801 18.6103C21.3285 18.6135 20.8626 18.7211 20.4367 18.9255C20.0108 19.1299 19.6355 19.4259 19.3378 19.7924L15.2592 17.9155C15.4509 17.329 15.4509 16.6968 15.2592 16.1104L19.3378 14.2334C19.819 14.8132 20.4897 15.2047 21.2317 15.3387C21.9737 15.4727 22.7393 15.3406 23.3933 14.9657C24.0473 14.5909 24.5476 13.9974 24.8061 13.2899C25.0646 12.5825 25.0645 11.8066 24.8059 11.0992C24.5473 10.3918 24.0468 9.79838 23.3928 9.42364C22.7387 9.04891 21.9732 8.91696 21.2312 9.05109C20.4892 9.18522 19.8185 9.5768 19.3375 10.1567C18.8564 10.7366 18.596 11.4676 18.6021 12.2207C18.6045 12.4109 18.6232 12.6007 18.6581 12.7877L14.4354 14.7286C13.9852 14.289 13.4152 13.9918 12.7966 13.8743C12.1781 13.7569 11.5385 13.8243 10.9582 14.0682C10.3779 14.3121 9.88248 14.7216 9.53414 15.2454C9.18581 15.7692 9 16.3841 9 17.0129C9 17.6417 9.18581 18.2566 9.53414 18.7804C9.88248 19.3042 10.3779 19.7137 10.9582 19.9576C11.5385 20.2015 12.1781 20.269 12.7966 20.1515C13.4152 20.034 13.9852 19.7368 14.4354 19.2972L18.6581 21.2381C18.6232 21.4252 18.6045 21.6149 18.6021 21.8052C18.6021 22.437 18.7897 23.0547 19.1412 23.5801C19.4927 24.1055 19.9923 24.515 20.5768 24.7568C21.1614 24.9986 21.8046 25.0619 22.4251 24.9386C23.0457 24.8153 23.6157 24.5111 24.063 24.0643C24.5104 23.6174 24.8151 23.0482 24.9385 22.4284C25.062 21.8087 24.9986 21.1663 24.7565 20.5826C24.5144 19.9988 24.1044 19.4998 23.5783 19.1488C23.0522 18.7977 22.4337 18.6103 21.801 18.6103ZM21.801 10.6232C22.1174 10.6232 22.4266 10.7169 22.6897 10.8925C22.9527 11.068 23.1577 11.3175 23.2788 11.6094C23.3998 11.9012 23.4315 12.2224 23.3698 12.5323C23.3081 12.8422 23.1557 13.1268 22.932 13.3502C22.7084 13.5736 22.4234 13.7258 22.1131 13.7874C21.8028 13.849 21.4812 13.8174 21.1889 13.6965C20.8967 13.5756 20.6469 13.3708 20.4711 13.1081C20.2954 12.8454 20.2016 12.5366 20.2016 12.2207C20.2016 11.797 20.3701 11.3907 20.67 11.0911C20.97 10.7915 21.3768 10.6232 21.801 10.6232ZM12.2042 18.6103C11.8878 18.6103 11.5786 18.5166 11.3155 18.3411C11.0525 18.1656 10.8475 17.9161 10.7264 17.6242C10.6054 17.3323 10.5737 17.0111 10.6354 16.7013C10.6971 16.3914 10.8495 16.1068 11.0732 15.8834C11.2968 15.66 11.5818 15.5078 11.8921 15.4462C12.2024 15.3846 12.524 15.4162 12.8163 15.5371C13.1085 15.658 13.3583 15.8627 13.5341 16.1254C13.7098 16.3881 13.8036 16.697 13.8036 17.0129C13.8036 17.4366 13.6351 17.8429 13.3352 18.1425C13.0352 18.442 12.6284 18.6103 12.2042 18.6103ZM21.801 23.4026C21.4847 23.4026 21.1754 23.3089 20.9124 23.1334C20.6494 22.9578 20.4444 22.7084 20.3233 22.4165C20.2023 22.1246 20.1706 21.8034 20.2323 21.4935C20.294 21.1837 20.4463 20.899 20.67 20.6756C20.8937 20.4522 21.1787 20.3001 21.489 20.2384C21.7993 20.1768 22.1209 20.2084 22.4131 20.3293C22.7054 20.4502 22.9552 20.655 23.131 20.9177C23.3067 21.1804 23.4005 21.4892 23.4005 21.8052C23.4005 22.2288 23.232 22.6351 22.932 22.9347C22.6321 23.2343 22.2252 23.4026 21.801 23.4026Z" fill="#2A6DE8"/>
</svg>
