<svg width="41" height="41" viewBox="0 0 41 41" fill="none" xmlns="http://www.w3.org/2000/svg">
<circle cx="20.5" cy="20.5" r="20.5" fill="#F1F0EF"/>
<path d="M19 26.1C19 27.145 19.855 28 20.9 28C21.945 28 22.8 27.145 22.8 26.1C22.8 25.055 21.945 24.2 20.9 24.2C19.855 24.2 19 25.055 19 26.1ZM19 14.7C19 15.745 19.855 16.6 20.9 16.6C21.945 16.6 22.8 15.745 22.8 14.7C22.8 13.655 21.945 12.8 20.9 12.8C19.855 12.8 19 13.655 19 14.7ZM19 20.4C19 21.445 19.855 22.3 20.9 22.3C21.945 22.3 22.8 21.445 22.8 20.4C22.8 19.355 21.945 18.5 20.9 18.5C19.855 18.5 19 19.355 19 20.4Z" fill="#B8B1A2"/>
</svg>
