<?xml version="1.0" encoding="UTF-8" standalone="no"?>
<!-- Created with Inkscape (http://www.inkscape.org/) -->

<svg
   xmlns:dc="http://purl.org/dc/elements/1.1/"
   xmlns:cc="http://creativecommons.org/ns#"
   xmlns:rdf="http://www.w3.org/1999/02/22-rdf-syntax-ns#"
   xmlns:svg="http://www.w3.org/2000/svg"
   xmlns="http://www.w3.org/2000/svg"
   xmlns:sodipodi="http://sodipodi.sourceforge.net/DTD/sodipodi-0.dtd"
   xmlns:inkscape="http://www.inkscape.org/namespaces/inkscape"
   version="1.1"
   id="svg2"
   xml:space="preserve"
   width="130"
   height="130"
   viewBox="0 0 130 130"
   sodipodi:docname="module-icon-pb-projects.svg"
   inkscape:version="0.92.4 (5da689c313, 2019-01-14)"><metadata
     id="metadata8"><rdf:RDF><cc:Work
         rdf:about=""><dc:format>image/svg+xml</dc:format><dc:type
           rdf:resource="http://purl.org/dc/dcmitype/StillImage" /><dc:title /></cc:Work></rdf:RDF></metadata><defs
     id="defs6"><clipPath
       clipPathUnits="userSpaceOnUse"
       id="clipPath306-9"><path
         d="m 514.827,379.842 h 76.484 v 76.536 h -76.484 z"
         id="path304-2"
         inkscape:connector-curvature="0" /></clipPath><clipPath
       clipPathUnits="userSpaceOnUse"
       id="clipPath582-2"><path
         d="M 0,0 H 1247.244 V 907.087 H 0 Z"
         id="path580-7"
         inkscape:connector-curvature="0" /></clipPath><clipPath
       clipPathUnits="userSpaceOnUse"
       id="clipPath416"><path
         d="M 0,0 H 1247.244 V 907.087 H 0 Z"
         id="path414"
         inkscape:connector-curvature="0" /></clipPath><clipPath
       clipPathUnits="userSpaceOnUse"
       id="clipPath1428"><path
         d="M 0,0 H 1247.244 V 907.087 H 0 Z"
         id="path1426"
         inkscape:connector-curvature="0" /></clipPath><clipPath
       clipPathUnits="userSpaceOnUse"
       id="clipPath1560"><path
         d="M 0,0 H 1247.244 V 907.087 H 0 Z"
         id="path1558"
         inkscape:connector-curvature="0" /></clipPath></defs><sodipodi:namedview
     pagecolor="#ffffff"
     bordercolor="#666666"
     borderopacity="1"
     objecttolerance="10"
     gridtolerance="10"
     guidetolerance="10"
     inkscape:pageopacity="0"
     inkscape:pageshadow="2"
     inkscape:window-width="1506"
     inkscape:window-height="1121"
     id="namedview4"
     showgrid="false"
     inkscape:zoom="3.5779603"
     inkscape:cx="11.748293"
     inkscape:cy="67.022848"
     inkscape:window-x="480"
     inkscape:window-y="188"
     inkscape:window-maximized="0"
     inkscape:current-layer="layer15"
     showguides="true"
     inkscape:guide-bbox="true"
     fit-margin-bottom="-0.6"
     scale-x="1.3"><sodipodi:guide
       position="65.057006,65.180888"
       orientation="0,1"
       id="guide8299"
       inkscape:locked="false" /><sodipodi:guide
       position="65.057006,65.180888"
       orientation="1,0"
       id="guide8301"
       inkscape:locked="false" /></sodipodi:namedview><g
     inkscape:groupmode="layer"
     id="layer15"
     inkscape:label="module_pb_projects"
     style="display:inline"
     transform="translate(-12.904515,-0.26074836)"><path
       d="m 67.087335,105.27318 c 0,1.94 -1.5746,3.51334 -3.5173,3.51334 h -42.2013 c -1.9427,0 -3.5174,-1.57334 -3.5174,-3.51334 V 77.170542 c 0,-1.94 1.5747,-3.51334 3.5174,-3.51334 h 42.2013 c 1.9427,0 3.5173,1.57334 3.5173,3.51334 z m 70.337415,0 c 0,1.94 -1.5747,3.51334 -3.5174,3.51334 H 91.706035 c -1.9427,0 -3.5173,-1.57334 -3.5173,-3.51334 V 77.170542 c 0,-1.94 1.5746,-3.51334 3.5173,-3.51334 h 42.201315 c 1.9427,0 3.5174,1.57334 3.5174,3.51334 z M 67.087335,52.581202 c 0,1.94 -1.5746,3.512 -3.5173,3.512 h -42.2013 c -1.9427,0 -3.5174,-1.572 -3.5174,-3.512 v -28.10266 c 0,-1.94134 1.5747,-3.51334 3.5174,-3.51334 h 42.2013 c 1.9427,0 3.5173,1.572 3.5173,3.51334 z m 70.337415,0 c 0,1.94 -1.5747,3.512 -3.5174,3.512 H 91.706035 c -1.9427,0 -3.5173,-1.572 -3.5173,-3.512 v -28.10266 c 0,-1.94134 1.5746,-3.51334 3.5173,-3.51334 h 42.201315 c 1.9427,0 3.5174,1.572 3.5174,3.51334 z"
       style="fill:none;stroke:#6d6f71;stroke-width:6.66666651;stroke-linecap:round;stroke-linejoin:round;stroke-miterlimit:10;stroke-dasharray:none;stroke-opacity:1"
       id="path1172"
       inkscape:connector-curvature="0" /></g></svg>