<?xml version="1.0" encoding="UTF-8" standalone="no"?>
<!-- Created with Inkscape (http://www.inkscape.org/) -->

<svg
   xmlns:dc="http://purl.org/dc/elements/1.1/"
   xmlns:cc="http://creativecommons.org/ns#"
   xmlns:rdf="http://www.w3.org/1999/02/22-rdf-syntax-ns#"
   xmlns:svg="http://www.w3.org/2000/svg"
   xmlns="http://www.w3.org/2000/svg"
   xmlns:sodipodi="http://sodipodi.sourceforge.net/DTD/sodipodi-0.dtd"
   xmlns:inkscape="http://www.inkscape.org/namespaces/inkscape"
   version="1.1"
   id="svg2"
   xml:space="preserve"
   width="130"
   height="130"
   viewBox="0 0 130 130"
   sodipodi:docname="module-icon-pb-previouspb.svg"
   inkscape:version="0.92.4 (5da689c313, 2019-01-14)"><metadata
     id="metadata8"><rdf:RDF><cc:Work
         rdf:about=""><dc:format>image/svg+xml</dc:format><dc:type
           rdf:resource="http://purl.org/dc/dcmitype/StillImage" /><dc:title /></cc:Work></rdf:RDF></metadata><defs
     id="defs6"><clipPath
       clipPathUnits="userSpaceOnUse"
       id="clipPath306-9"><path
         d="m 514.827,379.842 h 76.484 v 76.536 h -76.484 z"
         id="path304-2"
         inkscape:connector-curvature="0" /></clipPath><clipPath
       clipPathUnits="userSpaceOnUse"
       id="clipPath582-2"><path
         d="M 0,0 H 1247.244 V 907.087 H 0 Z"
         id="path580-7"
         inkscape:connector-curvature="0" /></clipPath><clipPath
       clipPathUnits="userSpaceOnUse"
       id="clipPath416"><path
         d="M 0,0 H 1247.244 V 907.087 H 0 Z"
         id="path414"
         inkscape:connector-curvature="0" /></clipPath><clipPath
       clipPathUnits="userSpaceOnUse"
       id="clipPath1428"><path
         d="M 0,0 H 1247.244 V 907.087 H 0 Z"
         id="path1426"
         inkscape:connector-curvature="0" /></clipPath><clipPath
       clipPathUnits="userSpaceOnUse"
       id="clipPath1560"><path
         d="M 0,0 H 1247.244 V 907.087 H 0 Z"
         id="path1558"
         inkscape:connector-curvature="0" /></clipPath></defs><sodipodi:namedview
     pagecolor="#ffffff"
     bordercolor="#666666"
     borderopacity="1"
     objecttolerance="10"
     gridtolerance="10"
     guidetolerance="10"
     inkscape:pageopacity="0"
     inkscape:pageshadow="2"
     inkscape:window-width="1506"
     inkscape:window-height="1121"
     id="namedview4"
     showgrid="false"
     inkscape:zoom="3.5779603"
     inkscape:cx="11.748293"
     inkscape:cy="67.022848"
     inkscape:window-x="575"
     inkscape:window-y="180"
     inkscape:window-maximized="0"
     inkscape:current-layer="layer19"
     showguides="true"
     inkscape:guide-bbox="true"
     fit-margin-bottom="-0.6"
     scale-x="1.3"><sodipodi:guide
       position="65.057006,65.180888"
       orientation="0,1"
       id="guide8299"
       inkscape:locked="false" /><sodipodi:guide
       position="65.057006,65.180888"
       orientation="1,0"
       id="guide8301"
       inkscape:locked="false" /></sodipodi:namedview><g
     inkscape:groupmode="layer"
     id="layer19"
     inkscape:label="module_pb_previouspb"
     style="display:inline"
     transform="translate(-12.904515,-0.26074836)"><g
       transform="matrix(1.3333333,0,0,-1.3333333,-97.664641,373.24424)"
       id="g1775"><g
         id="g1759"><path
           d="m 167.2673,231.2887 c 0,17.463 -16.035,31.691 -35.729,31.691 -0.013,0 -0.024,-0.002 -0.039,-0.002 -0.013,0 -0.026,0.002 -0.037,0.002 -19.735,0 -35.73,-14.183 -35.73,-31.681 0,-6.918 2.528,-13.297 6.771,-18.508 -0.798,-1.458 -1.884,-2.631 -3.2,-3.507 -1.409,-0.924 -2.084,-2.584 -1.727,-4.223 0.358,-1.618 1.684,-2.838 3.346,-3.067 1.137,-0.169 2.313,-0.233 3.472,-0.233 3.418,0 6.584,0.69 9.394,2.027 2.598,-1.316 5.399,-2.336 8.351,-3.044 0.208,-0.051 0.418,-0.095 0.628,-0.143 0.843,-0.187 1.695,-0.352 2.561,-0.485 0.64,-0.101 1.279,-0.191 1.925,-0.26 0.392,-0.041 0.785,-0.074 1.179,-0.104 0.957,-0.075 1.92,-0.123 2.886,-0.129 0.047,0 0.095,-0.006 0.144,-0.006 0.008,0 0.018,0.002 0.029,0.002 0.017,0 0.031,-0.002 0.047,-0.002 19.694,0 35.729,14.207 35.729,31.672 z"
           style="fill:none;stroke:#6d6f71;stroke-width:4.5;stroke-linecap:butt;stroke-linejoin:miter;stroke-miterlimit:10;stroke-dasharray:none;stroke-opacity:1"
           id="path1626"
           inkscape:connector-curvature="0" /></g><g
         id="g1628"
         transform="translate(135.1455,208.2327)"><path
           d="m 0,0 h -7.355 c -1.768,0 -3.677,1.357 -3.677,4.339 v 4.854 c 0,2.155 -0.93,4.126 -2.486,5.273 -4.298,3.162 -6.806,8.226 -6.703,13.54 0.165,8.755 7.479,15.992 16.301,16.121 4.405,-0.022 8.715,-1.629 11.899,-4.773 3.152,-3.111 4.891,-7.255 4.891,-11.675 0,-5.156 -2.482,-10.08 -6.641,-13.168 C 4.63,13.323 3.677,11.326 3.677,9.167 V 3.677 C 3.677,1.648 2.026,0 0,0 m -3.681,40.449 h -0.188 c -6.74,-0.099 -12.546,-5.831 -12.675,-12.517 -0.081,-4.118 1.864,-8.045 5.207,-10.506 2.493,-1.838 3.982,-4.916 3.982,-8.233 V 4.339 c 0,-0.548 0.133,-0.728 0.133,-0.728 L 0,3.677 v 5.49 c 0,3.313 1.507,6.413 4.034,8.296 3.28,2.435 5.159,6.159 5.159,10.216 0,3.427 -1.35,6.644 -3.799,9.057 -2.43,2.401 -5.648,3.713 -9.075,3.713"
           style="fill:#6d6f71;fill-opacity:1;fill-rule:nonzero;stroke:none"
           id="path1630"
           inkscape:connector-curvature="0" /></g></g></g></svg>