<?xml version="1.0" encoding="UTF-8" standalone="no"?>
<!-- Created with Inkscape (http://www.inkscape.org/) -->

<svg
   xmlns:dc="http://purl.org/dc/elements/1.1/"
   xmlns:cc="http://creativecommons.org/ns#"
   xmlns:rdf="http://www.w3.org/1999/02/22-rdf-syntax-ns#"
   xmlns:svg="http://www.w3.org/2000/svg"
   xmlns="http://www.w3.org/2000/svg"
   xmlns:sodipodi="http://sodipodi.sourceforge.net/DTD/sodipodi-0.dtd"
   xmlns:inkscape="http://www.inkscape.org/namespaces/inkscape"
   version="1.1"
   id="svg2"
   xml:space="preserve"
   width="130"
   height="130"
   viewBox="0 0 130 130"
   sodipodi:docname="module-icon-pb-previouspb-alt.svg"
   inkscape:version="0.92.4 (5da689c313, 2019-01-14)"><metadata
     id="metadata8"><rdf:RDF><cc:Work
         rdf:about=""><dc:format>image/svg+xml</dc:format><dc:type
           rdf:resource="http://purl.org/dc/dcmitype/StillImage" /><dc:title /></cc:Work></rdf:RDF></metadata><defs
     id="defs6"><clipPath
       clipPathUnits="userSpaceOnUse"
       id="clipPath306-9"><path
         d="m 514.827,379.842 h 76.484 v 76.536 h -76.484 z"
         id="path304-2"
         inkscape:connector-curvature="0" /></clipPath><clipPath
       clipPathUnits="userSpaceOnUse"
       id="clipPath582-2"><path
         d="M 0,0 H 1247.244 V 907.087 H 0 Z"
         id="path580-7"
         inkscape:connector-curvature="0" /></clipPath><clipPath
       clipPathUnits="userSpaceOnUse"
       id="clipPath416"><path
         d="M 0,0 H 1247.244 V 907.087 H 0 Z"
         id="path414"
         inkscape:connector-curvature="0" /></clipPath><clipPath
       clipPathUnits="userSpaceOnUse"
       id="clipPath1428"><path
         d="M 0,0 H 1247.244 V 907.087 H 0 Z"
         id="path1426"
         inkscape:connector-curvature="0" /></clipPath><clipPath
       clipPathUnits="userSpaceOnUse"
       id="clipPath1560"><path
         d="M 0,0 H 1247.244 V 907.087 H 0 Z"
         id="path1558"
         inkscape:connector-curvature="0" /></clipPath></defs><sodipodi:namedview
     pagecolor="#ffffff"
     bordercolor="#666666"
     borderopacity="1"
     objecttolerance="10"
     gridtolerance="10"
     guidetolerance="10"
     inkscape:pageopacity="0"
     inkscape:pageshadow="2"
     inkscape:window-width="1506"
     inkscape:window-height="1121"
     id="namedview4"
     showgrid="false"
     inkscape:zoom="3.5779603"
     inkscape:cx="11.748293"
     inkscape:cy="67.022848"
     inkscape:window-x="575"
     inkscape:window-y="180"
     inkscape:window-maximized="0"
     inkscape:current-layer="layer20"
     showguides="true"
     inkscape:guide-bbox="true"
     fit-margin-bottom="-0.6"
     scale-x="1.3"><sodipodi:guide
       position="65.057006,65.180888"
       orientation="0,1"
       id="guide8299"
       inkscape:locked="false" /><sodipodi:guide
       position="65.057006,65.180888"
       orientation="1,0"
       id="guide8301"
       inkscape:locked="false" /></sodipodi:namedview><g
     inkscape:groupmode="layer"
     id="layer20"
     inkscape:label="module_pb_previouspb2"
     style="display:inline"
     transform="translate(-12.904515,-0.26074836)"><path
       inkscape:connector-curvature="0"
       id="path1634"
       style="fill:none;stroke:#6d6f71;stroke-width:6;stroke-linecap:round;stroke-linejoin:round;stroke-miterlimit:10;stroke-dasharray:none;stroke-opacity:1"
       d="m 94.285634,52.608603 c 0,11.41733 -9.236,20.67467 -20.628,20.67467 -11.39334,0 -20.628,-9.25734 -20.628,-20.67467 0,-11.41733 9.23466,-20.67333 20.628,-20.67333 11.392,0 20.628,9.256 20.628,20.67333 z M 44.668294,98.0686 c 2.37334,-13.942667 14.488,-24.555997 29.07734,-24.555997 14.51466,0 26.582656,10.50667 29.041336,24.345327 m 34.18933,-4.44667 c -1.24666,-9.970657 -8.428,-18.107987 -17.85066,-20.794657 v -1.14133 -1.14667 c 6.27333,-2.612 10.56533,-8.78667 10.56533,-16.01867 0,-9.59066 -7.75733,-17.36666 -17.32667,-17.36666 h 0.0533 c -3.34533,0 -6.468,0.95066 -9.116,2.596 m -85.050666,44.00666 c 2.11333,-6.188 7.17733,-11.01733 13.488,-12.81733 v -0.92133 -0.924 c -5.06,-2.108 -8.524,-7.088 -8.524,-12.92134 0,-7.73733 6.25867,-14.00933 13.97733,-14.00933 h -0.0427 c 2.04134,0 3.98,0.43867 5.728,1.22667" /></g></svg>