<svg width="402" height="94" viewBox="0 0 402 94" fill="none" xmlns="http://www.w3.org/2000/svg">
<rect x="0.5" y="0.5" width="401" height="93" rx="4.5" stroke="#A5BBE3" stroke-dasharray="5 5 5 5"/>
<path d="M170.645 59.5455H168.933V69H170.645V59.5455ZM174.297 64.8452C174.297 63.8203 174.916 63.2294 175.798 63.2294C176.661 63.2294 177.178 63.7972 177.178 64.7436V69H178.849V64.4851C178.854 62.7862 177.884 61.8168 176.421 61.8168C175.359 61.8168 174.63 62.3246 174.306 63.114H174.223V61.9091H172.626V69H174.297V64.8452ZM186.352 63.7834C186.122 62.5831 185.161 61.8168 183.499 61.8168C181.791 61.8168 180.628 62.657 180.633 63.968C180.628 65.0021 181.265 65.6854 182.627 65.967L183.836 66.2209C184.487 66.364 184.792 66.6271 184.792 67.0288C184.792 67.5135 184.266 67.8782 183.472 67.8782C182.705 67.8782 182.207 67.5458 182.064 66.9087L180.434 67.0657C180.642 68.3675 181.736 69.1385 183.476 69.1385C185.249 69.1385 186.5 68.2198 186.505 66.8764C186.5 65.8654 185.849 65.2468 184.51 64.956L183.301 64.6974C182.581 64.5359 182.294 64.2866 182.299 63.8757C182.294 63.3956 182.825 63.0632 183.522 63.0632C184.293 63.0632 184.7 63.4833 184.829 63.9496L186.352 63.7834ZM191.222 69.1385C192.875 69.1385 194.01 68.3306 194.306 67.098L192.745 66.9226C192.519 67.5227 191.965 67.8366 191.245 67.8366C190.165 67.8366 189.449 67.1257 189.435 65.9116H194.375V65.3991C194.375 62.9109 192.879 61.8168 191.134 61.8168C189.103 61.8168 187.778 63.3079 187.778 65.4961C187.778 67.7212 189.084 69.1385 191.222 69.1385ZM189.44 64.7852C189.491 63.8803 190.16 63.1186 191.157 63.1186C192.117 63.1186 192.764 63.8203 192.773 64.7852H189.44ZM195.989 69H197.66V64.8313C197.66 63.9311 198.339 63.294 199.257 63.294C199.539 63.294 199.89 63.3448 200.033 63.391V61.8537C199.88 61.826 199.617 61.8075 199.433 61.8075C198.62 61.8075 197.942 62.2692 197.683 63.0909H197.609V61.9091H195.989V69ZM205.265 61.9091H203.866V60.2102H202.195V61.9091H201.188V63.2017H202.195V67.1442C202.186 68.4783 203.155 69.1339 204.411 69.0969C204.886 69.0831 205.214 68.9908 205.394 68.9308L205.112 67.6243C205.02 67.6474 204.831 67.6889 204.623 67.6889C204.203 67.6889 203.866 67.5412 203.866 66.8672V63.2017H205.265V61.9091ZM210.287 69H211.958V64.6882C211.958 63.8157 212.54 63.2248 213.26 63.2248C213.966 63.2248 214.451 63.7003 214.451 64.4297V69H216.09V64.5774C216.09 63.7788 216.565 63.2248 217.373 63.2248C218.047 63.2248 218.583 63.6218 218.583 64.4989V69H220.259V64.2404C220.259 62.657 219.345 61.8168 218.043 61.8168C217.013 61.8168 216.228 62.3246 215.914 63.114H215.841C215.568 62.3107 214.88 61.8168 213.925 61.8168C212.974 61.8168 212.263 62.3061 211.967 63.114H211.884V61.9091H210.287V69ZM225.293 69.1385C226.946 69.1385 228.082 68.3306 228.377 67.098L226.817 66.9226C226.59 67.5227 226.036 67.8366 225.316 67.8366C224.236 67.8366 223.52 67.1257 223.507 65.9116H228.446V65.3991C228.446 62.9109 226.95 61.8168 225.205 61.8168C223.174 61.8168 221.849 63.3079 221.849 65.4961C221.849 67.7212 223.156 69.1385 225.293 69.1385ZM223.511 64.7852C223.562 63.8803 224.231 63.1186 225.229 63.1186C226.189 63.1186 226.835 63.8203 226.844 64.7852H223.511ZM232.691 69.1246C233.91 69.1246 234.46 68.3999 234.723 67.8828H234.824V69H236.468V59.5455H234.792V63.0817H234.723C234.469 62.5692 233.947 61.8168 232.696 61.8168C231.057 61.8168 229.769 63.1001 229.769 65.4638C229.769 67.7997 231.02 69.1246 232.691 69.1246ZM233.158 67.7536C232.054 67.7536 231.473 66.7841 231.473 65.4545C231.473 64.1342 232.045 63.1879 233.158 63.1879C234.233 63.1879 234.824 64.0788 234.824 65.4545C234.824 66.8303 234.224 67.7536 233.158 67.7536ZM238.449 69H240.12V61.9091H238.449V69ZM239.289 60.9027C239.82 60.9027 240.254 60.4964 240.254 59.9979C240.254 59.4947 239.82 59.0884 239.289 59.0884C238.753 59.0884 238.319 59.4947 238.319 59.9979C238.319 60.4964 238.753 60.9027 239.289 60.9027ZM244.079 69.1431C245.191 69.1431 245.856 68.6214 246.161 68.0259H246.216V69H247.823V64.2543C247.823 62.38 246.295 61.8168 244.942 61.8168C243.451 61.8168 242.306 62.4815 241.937 63.7741L243.497 63.9957C243.663 63.511 244.134 63.0955 244.951 63.0955C245.727 63.0955 246.151 63.4925 246.151 64.1896V64.2173C246.151 64.6974 245.648 64.7205 244.397 64.8544C243.021 65.0021 241.706 65.413 241.706 67.0103C241.706 68.4045 242.726 69.1431 244.079 69.1431ZM244.513 67.9151C243.815 67.9151 243.317 67.5966 243.317 66.9826C243.317 66.3409 243.876 66.0732 244.623 65.967C245.062 65.907 245.939 65.7962 246.156 65.6207V66.4563C246.156 67.2457 245.519 67.9151 244.513 67.9151Z" fill="#2A6DE8"/>
<path d="M164.375 65.2964H164.475V65.1964V63.8036V63.7036H164.375H160.296V59.625V59.525H160.196H158.804H158.704V59.625V63.7036H154.625H154.525V63.8036V65.1964V65.2964H154.625H158.704V69.375V69.475H158.804H160.196H160.296V69.375V65.2964H164.375Z" fill="#A1BEF3" stroke="#A1BEF3" stroke-width="0.2"/>
<path d="M165.137 29.6812L172.478 35.4766V39.7266H152.387L152.773 35.4766L156.637 31.9993L160.5 35.0902L165.137 29.6812Z" fill="#A4A3B4"/>
<rect x="152.7" y="24.2" width="19.4636" height="15.6" rx="1.3" stroke="#A4A3B4" stroke-width="1.4"/>
<circle cx="157.409" cy="28.9097" r="1.54545" fill="#A4A3B4"/>
<path d="M207.042 28.9477V28.964L207.047 28.9795C207.071 29.0514 207.088 29.1256 207.097 29.2009V29.2502V38.4168C207.097 39.1197 206.818 39.7937 206.321 40.2907C205.824 40.7876 205.15 41.0668 204.447 41.0668H195.28C194.577 41.0668 193.903 40.7876 193.406 40.2907C192.909 39.7937 192.63 39.1197 192.63 38.4168V25.5835C192.63 24.8807 192.909 24.2066 193.406 23.7097C193.903 23.2127 194.577 22.9335 195.28 22.9335H200.819L201.096 23.0289L201.112 23.0343H201.129H201.188C201.265 23.0725 201.336 23.1217 201.398 23.1803L206.896 28.6781C206.955 28.7406 207.004 28.8114 207.042 28.888V28.9477ZM201.768 25.8886L201.597 25.7179V25.9593V28.3335V28.4335H201.697H204.071H204.313L204.142 28.2628L201.768 25.8886ZM199.964 24.6668V24.5668H199.864H195.28C195.011 24.5668 194.752 24.6739 194.561 24.8646C194.371 25.0553 194.264 25.3139 194.264 25.5835V38.4168C194.264 38.6865 194.371 38.9451 194.561 39.1357C194.752 39.3264 195.011 39.4335 195.28 39.4335H204.447C204.717 39.4335 204.975 39.3264 205.166 39.1357C205.356 38.9451 205.464 38.6865 205.464 38.4168V30.1668V30.0668H205.364H200.78C200.564 30.0668 200.356 29.9808 200.203 29.8276C200.05 29.6745 199.964 29.4668 199.964 29.2502V24.6668Z" fill="#A4A3B4" stroke="white" stroke-width="0.2"/>
<path d="M198.167 33.6667C198.167 34.22 197.72 34.6667 197.167 34.6667H196.5V36H195.5V32H197.167C197.72 32 198.167 32.4467 198.167 33V33.6667ZM201.5 35C201.5 35.5533 201.053 36 200.5 36H198.833V32H200.5C201.053 32 201.5 32.4467 201.5 33V35ZM204.167 33H203.167V33.6667H204.167V34.6667H203.167V36H202.167V32H204.167V33ZM196.5 33.6667H197.167V33H196.5V33.6667ZM199.833 35H200.5V33H199.833V35Z" fill="#A4A3B4"/>
<path d="M246.53 28.15C246.378 28.0622 246.206 28.016 246.03 28.016C245.854 28.016 245.682 28.0622 245.53 28.15L242 29.89C241.972 29.1136 241.643 28.3785 241.083 27.8394C240.524 27.3004 239.777 26.9995 239 27H230C229.204 27 228.441 27.3161 227.879 27.8787C227.316 28.4413 227 29.2044 227 30V36C227 36.7957 227.316 37.5587 227.879 38.1213C228.441 38.6839 229.204 39 230 39H239C239.777 39.0005 240.524 38.6996 241.083 38.1606C241.643 37.6215 241.972 36.8864 242 36.11L245.56 37.89C245.696 37.9599 245.847 37.9975 246 38C246.187 38.0006 246.371 37.9486 246.53 37.85C246.674 37.7599 246.793 37.6346 246.875 37.4859C246.957 37.3372 247 37.1699 247 37V29C247 28.8301 246.957 28.6628 246.875 28.5141C246.793 28.3654 246.674 28.2401 246.53 28.15ZM240 36C240 36.2652 239.895 36.5196 239.707 36.7071C239.52 36.8946 239.265 37 239 37H230C229.735 37 229.48 36.8946 229.293 36.7071C229.105 36.5196 229 36.2652 229 36V30C229 29.7348 229.105 29.4804 229.293 29.2929C229.48 29.1054 229.735 29 230 29H239C239.265 29 239.52 29.1054 239.707 29.2929C239.895 29.4804 240 29.7348 240 30V36ZM245 35.38L242 33.88V32.12L245 30.62V35.38Z" fill="#A4A3B4"/>
</svg>
