<svg width="19" height="18" viewBox="0 0 19 18" fill="none" xmlns="http://www.w3.org/2000/svg">
<path fill-rule="evenodd" clip-rule="evenodd" d="M13.2785 3.59995V3.79995H13.4785H17.0785C17.2642 3.79995 17.4422 3.8737 17.5735 4.00498C17.7048 4.13625 17.7785 4.3143 17.7785 4.49995C17.7785 4.6856 17.7048 4.86365 17.5735 4.99493C17.4422 5.1262 17.2642 5.19995 17.0785 5.19995H16.1785H15.9785V5.39995V15.3C15.9785 15.963 15.7151 16.5989 15.2463 17.0677C14.7774 17.5366 14.1416 17.7999 13.4785 17.7999H6.27852C5.61547 17.7999 4.97959 17.5366 4.51075 17.0677C4.04191 16.5989 3.77852 15.963 3.77852 15.3V5.39995V5.19995H3.57852H2.67852C2.49286 5.19995 2.31482 5.1262 2.18354 4.99493C2.05227 4.86365 1.97852 4.6856 1.97852 4.49995C1.97852 4.3143 2.05227 4.13625 2.18354 4.00498C2.31482 3.8737 2.49286 3.79995 2.67852 3.79995H6.27852H6.47852V3.59995V2.69995C6.47852 2.03691 6.74191 1.40103 7.21075 0.932184C7.67959 0.463343 8.31547 0.199951 8.97852 0.199951H10.7785C11.4416 0.199951 12.0774 0.463343 12.5463 0.932184C13.0151 1.40103 13.2785 2.03691 13.2785 2.69995V3.59995ZM11.6785 3.79995H11.8785V3.59995V2.69995C11.8785 2.40821 11.7626 2.12842 11.5563 1.92213C11.35 1.71584 11.0703 1.59995 10.7785 1.59995H8.97852C8.68678 1.59995 8.40699 1.71584 8.2007 1.92213C7.99441 2.12842 7.87852 2.40821 7.87852 2.69995V3.59995V3.79995H8.07852H11.6785ZM5.37852 5.19995H5.17852V5.39995V15.3C5.17852 15.5917 5.29441 15.8715 5.5007 16.0778C5.70699 16.2841 5.98678 16.4 6.27852 16.4H13.4785C13.7703 16.4 14.05 16.2841 14.2563 16.0778C14.4626 15.8715 14.5785 15.5917 14.5785 15.3V5.39995V5.19995H14.3785H5.37852ZM8.57349 13.9949C8.44222 14.1262 8.26417 14.2 8.07852 14.2C7.89286 14.2 7.71482 14.1262 7.58354 13.9949C7.45227 13.8637 7.37852 13.6856 7.37852 13.5V8.09995C7.37852 7.9143 7.45227 7.73625 7.58354 7.60498C7.71482 7.4737 7.89286 7.39995 8.07852 7.39995C8.26417 7.39995 8.44221 7.4737 8.57349 7.60498C8.70477 7.73625 8.77852 7.9143 8.77852 8.09995V13.5C8.77852 13.6856 8.70477 13.8637 8.57349 13.9949ZM12.1735 13.9949C12.0422 14.1262 11.8642 14.2 11.6785 14.2C11.4929 14.2 11.3148 14.1262 11.1835 13.9949C11.0523 13.8637 10.9785 13.6856 10.9785 13.5V8.09995C10.9785 7.9143 11.0523 7.73625 11.1835 7.60498C11.3148 7.4737 11.4929 7.39995 11.6785 7.39995C11.8642 7.39995 12.0422 7.4737 12.1735 7.60498C12.3048 7.73625 12.3785 7.9143 12.3785 8.09995V13.5C12.3785 13.6856 12.3048 13.8637 12.1735 13.9949Z" fill="#A4A3B4"/>
</svg>
