<svg width="19" height="19" viewBox="0 0 19 19" fill="none" xmlns="http://www.w3.org/2000/svg">
<path d="M16.2076 14.8925C16.6776 14.2624 17.0002 13.5349 17.1514 12.7635C17.3027 11.9922 17.2788 11.1967 17.0816 10.4358C16.8844 9.67491 16.5188 8.96802 16.0118 8.36729C15.5049 7.76656 14.8695 7.28734 14.1526 6.96498C13.9964 6.06656 13.6375 5.21554 13.1032 4.47661C12.5689 3.73767 11.8731 3.13025 11.0688 2.7005C10.2646 2.27075 9.37291 2.02998 8.46163 1.99648C7.55035 1.96298 6.64342 2.13764 5.80976 2.50717C4.9761 2.87671 4.23764 3.43141 3.65048 4.12912C3.06333 4.82683 2.64293 5.64919 2.42123 6.53373C2.19953 7.41826 2.18237 8.34169 2.37104 9.23385C2.55972 10.126 2.94926 10.9634 3.51008 11.6825L2.46758 12.7175C2.36352 12.8229 2.29302 12.9569 2.26499 13.1024C2.23696 13.2479 2.25265 13.3984 2.31008 13.535C2.36635 13.6719 2.4619 13.7892 2.58469 13.8719C2.70748 13.9547 2.85202 13.9992 3.00008 14H7.26758C7.69257 14.8959 8.36261 15.6532 9.20015 16.1841C10.0377 16.715 11.0085 16.9979 12.0001 17H16.5001C16.6482 16.9992 16.7927 16.9547 16.9155 16.8719C17.0383 16.7892 17.1338 16.6719 17.1901 16.535C17.2475 16.3984 17.2632 16.2479 17.2352 16.1024C17.2072 15.9569 17.1367 15.8229 17.0326 15.7175L16.2076 14.8925ZM6.75009 11.75C6.75112 12.0011 6.77117 12.2519 6.81009 12.5H4.80758L5.07009 12.245C5.14038 12.1753 5.19618 12.0923 5.23425 12.0009C5.27233 11.9095 5.29193 11.8115 5.29193 11.7125C5.29193 11.6135 5.27233 11.5154 5.23425 11.424C5.19618 11.3327 5.14038 11.2497 5.07009 11.18C4.64975 10.7643 4.31652 10.2689 4.08987 9.7229C3.86323 9.17688 3.74771 8.59116 3.75008 7.99998C3.75008 6.8065 4.22419 5.66191 5.0681 4.818C5.91202 3.97408 7.05661 3.49998 8.25009 3.49998C9.18135 3.49438 10.091 3.78077 10.851 4.31888C11.6111 4.85699 12.1834 5.61976 12.4876 6.49998H12.0001C10.6077 6.49998 9.27234 7.0531 8.28778 8.03767C7.30321 9.02223 6.75009 10.3576 6.75009 11.75ZM14.6551 15.5L14.6926 15.5375H12.0001C11.1326 15.5359 10.2925 15.2337 9.62282 14.6822C8.95319 14.1307 8.49546 13.3641 8.32763 12.513C8.1598 11.6619 8.29224 10.7789 8.70239 10.0145C9.11254 9.25008 9.77503 8.65151 10.577 8.32075C11.379 7.99 12.2708 7.94752 13.1006 8.20055C13.9304 8.45358 14.6467 8.98647 15.1277 9.70844C15.6086 10.4304 15.8244 11.2968 15.7382 12.16C15.6521 13.0232 15.2693 13.8298 14.6551 14.4425C14.5138 14.581 14.4329 14.7697 14.4301 14.9675C14.4305 15.0667 14.4506 15.1649 14.4892 15.2563C14.5278 15.3477 14.5842 15.4305 14.6551 15.5Z" fill="#FF7F47"/>
</svg>
