<svg width="41" height="44" viewBox="0 0 41 44" fill="none" xmlns="http://www.w3.org/2000/svg">
<path d="M28.6101 39.1901C29.2368 38.35 29.6669 37.3799 29.8686 36.3515C30.0703 35.323 30.0385 34.2624 29.7755 33.2478C29.5125 32.2333 29.025 31.2908 28.3491 30.4898C27.6732 29.6888 26.826 29.0499 25.8701 28.6201C25.6619 27.4222 25.1834 26.2875 24.4709 25.3022C23.7585 24.317 22.8308 23.5071 21.7585 22.9341C20.6861 22.3611 19.4972 22.0401 18.2822 21.9954C17.0671 21.9507 15.8579 22.1836 14.7463 22.6763C13.6348 23.169 12.6502 23.9086 11.8673 24.8389C11.0844 25.7692 10.5239 26.8657 10.2283 28.045C9.93271 29.2244 9.90982 30.4557 10.1614 31.6452C10.413 32.8348 10.9324 33.9513 11.6801 34.9101L10.2901 36.2901C10.1514 36.4307 10.0574 36.6093 10.02 36.8032C9.98261 36.9972 10.0035 37.1979 10.0801 37.3801C10.1551 37.5627 10.2825 37.719 10.4463 37.8293C10.61 37.9397 10.8027 37.9991 11.0001 38.0001H16.6901C17.2568 39.1947 18.1502 40.2043 19.2669 40.9122C20.3836 41.6201 21.6779 41.9973 23.0001 42.0001H29.0001C29.1975 41.9991 29.3903 41.9397 29.554 41.8293C29.7177 41.719 29.8451 41.5627 29.9201 41.3801C29.9967 41.1979 30.0176 40.9972 29.9802 40.8032C29.9429 40.6093 29.8489 40.4307 29.7101 40.2901L28.6101 39.1901ZM16.0001 35.0001C16.0015 35.3349 16.0282 35.6692 16.0801 36.0001H13.4101L13.7601 35.6601C13.8538 35.5671 13.9282 35.4565 13.979 35.3346C14.0298 35.2128 14.0559 35.0821 14.0559 34.9501C14.0559 34.818 14.0298 34.6873 13.979 34.5655C13.9282 34.4436 13.8538 34.333 13.7601 34.2401C13.1997 33.6858 12.7554 33.0253 12.4532 32.2973C12.151 31.5693 11.997 30.7883 12.0001 30.0001C12.0001 28.4088 12.6323 26.8826 13.7575 25.7574C14.8827 24.6322 16.4088 24.0001 18.0001 24.0001C19.2418 23.9926 20.4546 24.3744 21.468 25.0919C22.4815 25.8094 23.2446 26.8264 23.6501 28.0001H23.0001C21.1436 28.0001 19.3631 28.7376 18.0504 30.0503C16.7376 31.3631 16.0001 33.1435 16.0001 35.0001ZM26.5401 40.0001L26.5901 40.0501H23.0001C21.8435 40.048 20.7233 39.645 19.8304 38.9097C18.9376 38.1743 18.3273 37.1522 18.1035 36.0174C17.8797 34.8826 18.0563 33.7053 18.6032 32.6861C19.1501 31.6669 20.0334 30.8688 21.1027 30.4278C22.172 29.9867 23.3611 29.9301 24.4674 30.2675C25.5738 30.6049 26.529 31.3154 27.1703 32.278C27.8115 33.2406 28.0992 34.3958 27.9843 35.5468C27.8694 36.6977 27.359 37.7732 26.5401 38.5901C26.3517 38.7747 26.2439 39.0263 26.2401 39.2901C26.2407 39.4224 26.2675 39.5532 26.319 39.6751C26.3705 39.797 26.4456 39.9074 26.5401 40.0001Z" fill="#FF7F47"/>
<path d="M41 1.90735e-06C41 2.20914 39.2091 4 37 4L4 4C1.79086 4 1.56562e-07 2.20914 3.49691e-07 -1.67699e-06L41 1.90735e-06Z" fill="#FF7F47"/>
</svg>
