<svg width="19" height="19" viewBox="0 0 19 19" fill="none" xmlns="http://www.w3.org/2000/svg">
<g clip-path="url(#clip0)">
<circle cx="9.9924" cy="7.7424" r="7.2424" fill="#F8E645" fill-opacity="0.24"/>
<path d="M6.02497 4.92549C6.91137 3.66437 8.35629 2.91382 9.89776 2.91382H10.0855C11.627 2.91382 13.0719 3.66437 13.9583 4.92549C15.0837 6.52664 15.1077 8.65525 14.0188 10.2814L12.9573 11.8665C12.6881 12.2685 12.5444 12.7415 12.5444 13.2253V14.1663C12.5444 14.2869 12.4466 14.3846 12.3261 14.3846H7.65719C7.53663 14.3846 7.4389 14.2869 7.4389 14.1663V13.2253C7.4389 12.7415 7.29517 12.2685 7.02596 11.8665L5.9645 10.2814C4.87556 8.65525 4.89959 6.52664 6.02497 4.92549Z" fill="#F8DB45"/>
<path d="M8.89893 17.4087H11.0818V17.8453C11.0818 18.2069 10.7886 18.5001 10.427 18.5001H9.5538C9.19212 18.5001 8.89893 18.2069 8.89893 17.8453V17.4087Z" fill="#404040"/>
<path d="M8.46191 14.3525H11.518C11.518 13.7497 11.0293 13.2611 10.4265 13.2611H9.55337C8.95057 13.2611 8.46191 13.7497 8.46191 14.3525Z" fill="#FFA337"/>
<path d="M8.02539 15.4438H11.9546V16.5353C11.9546 17.0175 11.5637 17.4085 11.0815 17.4085H8.89855C8.41632 17.4085 8.02539 17.0175 8.02539 16.5353V15.4438Z" fill="#7C7C7C"/>
<path d="M10.2085 15.4438H11.9548V16.5353C11.9548 17.0175 11.5639 17.4085 11.0817 17.4085H10.2085V15.4438Z" fill="#646464"/>
<path d="M7.37061 13.9163H12.6096V14.7894C12.6096 15.3922 12.1209 15.8809 11.5181 15.8809H8.46206C7.85927 15.8809 7.37061 15.3922 7.37061 14.7894V13.9163Z" fill="#D9D9D9"/>
<path d="M9.77197 13.9163H12.6097V14.7894C12.6097 15.3922 12.1211 15.8809 11.5183 15.8809H9.77197V13.9163Z" fill="#AAAAAA"/>
<path d="M9.11719 13.9163H10.8635V15.0077C10.8635 15.4899 10.4726 15.8809 9.99035 15.8809C9.50812 15.8809 9.11719 15.4899 9.11719 15.0077V13.9163Z" fill="#BABABA"/>
<path fill-rule="evenodd" clip-rule="evenodd" d="M8.89878 7.47659C8.59739 7.47659 8.35306 7.72092 8.35306 8.02232C8.35306 8.32371 8.59739 8.56804 8.89878 8.56804H9.44451V8.02232C9.44451 7.72092 9.20018 7.47659 8.89878 7.47659ZM9.6628 8.56804V8.02232C9.6628 7.60036 9.32074 7.2583 8.89878 7.2583C8.47683 7.2583 8.13477 7.60036 8.13477 8.02232C8.13477 8.44427 8.47683 8.78633 8.89878 8.78633H9.44451V13.807H9.6628V8.78633H10.3177V13.5887H10.536V8.78633H11.0817C11.5036 8.78633 11.8457 8.44427 11.8457 8.02232C11.8457 7.60036 11.5036 7.2583 11.0817 7.2583C10.6597 7.2583 10.3177 7.60036 10.3177 8.02232V8.56804H9.6628ZM10.536 8.56804H11.0817C11.3831 8.56804 11.6274 8.32371 11.6274 8.02232C11.6274 7.72092 11.3831 7.47659 11.0817 7.47659C10.7803 7.47659 10.536 7.72092 10.536 8.02232V8.56804Z" fill="#FFA337"/>
<g style="mix-blend-mode:color-burn">
<path d="M12.8279 8.02259C12.8279 9.58985 11.5574 10.8604 9.99012 10.8604C8.42286 10.8604 7.15234 9.58985 7.15234 8.02259C7.15234 6.45533 8.42286 5.18481 9.99012 5.18481C11.5574 5.18481 12.8279 6.45533 12.8279 8.02259Z" fill="#C4C4C4"/>
</g>
<g style="mix-blend-mode:screen">
<path d="M9.11698 5.62124C9.11698 6.22403 8.62833 6.71269 8.02553 6.71269C7.42274 6.71269 6.93408 6.22403 6.93408 5.62124C6.93408 5.01845 7.42274 4.52979 8.02553 4.52979C8.62833 4.52979 9.11698 5.01845 9.11698 5.62124Z" fill="#888888"/>
</g>
</g>
<defs>
<clipPath id="clip0">
<rect width="18" height="18" fill="white" transform="translate(0.75 0.5)"/>
</clipPath>
</defs>
</svg>
