<svg width="19" height="19" viewBox="0 0 19 19" fill="none" xmlns="http://www.w3.org/2000/svg">
<path d="M10.5 11H7.5C7.30109 11 7.11032 11.079 6.96967 11.2197C6.82902 11.3603 6.75 11.5511 6.75 11.75C6.75 11.9489 6.82902 12.1397 6.96967 12.2803C7.11032 12.421 7.30109 12.5 7.5 12.5H10.5C10.6989 12.5 10.8897 12.421 11.0303 12.2803C11.171 12.1397 11.25 11.9489 11.25 11.75C11.25 11.5511 11.171 11.3603 11.0303 11.2197C10.8897 11.079 10.6989 11 10.5 11ZM13.5 3.5H12.615C12.4603 3.06234 12.1739 2.68325 11.7953 2.4147C11.4166 2.14616 10.9642 2.0013 10.5 2H9C8.53579 2.0013 8.08335 2.14616 7.7047 2.4147C7.32605 2.68325 7.03973 3.06234 6.885 3.5H6C5.40326 3.5 4.83097 3.73705 4.40901 4.15901C3.98705 4.58097 3.75 5.15326 3.75 5.75V14.75C3.75 15.3467 3.98705 15.919 4.40901 16.341C4.83097 16.7629 5.40326 17 6 17H13.5C14.0967 17 14.669 16.7629 15.091 16.341C15.5129 15.919 15.75 15.3467 15.75 14.75V5.75C15.75 5.15326 15.5129 4.58097 15.091 4.15901C14.669 3.73705 14.0967 3.5 13.5 3.5ZM8.25 4.25C8.25 4.05109 8.32902 3.86032 8.46967 3.71967C8.61032 3.57902 8.80109 3.5 9 3.5H10.5C10.6989 3.5 10.8897 3.57902 11.0303 3.71967C11.171 3.86032 11.25 4.05109 11.25 4.25V5H8.25V4.25ZM14.25 14.75C14.25 14.9489 14.171 15.1397 14.0303 15.2803C13.8897 15.421 13.6989 15.5 13.5 15.5H6C5.80109 15.5 5.61032 15.421 5.46967 15.2803C5.32902 15.1397 5.25 14.9489 5.25 14.75V5.75C5.25 5.55109 5.32902 5.36032 5.46967 5.21967C5.61032 5.07902 5.80109 5 6 5H6.75V5.75C6.75 5.94891 6.82902 6.13968 6.96967 6.28033C7.11032 6.42098 7.30109 6.5 7.5 6.5H12C12.1989 6.5 12.3897 6.42098 12.5303 6.28033C12.671 6.13968 12.75 5.94891 12.75 5.75V5H13.5C13.6989 5 13.8897 5.07902 14.0303 5.21967C14.171 5.36032 14.25 5.55109 14.25 5.75V14.75ZM12 8H7.5C7.30109 8 7.11032 8.07902 6.96967 8.21967C6.82902 8.36032 6.75 8.55109 6.75 8.75C6.75 8.94891 6.82902 9.13968 6.96967 9.28033C7.11032 9.42098 7.30109 9.5 7.5 9.5H12C12.1989 9.5 12.3897 9.42098 12.5303 9.28033C12.671 9.13968 12.75 8.94891 12.75 8.75C12.75 8.55109 12.671 8.36032 12.5303 8.21967C12.3897 8.07902 12.1989 8 12 8Z" fill="#8C6EE0"/>
</svg>
