<svg width="41" height="44" viewBox="0 0 41 44" fill="none" xmlns="http://www.w3.org/2000/svg">
<path d="M22 34H18C17.7348 34 17.4804 34.1054 17.2929 34.2929C17.1054 34.4804 17 34.7348 17 35C17 35.2652 17.1054 35.5196 17.2929 35.7071C17.4804 35.8946 17.7348 36 18 36H22C22.2652 36 22.5196 35.8946 22.7071 35.7071C22.8946 35.5196 23 35.2652 23 35C23 34.7348 22.8946 34.4804 22.7071 34.2929C22.5196 34.1054 22.2652 34 22 34ZM26 24H24.82C24.6137 23.4165 24.2319 22.911 23.7271 22.5529C23.2222 22.1949 22.6189 22.0017 22 22H20C19.3811 22.0017 18.7778 22.1949 18.2729 22.5529C17.7681 22.911 17.3863 23.4165 17.18 24H16C15.2043 24 14.4413 24.3161 13.8787 24.8787C13.3161 25.4413 13 26.2044 13 27V39C13 39.7956 13.3161 40.5587 13.8787 41.1213C14.4413 41.6839 15.2043 42 16 42H26C26.7956 42 27.5587 41.6839 28.1213 41.1213C28.6839 40.5587 29 39.7956 29 39V27C29 26.2044 28.6839 25.4413 28.1213 24.8787C27.5587 24.3161 26.7956 24 26 24ZM19 25C19 24.7348 19.1054 24.4804 19.2929 24.2929C19.4804 24.1054 19.7348 24 20 24H22C22.2652 24 22.5196 24.1054 22.7071 24.2929C22.8946 24.4804 23 24.7348 23 25V26H19V25ZM27 39C27 39.2652 26.8946 39.5196 26.7071 39.7071C26.5196 39.8946 26.2652 40 26 40H16C15.7348 40 15.4804 39.8946 15.2929 39.7071C15.1054 39.5196 15 39.2652 15 39V27C15 26.7348 15.1054 26.4804 15.2929 26.2929C15.4804 26.1054 15.7348 26 16 26H17V27C17 27.2652 17.1054 27.5196 17.2929 27.7071C17.4804 27.8946 17.7348 28 18 28H24C24.2652 28 24.5196 27.8946 24.7071 27.7071C24.8946 27.5196 25 27.2652 25 27V26H26C26.2652 26 26.5196 26.1054 26.7071 26.2929C26.8946 26.4804 27 26.7348 27 27V39ZM24 30H18C17.7348 30 17.4804 30.1054 17.2929 30.2929C17.1054 30.4804 17 30.7348 17 31C17 31.2652 17.1054 31.5196 17.2929 31.7071C17.4804 31.8946 17.7348 32 18 32H24C24.2652 32 24.5196 31.8946 24.7071 31.7071C24.8946 31.5196 25 31.2652 25 31C25 30.7348 24.8946 30.4804 24.7071 30.2929C24.5196 30.1054 24.2652 30 24 30Z" fill="#8C6EE0"/>
<path d="M41 1.90735e-06C41 2.20914 39.2091 4 37 4L4 4C1.79086 4 1.56562e-07 2.20914 3.49691e-07 -1.67699e-06L41 1.90735e-06Z" fill="#8C6EE0"/>
</svg>
