<svg width="34" height="34" viewBox="0 0 34 34" fill="none" xmlns="http://www.w3.org/2000/svg">
<circle cx="17" cy="17" r="17" fill="#2A6DE8" fill-opacity="0.1"/>
<path d="M17 19.4545C18.3556 19.4545 19.4545 18.3556 19.4545 17C19.4545 15.6443 18.3556 14.5454 17 14.5454C15.6443 14.5454 14.5454 15.6443 14.5454 17C14.5454 18.3556 15.6443 19.4545 17 19.4545Z" stroke="#2A6DE8" stroke-width="1.6" stroke-linecap="round" stroke-linejoin="round"/>
<path d="M23.0545 19.4545C22.9456 19.7013 22.9131 19.9751 22.9613 20.2405C23.0094 20.5059 23.1359 20.7508 23.3245 20.9436L23.3736 20.9927C23.5258 21.1447 23.6465 21.3252 23.7288 21.5238C23.8112 21.7225 23.8536 21.9354 23.8536 22.1505C23.8536 22.3655 23.8112 22.5784 23.7288 22.7771C23.6465 22.9757 23.5258 23.1562 23.3736 23.3082C23.2217 23.4603 23.0412 23.581 22.8425 23.6634C22.6439 23.7457 22.431 23.7881 22.2159 23.7881C22.0009 23.7881 21.7879 23.7457 21.5893 23.6634C21.3906 23.581 21.2102 23.4603 21.0582 23.3082L21.0091 23.2591C20.8163 23.0705 20.5714 22.9439 20.3059 22.8958C20.0405 22.8477 19.7668 22.8802 19.52 22.9891C19.278 23.0928 19.0716 23.265 18.9263 23.4845C18.7809 23.704 18.7029 23.9613 18.7018 24.2245V24.3636C18.7018 24.7976 18.5294 25.2138 18.2225 25.5207C17.9157 25.8276 17.4994 26 17.0655 26C16.6315 26 16.2152 25.8276 15.9084 25.5207C15.6015 25.2138 15.4291 24.7976 15.4291 24.3636V24.29C15.4228 24.0192 15.3351 23.7565 15.1775 23.5362C15.0199 23.3159 14.7997 23.1481 14.5455 23.0545C14.2987 22.9456 14.0249 22.9131 13.7595 22.9613C13.4941 23.0094 13.2492 23.1359 13.0564 23.3245L13.0073 23.3736C12.8553 23.5258 12.6748 23.6465 12.4762 23.7288C12.2775 23.8112 12.0646 23.8536 11.8495 23.8536C11.6345 23.8536 11.4216 23.8112 11.2229 23.7288C11.0243 23.6465 10.8438 23.5258 10.6918 23.3736C10.5397 23.2217 10.419 23.0412 10.3366 22.8425C10.2543 22.6439 10.2119 22.431 10.2119 22.2159C10.2119 22.0009 10.2543 21.7879 10.3366 21.5893C10.419 21.3906 10.5397 21.2102 10.6918 21.0582L10.7409 21.0091C10.9295 20.8163 11.0561 20.5714 11.1042 20.3059C11.1523 20.0405 11.1198 19.7668 11.0109 19.52C10.9072 19.278 10.735 19.0716 10.5155 18.9263C10.296 18.7809 10.0387 18.7029 9.77545 18.7018H9.63636C9.20237 18.7018 8.78616 18.5294 8.47928 18.2225C8.1724 17.9157 8 17.4994 8 17.0655C8 16.6315 8.1724 16.2152 8.47928 15.9084C8.78616 15.6015 9.20237 15.4291 9.63636 15.4291H9.71C9.98081 15.4228 10.2435 15.3351 10.4638 15.1775C10.6841 15.0199 10.8519 14.7997 10.9455 14.5455C11.0544 14.2987 11.0869 14.0249 11.0387 13.7595C10.9906 13.4941 10.8641 13.2492 10.6755 13.0564L10.6264 13.0073C10.4742 12.8553 10.3535 12.6748 10.2712 12.4762C10.1888 12.2775 10.1464 12.0646 10.1464 11.8495C10.1464 11.6345 10.1888 11.4216 10.2712 11.2229C10.3535 11.0243 10.4742 10.8438 10.6264 10.6918C10.7783 10.5397 10.9588 10.419 11.1575 10.3366C11.3561 10.2543 11.569 10.2119 11.7841 10.2119C11.9991 10.2119 12.2121 10.2543 12.4107 10.3366C12.6094 10.419 12.7898 10.5397 12.9418 10.6918L12.9909 10.7409C13.1837 10.9295 13.4286 11.0561 13.6941 11.1042C13.9595 11.1523 14.2332 11.1198 14.48 11.0109H14.5455C14.7874 10.9072 14.9938 10.735 15.1392 10.5155C15.2846 10.296 15.3626 10.0387 15.3636 9.77545V9.63636C15.3636 9.20237 15.536 8.78616 15.8429 8.47928C16.1498 8.1724 16.566 8 17 8C17.434 8 17.8502 8.1724 18.1571 8.47928C18.464 8.78616 18.6364 9.20237 18.6364 9.63636V9.71C18.6374 9.97328 18.7154 10.2305 18.8608 10.45C19.0062 10.6695 19.2126 10.8417 19.4545 10.9455C19.7013 11.0544 19.9751 11.0869 20.2405 11.0387C20.5059 10.9906 20.7508 10.8641 20.9436 10.6755L20.9927 10.6264C21.1447 10.4742 21.3252 10.3535 21.5238 10.2712C21.7225 10.1888 21.9354 10.1464 22.1505 10.1464C22.3655 10.1464 22.5784 10.1888 22.7771 10.2712C22.9757 10.3535 23.1562 10.4742 23.3082 10.6264C23.4603 10.7783 23.581 10.9588 23.6634 11.1575C23.7457 11.3561 23.7881 11.569 23.7881 11.7841C23.7881 11.9991 23.7457 12.2121 23.6634 12.4107C23.581 12.6094 23.4603 12.7898 23.3082 12.9418L23.2591 12.9909C23.0705 13.1837 22.9439 13.4286 22.8958 13.6941C22.8477 13.9595 22.8802 14.2332 22.9891 14.48V14.5455C23.0928 14.7874 23.265 14.9938 23.4845 15.1392C23.704 15.2846 23.9613 15.3626 24.2245 15.3636H24.3636C24.7976 15.3636 25.2138 15.536 25.5207 15.8429C25.8276 16.1498 26 16.566 26 17C26 17.434 25.8276 17.8502 25.5207 18.1571C25.2138 18.464 24.7976 18.6364 24.3636 18.6364H24.29C24.0267 18.6374 23.7695 18.7154 23.55 18.8608C23.3305 19.0062 23.1583 19.2126 23.0545 19.4545V19.4545Z" stroke="#2A6DE8" stroke-width="1.6" stroke-linecap="round" stroke-linejoin="round"/>
</svg>
