<svg width="22" height="22" viewBox="0 0 22 22" fill="none" xmlns="http://www.w3.org/2000/svg">
<path d="M11 13.4545C12.3556 13.4545 13.4545 12.3556 13.4545 11C13.4545 9.64435 12.3556 8.54541 11 8.54541C9.64435 8.54541 8.54541 9.64435 8.54541 11C8.54541 12.3556 9.64435 13.4545 11 13.4545Z" stroke="#2A6DE8" stroke-width="1.6" stroke-linecap="round" stroke-linejoin="round"/>
<path d="M17.0545 13.4545C16.9456 13.7013 16.9131 13.9751 16.9613 14.2405C17.0094 14.5059 17.1359 14.7508 17.3245 14.9436L17.3736 14.9927C17.5258 15.1447 17.6465 15.3252 17.7288 15.5238C17.8112 15.7225 17.8536 15.9354 17.8536 16.1505C17.8536 16.3655 17.8112 16.5784 17.7288 16.7771C17.6465 16.9757 17.5258 17.1562 17.3736 17.3082C17.2217 17.4603 17.0412 17.581 16.8425 17.6634C16.6439 17.7457 16.431 17.7881 16.2159 17.7881C16.0009 17.7881 15.7879 17.7457 15.5893 17.6634C15.3906 17.581 15.2102 17.4603 15.0582 17.3082L15.0091 17.2591C14.8163 17.0705 14.5714 16.9439 14.3059 16.8958C14.0405 16.8477 13.7668 16.8802 13.52 16.9891C13.278 17.0928 13.0716 17.265 12.9263 17.4845C12.7809 17.704 12.7029 17.9613 12.7018 18.2245V18.3636C12.7018 18.7976 12.5294 19.2138 12.2225 19.5207C11.9157 19.8276 11.4994 20 11.0655 20C10.6315 20 10.2152 19.8276 9.90837 19.5207C9.60149 19.2138 9.42909 18.7976 9.42909 18.3636V18.29C9.42276 18.0192 9.3351 17.7565 9.17751 17.5362C9.01992 17.3159 8.79969 17.1481 8.54545 17.0545C8.29868 16.9456 8.02493 16.9131 7.75952 16.9613C7.4941 17.0094 7.24919 17.1359 7.05636 17.3245L7.00727 17.3736C6.8553 17.5258 6.67483 17.6465 6.47617 17.7288C6.27752 17.8112 6.06459 17.8536 5.84955 17.8536C5.6345 17.8536 5.42157 17.8112 5.22292 17.7288C5.02426 17.6465 4.84379 17.5258 4.69182 17.3736C4.53967 17.2217 4.41898 17.0412 4.33663 16.8425C4.25428 16.6439 4.21189 16.431 4.21189 16.2159C4.21189 16.0009 4.25428 15.7879 4.33663 15.5893C4.41898 15.3906 4.53967 15.2102 4.69182 15.0582L4.74091 15.0091C4.92953 14.8163 5.05606 14.5714 5.10419 14.3059C5.15231 14.0405 5.11982 13.7668 5.01091 13.52C4.90719 13.278 4.73498 13.0716 4.51547 12.9263C4.29596 12.7809 4.03873 12.7029 3.77545 12.7018H3.63636C3.20237 12.7018 2.78616 12.5294 2.47928 12.2225C2.1724 11.9157 2 11.4994 2 11.0655C2 10.6315 2.1724 10.2152 2.47928 9.90837C2.78616 9.60149 3.20237 9.42909 3.63636 9.42909H3.71C3.98081 9.42276 4.24346 9.3351 4.46379 9.17751C4.68412 9.01992 4.85195 8.79969 4.94545 8.54545C5.05437 8.29868 5.08686 8.02493 5.03873 7.75952C4.99061 7.4941 4.86408 7.24919 4.67545 7.05636L4.62636 7.00727C4.47422 6.8553 4.35352 6.67483 4.27118 6.47617C4.18883 6.27752 4.14644 6.06459 4.14644 5.84955C4.14644 5.6345 4.18883 5.42157 4.27118 5.22292C4.35352 5.02426 4.47422 4.84379 4.62636 4.69182C4.77834 4.53967 4.95881 4.41898 5.15746 4.33663C5.35611 4.25428 5.56905 4.21189 5.78409 4.21189C5.99913 4.21189 6.21207 4.25428 6.41072 4.33663C6.60937 4.41898 6.78984 4.53967 6.94182 4.69182L6.99091 4.74091C7.18374 4.92953 7.42865 5.05606 7.69406 5.10419C7.95948 5.15231 8.23322 5.11982 8.48 5.01091H8.54545C8.78745 4.90719 8.99383 4.73498 9.1392 4.51547C9.28457 4.29596 9.36259 4.03873 9.36364 3.77545V3.63636C9.36364 3.20237 9.53604 2.78616 9.84292 2.47928C10.1498 2.1724 10.566 2 11 2C11.434 2 11.8502 2.1724 12.1571 2.47928C12.464 2.78616 12.6364 3.20237 12.6364 3.63636V3.71C12.6374 3.97328 12.7154 4.23051 12.8608 4.45002C13.0062 4.66953 13.2126 4.84174 13.4545 4.94545C13.7013 5.05437 13.9751 5.08686 14.2405 5.03873C14.5059 4.99061 14.7508 4.86408 14.9436 4.67545L14.9927 4.62636C15.1447 4.47422 15.3252 4.35352 15.5238 4.27118C15.7225 4.18883 15.9354 4.14644 16.1505 4.14644C16.3655 4.14644 16.5784 4.18883 16.7771 4.27118C16.9757 4.35352 17.1562 4.47422 17.3082 4.62636C17.4603 4.77834 17.581 4.95881 17.6634 5.15746C17.7457 5.35611 17.7881 5.56905 17.7881 5.78409C17.7881 5.99913 17.7457 6.21207 17.6634 6.41072C17.581 6.60937 17.4603 6.78984 17.3082 6.94182L17.2591 6.99091C17.0705 7.18374 16.9439 7.42865 16.8958 7.69406C16.8477 7.95948 16.8802 8.23322 16.9891 8.48V8.54545C17.0928 8.78745 17.265 8.99383 17.4845 9.1392C17.704 9.28457 17.9613 9.36259 18.2245 9.36364H18.3636C18.7976 9.36364 19.2138 9.53604 19.5207 9.84292C19.8276 10.1498 20 10.566 20 11C20 11.434 19.8276 11.8502 19.5207 12.1571C19.2138 12.464 18.7976 12.6364 18.3636 12.6364H18.29C18.0267 12.6374 17.7695 12.7154 17.55 12.8608C17.3305 13.0062 17.1583 13.2126 17.0545 13.4545V13.4545Z" stroke="#2A6DE8" stroke-width="1.6" stroke-linecap="round" stroke-linejoin="round"/>
</svg>
