<svg width="20" height="20" viewBox="0 0 20 20" fill="none" xmlns="http://www.w3.org/2000/svg">
<path d="M10 0C4.47639 0 0 4.47639 0 10C0 15.5236 4.47639 20 10 20C15.5236 20 20 15.5236 20 10C20 4.47639 15.5236 0 10 0ZM10.9446 14.538H9.17865V13.0185H10.9446V14.538ZM10.9651 11.0267V11.8891H9.17865V9.36345H10.0616C10.8008 9.36345 11.3963 8.76797 11.3963 8.02875C11.3963 7.28953 10.8008 6.69405 10.0616 6.69405C9.32238 6.69405 8.7269 7.28953 8.7269 8.02875H6.94045C6.94045 6.3039 8.33676 4.9076 10.0616 4.9076C11.7864 4.9076 13.1828 6.3039 13.1828 8.02875C13.1828 9.44559 12.2587 10.6366 10.9651 11.0267Z" fill="#A4A3B4"/>
</svg>
