<svg width="22" height="20" viewBox="0 0 18 18" fill="none" xmlns="http://www.w3.org/2000/svg">
<g clip-path="url(#clip0)">
<path fill-rule="evenodd" clip-rule="evenodd" d="M17.1185 6.83287L17.4984 7.09134C18.0782 7.48898 18.1782 8.32402 17.6783 8.84095L17.3784 9.17894C17.0385 9.55669 16.9785 10.1134 17.2384 10.5508L17.4784 10.9484C17.8183 11.5648 17.5583 12.3402 16.8986 12.6185L16.4787 12.7974C16.0188 12.9963 15.7189 13.4734 15.7589 13.9705L15.7789 14.4278C15.8389 15.1236 15.2591 15.7201 14.5393 15.6803L14.0794 15.6604C13.5796 15.6207 13.0997 15.9189 12.9198 16.3961L12.7399 16.8335C12.4599 17.4896 11.6802 17.7679 11.0604 17.4299L10.6605 17.2112C10.2007 16.9528 9.66083 17.0323 9.28095 17.3703L8.94105 17.6884C8.42121 18.1656 7.60147 18.086 7.1816 17.5094L6.90169 17.1317C6.62178 16.7341 6.08195 16.5551 5.6021 16.6943L5.16224 16.8335C4.48245 17.0323 3.78267 16.5949 3.66271 15.899L3.58273 15.4417C3.50276 14.9447 3.10288 14.5669 2.60304 14.4874L2.14318 14.4079C1.4434 14.2886 0.983548 13.5927 1.18349 12.9167L1.36343 12.4594C1.50338 11.9823 1.32344 11.4455 0.903573 11.1671L0.523692 10.9087C-0.0761195 10.511 -0.176088 9.69587 0.303761 9.15906L0.603667 8.82106C0.943561 8.44331 1.00354 7.88661 0.743623 7.44921L0.503699 7.05157C0.163805 6.43524 0.423724 5.65984 1.08352 5.3815L1.50339 5.20256C1.96324 5.00374 2.26315 4.52657 2.22316 4.02953L2.18317 3.57224C2.12319 2.87638 2.70301 2.27992 3.42278 2.31968L3.88264 2.33957C4.38248 2.37933 4.86233 2.0811 5.04227 1.60394L5.22222 1.16654C5.50213 0.510433 6.28189 0.232086 6.90169 0.570078L7.30157 0.788779C7.76142 1.04724 8.30125 0.967716 8.68113 0.629724L9.02103 0.311614C9.54086 -0.165551 10.3606 -0.086024 10.7805 0.490551L11.0604 0.888189C11.3403 1.28583 11.8801 1.46476 12.36 1.32559L12.7998 1.18642C13.4796 0.987598 14.1794 1.425 14.2994 2.12087L14.3793 2.57815C14.4593 3.0752 14.8592 3.45295 15.359 3.53248L15.8189 3.61201C16.5187 3.7313 16.9785 4.42716 16.7786 5.10315L16.6586 5.54055C16.5187 6.01772 16.6986 6.55453 17.1185 6.83287ZM5.32512 8.195L7.36706 10.1696L12.5247 5.18652L13.8273 6.44923L7.36706 12.6865L4.0225 9.45771L5.32512 8.195Z" fill="#4F8DFF"/>
</g>
<defs>
<clipPath id="clip0">
<rect width="18" height="18" fill="white"/>
</clipPath>
</defs>
</svg>
