<svg width="20" height="20" viewBox="0 0 17 17" fill="none" xmlns="http://www.w3.org/2000/svg">
<path d="M15.8885 14.7527C16.3899 14.0806 16.734 13.3046 16.8953 12.4818C17.0567 11.659 17.0312 10.8104 16.8208 9.99877C16.6104 9.18712 16.2205 8.43307 15.6797 7.79227C15.1389 7.15147 14.4612 6.64028 13.6964 6.29642C13.5299 5.33807 13.147 4.43029 12.5771 3.64207C12.0071 2.85384 11.2649 2.2059 10.407 1.74749C9.54907 1.28907 8.59794 1.03224 7.62588 0.996508C6.65381 0.960774 5.68639 1.14708 4.79712 1.54127C3.90785 1.93545 3.12013 2.52715 2.49381 3.2714C1.86749 4.01565 1.41905 4.89287 1.18257 5.8364C0.946081 6.77994 0.927772 7.76496 1.12903 8.71663C1.33029 9.66831 1.74582 10.5616 2.34405 11.3286L1.23201 12.4326C1.121 12.5451 1.0458 12.688 1.0159 12.8432C0.986003 12.9984 1.00274 13.159 1.06401 13.3047C1.12403 13.4508 1.22595 13.5758 1.35693 13.6641C1.48791 13.7524 1.64209 13.7999 1.80003 13.8007H6.35219C6.80552 14.7564 7.52026 15.5642 8.41366 16.1305C9.30706 16.6969 10.3426 16.9986 11.4004 17.0008H16.2005C16.3585 17 16.5127 16.9525 16.6436 16.8642C16.7746 16.7759 16.8765 16.6509 16.9366 16.5048C16.9978 16.3591 17.0146 16.1985 16.9847 16.0433C16.9548 15.8881 16.8796 15.7452 16.7685 15.6327L15.8885 14.7527ZM5.80017 11.4006C5.80127 11.6685 5.82266 11.9359 5.86417 12.2006H3.7281L4.00811 11.9286C4.08309 11.8542 4.14261 11.7658 4.18323 11.6683C4.22384 11.5708 4.24476 11.4662 4.24476 11.3606C4.24476 11.255 4.22384 11.1504 4.18323 11.0529C4.14261 10.9554 4.08309 10.8669 4.00811 10.7926C3.55974 10.3491 3.20428 9.82073 2.96252 9.2383C2.72075 8.65586 2.59753 8.03107 2.60006 7.40046C2.60006 6.12738 3.10579 4.90643 4.006 4.00623C4.9062 3.10602 6.12714 2.60029 7.40023 2.60029C8.39361 2.59432 9.36388 2.89981 10.1747 3.47381C10.9854 4.04782 11.596 4.86147 11.9204 5.8004H11.4004C9.9151 5.8004 8.49067 6.39042 7.44043 7.44066C6.39019 8.4909 5.80017 9.91533 5.80017 11.4006ZM14.2325 15.4007L14.2725 15.4407H11.4004C10.475 15.4391 9.57883 15.1167 8.86453 14.5284C8.15023 13.9401 7.66197 13.1224 7.48294 12.2145C7.30392 11.3066 7.44519 10.3647 7.8827 9.54935C8.32021 8.73394 9.02689 8.09545 9.88235 7.74263C10.7378 7.38981 11.6891 7.3445 12.5743 7.61441C13.4594 7.88432 14.2236 8.45275 14.7366 9.22288C15.2496 9.99301 15.4798 10.9172 15.3879 11.838C15.2959 12.7588 14.8876 13.6192 14.2325 14.2727C14.0817 14.4204 13.9955 14.6217 13.9925 14.8327C13.9929 14.9386 14.0143 15.0433 14.0555 15.1408C14.0967 15.2383 14.1569 15.3266 14.2325 15.4007Z" fill="#A4A3B4"/>
</svg>
