<svg width="22" height="22" viewBox="0 0 22 22" fill="none" xmlns="http://www.w3.org/2000/svg">
<path fill-rule="evenodd" clip-rule="evenodd" d="M19.2521 4.95525C17.7654 2.95632 15.5602 1.52351 13.0187 1.03906C13.0435 1.06883 13.0679 1.09889 13.0917 1.1292C13.5801 1.74892 13.9828 2.59299 14.3052 3.56023C14.5229 4.21346 14.7111 4.94435 14.865 5.73575C16.4891 5.57059 17.9734 5.3018 19.2521 4.95525ZM9.1975 1.03907C9.17272 1.06884 9.14838 1.0989 9.1245 1.1292C8.63611 1.74892 8.23346 2.59299 7.91104 3.56023C7.6933 4.21346 7.50513 4.94434 7.35125 5.73575C5.72716 5.57058 4.24284 5.3018 2.96417 4.95525C4.45083 2.95633 6.65601 1.52353 9.1975 1.03907ZM20.1792 6.45926C20.7441 7.58501 21.1056 8.83046 21.2155 10.1474H15.3276C15.302 9.19986 15.234 8.28419 15.1285 7.4176C16.9992 7.2225 18.7135 6.89388 20.1792 6.45926ZM21.2163 11.8474H15.3278C15.3024 12.7965 15.2345 13.7137 15.1289 14.5816C17.0004 14.7768 18.7154 15.1057 20.1815 15.5406C20.7465 14.4133 21.1075 13.1661 21.2163 11.8474ZM19.2554 17.0448C17.9761 16.6979 16.4908 16.4288 14.8656 16.2635C14.7116 17.056 14.5232 17.7879 14.3052 18.442C13.9828 19.4092 13.5801 20.2533 13.0917 20.873C13.0671 20.9042 13.042 20.9352 13.0165 20.9658C15.5608 20.4815 17.7683 19.0466 19.2554 17.0448ZM9.19975 20.9658C6.65544 20.4814 4.44801 19.0466 2.96089 17.0448C4.24014 16.6979 5.72541 16.4288 7.35067 16.2635C7.50465 17.056 7.69303 17.7879 7.91104 18.442C8.23346 19.4092 8.63611 20.2533 9.1245 20.873C9.1491 20.9042 9.17419 20.9352 9.19975 20.9658ZM2.03479 15.5406C1.46984 14.4133 1.10878 13.1661 1 11.8474H6.88846C6.91388 12.7965 6.98178 13.7137 7.08738 14.5816C5.21585 14.7768 3.50084 15.1057 2.03479 15.5406ZM1.0008 10.1474H6.88866C6.91427 9.19986 6.98221 8.28419 7.08774 7.41759C5.21706 7.22249 3.50274 6.89388 2.03711 6.45927C1.47221 7.58501 1.1107 8.83046 1.0008 10.1474ZM8.78331 14.4444C8.68182 13.6291 8.61489 12.7579 8.5891 11.8474H13.6271C13.6014 12.7579 13.5344 13.6291 13.4329 14.4444C12.6756 14.4003 11.8989 14.3774 11.1081 14.3774C10.3174 14.3774 9.54066 14.4003 8.78331 14.4444ZM8.58931 10.1474H13.6269C13.601 9.23843 13.534 8.36871 13.4326 7.55481C12.6753 7.5989 11.8987 7.62175 11.1081 7.62175C10.3175 7.62175 9.54092 7.5989 8.78369 7.55481C8.68226 8.36871 8.61528 9.23843 8.58931 10.1474ZM9.05784 16.1317C9.72476 16.096 10.4095 16.0774 11.1081 16.0774C11.8068 16.0774 12.4915 16.096 13.1584 16.1317C13.0254 16.7813 12.8685 17.3762 12.6924 17.9044C12.403 18.7726 12.0771 19.414 11.7565 19.8208C11.4284 20.2371 11.2029 20.294 11.1081 20.294C11.0134 20.294 10.7878 20.2371 10.4597 19.8208C10.1391 19.414 9.81322 18.7726 9.52381 17.9044C9.34773 17.3762 9.19083 16.7813 9.05784 16.1317ZM11.1081 5.92175C11.8066 5.92175 12.4911 5.90316 13.1578 5.86752C13.0249 5.21911 12.8682 4.62523 12.6924 4.09782C12.403 3.22957 12.0771 2.58825 11.7565 2.18146C11.4284 1.76508 11.2029 1.70825 11.1081 1.70825C11.0134 1.70825 10.7878 1.76508 10.4597 2.18146C10.1391 2.58825 9.81322 3.22957 9.52381 4.09782C9.348 4.62523 9.19131 5.2191 9.05846 5.86752C9.72519 5.90316 10.4097 5.92175 11.1081 5.92175Z" fill="#C4C4C4"/>
</svg>
