<svg width="22" height="21" viewBox="0 0 22 21" fill="none" xmlns="http://www.w3.org/2000/svg">
<g>
<path d="M0.499995 2.82323C0.499995 2.14982 0.735692 1.59426 1.20706 1.15656C1.67844 0.718848 2.29124 0.5 3.04545 0.5C3.78619 0.5 4.3855 0.715474 4.84342 1.14646C5.3148 1.59091 5.55049 2.17002 5.55049 2.88383C5.55049 3.5303 5.32154 4.069 4.86362 4.49999C4.39225 4.94444 3.77272 5.16666 3.00504 5.16666H2.98484C2.24409 5.16666 1.64478 4.94444 1.18686 4.49999C0.728944 4.05555 0.499995 3.49662 0.499995 2.82323ZM0.762621 20.5V7.00504H5.24746V20.5H0.762621ZM7.73231 20.5H12.2171V12.9646C12.2171 12.4932 12.271 12.1296 12.3788 11.8737C12.5673 11.4158 12.8535 11.0286 13.2373 10.7121C13.6212 10.3956 14.1027 10.2374 14.6818 10.2374C16.1902 10.2374 16.9444 11.2542 16.9444 13.2879V20.5H21.4293V12.7626C21.4293 10.7693 20.9579 9.25756 20.0151 8.22726C19.0723 7.19696 17.8266 6.68181 16.2777 6.68181C14.5404 6.68181 13.1868 7.42928 12.2171 8.92423V8.96463H12.1969L12.2171 8.92423V7.00504H7.73231C7.75923 7.43601 7.77271 8.77607 7.77271 11.0252C7.77271 13.2744 7.75923 16.4326 7.73231 20.5Z" fill="#D0D0D0"/>
</g>
</svg>
