<svg width="20" height="18" viewBox="0 0 18 14" fill="none" xmlns="http://www.w3.org/2000/svg">
<path d="M9.225 7.165C9.62518 6.8186 9.94616 6.39016 10.1662 5.90877C10.3861 5.42737 10.5 4.90428 10.5 4.375C10.5 3.38044 10.1049 2.42661 9.40165 1.72335C8.69839 1.02009 7.74456 0.625 6.75 0.625C5.75544 0.625 4.80161 1.02009 4.09835 1.72335C3.39509 2.42661 3 3.38044 3 4.375C2.99999 4.90428 3.11385 5.42737 3.33384 5.90877C3.55384 6.39016 3.87482 6.8186 4.275 7.165C3.22511 7.64041 2.33435 8.40815 1.70924 9.37641C1.08412 10.3447 0.751104 11.4725 0.75 12.625C0.75 12.8239 0.829018 13.0147 0.96967 13.1553C1.11032 13.296 1.30109 13.375 1.5 13.375C1.69891 13.375 1.88968 13.296 2.03033 13.1553C2.17098 13.0147 2.25 12.8239 2.25 12.625C2.25 11.4315 2.72411 10.2869 3.56802 9.44302C4.41193 8.59911 5.55653 8.125 6.75 8.125C7.94347 8.125 9.08807 8.59911 9.93198 9.44302C10.7759 10.2869 11.25 11.4315 11.25 12.625C11.25 12.8239 11.329 13.0147 11.4697 13.1553C11.6103 13.296 11.8011 13.375 12 13.375C12.1989 13.375 12.3897 13.296 12.5303 13.1553C12.671 13.0147 12.75 12.8239 12.75 12.625C12.7489 11.4725 12.4159 10.3447 11.7908 9.37641C11.1657 8.40815 10.2749 7.64041 9.225 7.165ZM6.75 6.625C6.30499 6.625 5.86998 6.49304 5.49997 6.24581C5.12996 5.99857 4.84157 5.64717 4.67127 5.23604C4.50097 4.8249 4.45642 4.3725 4.54323 3.93605C4.63005 3.49959 4.84434 3.09868 5.15901 2.78401C5.47368 2.46934 5.87459 2.25505 6.31105 2.16823C6.7475 2.08142 7.1999 2.12597 7.61104 2.29627C8.02217 2.46657 8.37357 2.75496 8.62081 3.12497C8.86804 3.49498 9 3.92999 9 4.375C9 4.97174 8.76295 5.54403 8.34099 5.96599C7.91903 6.38795 7.34674 6.625 6.75 6.625ZM14.055 6.865C14.535 6.3245 14.8485 5.65679 14.9579 4.94225C15.0672 4.22772 14.9677 3.49681 14.6713 2.8375C14.375 2.17819 13.8943 1.6186 13.2874 1.22607C12.6804 0.833538 11.9729 0.624807 11.25 0.625C11.0511 0.625 10.8603 0.704018 10.7197 0.84467C10.579 0.985322 10.5 1.17609 10.5 1.375C10.5 1.57391 10.579 1.76468 10.7197 1.90533C10.8603 2.04598 11.0511 2.125 11.25 2.125C11.8467 2.125 12.419 2.36205 12.841 2.78401C13.2629 3.20597 13.5 3.77826 13.5 4.375C13.4989 4.76893 13.3945 5.15568 13.197 5.49657C12.9996 5.83745 12.7162 6.12054 12.375 6.3175C12.2638 6.38164 12.1709 6.47325 12.1053 6.58356C12.0396 6.69386 12.0034 6.81918 12 6.9475C11.9969 7.07482 12.0262 7.20085 12.0852 7.31369C12.1443 7.42654 12.2311 7.52249 12.3375 7.5925L12.63 7.7875L12.7275 7.84C13.6315 8.26879 14.3942 8.94699 14.9257 9.79474C15.4572 10.6425 15.7354 11.6245 15.7275 12.625C15.7275 12.8239 15.8065 13.0147 15.9472 13.1553C16.0878 13.296 16.2786 13.375 16.4775 13.375C16.6764 13.375 16.8672 13.296 17.0078 13.1553C17.1485 13.0147 17.2275 12.8239 17.2275 12.625C17.2336 11.4741 16.9454 10.3407 16.3901 9.33255C15.8348 8.3244 15.031 7.47499 14.055 6.865Z" fill="#A4A3B4"/>
</svg>
