<svg width="22" height="21" viewBox="0 0 22 21" fill="none" xmlns="http://www.w3.org/2000/svg">
  <path style="fill:#d0d0d0" id="path2" d="M 6.88804,20.8 C 15.1535,20.8 19.6733,13.9525 19.6733,8.01475 19.6733,7.82026 19.6693,7.62664 19.6606,7.4339 20.538,6.79961 21.3006,6.00806 21.9021,5.107 21.0969,5.46488 20.2305,5.70581 19.3215,5.81445 20.2493,5.25813 20.9616,4.37809 21.2976,3.328969 20.4294,3.843673 19.4679,4.21777 18.4441,4.41971 17.6241,3.546241 16.4567,3 15.1641,3 c -2.4816,0 -4.494,2.01238 -4.494,4.49304 0,0.35262 0.0395,0.69561 0.1166,1.02459 C 7.05188,8.3297 3.74026,6.5416 1.52419,3.822651 1.13827,4.48673 0.915741,5.25813 0.915741,6.08121 c 0,1.55901 0.793299,2.93535 1.999679,3.74048 C 2.17819,9.79891 1.48564,9.59653 0.880258,9.25968 c -6.62e-4,0.01885 -6.6e-4,0.03723 -6.6e-4,0.05738 0,2.17621 1.548932,3.99324 3.605112,4.40494 -0.37759,0.103 -0.7749,0.1582 -1.18491,0.1582 -0.28911,0 -0.57078,-0.0285 -0.84455,-0.0811 0.57208,1.7855 2.23097,3.0848 4.19779,3.1211 C 5.11506,18.1257 3.17758,18.8437 1.0719,18.8437 0.709635,18.8437 0.351751,18.8231 0,18.7815 1.98873,20.0562 4.35023,20.8 6.88827,20.8" />
</svg>
