<svg width="22" height="22" viewBox="0 0 22 22" fill="none" xmlns="http://www.w3.org/2000/svg">
<path d="M21.5467 5.41028C21.2932 4.46779 20.5501 3.72483 19.6078 3.47105C17.8862 3 10.9998 3 10.9998 3C10.9998 3 4.11359 3 2.39202 3.45319C1.46779 3.7067 0.706569 4.46792 0.453053 5.41028C0 7.13172 0 10.7018 0 10.7018C0 10.7018 0 14.2898 0.453053 15.9932C0.706837 16.9356 1.44966 17.6785 2.39216 17.9323C4.13172 18.4035 11 18.4035 11 18.4035C11 18.4035 17.8862 18.4035 19.6078 17.9503C20.5502 17.6967 21.2932 16.9537 21.547 16.0114C21.9999 14.2898 21.9999 10.7199 21.9999 10.7199C21.9999 10.7199 22.018 7.13172 21.5467 5.41028ZM8.80727 13.9999V7.40363L14.5337 10.7018L8.80727 13.9999Z" fill="#D0D0D0"/>
</svg>
