<svg width="46" height="46" viewBox="0 0 46 46" fill="none" xmlns="http://www.w3.org/2000/svg">
<circle cx="23" cy="23" r="16" fill="#53C372"/>
<circle cx="23" cy="23" r="16" fill="url(#paint0_linear_agree)"/>
<g filter="url(#filter0_d_agree)">
<path d="M18.8683 20.6047L22.9133 16.8594C23.8619 15.9811 24.5512 14.8593 24.9064 13.6163L24.9574 13.4379C25.2676 12.3521 26.7444 12.2012 27.2678 13.2019V13.2019C27.6024 13.8414 27.6443 14.5942 27.3829 15.2669L25.8172 19.2964H29.8586L28.8119 31.595L20.1948 30.4863C19.4363 30.3888 18.8683 29.743 18.8683 28.9782V28.9782L16.1149 29.459C15.5375 29.5598 14.9394 29.4022 14.5894 28.9321C14.0344 28.1866 13.3022 26.8303 13.286 24.8496C13.2696 22.8614 14.0152 21.4575 14.5817 20.6798C14.9357 20.1938 15.5487 20.0251 16.141 20.1285L18.8683 20.6047Z" fill="white"/>
<rect x="24.6248" y="19.0347" width="6.80349" height="3.14007" rx="1.57004" fill="white"/>
<rect x="25.6717" y="22.1747" width="6.80349" height="3.14007" rx="1.57004" fill="white"/>
<rect x="24.6248" y="25.3149" width="6.80349" height="3.14007" rx="1.57004" fill="white"/>
<path d="M23.5481 29.7454C23.565 29.0278 24.1515 28.4549 24.8693 28.4549H28.8679C29.7162 28.4549 30.4157 29.1197 30.4588 29.9669V29.9669C30.5095 30.9637 29.6416 31.7611 28.6527 31.6262L24.6907 31.0859C24.0242 30.9951 23.5323 30.418 23.5481 29.7454V29.7454Z" fill="white"/>
</g>
<defs>
<filter id="filter0_d_agree" x="4.28571" y="5.53073" width="37.1894" height="37.1104" filterUnits="userSpaceOnUse" color-interpolation-filters="sRGB">
<feFlood flood-opacity="0" result="BackgroundImageFix"/>
<feColorMatrix in="SourceAlpha" type="matrix" values="0 0 0 0 0 0 0 0 0 0 0 0 0 0 0 0 0 0 127 0"/>
<feOffset dy="2"/>
<feGaussianBlur stdDeviation="4.5"/>
<feColorMatrix type="matrix" values="0 0 0 0 0 0 0 0 0 0 0 0 0 0 0 0 0 0 0.08 0"/>
<feBlend mode="normal" in2="BackgroundImageFix" result="effect1_dropShadow"/>
<feBlend mode="normal" in="SourceGraphic" in2="effect1_dropShadow" result="shape"/>
</filter>
<linearGradient id="paint0_linear_agree" x1="37.5714" y1="5.28572" x2="19.2857" y2="41.5714" gradientUnits="userSpaceOnUse">
<stop stop-color="#53C372"/>
<stop offset="1" stop-color="#35D661"/>
</linearGradient>
</defs>
</svg>
