<svg width="46" height="46" viewBox="0 0 46 46" fill="none" xmlns="http://www.w3.org/2000/svg">
<g clip-path="url(#clip0)">
<mask id="mask0" mask-type="alpha" maskUnits="userSpaceOnUse" x="1" y="7" width="41" height="37">
<path fill-rule="evenodd" clip-rule="evenodd" d="M19.1606 32.0541L16.7508 31.6914C16.2177 31.6111 15.7206 31.9782 15.6403 32.5112L15.5279 33.258C15.4477 33.791 15.8148 34.2882 16.3478 34.3684L18.7576 34.7311C19.2906 34.8114 19.7878 34.4443 19.868 33.9113L19.9804 33.1645C20.0607 32.6315 19.6936 32.1344 19.1606 32.0541ZM17.0897 29.4394C15.313 29.1719 13.6558 30.3955 13.3884 32.1723L13.276 32.919C13.0085 34.6958 14.232 36.3529 16.0088 36.6204L18.4186 36.9831C20.1954 37.2506 21.8525 36.027 22.12 34.2503L22.2324 33.5035C22.4998 31.7267 21.2763 30.0696 19.4995 29.8021L17.0897 29.4394Z" fill="#B98D28"/>
<path fill-rule="evenodd" clip-rule="evenodd" d="M19.1606 32.0541L16.7508 31.6914C16.2177 31.6111 15.7206 31.9782 15.6403 32.5112L15.5279 33.258C15.4477 33.791 15.8148 34.2882 16.3478 34.3684L18.7576 34.7311C19.2906 34.8114 19.7878 34.4443 19.868 33.9113L19.9804 33.1645C20.0607 32.6315 19.6936 32.1344 19.1606 32.0541ZM17.0897 29.4394C15.313 29.1719 13.6558 30.3955 13.3884 32.1723L13.276 32.919C13.0085 34.6958 14.232 36.3529 16.0088 36.6204L18.4186 36.9831C20.1954 37.2506 21.8525 36.027 22.12 34.2503L22.2324 33.5035C22.4998 31.7267 21.2763 30.0696 19.4995 29.8021L17.0897 29.4394Z" fill="url(#paint0_radial)"/>
<path fill-rule="evenodd" clip-rule="evenodd" d="M19.1606 32.0541L16.7508 31.6914C16.2177 31.6111 15.7206 31.9782 15.6403 32.5112L15.5279 33.258C15.4477 33.791 15.8148 34.2882 16.3478 34.3684L18.7576 34.7311C19.2906 34.8114 19.7878 34.4443 19.868 33.9113L19.9804 33.1645C20.0607 32.6315 19.6936 32.1344 19.1606 32.0541ZM17.0897 29.4394C15.313 29.1719 13.6558 30.3955 13.3884 32.1723L13.276 32.919C13.0085 34.6958 14.232 36.3529 16.0088 36.6204L18.4186 36.9831C20.1954 37.2506 21.8525 36.027 22.12 34.2503L22.2324 33.5035C22.4998 31.7267 21.2763 30.0696 19.4995 29.8021L17.0897 29.4394Z" fill="url(#paint1_radial)" fill-opacity="0.6"/>
<path d="M6.70327 29.2415C7.35872 31.6876 6.9805 33.9144 5.85848 34.215C4.73647 34.5156 3.29555 32.7764 2.6401 30.3302C1.98465 27.884 2.36288 25.6573 3.48489 25.3566C4.60691 25.056 6.04782 26.7953 6.70327 29.2415Z" fill="#FFD337"/>
<path d="M6.70327 29.2415C7.35872 31.6876 6.9805 33.9144 5.85848 34.215C4.73647 34.5156 3.29555 32.7764 2.6401 30.3302C1.98465 27.884 2.36288 25.6573 3.48489 25.3566C4.60691 25.056 6.04782 26.7953 6.70327 29.2415Z" fill="url(#paint2_radial)"/>
<path fill-rule="evenodd" clip-rule="evenodd" d="M3.53852 27.9603C3.57661 27.3901 3.70067 26.8286 3.95294 26.3896L5.08127 27.038C4.96501 27.2403 4.86796 27.5831 4.83697 28.047C4.80668 28.5006 4.84273 29.0236 4.95171 29.5516C5.175 30.6335 5.67267 31.5994 6.36318 32.08L5.61976 33.1481C4.54115 32.3974 3.93311 31.0544 3.67723 29.8147C3.54663 29.1819 3.49974 28.5409 3.53852 27.9603Z" fill="#7E4C00"/>
<path d="M4.55117 27.1493L28.6194 8.8973L35.785 35.6398L5.97455 32.4615C5.97455 32.4615 4.99718 31.2156 4.66244 29.9663C4.3277 28.717 4.55117 27.1493 4.55117 27.1493Z" fill="#FFD337"/>
<path d="M4.55117 27.1493L28.6194 8.8973L35.785 35.6398L5.97455 32.4615C5.97455 32.4615 4.99718 31.2156 4.66244 29.9663C4.3277 28.717 4.55117 27.1493 4.55117 27.1493Z" fill="url(#paint3_radial)"/>
<path d="M4.55004 27.1498L28.6182 12.5287L36.4005 31.0258L4.6613 29.9667C4.32657 28.7175 4.55004 27.1498 4.55004 27.1498Z" fill="#FFD337"/>
<path d="M4.55004 27.1498L28.6182 12.5287L36.4005 31.0258L4.6613 29.9667C4.32657 28.7175 4.55004 27.1498 4.55004 27.1498Z" fill="url(#paint4_radial)"/>
<path d="M4.55004 27.1498L28.6182 12.5287L34.1312 18.0906L4.6613 29.9667C4.32657 28.7175 4.55004 27.1498 4.55004 27.1498Z" fill="url(#paint5_radial)"/>
<path d="M4.5517 27.6036L33.1585 30.6833L35.7855 34.7325L4.66297 30.4206C4.32823 29.1713 4.5517 27.6036 4.5517 27.6036Z" fill="#FFD337"/>
<path d="M4.5517 27.6036L33.1585 30.6833L35.7855 34.7325L4.66297 30.4206C4.32823 29.1713 4.5517 27.6036 4.5517 27.6036Z" fill="url(#paint6_radial)"/>
<path d="M4.5517 27.1503L30.048 20.8143L31.6365 26.0338L4.66297 29.9673C4.32823 28.718 4.5517 27.1503 4.5517 27.1503Z" fill="#FFD337"/>
<path d="M4.5517 27.1503L30.048 20.8143L31.6365 26.0338L4.66297 29.9673C4.32823 28.718 4.5517 27.1503 4.5517 27.1503Z" fill="url(#paint7_radial)"/>
<path d="M37.485 20.8884C39.511 28.4495 39.1355 35.1197 36.6463 35.7867C34.1571 36.4537 30.4968 30.8649 28.4708 23.3038C26.4448 15.7427 26.8203 9.07246 29.3095 8.40548C31.7987 7.7385 35.459 13.3273 37.485 20.8884Z" fill="#FFED91"/>
<path d="M37.485 20.8884C39.511 28.4495 39.1355 35.1197 36.6463 35.7867C34.1571 36.4537 30.4968 30.8649 28.4708 23.3038C26.4448 15.7427 26.8203 9.07246 29.3095 8.40548C31.7987 7.7385 35.459 13.3273 37.485 20.8884Z" fill="url(#paint8_linear)"/>
<path fill-rule="evenodd" clip-rule="evenodd" d="M27.5218 13.2876C27.3724 15.9407 27.7785 19.4631 28.7851 23.2196C29.7916 26.9761 31.2011 30.2296 32.657 32.4525C33.386 33.5655 34.1162 34.4043 34.7999 34.9214C35.4878 35.4418 36.0791 35.6019 36.5621 35.4725L36.7305 36.101C35.969 36.305 35.1692 36.0167 34.4074 35.4404C33.6414 34.8609 32.8632 33.955 32.1127 32.809C30.6096 30.514 29.176 27.1926 28.1566 23.388C27.1371 19.5834 26.718 15.9901 26.8722 13.251C26.9491 11.8834 27.1701 10.7097 27.5437 9.82488C27.9154 8.94488 28.4638 8.2953 29.2253 8.09124L29.3937 8.71974C28.9107 8.84917 28.4787 9.28348 28.1431 10.078C27.8096 10.8677 27.5966 11.9592 27.5218 13.2876Z" fill="#AA6805" fill-opacity="0.7"/>
<path d="M36.6255 21.2408C38.4963 28.2225 38.4806 34.2929 36.5904 34.7993C34.7003 35.3058 31.6515 30.0566 29.7808 23.0749C27.91 16.0932 27.9258 10.0228 29.8159 9.51634C31.706 9.00988 34.7548 14.2591 36.6255 21.2408Z" fill="#C58E24"/>
<path d="M36.6255 21.2408C38.4963 28.2225 38.4806 34.2929 36.5904 34.7993C34.7003 35.3058 31.6515 30.0566 29.7808 23.0749C27.91 16.0932 27.9258 10.0228 29.8159 9.51634C31.706 9.00988 34.7548 14.2591 36.6255 21.2408Z" fill="url(#paint9_linear)"/>
<mask id="mask1" maskUnits="userSpaceOnUse" x="26" y="8" width="15" height="28">
<path d="M36.6247 21.2425C38.4954 28.2242 38.4797 34.2945 36.5896 34.801C34.6995 35.3074 31.6507 30.0582 29.7799 23.0765C27.9092 16.0948 27.9249 10.0244 29.815 9.51799C31.7052 9.01153 34.754 14.2608 36.6247 21.2425Z" fill="#C58E24"/>
<path d="M36.6247 21.2425C38.4954 28.2242 38.4797 34.2945 36.5896 34.801C34.6995 35.3074 31.6507 30.0582 29.7799 23.0765C27.9092 16.0948 27.9249 10.0244 29.815 9.51799C31.7052 9.01153 34.754 14.2608 36.6247 21.2425Z" fill="url(#paint10_linear)"/>
</mask>
<g mask="url(#mask1)">
<path d="M36.1568 25.1488C37.5267 30.2611 37.2849 34.7677 35.6169 35.2147C33.9489 35.6616 31.4863 31.8796 30.1165 26.7674C28.7466 21.6551 27.016 17.2469 28.684 16.7999C30.352 16.353 34.787 20.0366 36.1568 25.1488Z" fill="url(#paint11_linear)"/>
</g>
</mask>
<g mask="url(#mask0)">
<path fill-rule="evenodd" clip-rule="evenodd" d="M19.1606 32.0541L16.7508 31.6914C16.2177 31.6111 15.7206 31.9782 15.6403 32.5112L15.5279 33.258C15.4477 33.791 15.8148 34.2882 16.3478 34.3684L18.7576 34.7311C19.2906 34.8114 19.7878 34.4443 19.868 33.9113L19.9804 33.1645C20.0607 32.6315 19.6936 32.1344 19.1606 32.0541ZM17.0897 29.4394C15.313 29.1719 13.6558 30.3955 13.3884 32.1723L13.276 32.919C13.0085 34.6958 14.232 36.3529 16.0088 36.6204L18.4186 36.9831C20.1954 37.2506 21.8525 36.027 22.12 34.2503L22.2324 33.5035C22.4998 31.7267 21.2763 30.0696 19.4995 29.8021L17.0897 29.4394Z" fill="#B98D28"/>
<path fill-rule="evenodd" clip-rule="evenodd" d="M19.1606 32.0541L16.7508 31.6914C16.2177 31.6111 15.7206 31.9782 15.6403 32.5112L15.5279 33.258C15.4477 33.791 15.8148 34.2882 16.3478 34.3684L18.7576 34.7311C19.2906 34.8114 19.7878 34.4443 19.868 33.9113L19.9804 33.1645C20.0607 32.6315 19.6936 32.1344 19.1606 32.0541ZM17.0897 29.4394C15.313 29.1719 13.6558 30.3955 13.3884 32.1723L13.276 32.919C13.0085 34.6958 14.232 36.3529 16.0088 36.6204L18.4186 36.9831C20.1954 37.2506 21.8525 36.027 22.12 34.2503L22.2324 33.5035C22.4998 31.7267 21.2763 30.0696 19.4995 29.8021L17.0897 29.4394Z" fill="url(#paint12_radial)"/>
<path fill-rule="evenodd" clip-rule="evenodd" d="M19.1606 32.0541L16.7508 31.6914C16.2177 31.6111 15.7206 31.9782 15.6403 32.5112L15.5279 33.258C15.4477 33.791 15.8148 34.2882 16.3478 34.3684L18.7576 34.7311C19.2906 34.8114 19.7878 34.4443 19.868 33.9113L19.9804 33.1645C20.0607 32.6315 19.6936 32.1344 19.1606 32.0541ZM17.0897 29.4394C15.313 29.1719 13.6558 30.3955 13.3884 32.1723L13.276 32.919C13.0085 34.6958 14.232 36.3529 16.0088 36.6204L18.4186 36.9831C20.1954 37.2506 21.8525 36.027 22.12 34.2503L22.2324 33.5035C22.4998 31.7267 21.2763 30.0696 19.4995 29.8021L17.0897 29.4394Z" fill="url(#paint13_radial)" fill-opacity="0.6"/>
<path d="M6.70327 29.2415C7.35872 31.6876 6.9805 33.9144 5.85848 34.215C4.73647 34.5156 3.29555 32.7764 2.6401 30.3302C1.98465 27.884 2.36288 25.6573 3.48489 25.3566C4.60691 25.056 6.04782 26.7953 6.70327 29.2415Z" fill="#FFD337"/>
<path d="M6.70327 29.2415C7.35872 31.6876 6.9805 33.9144 5.85848 34.215C4.73647 34.5156 3.29555 32.7764 2.6401 30.3302C1.98465 27.884 2.36288 25.6573 3.48489 25.3566C4.60691 25.056 6.04782 26.7953 6.70327 29.2415Z" fill="url(#paint14_radial)"/>
<g filter="url(#filter0_f_needs)">
<path fill-rule="evenodd" clip-rule="evenodd" d="M3.53867 27.9603C3.57676 27.3901 3.70082 26.8286 3.95309 26.3896L5.08142 27.038C4.96517 27.2403 4.86811 27.5831 4.83712 28.047C4.80683 28.5006 4.84289 29.0236 4.95186 29.5516C5.17516 30.6335 5.67282 31.5994 6.36334 32.08L5.61991 33.1481C4.54131 32.3973 3.93326 31.0544 3.67738 29.8147C3.54678 29.1819 3.49989 28.5409 3.53867 27.9603Z" fill="#7E4C00"/>
</g>
<path d="M4.55117 27.1493L28.6194 8.8973L35.785 35.6398L5.97455 32.4615C5.97455 32.4615 4.99718 31.2156 4.66244 29.9663C4.3277 28.717 4.55117 27.1493 4.55117 27.1493Z" fill="#FFD337"/>
<path d="M4.55117 27.1493L28.6194 8.8973L35.785 35.6398L5.97455 32.4615C5.97455 32.4615 4.99718 31.2156 4.66244 29.9663C4.3277 28.717 4.55117 27.1493 4.55117 27.1493Z" fill="url(#paint15_radial)"/>
<g filter="url(#filter1_f_needs)">
<path d="M4.55004 27.1498L28.6182 12.5287L36.4005 31.0258L4.6613 29.9667C4.32657 28.7175 4.55004 27.1498 4.55004 27.1498Z" fill="#FFD337"/>
<path d="M4.55004 27.1498L28.6182 12.5287L36.4005 31.0258L4.6613 29.9667C4.32657 28.7175 4.55004 27.1498 4.55004 27.1498Z" fill="url(#paint16_radial)"/>
</g>
<g filter="url(#filter2_f_needs)">
<path d="M4.90404 28.9952L28.6184 12.5287L34.1313 18.0906L4.66146 29.9667C4.32672 28.7174 4.90404 28.9952 4.90404 28.9952Z" fill="url(#paint17_radial)"/>
</g>
<g filter="url(#filter3_f_needs)">
<path d="M4.5517 27.6036L33.1585 30.6833L35.7855 34.7325L4.66297 30.4206C4.32823 29.1713 4.5517 27.6036 4.5517 27.6036Z" fill="#FFD337"/>
<path d="M4.5517 27.6036L33.1585 30.6833L35.7855 34.7325L4.66297 30.4206C4.32823 29.1713 4.5517 27.6036 4.5517 27.6036Z" fill="url(#paint18_radial)"/>
</g>
<g filter="url(#filter4_f_needs)">
<path d="M4.5517 27.1503L30.048 20.8143L31.6365 26.0338L4.66297 29.9673C4.32823 28.718 4.5517 27.1503 4.5517 27.1503Z" fill="#FFD337"/>
<path d="M4.5517 27.1503L30.048 20.8143L31.6365 26.0338L4.66297 29.9673C4.32823 28.718 4.5517 27.1503 4.5517 27.1503Z" fill="url(#paint19_radial)"/>
</g>
<path d="M37.485 20.8884C39.511 28.4495 39.1355 35.1197 36.6463 35.7867C34.1571 36.4537 30.4968 30.8649 28.4708 23.3038C26.4448 15.7427 26.8203 9.07246 29.3095 8.40548C31.7987 7.7385 35.459 13.3273 37.485 20.8884Z" fill="#FFED91"/>
<path d="M37.485 20.8884C39.511 28.4495 39.1355 35.1197 36.6463 35.7867C34.1571 36.4537 30.4968 30.8649 28.4708 23.3038C26.4448 15.7427 26.8203 9.07246 29.3095 8.40548C31.7987 7.7385 35.459 13.3273 37.485 20.8884Z" fill="url(#paint20_linear)"/>
<g filter="url(#filter5_f_needs)">
<path fill-rule="evenodd" clip-rule="evenodd" d="M27.5218 13.2876C27.3724 15.9407 27.7785 19.4631 28.7851 23.2196C29.7916 26.9761 31.2011 30.2296 32.657 32.4525C33.386 33.5655 34.1162 34.4043 34.7999 34.9214C35.4878 35.4418 36.0791 35.6019 36.5621 35.4725L36.7305 36.101C35.969 36.305 35.1692 36.0167 34.4074 35.4404C33.6414 34.8609 32.8632 33.955 32.1127 32.809C30.6096 30.514 29.176 27.1926 28.1566 23.388C27.1371 19.5834 26.718 15.9901 26.8722 13.251C26.9491 11.8834 27.1701 10.7097 27.5437 9.82488C27.9154 8.94488 28.4638 8.2953 29.2253 8.09124L29.3937 8.71974C28.9107 8.84917 28.4787 9.28348 28.1431 10.078C27.8096 10.8677 27.5966 11.9592 27.5218 13.2876Z" fill="#AA6805" fill-opacity="0.7"/>
</g>
<path d="M36.6255 21.2408C38.4963 28.2225 38.4806 34.2929 36.5904 34.7993C34.7003 35.3058 31.6515 30.0566 29.7808 23.0749C27.91 16.0932 27.9258 10.0228 29.8159 9.51634C31.706 9.00988 34.7548 14.2591 36.6255 21.2408Z" fill="#C58E24"/>
<path d="M36.6255 21.2408C38.4963 28.2225 38.4806 34.2929 36.5904 34.7993C34.7003 35.3058 31.6515 30.0566 29.7808 23.0749C27.91 16.0932 27.9258 10.0228 29.8159 9.51634C31.706 9.00988 34.7548 14.2591 36.6255 21.2408Z" fill="url(#paint21_linear)"/>
<mask id="mask2" mask-type="alpha" maskUnits="userSpaceOnUse" x="26" y="8" width="15" height="28">
<path d="M36.6247 21.2425C38.4954 28.2242 38.4797 34.2945 36.5896 34.801C34.6995 35.3074 31.6507 30.0582 29.7799 23.0765C27.9092 16.0948 27.9249 10.0244 29.815 9.51799C31.7052 9.01153 34.754 14.2608 36.6247 21.2425Z" fill="#C58E24"/>
<path d="M36.6247 21.2425C38.4954 28.2242 38.4797 34.2945 36.5896 34.801C34.6995 35.3074 31.6507 30.0582 29.7799 23.0765C27.9092 16.0948 27.9249 10.0244 29.815 9.51799C31.7052 9.01153 34.754 14.2608 36.6247 21.2425Z" fill="url(#paint22_linear)"/>
</mask>
<g mask="url(#mask2)">
<g filter="url(#filter6_f_needs)">
<path d="M36.1568 25.1488C37.5267 30.2611 37.2849 34.7677 35.6169 35.2147C33.9489 35.6616 31.4863 31.8796 30.1165 26.7674C28.7466 21.6551 27.016 17.2469 28.684 16.7999C30.352 16.353 34.787 20.0366 36.1568 25.1488Z" fill="url(#paint23_linear)"/>
</g>
</g>
</g>
<g style="mix-blend-mode:overlay" opacity="0.6">
<path fill-rule="evenodd" clip-rule="evenodd" d="M29.3095 8.40548C31.7987 7.7385 35.459 13.3273 37.485 20.8884C39.511 28.4495 39.1355 35.1197 36.6463 35.7867L36.7305 36.101C35.9965 36.2976 35.2271 36.0369 34.4902 35.5018L22.13 34.1839L22.12 34.2503C21.8525 36.027 20.1954 37.2506 18.4186 36.9831L16.0088 36.6204C14.3384 36.3689 13.157 34.8892 13.2438 33.2365L6.94191 32.5646C6.78565 33.4477 6.41285 34.0665 5.85848 34.215C4.73646 34.5156 3.29554 32.7764 2.6401 30.3302C1.98465 27.884 2.36287 25.6573 3.48488 25.3566C4.09948 25.192 4.80975 25.6393 5.43421 26.4797L27.6184 9.65635C27.9875 8.86236 28.5132 8.28204 29.2253 8.09123L29.3095 8.40548ZM15.5198 33.4792L19.8629 33.9422C19.7684 34.4584 19.2802 34.8098 18.7576 34.7311L16.3478 34.3684C15.8896 34.2994 15.554 33.9223 15.5198 33.4792Z" fill="#FFAF75"/>
</g>
<path fill-rule="evenodd" clip-rule="evenodd" d="M39.9144 4.7509C39.5281 4.7509 39.2269 5.0855 39.2673 5.46969L39.9867 12.3035C40.0215 12.6347 40.3008 12.8861 40.6338 12.8861H41.6031C41.936 12.8861 42.2153 12.6347 42.2502 12.3035L42.9695 5.46969C43.0099 5.08551 42.7087 4.7509 42.3224 4.7509H39.9144ZM41.1185 16.7398C41.9462 16.7398 42.6171 16.0689 42.6171 15.2412C42.6171 14.4136 41.9462 13.7426 41.1185 13.7426C40.2909 13.7426 39.6199 14.4136 39.6199 15.2412C39.6199 16.0689 40.2909 16.7398 41.1185 16.7398Z" fill="#E00000"/>
<path fill-rule="evenodd" clip-rule="evenodd" d="M39.9144 4.7509C39.5281 4.7509 39.2269 5.0855 39.2673 5.46969L39.9867 12.3035C40.0215 12.6347 40.3008 12.8861 40.6338 12.8861H41.6031C41.936 12.8861 42.2153 12.6347 42.2502 12.3035L42.9695 5.46969C43.0099 5.08551 42.7087 4.7509 42.3224 4.7509H39.9144ZM41.1185 16.7398C41.9462 16.7398 42.6171 16.0689 42.6171 15.2412C42.6171 14.4136 41.9462 13.7426 41.1185 13.7426C40.2909 13.7426 39.6199 14.4136 39.6199 15.2412C39.6199 16.0689 40.2909 16.7398 41.1185 16.7398Z" fill="url(#paint24_linear)"/>
<path opacity="0.2" d="M40.7976 0.300628C40.7976 0.156886 40.9142 0.0403595 41.0579 0.0403595H41.3937C41.5374 0.0403595 41.654 0.156886 41.654 0.300628V1.92092C41.654 2.06467 41.5374 2.18119 41.3937 2.18119H41.0579C40.9142 2.18119 40.7976 2.06467 40.7976 1.92092V0.300628Z" fill="#E00000"/>
<path opacity="0.2" d="M36.9171 1.93547C36.8452 1.81098 36.8879 1.6518 37.0123 1.57993L37.3031 1.41204C37.4276 1.34016 37.5868 1.38282 37.6587 1.5073L38.4688 2.91052C38.5407 3.035 38.498 3.19418 38.3736 3.26605L38.0828 3.43395C37.9583 3.50582 37.7991 3.46317 37.7272 3.33868L36.9171 1.93547Z" fill="#E00000"/>
<path opacity="0.2" d="M45.5333 1.93547C45.6052 1.81098 45.5626 1.6518 45.4381 1.57993L45.1473 1.41204C45.0228 1.34016 44.8636 1.38282 44.7917 1.5073L43.9816 2.91052C43.9097 3.035 43.9524 3.19418 44.0768 3.26605L44.3677 3.43395C44.4921 3.50582 44.6513 3.46317 44.7232 3.33868L45.5333 1.93547Z" fill="#E00000"/>
</g>
<defs>
<filter id="filter0_f_needs" x="2.52548" y="25.3896" width="4.83785" height="8.7585" filterUnits="userSpaceOnUse" color-interpolation-filters="sRGB">
<feFlood flood-opacity="0" result="BackgroundImageFix"/>
<feBlend mode="normal" in="SourceGraphic" in2="BackgroundImageFix" result="shape"/>
<feGaussianBlur stdDeviation="0.5" result="effect1_foregroundBlur"/>
</filter>
<filter id="filter1_f_needs" x="-2.0934" y="7.82217" width="42.4939" height="35.0675" filterUnits="userSpaceOnUse" color-interpolation-filters="sRGB">
<feFlood flood-opacity="0" result="BackgroundImageFix"/>
<feBlend mode="normal" in="SourceGraphic" in2="BackgroundImageFix" result="shape"/>
<feGaussianBlur stdDeviation="2" result="effect1_foregroundBlur"/>
</filter>
<filter id="filter2_f_needs" x="-5.09325" y="4.52298" width="47.2195" height="32.4437" filterUnits="userSpaceOnUse" color-interpolation-filters="sRGB">
<feFlood flood-opacity="0" result="BackgroundImageFix"/>
<feBlend mode="normal" in="SourceGraphic" in2="BackgroundImageFix" result="shape"/>
<feGaussianBlur stdDeviation="3.5" result="effect1_foregroundBlur"/>
</filter>
<filter id="filter3_f_needs" x="-0.0487213" y="16.2727" width="39.8342" height="29.9516" filterUnits="userSpaceOnUse" color-interpolation-filters="sRGB">
<feFlood flood-opacity="0" result="BackgroundImageFix"/>
<feBlend mode="normal" in="SourceGraphic" in2="BackgroundImageFix" result="shape"/>
<feGaussianBlur stdDeviation="2" result="effect1_foregroundBlur"/>
</filter>
<filter id="filter4_f_needs" x="-0.0487213" y="16.3043" width="35.6853" height="20.7364" filterUnits="userSpaceOnUse" color-interpolation-filters="sRGB">
<feFlood flood-opacity="0" result="BackgroundImageFix"/>
<feBlend mode="normal" in="SourceGraphic" in2="BackgroundImageFix" result="shape"/>
<feGaussianBlur stdDeviation="2" result="effect1_foregroundBlur"/>
</filter>
<filter id="filter5_f_needs" x="22.404" y="6.09125" width="16.3265" height="33.3016" filterUnits="userSpaceOnUse" color-interpolation-filters="sRGB">
<feFlood flood-opacity="0" result="BackgroundImageFix"/>
<feBlend mode="normal" in="SourceGraphic" in2="BackgroundImageFix" result="shape"/>
<feGaussianBlur stdDeviation="1" result="effect1_foregroundBlur"/>
</filter>
<filter id="filter6_f_needs" x="20.4543" y="8.49098" width="25.1828" height="34.5528" filterUnits="userSpaceOnUse" color-interpolation-filters="sRGB">
<feFlood flood-opacity="0" result="BackgroundImageFix"/>
<feBlend mode="normal" in="SourceGraphic" in2="BackgroundImageFix" result="shape"/>
<feGaussianBlur stdDeviation="3.5" result="effect1_foregroundBlur"/>
</filter>
<radialGradient id="paint0_radial" cx="0" cy="0" r="1" gradientUnits="userSpaceOnUse" gradientTransform="translate(17.1117 33.8198) rotate(74.4759) scale(4.23947 5.2213)">
<stop stop-color="#FFBB0C"/>
<stop offset="1" stop-color="#B98D28"/>
</radialGradient>
<radialGradient id="paint1_radial" cx="0" cy="0" r="1" gradientUnits="userSpaceOnUse" gradientTransform="translate(19.608 35.5639) rotate(168.111) scale(4.40626 5.42671)">
<stop stop-color="#FF9D73"/>
<stop offset="1" stop-color="white" stop-opacity="0"/>
</radialGradient>
<radialGradient id="paint2_radial" cx="0" cy="0" r="1" gradientUnits="userSpaceOnUse" gradientTransform="translate(4.48563 30.7476) rotate(-133.025) scale(5.22695 4.09745)">
<stop stop-color="#FFDA56"/>
<stop offset="1" stop-color="#AA6805"/>
</radialGradient>
<radialGradient id="paint3_radial" cx="0" cy="0" r="1" gradientUnits="userSpaceOnUse" gradientTransform="translate(23.6934 23.8348) rotate(120.964) scale(10.5859 10.933)">
<stop stop-color="#FFDA56"/>
<stop offset="1" stop-color="#A97D29"/>
</radialGradient>
<radialGradient id="paint4_radial" cx="0" cy="0" r="1" gradientUnits="userSpaceOnUse" gradientTransform="translate(23.6923 23.8353) rotate(112.891) scale(11.085 11.4484)">
<stop stop-color="#FFF0BC"/>
<stop offset="1" stop-color="#EFC221"/>
</radialGradient>
<radialGradient id="paint5_radial" cx="0" cy="0" r="1" gradientUnits="userSpaceOnUse" gradientTransform="translate(19.8344 17.1829) rotate(125.707) scale(8.94303 9.23625)">
<stop stop-color="#FFB340"/>
<stop offset="1" stop-color="#EFC221"/>
</radialGradient>
<radialGradient id="paint6_radial" cx="0" cy="0" r="1" gradientUnits="userSpaceOnUse" gradientTransform="translate(23.6939 24.2889) rotate(112.891) scale(11.085 11.4484)">
<stop stop-color="white"/>
<stop offset="1" stop-color="#EFC221"/>
</radialGradient>
<radialGradient id="paint7_radial" cx="0" cy="0" r="1" gradientUnits="userSpaceOnUse" gradientTransform="translate(23.6939 23.8358) rotate(112.891) scale(11.085 11.4484)">
<stop stop-color="#FFF8DD"/>
<stop offset="1" stop-color="#EFC221"/>
</radialGradient>
<linearGradient id="paint8_linear" x1="29.3095" y1="8.40548" x2="36.6463" y2="35.7867" gradientUnits="userSpaceOnUse">
<stop stop-color="#FFED90"/>
<stop offset="1" stop-color="#FFB800"/>
</linearGradient>
<linearGradient id="paint9_linear" x1="29.8159" y1="9.51634" x2="33.3817" y2="40.588" gradientUnits="userSpaceOnUse">
<stop stop-color="#7A4F0F"/>
<stop offset="1" stop-color="#BE810A"/>
</linearGradient>
<linearGradient id="paint10_linear" x1="29.815" y1="9.51799" x2="33.3809" y2="40.5897" gradientUnits="userSpaceOnUse">
<stop stop-color="#7A4F0F"/>
<stop offset="1" stop-color="#BE810A"/>
</linearGradient>
<linearGradient id="paint11_linear" x1="30.6565" y1="16.7016" x2="33.8426" y2="39.4582" gradientUnits="userSpaceOnUse">
<stop stop-color="#B38033"/>
<stop offset="1" stop-color="#F2A91B"/>
</linearGradient>
<radialGradient id="paint12_radial" cx="0" cy="0" r="1" gradientUnits="userSpaceOnUse" gradientTransform="translate(17.1117 33.8198) rotate(74.4759) scale(4.23947 5.2213)">
<stop stop-color="#FFBB0C"/>
<stop offset="1" stop-color="#B98D28"/>
</radialGradient>
<radialGradient id="paint13_radial" cx="0" cy="0" r="1" gradientUnits="userSpaceOnUse" gradientTransform="translate(19.608 35.5639) rotate(168.111) scale(4.40626 5.42671)">
<stop stop-color="#FF9D73"/>
<stop offset="1" stop-color="white" stop-opacity="0"/>
</radialGradient>
<radialGradient id="paint14_radial" cx="0" cy="0" r="1" gradientUnits="userSpaceOnUse" gradientTransform="translate(4.48563 30.7476) rotate(-133.025) scale(5.22695 4.09745)">
<stop stop-color="#FFDA56"/>
<stop offset="1" stop-color="#AA6805"/>
</radialGradient>
<radialGradient id="paint15_radial" cx="0" cy="0" r="1" gradientUnits="userSpaceOnUse" gradientTransform="translate(23.6934 23.8348) rotate(120.964) scale(10.5859 10.933)">
<stop stop-color="#FFDA56"/>
<stop offset="1" stop-color="#A97D29"/>
</radialGradient>
<radialGradient id="paint16_radial" cx="0" cy="0" r="1" gradientUnits="userSpaceOnUse" gradientTransform="translate(23.6923 23.8353) rotate(112.891) scale(11.085 11.4484)">
<stop stop-color="#FFF0BC"/>
<stop offset="1" stop-color="#EFC221"/>
</radialGradient>
<radialGradient id="paint17_radial" cx="0" cy="0" r="1" gradientUnits="userSpaceOnUse" gradientTransform="translate(19.8345 17.1829) rotate(125.707) scale(8.94303 9.23625)">
<stop stop-color="#FFB340"/>
<stop offset="1" stop-color="#EFC221"/>
</radialGradient>
<radialGradient id="paint18_radial" cx="0" cy="0" r="1" gradientUnits="userSpaceOnUse" gradientTransform="translate(23.6939 24.2889) rotate(112.891) scale(11.085 11.4484)">
<stop stop-color="white"/>
<stop offset="1" stop-color="#EFC221"/>
</radialGradient>
<radialGradient id="paint19_radial" cx="0" cy="0" r="1" gradientUnits="userSpaceOnUse" gradientTransform="translate(23.6939 23.8358) rotate(112.891) scale(11.085 11.4484)">
<stop stop-color="#FFF8DD"/>
<stop offset="1" stop-color="#EFC221"/>
</radialGradient>
<linearGradient id="paint20_linear" x1="29.3095" y1="8.40548" x2="36.6463" y2="35.7867" gradientUnits="userSpaceOnUse">
<stop stop-color="#FFED90"/>
<stop offset="1" stop-color="#FFB800"/>
</linearGradient>
<linearGradient id="paint21_linear" x1="29.8159" y1="9.51634" x2="33.3817" y2="40.588" gradientUnits="userSpaceOnUse">
<stop stop-color="#7A4F0F"/>
<stop offset="1" stop-color="#BE810A"/>
</linearGradient>
<linearGradient id="paint22_linear" x1="29.815" y1="9.51799" x2="33.3809" y2="40.5897" gradientUnits="userSpaceOnUse">
<stop stop-color="#7A4F0F"/>
<stop offset="1" stop-color="#BE810A"/>
</linearGradient>
<linearGradient id="paint23_linear" x1="30.6565" y1="16.7016" x2="33.8426" y2="39.4582" gradientUnits="userSpaceOnUse">
<stop stop-color="#B38033"/>
<stop offset="1" stop-color="#F2A91B"/>
</linearGradient>
<linearGradient id="paint24_linear" x1="32.8752" y1="2.82411" x2="42.893" y2="18.7564" gradientUnits="userSpaceOnUse">
<stop stop-color="#E00000"/>
<stop offset="1" stop-color="#FF6969"/>
</linearGradient>
<clipPath id="clip0">
<rect width="46" height="46" fill="white"/>
</clipPath>
</defs>
</svg>
