<svg width="46" height="46" viewBox="0 0 46 46" fill="none" xmlns="http://www.w3.org/2000/svg">
<g clip-path="url(#clip0_think)">
<path fill-rule="evenodd" clip-rule="evenodd" d="M30.7797 13.2736C30.2764 13.413 29.8219 13.7345 29.5243 14.2129C28.8947 15.2246 29.2045 16.5552 30.2163 17.1847C30.5664 17.4026 30.9548 17.5079 31.339 17.5106C31.2775 18.5196 31.7572 19.5294 32.6757 20.1009C33.5451 20.6419 34.5931 20.6567 35.4473 20.2319C35.598 20.4589 35.7986 20.658 36.045 20.8114C36.9648 21.3837 38.1744 21.102 38.7467 20.1822C38.7845 20.1214 38.8187 20.0593 38.8491 19.9962C38.9287 20.0584 39.0125 20.117 39.1002 20.1715C40.4338 21.0014 42.1877 20.593 43.0175 19.2593C43.474 18.5257 43.5558 17.6649 43.315 16.9008C43.8087 16.8069 44.2631 16.5148 44.5495 16.0545C45.0932 15.1808 44.8257 14.0317 43.9519 13.488C43.8849 13.4463 43.8164 13.4094 43.7466 13.3772C44.0406 12.2101 43.5669 10.938 42.4903 10.2681C42.1292 10.0434 41.7374 9.90949 41.3413 9.86013C41.3517 9.12878 40.9898 8.41019 40.3236 7.99561C39.4639 7.46071 38.3742 7.60396 37.6798 8.2797C37.553 8.14826 37.4082 8.03019 37.2461 7.92933C36.1884 7.27117 34.7974 7.59508 34.1392 8.6528C34.1192 8.68492 34.1001 8.71734 34.082 8.75005C32.7874 8.11633 31.1976 8.55347 30.4197 9.80362C29.7184 10.9306 29.9014 12.3576 30.7797 13.2736Z" fill="#EAF3FA"/>
<path fill-rule="evenodd" clip-rule="evenodd" d="M30.7797 13.2736C30.2764 13.413 29.8219 13.7345 29.5243 14.2129C28.8947 15.2246 29.2045 16.5552 30.2163 17.1847C30.5664 17.4026 30.9548 17.5079 31.339 17.5106C31.2775 18.5196 31.7572 19.5294 32.6757 20.1009C33.5451 20.6419 34.5931 20.6567 35.4473 20.2319C35.598 20.4589 35.7986 20.658 36.045 20.8114C36.9648 21.3837 38.1744 21.102 38.7467 20.1822C38.7845 20.1214 38.8187 20.0593 38.8491 19.9962C38.9287 20.0584 39.0125 20.117 39.1002 20.1715C40.4338 21.0014 42.1877 20.593 43.0175 19.2593C43.474 18.5257 43.5558 17.6649 43.315 16.9008C43.8087 16.8069 44.2631 16.5148 44.5495 16.0545C45.0932 15.1808 44.8257 14.0317 43.9519 13.488C43.8849 13.4463 43.8164 13.4094 43.7466 13.3772C44.0406 12.2101 43.5669 10.938 42.4903 10.2681C42.1292 10.0434 41.7374 9.90949 41.3413 9.86013C41.3517 9.12878 40.9898 8.41019 40.3236 7.99561C39.4639 7.46071 38.3742 7.60396 37.6798 8.2797C37.553 8.14826 37.4082 8.03019 37.2461 7.92933C36.1884 7.27117 34.7974 7.59508 34.1392 8.6528C34.1192 8.68492 34.1001 8.71734 34.082 8.75005C32.7874 8.11633 31.1976 8.55347 30.4197 9.80362C29.7184 10.9306 29.9014 12.3576 30.7797 13.2736Z" fill="url(#paint0_radial_think)"/>
<mask id="mask0" mask-type="alpha" maskUnits="userSpaceOnUse" x="26" y="4" width="22" height="21">
<path fill-rule="evenodd" clip-rule="evenodd" d="M30.7797 13.2736C30.2764 13.413 29.8219 13.7345 29.5243 14.2129C28.8947 15.2246 29.2045 16.5552 30.2163 17.1847C30.5664 17.4026 30.9548 17.5079 31.339 17.5106C31.2775 18.5196 31.7572 19.5294 32.6757 20.1009C33.5451 20.6419 34.5931 20.6567 35.4473 20.2319C35.598 20.4589 35.7986 20.658 36.045 20.8114C36.9648 21.3837 38.1744 21.102 38.7467 20.1822C38.7845 20.1214 38.8187 20.0593 38.8491 19.9962C38.9287 20.0584 39.0125 20.117 39.1002 20.1715C40.4338 21.0014 42.1877 20.593 43.0175 19.2593C43.474 18.5257 43.5558 17.6649 43.315 16.9008C43.8087 16.8069 44.2631 16.5148 44.5495 16.0545C45.0932 15.1808 44.8257 14.0317 43.9519 13.488C43.8849 13.4463 43.8164 13.4094 43.7466 13.3772C44.0406 12.2101 43.5669 10.938 42.4903 10.2681C42.1292 10.0434 41.7374 9.90949 41.3413 9.86013C41.3517 9.12878 40.9898 8.41019 40.3236 7.99561C39.4639 7.46071 38.3742 7.60396 37.6798 8.2797C37.553 8.14826 37.4082 8.03019 37.2461 7.92933C36.1884 7.27117 34.7974 7.59508 34.1392 8.6528C34.1192 8.68492 34.1001 8.71734 34.082 8.75005C32.7874 8.11633 31.1976 8.55347 30.4197 9.80362C29.7184 10.9306 29.9014 12.3576 30.7797 13.2736Z" fill="#EAF3FA"/>
<path fill-rule="evenodd" clip-rule="evenodd" d="M30.7797 13.2736C30.2764 13.413 29.8219 13.7345 29.5243 14.2129C28.8947 15.2246 29.2045 16.5552 30.2163 17.1847C30.5664 17.4026 30.9548 17.5079 31.339 17.5106C31.2775 18.5196 31.7572 19.5294 32.6757 20.1009C33.5451 20.6419 34.5931 20.6567 35.4473 20.2319C35.598 20.4589 35.7986 20.658 36.045 20.8114C36.9648 21.3837 38.1744 21.102 38.7467 20.1822C38.7845 20.1214 38.8187 20.0593 38.8491 19.9962C38.9287 20.0584 39.0125 20.117 39.1002 20.1715C40.4338 21.0014 42.1877 20.593 43.0175 19.2593C43.474 18.5257 43.5558 17.6649 43.315 16.9008C43.8087 16.8069 44.2631 16.5148 44.5495 16.0545C45.0932 15.1808 44.8257 14.0317 43.9519 13.488C43.8849 13.4463 43.8164 13.4094 43.7466 13.3772C44.0406 12.2101 43.5669 10.938 42.4903 10.2681C42.1292 10.0434 41.7374 9.90949 41.3413 9.86013C41.3517 9.12878 40.9898 8.41019 40.3236 7.99561C39.4639 7.46071 38.3742 7.60396 37.6798 8.2797C37.553 8.14826 37.4082 8.03019 37.2461 7.92933C36.1884 7.27117 34.7974 7.59508 34.1392 8.6528C34.1192 8.68492 34.1001 8.71734 34.082 8.75005C32.7874 8.11633 31.1976 8.55347 30.4197 9.80362C29.7184 10.9306 29.9014 12.3576 30.7797 13.2736Z" fill="url(#paint1_radial_think)"/>
</mask>
<g mask="url(#mask0)">
<g filter="url(#filter0_f_think)">
<path fill-rule="evenodd" clip-rule="evenodd" d="M33.3045 13.9672L31.138 14.5673C30.9465 14.6203 30.7769 14.7407 30.664 14.9221C30.4261 15.3044 30.5432 15.8071 30.9255 16.045C31.0596 16.1284 31.2046 16.1673 31.3484 16.1683L32.7651 16.1782L32.6789 17.5923C32.6462 18.1289 32.9014 18.6604 33.3849 18.9612C33.8426 19.2461 34.3949 19.2561 34.8496 19.0299L35.9105 18.5023L36.5658 19.4896C36.6122 19.5595 36.6744 19.6219 36.7542 19.6716C37.0445 19.8522 37.4263 19.7634 37.6069 19.4731C37.6194 19.453 37.6304 19.4329 37.6401 19.4129L38.3635 17.9135L39.6754 18.9383C39.7176 18.9712 39.7622 19.0024 39.8094 19.0318C40.5136 19.47 41.4396 19.2543 41.8778 18.5501C42.1187 18.163 42.1628 17.7107 42.0347 17.3042L41.581 15.864L43.0643 15.582C43.205 15.5553 43.3297 15.474 43.4098 15.3453C43.5618 15.101 43.487 14.7797 43.2427 14.6277C43.223 14.6155 43.2034 14.6049 43.1838 14.5959L42.1728 14.1291L42.4449 13.0493C42.6005 12.4317 42.3479 11.7605 41.7811 11.4078C41.5884 11.2879 41.3824 11.218 41.1753 11.1922L39.9821 11.0435L39.9991 9.84112C40.0031 9.56069 39.8648 9.29116 39.6144 9.13535C39.2911 8.93419 38.8784 8.98633 38.616 9.24174L37.6495 10.1823L36.7134 9.21143C36.6629 9.15901 36.6043 9.11098 36.5369 9.06907C36.1086 8.80259 35.5454 8.93373 35.279 9.36199C35.2706 9.3754 35.2627 9.38885 35.2552 9.40232L34.6361 10.5159L33.4918 9.95571C32.8095 9.62173 31.9697 9.85342 31.5594 10.5128C31.1901 11.1063 31.2847 11.8607 31.7486 12.3446L33.3045 13.9672ZM29.6528 14.0283C29.9452 13.6512 30.3441 13.3943 30.7797 13.2736C30.4542 12.9342 30.2243 12.5246 30.0994 12.0862C29.8872 11.3413 29.9783 10.513 30.4197 9.80362C31.1976 8.55347 32.7874 8.11633 34.082 8.75005C34.1001 8.71734 34.1192 8.68492 34.1392 8.6528C34.7974 7.59508 36.1884 7.27117 37.2461 7.92933C37.402 8.02637 37.542 8.13934 37.6653 8.26483C37.6701 8.26977 37.675 8.27473 37.6798 8.2797C37.6845 8.27509 37.6893 8.27049 37.6941 8.26592C38.3891 7.60204 39.4698 7.46437 40.3236 7.99561C40.9898 8.41019 41.3517 9.12878 41.3413 9.86013C41.7374 9.90949 42.1292 10.0434 42.4903 10.2681C43.5669 10.938 44.0406 12.2101 43.7466 13.3772C43.8164 13.4094 43.8849 13.4463 43.9519 13.488C44.8257 14.0317 45.0932 15.1808 44.5495 16.0545C44.3466 16.3806 44.0594 16.6223 43.7336 16.7689C43.5995 16.8292 43.459 16.8734 43.315 16.9008C43.3823 17.1142 43.4244 17.3352 43.4402 17.5589C43.4809 18.1359 43.3465 18.7306 43.0175 19.2593C42.3544 20.3251 41.101 20.8 39.9437 20.5242C39.6528 20.4549 39.368 20.3382 39.1002 20.1715C39.0125 20.117 38.9287 20.0584 38.8491 19.9962C38.8187 20.0593 38.7845 20.1214 38.7467 20.1822C38.632 20.3666 38.4916 20.5253 38.3332 20.6567C37.7011 21.1806 36.7804 21.269 36.045 20.8114C35.7986 20.658 35.598 20.4589 35.4473 20.2319C34.5931 20.6567 33.5451 20.6419 32.6757 20.1009C31.8502 19.5873 31.3791 18.7196 31.3369 17.8166C31.3321 17.7149 31.3328 17.6128 31.339 17.5106C31.2619 17.5101 31.1846 17.5054 31.1075 17.4965C30.8004 17.4611 30.4961 17.3588 30.2163 17.1847C29.2045 16.5552 28.8947 15.2246 29.5243 14.2129C29.5643 14.1485 29.6073 14.0869 29.6528 14.0283Z" fill="#B7E2FF"/>
</g>
</g>
<g opacity="0.5">
<mask id="mask1" mask-type="alpha" maskUnits="userSpaceOnUse" x="26" y="4" width="22" height="21">
<path fill-rule="evenodd" clip-rule="evenodd" d="M30.7797 13.2736C30.2764 13.413 29.8219 13.7345 29.5243 14.2129C28.8947 15.2246 29.2045 16.5552 30.2163 17.1847C30.5664 17.4026 30.9548 17.5079 31.339 17.5106C31.2775 18.5196 31.7572 19.5294 32.6757 20.1009C33.5451 20.6419 34.5931 20.6567 35.4473 20.2319C35.598 20.4589 35.7986 20.658 36.045 20.8114C36.9648 21.3837 38.1744 21.102 38.7467 20.1822C38.7845 20.1214 38.8187 20.0593 38.8491 19.9962C38.9287 20.0584 39.0125 20.117 39.1002 20.1715C40.4338 21.0014 42.1877 20.593 43.0175 19.2593C43.474 18.5257 43.5558 17.6649 43.315 16.9008C43.8087 16.8069 44.2631 16.5148 44.5495 16.0545C45.0932 15.1808 44.8257 14.0317 43.9519 13.488C43.8849 13.4463 43.8164 13.4094 43.7466 13.3772C44.0406 12.2101 43.5669 10.938 42.4903 10.2681C42.1292 10.0434 41.7374 9.90949 41.3413 9.86013C41.3517 9.12878 40.9898 8.41019 40.3236 7.99561C39.4639 7.46071 38.3742 7.60396 37.6798 8.2797C37.553 8.14826 37.4082 8.03019 37.2461 7.92933C36.1884 7.27117 34.7974 7.59508 34.1392 8.6528C34.1192 8.68492 34.1001 8.71734 34.082 8.75005C32.7874 8.11633 31.1976 8.55347 30.4197 9.80362C29.7184 10.9306 29.9014 12.3576 30.7797 13.2736Z" fill="#EAF3FA"/>
<path fill-rule="evenodd" clip-rule="evenodd" d="M30.7797 13.2736C30.2764 13.413 29.8219 13.7345 29.5243 14.2129C28.8947 15.2246 29.2045 16.5552 30.2163 17.1847C30.5664 17.4026 30.9548 17.5079 31.339 17.5106C31.2775 18.5196 31.7572 19.5294 32.6757 20.1009C33.5451 20.6419 34.5931 20.6567 35.4473 20.2319C35.598 20.4589 35.7986 20.658 36.045 20.8114C36.9648 21.3837 38.1744 21.102 38.7467 20.1822C38.7845 20.1214 38.8187 20.0593 38.8491 19.9962C38.9287 20.0584 39.0125 20.117 39.1002 20.1715C40.4338 21.0014 42.1877 20.593 43.0175 19.2593C43.474 18.5257 43.5558 17.6649 43.315 16.9008C43.8087 16.8069 44.2631 16.5148 44.5495 16.0545C45.0932 15.1808 44.8257 14.0317 43.9519 13.488C43.8849 13.4463 43.8164 13.4094 43.7466 13.3772C44.0406 12.2101 43.5669 10.938 42.4903 10.2681C42.1292 10.0434 41.7374 9.90949 41.3413 9.86013C41.3517 9.12878 40.9898 8.41019 40.3236 7.99561C39.4639 7.46071 38.3742 7.60396 37.6798 8.2797C37.553 8.14826 37.4082 8.03019 37.2461 7.92933C36.1884 7.27117 34.7974 7.59508 34.1392 8.6528C34.1192 8.68492 34.1001 8.71734 34.082 8.75005C32.7874 8.11633 31.1976 8.55347 30.4197 9.80362C29.7184 10.9306 29.9014 12.3576 30.7797 13.2736Z" fill="url(#paint2_radial_think)"/>
</mask>
<g mask="url(#mask1)">
<g filter="url(#filter1_f_think)">
<path fill-rule="evenodd" clip-rule="evenodd" d="M31.6213 13.5048L30.8991 13.7048C30.4997 13.8155 30.1403 14.0699 29.9042 14.4493C29.4052 15.2512 29.6508 16.3058 30.4527 16.8048C30.7308 16.9779 31.038 17.0611 31.3421 17.0632L31.8144 17.0665L31.7856 17.5378C31.7338 18.3894 32.1386 19.2397 32.9121 19.721C33.6443 20.1766 34.527 20.1898 35.248 19.8312L35.6017 19.6554L35.8201 19.9845C35.936 20.1591 36.0905 20.3126 36.2814 20.4314C36.9914 20.8732 37.925 20.6558 38.3668 19.9459C38.3962 19.8986 38.4226 19.8505 38.4461 19.8018L38.6872 19.3019L39.1246 19.6435C39.1917 19.696 39.2624 19.7455 39.3366 19.7916C40.4604 20.4909 41.9383 20.1468 42.6376 19.0229C43.0223 18.4048 43.0915 17.6802 42.8883 17.0352L42.737 16.5552L43.2315 16.4612C43.6075 16.3897 43.952 16.1679 44.1696 15.8181C44.5828 15.1542 44.3795 14.281 43.7155 13.8679C43.6643 13.836 43.612 13.8079 43.559 13.7834L43.222 13.6278L43.3127 13.2679C43.5605 12.284 43.1606 11.2122 42.2539 10.648C41.949 10.4582 41.619 10.3457 41.286 10.3042L40.8883 10.2546L40.8939 9.85379C40.9022 9.27275 40.6148 8.70385 40.0872 8.37552C39.4063 7.95187 38.5423 8.06475 37.9918 8.60038L37.6697 8.9139L37.3577 8.59028C37.2563 8.48518 37.1402 8.39045 37.0097 8.30924C36.1618 7.78164 35.0467 8.0413 34.5191 8.8892C34.503 8.91508 34.4877 8.94118 34.473 8.96747L34.2667 9.33867L33.8852 9.15193C32.7948 8.61813 31.455 8.98678 30.7996 10.04C30.209 10.9892 30.3625 12.192 31.1027 12.9639L31.6213 13.5048ZM30.3365 13.4509C30.4777 13.3754 30.6264 13.3161 30.7797 13.2736C30.6677 13.1569 30.5671 13.0318 30.4781 12.9001C29.8691 11.9987 29.8078 10.7869 30.4197 9.80362C31.1976 8.55347 32.7874 8.11633 34.082 8.75005C34.1001 8.71734 34.1192 8.68492 34.1392 8.6528C34.7974 7.59508 36.1884 7.27117 37.2461 7.92933C37.402 8.02637 37.542 8.13934 37.6653 8.26483C37.6701 8.26977 37.675 8.27473 37.6798 8.2797C37.6845 8.27509 37.6893 8.27049 37.6941 8.26592C38.3891 7.60204 39.4698 7.46437 40.3236 7.99561C40.9898 8.41019 41.3517 9.12878 41.3413 9.86013C41.7374 9.90949 42.1292 10.0434 42.4903 10.2681C43.5669 10.938 44.0406 12.2101 43.7466 13.3772C43.8164 13.4094 43.8849 13.4463 43.9519 13.488C44.8257 14.0317 45.0932 15.1808 44.5495 16.0545C44.3466 16.3806 44.0594 16.6223 43.7336 16.7689C43.5995 16.8292 43.459 16.8734 43.315 16.9008C43.36 17.0433 43.3937 17.1892 43.4158 17.337C43.5123 17.9816 43.3889 18.6626 43.0175 19.2593C42.2134 20.5518 40.5414 20.9753 39.225 20.245C39.183 20.2217 39.1414 20.1972 39.1002 20.1715C39.0125 20.117 38.9287 20.0584 38.8491 19.9962C38.8187 20.0593 38.7845 20.1214 38.7467 20.1822C38.7042 20.2504 38.6583 20.3151 38.6092 20.3762C37.9966 21.1391 36.8966 21.3412 36.045 20.8114C35.7986 20.658 35.598 20.4589 35.4473 20.2319C34.5931 20.6567 33.5451 20.6419 32.6757 20.1009C31.8502 19.5873 31.3791 18.7196 31.3369 17.8167C31.3321 17.7149 31.3328 17.6128 31.339 17.5106C31.2619 17.5101 31.1846 17.5054 31.1075 17.4965C30.8004 17.4611 30.4961 17.3588 30.2163 17.1847C29.2045 16.5552 28.8947 15.2246 29.5243 14.2129C29.7313 13.8802 30.0141 13.6234 30.3365 13.4509Z" fill="#065285"/>
</g>
</g>
</g>
<g filter="url(#filter2_f_think)">
<path d="M36.404 18.3783C35.8031 19.344 34.533 19.6398 33.5673 19.0388C32.6015 18.4379 32.3058 17.1679 32.9067 16.2021C33.5076 15.2364 34.7777 14.9406 35.7434 15.5416C36.7092 16.1425 37.0049 17.4125 36.404 18.3783Z" fill="url(#paint3_radial_think)" fill-opacity="0.89"/>
</g>
<g filter="url(#filter3_f_think)">
<path d="M42.5805 19.2187C41.9796 20.1845 40.7095 20.4802 39.7438 19.8793C38.778 19.2784 38.4823 18.0083 39.0832 17.0426C39.6841 16.0768 40.9542 15.7811 41.9199 16.382C42.8857 16.9829 43.1814 18.253 42.5805 19.2187Z" fill="url(#paint4_radial_think)" fill-opacity="0.89"/>
</g>
<g filter="url(#filter4_f_think)">
<path d="M42.3179 12.5869C41.9459 13.1847 41.1597 13.3678 40.5619 12.9958C39.964 12.6238 39.7809 11.8376 40.153 11.2397C40.525 10.6419 41.3112 10.4588 41.909 10.8308C42.5069 11.2028 42.6899 11.989 42.3179 12.5869Z" fill="url(#paint5_radial_think)" fill-opacity="0.89"/>
</g>
<g filter="url(#filter5_f_think)">
<path d="M34.5202 12.1243C33.9765 12.998 32.8274 13.2656 31.9537 12.7219C31.0799 12.1782 30.8123 11.0291 31.356 10.1554C31.8997 9.2816 33.0488 9.01403 33.9226 9.55772C34.7963 10.1014 35.0639 11.2505 34.5202 12.1243Z" fill="url(#paint6_radial_think)" fill-opacity="0.89"/>
</g>
<g filter="url(#filter6_f_think)">
<path d="M39.3716 15.8365C38.7135 16.8942 37.3225 17.2181 36.2647 16.56C35.207 15.9018 34.8831 14.5108 35.5413 13.4531C36.1994 12.3954 37.5904 12.0714 38.6482 12.7296C39.7059 13.3878 40.0298 14.7788 39.3716 15.8365Z" fill="url(#paint7_radial_think)" fill-opacity="0.89"/>
</g>
<circle cx="20.5799" cy="23.1761" r="15.8642" fill="#FEA929"/>
<circle cx="20.5799" cy="23.1761" r="15.8642" fill="url(#paint8_linear_think)"/>
<circle cx="20.5799" cy="23.1761" r="15.8642" fill="url(#paint9_radial_think)" fill-opacity="0.7"/>
<g filter="url(#filter7_d_think)">
<path d="M9.80382 28.6806C9.80382 28.6806 19.1147 24.4035 19.1147 26.1639C19.1147 27.9242 11.0527 30.2793 11.0527 30.2793C11.0527 30.2793 12.5719 31.5936 12.0686 34.865C11.7806 36.7373 3.04741 40.9317 3.04516 32.8272C3.04494 32.826 3.04473 32.8247 3.04451 32.8235C2.43495 29.2929 8.29394 30.1905 7.79065 24.4035C9.30053 23.3957 9.80382 27.1068 9.80382 28.6806Z" fill="#FEA929"/>
<path d="M9.80382 28.6806C9.80382 28.6806 19.1147 24.4035 19.1147 26.1639C19.1147 27.9242 11.0527 30.2793 11.0527 30.2793C11.0527 30.2793 12.5719 31.5936 12.0686 34.865C11.7806 36.7373 3.04741 40.9317 3.04516 32.8272C3.04494 32.826 3.04473 32.8247 3.04451 32.8235C2.43495 29.2929 8.29394 30.1905 7.79065 24.4035C9.30053 23.3957 9.80382 27.1068 9.80382 28.6806Z" fill="url(#paint10_linear_think)"/>
<path d="M9.80382 28.6806C9.80382 28.6806 19.1147 24.4035 19.1147 26.1639C19.1147 27.9242 11.0527 30.2793 11.0527 30.2793C11.0527 30.2793 12.5719 31.5936 12.0686 34.865C11.7806 36.7373 3.04741 40.9317 3.04516 32.8272C3.04494 32.826 3.04473 32.8247 3.04451 32.8235C2.43495 29.2929 8.29394 30.1905 7.79065 24.4035C9.30053 23.3957 9.80382 27.1068 9.80382 28.6806Z" fill="url(#paint11_linear_think)"/>
</g>
<g opacity="0.5" filter="url(#filter8_f_think)">
<path d="M14.5838 27.9231C14.5838 26.9813 9.27473 29.548 9.27473 29.548C9.27473 28.706 8.96055 26.7205 8.018 27.2597C8.33218 30.3558 4.67507 29.8755 5.05559 31.7645C5.50453 35.203 10.5087 33.2424 10.6886 32.2405C11.0027 30.4903 10.6886 30.221 10.6886 30.221C10.6886 30.221 14.5838 28.865 14.5838 27.9231Z" fill="#FFE6AD"/>
</g>
<circle cx="14.1846" cy="18.8998" r="2.42629" fill="#292740"/>
<circle cx="14.1846" cy="18.8998" r="2.42629" fill="url(#paint12_linear_think)"/>
<circle cx="26.8776" cy="18.8998" r="2.42629" fill="#292740"/>
<circle cx="26.8776" cy="18.8998" r="2.42629" fill="url(#paint13_linear_think)"/>
<circle cx="25.8625" cy="17.8872" r="0.705076" fill="white" fill-opacity="0.3"/>
<circle cx="13.1695" cy="17.8872" r="0.705076" fill="white" fill-opacity="0.3"/>
<g opacity="0.7">
<path d="M21.9668 22.8798C20.3218 20.7075 17.1302 21.7883 16.4554 22.8783C15.4719 24.4669 18.3961 24.2383 21.2097 24.14C21.8918 24.1161 22.3788 23.4239 21.9668 22.8798Z" fill="#421608"/>
<path d="M21.9668 22.8798C20.3218 20.7075 17.1302 21.7883 16.4554 22.8783C15.4719 24.4669 18.3961 24.2383 21.2097 24.14C21.8918 24.1161 22.3788 23.4239 21.9668 22.8798Z" fill="url(#paint14_linear)"/>
</g>
<path d="M17.9705 14.3125C17.9705 12.844 11.6122 11.2827 10.2139 15.827C9.78362 17.2253 10.8707 14.499 14.0595 14.0792C16.9932 13.693 17.9705 16.4236 17.9705 14.3125Z" fill="#DE8600"/>
<path d="M17.9705 14.3125C17.9705 12.844 11.6122 11.2827 10.2139 15.827C9.78362 17.2253 10.8707 14.499 14.0595 14.0792C16.9932 13.693 17.9705 16.4236 17.9705 14.3125Z" fill="url(#paint15_linear_think)"/>
<path d="M31.2813 14.6468C29.4648 13.7592 24.6101 13.4949 24.0949 14.3645C23.2567 15.7794 33.4606 15.7121 31.2813 14.6468Z" fill="#DE8600"/>
<path d="M31.2813 14.6468C29.4648 13.7592 24.6101 13.4949 24.0949 14.3645C23.2567 15.7794 33.4606 15.7121 31.2813 14.6468Z" fill="url(#paint16_linear_think)"/>
<path d="M35.9887 4.50762C36.7285 3.87681 37.9567 3.66429 38.68 4.22387C39.5074 4.86402 39.5294 5.92781 38.8968 6.70923C37.8573 7.99457 36.0834 8.18244 35.9439 10.3363L35.9112 10.7551C35.8947 10.9658 36.0531 11.151 36.2638 11.1674L38.6572 11.3542C38.8679 11.3707 39.0531 11.2123 39.0695 11.0016L39.1022 10.5828C39.2258 9.66393 40.3858 9.14967 41.3422 8.1536C42.9677 6.46138 43.1222 4.005 41.2227 2.42977C39.5261 1.02192 36.5671 0.955778 34.6477 2.1545C34.4779 2.26088 34.4185 2.4769 34.5097 2.65483L35.3983 4.39109C35.4537 4.49909 35.5466 4.56882 35.6651 4.59203C35.7842 4.61594 35.8968 4.58685 35.9887 4.50762V4.50762Z" fill="#1A65F5"/>
<path fill-rule="evenodd" clip-rule="evenodd" d="M37.3625 12.512C38.3356 12.588 39.0628 13.4383 38.9868 14.4114C38.9109 15.3845 38.0606 16.1117 37.0875 16.0357C36.1151 15.9598 35.3879 15.1095 35.4638 14.1364C35.5398 13.1633 36.3901 12.4361 37.3625 12.512Z" fill="#1A65F5"/>
</g>
<defs>
<filter id="filter0_f_think" x="13.4304" y="-8.94228" width="46.8878" height="46.4473" filterUnits="userSpaceOnUse" color-interpolation-filters="sRGB">
<feFlood flood-opacity="0" result="BackgroundImageFix"/>
<feBlend mode="normal" in="SourceGraphic" in2="BackgroundImageFix" result="shape"/>
<feGaussianBlur stdDeviation="6.5" result="effect1_foregroundBlur"/>
</filter>
<filter id="filter1_f_think" x="20.4304" y="-1.94228" width="32.8878" height="32.4473" filterUnits="userSpaceOnUse" color-interpolation-filters="sRGB">
<feFlood flood-opacity="0" result="BackgroundImageFix"/>
<feBlend mode="normal" in="SourceGraphic" in2="BackgroundImageFix" result="shape"/>
<feGaussianBlur stdDeviation="3" result="effect1_foregroundBlur"/>
</filter>
<filter id="filter2_f_think" x="25.8186" y="8.45348" width="17.6734" height="17.6734" filterUnits="userSpaceOnUse" color-interpolation-filters="sRGB">
<feFlood flood-opacity="0" result="BackgroundImageFix"/>
<feBlend mode="normal" in="SourceGraphic" in2="BackgroundImageFix" result="shape"/>
<feGaussianBlur stdDeviation="3" result="effect1_foregroundBlur"/>
</filter>
<filter id="filter3_f_think" x="31.9951" y="9.29393" width="17.6734" height="17.6734" filterUnits="userSpaceOnUse" color-interpolation-filters="sRGB">
<feFlood flood-opacity="0" result="BackgroundImageFix"/>
<feBlend mode="normal" in="SourceGraphic" in2="BackgroundImageFix" result="shape"/>
<feGaussianBlur stdDeviation="3" result="effect1_foregroundBlur"/>
</filter>
<filter id="filter4_f_think" x="33.4794" y="4.15724" width="15.5121" height="15.5121" filterUnits="userSpaceOnUse" color-interpolation-filters="sRGB">
<feFlood flood-opacity="0" result="BackgroundImageFix"/>
<feBlend mode="normal" in="SourceGraphic" in2="BackgroundImageFix" result="shape"/>
<feGaussianBlur stdDeviation="3" result="effect1_foregroundBlur"/>
</filter>
<filter id="filter5_f_think" x="24.3716" y="2.57327" width="17.1331" height="17.1331" filterUnits="userSpaceOnUse" color-interpolation-filters="sRGB">
<feFlood flood-opacity="0" result="BackgroundImageFix"/>
<feBlend mode="normal" in="SourceGraphic" in2="BackgroundImageFix" result="shape"/>
<feGaussianBlur stdDeviation="3" result="effect1_foregroundBlur"/>
</filter>
<filter id="filter6_f_think" x="28.3496" y="5.5379" width="18.2138" height="18.2138" filterUnits="userSpaceOnUse" color-interpolation-filters="sRGB">
<feFlood flood-opacity="0" result="BackgroundImageFix"/>
<feBlend mode="normal" in="SourceGraphic" in2="BackgroundImageFix" result="shape"/>
<feGaussianBlur stdDeviation="3" result="effect1_foregroundBlur"/>
</filter>
<filter id="filter7_d_think" x="1.99998" y="24.2326" width="18.1147" height="15.3964" filterUnits="userSpaceOnUse" color-interpolation-filters="sRGB">
<feFlood flood-opacity="0" result="BackgroundImageFix"/>
<feColorMatrix in="SourceAlpha" type="matrix" values="0 0 0 0 0 0 0 0 0 0 0 0 0 0 0 0 0 0 127 0"/>
<feOffset dy="1"/>
<feGaussianBlur stdDeviation="0.5"/>
<feColorMatrix type="matrix" values="0 0 0 0 0 0 0 0 0 0 0 0 0 0 0 0 0 0 0.25 0"/>
<feBlend mode="normal" in2="BackgroundImageFix" result="effect1_dropShadow"/>
<feBlend mode="normal" in="SourceGraphic" in2="effect1_dropShadow" result="shape"/>
</filter>
<filter id="filter8_f_think" x="0.0278015" y="22.1682" width="19.556" height="16.5428" filterUnits="userSpaceOnUse" color-interpolation-filters="sRGB">
<feFlood flood-opacity="0" result="BackgroundImageFix"/>
<feBlend mode="normal" in="SourceGraphic" in2="BackgroundImageFix" result="shape"/>
<feGaussianBlur stdDeviation="2.5" result="effect1_foregroundBlur"/>
</filter>
<radialGradient id="paint0_radial_think" cx="0" cy="0" r="1" gradientUnits="userSpaceOnUse" gradientTransform="translate(37.1555 14.5719) rotate(125.072) scale(7.07209 7.75034)">
<stop stop-color="white"/>
<stop offset="1" stop-color="white" stop-opacity="0"/>
</radialGradient>
<radialGradient id="paint1_radial_think" cx="0" cy="0" r="1" gradientUnits="userSpaceOnUse" gradientTransform="translate(37.1555 14.5719) rotate(125.072) scale(7.07209 7.75034)">
<stop stop-color="white"/>
<stop offset="1" stop-color="white" stop-opacity="0"/>
</radialGradient>
<radialGradient id="paint2_radial_think" cx="0" cy="0" r="1" gradientUnits="userSpaceOnUse" gradientTransform="translate(37.1555 14.5719) rotate(125.072) scale(7.07209 7.75034)">
<stop stop-color="white"/>
<stop offset="1" stop-color="white" stop-opacity="0"/>
</radialGradient>
<radialGradient id="paint3_radial_think" cx="0" cy="0" r="1" gradientUnits="userSpaceOnUse" gradientTransform="translate(34.7279 17.3685) rotate(146.734) scale(4.50796 4.51028)">
<stop stop-color="white"/>
<stop offset="1" stop-color="white" stop-opacity="0"/>
</radialGradient>
<radialGradient id="paint4_radial_think" cx="0" cy="0" r="1" gradientUnits="userSpaceOnUse" gradientTransform="translate(40.9044 18.209) rotate(146.734) scale(4.50796 4.51028)">
<stop stop-color="white"/>
<stop offset="1" stop-color="white" stop-opacity="0"/>
</radialGradient>
<radialGradient id="paint5_radial_think" cx="0" cy="0" r="1" gradientUnits="userSpaceOnUse" gradientTransform="translate(41.2803 11.9618) rotate(146.734) scale(2.79064 2.79208)">
<stop stop-color="white"/>
<stop offset="1" stop-color="white" stop-opacity="0"/>
</radialGradient>
<radialGradient id="paint6_radial_think" cx="0" cy="0" r="1" gradientUnits="userSpaceOnUse" gradientTransform="translate(33.0037 11.2107) rotate(146.734) scale(4.07863 4.08073)">
<stop stop-color="white"/>
<stop offset="1" stop-color="white" stop-opacity="0"/>
</radialGradient>
<radialGradient id="paint7_radial_think" cx="0" cy="0" r="1" gradientUnits="userSpaceOnUse" gradientTransform="translate(37.5359 14.7306) rotate(146.734) scale(4.93729 4.93983)">
<stop stop-color="white"/>
<stop offset="1" stop-color="white" stop-opacity="0"/>
</radialGradient>
<linearGradient id="paint8_linear_think" x1="16.0037" y1="10.3627" x2="22.4354" y2="40.0271" gradientUnits="userSpaceOnUse">
<stop stop-color="#FFE071"/>
<stop offset="1" stop-color="#FFB800"/>
</linearGradient>
<radialGradient id="paint9_radial" cx="0" cy="0" r="1" gradientUnits="userSpaceOnUse" gradientTransform="translate(20.5799 23.1761) rotate(90) scale(15.8642)">
<stop stop-color="#FFEDAB"/>
<stop offset="1" stop-color="white" stop-opacity="0"/>
</radialGradient>
<linearGradient id="paint10_linear_think" x1="8.79744" y1="36.9849" x2="8.29415" y2="26.4158" gradientUnits="userSpaceOnUse">
<stop stop-color="#FEC229"/>
<stop offset="1" stop-color="#DC6A00"/>
</linearGradient>
<linearGradient id="paint11_linear_think" x1="16.5985" y1="10.8138" x2="7.53922" y2="37.2366" gradientUnits="userSpaceOnUse">
<stop stop-color="#E0A31C" stop-opacity="0"/>
<stop offset="1" stop-color="#FFC241"/>
</linearGradient>
<linearGradient id="paint12_linear_think" x1="13.7802" y1="17.6867" x2="14.9934" y2="23.7524" gradientUnits="userSpaceOnUse">
<stop stop-color="#292740"/>
<stop offset="1" stop-color="white" stop-opacity="0"/>
</linearGradient>
<linearGradient id="paint13_linear_think" x1="26.4732" y1="17.6867" x2="27.6864" y2="23.7524" gradientUnits="userSpaceOnUse">
<stop stop-color="#292740"/>
<stop offset="1" stop-color="white" stop-opacity="0"/>
</linearGradient>
<linearGradient id="paint14_linear_think" x1="19.1862" y1="22.2227" x2="19.5449" y2="26.3517" gradientUnits="userSpaceOnUse">
<stop stop-color="#421608"/>
<stop offset="1" stop-color="white" stop-opacity="0"/>
</linearGradient>
<linearGradient id="paint15_linear_think" x1="14.9177" y1="12.231" x2="9.55752" y2="15.1056" gradientUnits="userSpaceOnUse">
<stop stop-color="#DC8808"/>
<stop offset="1" stop-color="#FFCE5B"/>
</linearGradient>
<linearGradient id="paint16_linear_think" x1="26.9369" y1="12.4258" x2="31.9276" y2="15.1006" gradientUnits="userSpaceOnUse">
<stop stop-color="#D68101"/>
<stop offset="1" stop-color="#FFCE5B"/>
</linearGradient>
<clipPath id="clip0_think">
<rect width="46" height="46" fill="white"/>
</clipPath>
</defs>
</svg>
