<svg width="600" viewBox="0 0 600 360" fill="none" xmlns="http://www.w3.org/2000/svg">
<rect width="675" height="360" fill="#A8B5BD" fill-opacity="1"/>
<g clip-path="url(#clip0)">
<path d="M302.158 142.719H298.544V285.393H302.158V142.719Z" fill="#3F3D56"/>
<path d="M335.511 160.901C335.741 210.791 300.621 251.397 300.621 251.397C300.621 251.397 265.129 211.116 264.899 161.226C264.669 111.337 299.788 70.7305 299.788 70.7305C299.788 70.7305 335.281 111.011 335.511 160.901Z" fill="#3F3D56"/>
<path d="M229.896 209.848H228.037V283.229H229.896V209.848Z" fill="#3F3D56"/>
<path d="M247.051 219.201C247.169 244.861 229.106 265.745 229.106 265.745C229.106 265.745 210.851 245.028 210.733 219.368C210.615 193.709 228.678 172.824 228.678 172.824C228.678 172.824 246.932 193.542 247.051 219.201Z" fill="#3F3D56"/>
<path d="M266.534 293.001C294.347 293.001 316.895 289.547 316.895 285.286C316.895 281.025 294.347 277.57 266.534 277.57C238.72 277.57 216.173 281.025 216.173 285.286C216.173 289.547 238.72 293.001 266.534 293.001Z" fill="#3F3D56"/>
<path d="M270.687 105.471C266.42 98.2653 257.979 97.9295 257.979 97.9295C257.979 97.9295 249.754 96.8782 244.477 107.852C239.559 118.08 232.771 127.956 243.384 130.351L245.301 124.387L246.489 130.795C248 130.903 249.516 130.929 251.03 130.872C262.395 130.505 273.22 130.98 272.871 126.903C272.408 121.484 274.793 112.404 270.687 105.471Z" fill="#2F2E41"/>
<path d="M255.322 119.041C255.322 119.041 260.836 126.756 257.528 133.002C254.219 139.247 265.247 145.86 265.247 145.86L273.335 128.225C273.335 128.225 263.777 121.98 266.35 116.102L255.322 119.041Z" fill="#FBBEBE"/>
<path d="M258.998 122.347C264.276 122.347 268.555 118.07 268.555 112.794C268.555 107.519 264.276 103.242 258.998 103.242C253.719 103.242 249.44 107.519 249.44 112.794C249.44 118.07 253.719 122.347 258.998 122.347Z" fill="#FBBEBE"/>
<path d="M225.922 123.837L233.909 113.538C233.909 113.538 236.721 102.742 240.795 103.29C244.868 103.837 239.186 116.236 239.186 116.236L231.25 127.637L225.922 123.837Z" fill="#FBBEBE"/>
<path d="M266.35 260.852L268.923 274.446L274.437 275.915L272.966 259.75L266.35 260.852Z" fill="#FBBEBE"/>
<path d="M321.857 246.158L331.783 259.751L335.826 261.588L339.135 256.077L329.209 243.219L321.857 246.158Z" fill="#FBBEBE"/>
<path d="M264.145 139.981L258.013 131.913C258.013 131.913 246.132 134.103 245.029 135.205C243.927 136.307 247.97 156.513 247.97 156.513C247.97 156.513 248.705 162.024 252.014 164.963L255.322 167.168L282.524 161.657L283.547 149.56C283.92 145.154 283.367 140.719 281.925 136.539C280.483 132.358 278.183 128.525 275.172 125.285L270.439 125.932L264.145 139.981Z" fill="#575A89"/>
<path d="M246.5 135.941L244.662 135.206L236.207 134.471C236.207 134.471 233.266 133.736 234.001 132.267C234.737 130.797 235.472 130.43 234.001 130.062C232.531 129.695 232.163 129.328 232.531 128.225C232.899 127.123 235.104 124.919 235.104 124.919L228.855 119.775C228.855 119.775 228.517 120.014 227.97 120.457C224.867 122.968 215.05 132.026 222.238 141.084C230.693 151.738 240.618 157.984 248.705 155.78L246.5 135.941Z" fill="#575A89"/>
<path d="M254.587 165.33V170.474C254.587 170.474 251.279 176.719 252.381 182.598C253.484 188.476 253.852 191.415 253.852 191.415C253.972 196.414 254.839 201.368 256.425 206.111C258.998 213.458 250.543 261.587 261.204 262.321C271.864 263.056 277.746 263.791 281.054 260.117C284.362 256.443 275.54 193.252 275.54 193.252C275.54 193.252 305.683 256.076 311.932 253.504C318.181 250.932 333.988 245.054 332.15 241.747C330.312 238.441 283.995 164.963 283.995 164.963L282.524 161.656L254.587 165.33Z" fill="#2F2E41"/>
<path d="M272.231 271.876C272.231 271.876 266.35 271.508 266.35 273.345C266.35 275.182 263.409 281.428 263.409 281.428C263.409 281.428 261.203 288.776 267.085 288.041C272.967 287.306 276.643 280.693 276.643 280.693L275.172 273.713L272.231 271.876Z" fill="#2F2E41"/>
<path d="M333.62 259.016C333.62 259.016 328.473 255.71 328.841 257.914C329.209 260.118 329.576 265.997 332.149 266.364C334.723 266.731 342.442 268.936 342.81 269.671C343.177 270.405 352 273.345 352 268.568C352 263.792 346.486 260.118 346.486 260.118L340.237 255.342C340.237 255.342 336.193 254.975 335.458 257.547C334.723 260.118 333.62 259.016 333.62 259.016Z" fill="#2F2E41"/>
<path d="M259.012 104.067C262.383 104.067 265.115 101.336 265.115 97.9673C265.115 94.5983 262.383 91.8672 259.012 91.8672C255.641 91.8672 252.908 94.5983 252.908 97.9673C252.908 101.336 255.641 104.067 259.012 104.067Z" fill="#2F2E41"/>
<path d="M252.266 96.3618C252.267 94.8552 252.825 93.402 253.833 92.282C254.841 91.1621 256.228 90.4547 257.727 90.296C257.514 90.2734 257.3 90.262 257.085 90.2617C255.466 90.2617 253.914 90.9044 252.769 92.0484C251.624 93.1924 250.981 94.7439 250.981 96.3618C250.981 97.9796 251.624 99.5312 252.769 100.675C253.914 101.819 255.466 102.462 257.085 102.462C257.3 102.462 257.514 102.45 257.727 102.428C256.228 102.269 254.841 101.561 253.833 100.442C252.825 99.3216 252.267 97.8684 252.266 96.3618Z" fill="#2F2E41"/>
<path d="M268.8 104.776L260.461 100.41L248.944 102.196L246.562 112.714L252.493 112.486L254.15 108.622V112.422L256.887 112.317L258.475 106.165L259.468 112.714L269.198 112.516L268.8 104.776Z" fill="#2F2E41"/>
<path d="M268.301 166.183L255.44 166.53C255.44 166.53 244.466 168.665 245.082 164.238C245.697 159.811 256.403 161.359 256.403 161.359L268.122 159.572L268.301 166.183Z" fill="#FBBEBE"/>
<path d="M278.478 124.664C279.125 124.566 279.785 124.702 280.34 125.047C280.895 125.393 281.308 125.925 281.506 126.548C284.023 134.477 291.78 161.014 284.073 164.655C274.996 168.943 268.372 168.754 268.372 168.754L264.826 160.029L268.054 157.002L271.5 134.857L273.151 125.47L278.478 124.664Z" fill="#575A89"/>
<path opacity="0.4" d="M276.091 139.43L274.621 154.125L261.755 159.636L276.091 156.33V139.43Z" fill="black"/>
<path d="M206.706 90.916C210.85 92.0135 214.435 94.6165 216.76 98.2159L217.963 100.077L218.023 100.154L239.118 106.323C239.504 106.436 239.831 106.696 240.028 107.048C240.225 107.399 240.275 107.814 240.169 108.202L238.532 114.204C238.478 114.399 238.387 114.582 238.262 114.742C238.138 114.902 237.983 115.036 237.807 115.136C237.631 115.236 237.436 115.3 237.235 115.325C237.034 115.349 236.83 115.334 236.634 115.279L215.534 109.385L215.534 109.385L213.415 110.186C209.513 111.661 205.233 111.806 201.239 110.6L206.706 90.916Z" fill="#3F3D56"/>
<path d="M228.921 108.319C229.121 107.637 228.245 106.78 226.964 106.406C225.684 106.031 224.484 106.281 224.285 106.964C224.085 107.646 224.961 108.503 226.241 108.877C227.521 109.252 228.721 109.002 228.921 108.319Z" fill="#575A89"/>
<path d="M227.844 108.95C228.333 108.95 228.729 108.554 228.729 108.065C228.729 107.576 228.333 107.18 227.844 107.18C227.355 107.18 226.958 107.576 226.958 108.065C226.958 108.554 227.355 108.95 227.844 108.95Z" fill="#3F3D56"/>
<path d="M208.469 102.283C210.228 96.861 209.665 91.8213 207.212 91.0263C204.759 90.2312 201.344 93.982 199.585 99.4037C197.826 104.825 198.389 109.865 200.842 110.66C203.295 111.455 206.71 107.704 208.469 102.283Z" fill="#6C63FF"/>
<path opacity="0.4" d="M207.813 102.092C209.508 96.8674 209.047 91.9986 206.817 90.9395C206.951 90.9562 207.084 90.9855 207.212 91.0269C209.665 91.8219 210.228 96.8616 208.469 102.283C206.71 107.705 203.295 111.456 200.842 110.661C200.753 110.632 200.666 110.597 200.582 110.557C202.995 110.864 206.147 107.228 207.813 102.092Z" fill="black"/>
<path d="M206.983 90.9349L159.108 53.8191C150.642 47.2084 142.518 40.1717 134.767 32.7361C121.12 19.735 102.594 9.34038 81.0239 3.80619C28.6188 -9.63947 -12.8968 14.2013 -31.7792 49.2077C-60.6336 102.701 -82.7467 189.507 45.1935 143.3C73.1739 133.195 101.497 132.121 122.972 126.798L200.734 110.774L206.983 90.9349Z" fill="#6C63FF" fill-opacity="0.17"/>
<path d="M63.2519 28.4775C64.673 28.4775 65.8251 27.326 65.8251 25.9057C65.8251 24.4854 64.673 23.334 63.2519 23.334C61.8308 23.334 60.6787 24.4854 60.6787 25.9057C60.6787 27.326 61.8308 28.4775 63.2519 28.4775Z" fill="#F2F2F2"/>
<path d="M113.238 31.851H112.568V31.1816H112.437V31.851H111.768V31.9818H112.437V32.6512H112.568V31.9818H113.238V31.851Z" fill="#F2F2F2"/>
<path d="M180.509 87.6948H179.839V87.0254H179.708V87.6948H179.038V87.8256H179.708V88.495H179.839V87.8256H180.509V87.6948Z" fill="#F2F2F2"/>
<path d="M175.73 104.962H175.06V104.293H174.93V104.962H174.26V105.093H174.93V105.763H175.06V105.093H175.73V104.962Z" fill="#F2F2F2"/>
<path d="M113.973 107.9H113.304V107.23H113.173V107.9H112.503V108.031H113.173V108.7H113.304V108.031H113.973V107.9Z" fill="#F2F2F2"/>
<path d="M43.7624 16.0522H43.0926V15.3828H42.9618V16.0522H42.292V16.183H42.9618V16.8524H43.0926V16.183H43.7624V16.0522Z" fill="#F2F2F2"/>
<path d="M44.02 68.9492L43.1855 69.0778C43.4465 70.7458 43.6524 72.4505 43.8031 74.1368L44.6449 74.0633C44.4942 72.3549 44.2847 70.6356 44.02 68.9492Z" fill="#E6E6E6"/>
<path d="M41.7365 58.9043L40.9277 59.1504C41.4166 60.767 41.8541 62.4239 42.2254 64.0735L43.0525 63.8861C42.6738 62.2182 42.229 60.5429 41.7365 58.9043Z" fill="#E6E6E6"/>
<path d="M38.0945 49.2715L37.3262 49.6242C38.032 51.1636 38.6936 52.7433 39.2928 54.3231L40.0832 54.0255C39.4766 52.4274 38.8113 50.8255 38.0945 49.2715Z" fill="#E6E6E6"/>
<path d="M33.1682 40.2422L32.4551 40.6941C33.363 42.1195 34.2343 43.5965 35.043 45.0771L35.7855 44.6729C34.9695 43.174 34.0872 41.6824 33.1682 40.2422Z" fill="#E6E6E6"/>
<path d="M27.0437 31.9648L26.4004 32.5123C27.4958 33.7981 28.5619 35.1428 29.5691 36.5021L30.2455 35.9988C29.2309 34.6248 28.1538 33.2654 27.0437 31.9648Z" fill="#E6E6E6"/>
<path d="M19.8466 24.5938L19.2842 25.222C20.5487 26.3499 21.7875 27.5366 22.9675 28.7453L23.574 28.1538C22.3794 26.9304 21.1258 25.7327 19.8466 24.5938Z" fill="#E6E6E6"/>
<path d="M11.7154 18.2676L11.2412 18.9656C12.6454 19.9098 14.0349 20.9165 15.3693 21.9562L15.8913 21.2912C14.5386 20.2405 13.1343 19.2228 11.7154 18.2676Z" fill="#E6E6E6"/>
<path d="M4.31543 13.873V14.8283C5.19399 15.2875 6.0652 15.7688 6.91803 16.2611L7.34077 15.53C6.34824 14.9568 5.33979 14.4045 4.31543 13.873Z" fill="#E6E6E6"/>
<path d="M44.0762 79.3474L44.9212 79.332C44.9367 80.1848 44.9378 81.0421 44.9246 81.8803L44.0797 81.8671C44.0926 81.0384 44.0914 80.1906 44.0762 79.3474Z" fill="#E6E6E6"/>
<path d="M164.224 104.953L163.39 105.082C163.651 106.75 163.856 108.454 164.007 110.141L164.849 110.067C164.698 108.359 164.489 106.639 164.224 104.953Z" fill="#E6E6E6"/>
<path d="M161.942 94.9102L161.133 95.1563C161.622 96.7728 162.059 98.4298 162.43 100.079L163.258 99.892C162.879 98.224 162.434 96.5487 161.942 94.9102Z" fill="#E6E6E6"/>
<path d="M158.299 85.2754L157.53 85.6281C158.236 87.1674 158.898 88.7472 159.497 90.327L160.287 90.0294C159.681 88.4313 159.015 86.8294 158.299 85.2754Z" fill="#E6E6E6"/>
<path d="M153.372 76.2461L152.659 76.698C153.567 78.1234 154.438 79.6004 155.247 81.081L155.99 80.6768C155.174 79.1779 154.291 77.6863 153.372 76.2461Z" fill="#E6E6E6"/>
<path d="M147.248 67.9688L146.604 68.5162C147.7 69.802 148.766 71.1467 149.773 72.506L150.45 72.0027C149.435 70.6287 148.358 69.2693 147.248 67.9688Z" fill="#E6E6E6"/>
<path d="M140.051 60.5996L139.488 61.2278C140.753 62.3557 141.992 63.5424 143.172 64.7511L143.778 64.1596C142.583 62.9362 141.33 61.7385 140.051 60.5996Z" fill="#E6E6E6"/>
<path d="M131.92 54.2715L131.445 54.9695C132.85 55.9137 134.239 56.9204 135.573 57.9601L136.095 57.2951C134.743 56.2444 133.338 55.2267 131.92 54.2715Z" fill="#E6E6E6"/>
<path d="M124.52 49.8789V50.8341C125.398 51.2934 126.269 51.7746 127.122 52.2669L127.545 51.5358C126.552 50.9627 125.544 50.4104 124.52 49.8789Z" fill="#E6E6E6"/>
<path d="M164.28 115.353L165.125 115.338C165.141 116.191 165.142 117.048 165.129 117.886L164.284 117.873C164.297 117.044 164.296 116.197 164.28 115.353Z" fill="#E6E6E6"/>
<path d="M0.879917 73.4395H0.256842V72.8164H0.135164V73.4395H-0.488281V73.5607H0.135164V74.1838H0.256842V73.5607H0.879917V73.4395Z" fill="#F2F2F2"/>
<path d="M31.2527 102.201C25.2266 93.2486 22.61 82.4341 23.8776 71.7187C25.1451 61.0033 30.2129 51.0967 38.1618 43.7954C46.1108 36.4941 56.4145 32.2815 67.2046 31.9216C77.9946 31.5617 88.5565 35.0783 96.9748 41.8337C105.393 48.5891 111.111 58.1359 113.09 68.743C115.07 79.35 113.18 90.3149 107.765 99.6492C102.349 108.983 93.7662 116.069 83.5719 119.621C73.3776 123.173 62.2472 122.956 52.1991 119.01C51.5477 121.334 50.3298 123.46 48.6546 125.198C46.9794 126.936 44.8991 128.232 42.6 128.969C40.3008 129.707 37.8545 129.863 35.4802 129.424C33.1058 128.985 30.8775 127.964 28.9946 126.453C27.1118 124.942 25.6332 122.988 24.6912 120.766C23.7492 118.544 23.3733 116.123 23.597 113.72C23.8207 111.317 24.6372 109.007 25.9732 106.997C27.3093 104.987 29.1232 103.339 31.2527 102.201Z" fill="#3F3D56"/>
<path d="M68.4575 51.2285C78.8068 51.2285 85.9272 56.9657 85.9272 65.213C85.9272 70.6744 83.2777 74.4532 78.1721 77.4597C73.37 80.2456 71.7417 82.2867 71.7417 85.8173C71.7417 86.1035 71.6853 86.3868 71.5757 86.6512C71.4662 86.9156 71.3056 87.1558 71.1031 87.3581C70.9006 87.5605 70.6603 87.721 70.3958 87.8305C70.1312 87.94 69.8477 87.9963 69.5614 87.9963H64.2706C63.7055 87.9963 63.1625 87.7771 62.756 87.3848C62.3496 86.9924 62.1114 86.4577 62.0917 85.8933L62.0823 85.6242C61.6131 79.9422 63.6002 76.4116 68.5955 73.4878C73.2596 70.702 75.219 68.9367 75.219 65.5164C75.219 62.0961 71.9073 59.5861 67.7951 59.5861C64.6696 59.5861 62.1961 61.1066 61.0616 63.5891C60.6629 64.4294 60.0316 65.138 59.2426 65.6311C58.4536 66.1242 57.5398 66.3811 56.6092 66.3715C53.0244 66.3715 50.6563 62.5614 52.3328 59.3945C54.9848 54.3849 60.5803 51.2285 68.4575 51.2285ZM61.1991 98.5054C61.1991 95.3334 63.8486 92.8233 67.1052 92.8233C70.3893 92.8233 73.0388 95.3058 73.0388 98.5054C73.0388 101.705 70.3893 104.187 67.1051 104.187C63.821 104.187 61.1991 101.705 61.1991 98.5054Z" fill="#B5BFE2"/>
</g>
<defs>
<clipPath id="clip0">
<rect width="406" height="293" fill="white" transform="translate(-54)"/>
</clipPath>
</defs>
</svg>


