<svg width="18" height="18" viewBox="0 0 18 18" fill="none" xmlns="http://www.w3.org/2000/svg">
<path fill-rule="evenodd" clip-rule="evenodd" d="M12.5002 3.59995V3.79995H12.7002H16.3002C16.4858 3.79995 16.6639 3.8737 16.7952 4.00498C16.9264 4.13625 17.0002 4.3143 17.0002 4.49995C17.0002 4.6856 16.9264 4.86365 16.7952 4.99493C16.6639 5.1262 16.4858 5.19995 16.3002 5.19995H15.4002H15.2002V5.39995V15.3C15.2002 15.963 14.9368 16.5989 14.468 17.0677C13.9991 17.5366 13.3632 17.7999 12.7002 17.7999H5.5002C4.83715 17.7999 4.20127 17.5366 3.73243 17.0677C3.26359 16.5989 3.0002 15.963 3.0002 15.3V5.39995V5.19995H2.8002H1.9002C1.71454 5.19995 1.5365 5.1262 1.40522 4.99493C1.27395 4.86365 1.2002 4.6856 1.2002 4.49995C1.2002 4.3143 1.27395 4.13625 1.40522 4.00498C1.5365 3.8737 1.71454 3.79995 1.9002 3.79995H5.5002H5.7002V3.59995V2.69995C5.7002 2.03691 5.96359 1.40103 6.43243 0.932184C6.90127 0.463343 7.53715 0.199951 8.2002 0.199951H10.0002C10.6632 0.199951 11.2991 0.463343 11.768 0.932184C12.2368 1.40103 12.5002 2.03691 12.5002 2.69995V3.59995ZM10.9002 3.79995H11.1002V3.59995V2.69995C11.1002 2.40821 10.9843 2.12842 10.778 1.92213C10.5717 1.71584 10.2919 1.59995 10.0002 1.59995H8.2002C7.90846 1.59995 7.62867 1.71584 7.42238 1.92213C7.21609 2.12842 7.1002 2.40821 7.1002 2.69995V3.59995V3.79995H7.3002H10.9002ZM4.6002 5.19995H4.4002V5.39995V15.3C4.4002 15.5917 4.51609 15.8715 4.72238 16.0778C4.92867 16.2841 5.20846 16.4 5.5002 16.4H12.7002C12.9919 16.4 13.2717 16.2841 13.478 16.0778C13.6843 15.8715 13.8002 15.5917 13.8002 15.3V5.39995V5.19995H13.6002H4.6002ZM7.79517 13.9949C7.6639 14.1262 7.48585 14.2 7.3002 14.2C7.11454 14.2 6.9365 14.1262 6.80522 13.9949C6.67395 13.8637 6.6002 13.6856 6.6002 13.5V8.09995C6.6002 7.9143 6.67395 7.73625 6.80522 7.60498C6.9365 7.4737 7.11454 7.39995 7.3002 7.39995C7.48585 7.39995 7.66389 7.4737 7.79517 7.60498C7.92645 7.73625 8.0002 7.9143 8.0002 8.09995V13.5C8.0002 13.6856 7.92645 13.8637 7.79517 13.9949ZM11.3952 13.9949C11.2639 14.1262 11.0858 14.2 10.9002 14.2C10.7145 14.2 10.5365 14.1262 10.4052 13.9949C10.2739 13.8637 10.2002 13.6856 10.2002 13.5V8.09995C10.2002 7.9143 10.2739 7.73625 10.4052 7.60498C10.5365 7.4737 10.7145 7.39995 10.9002 7.39995C11.0858 7.39995 11.2639 7.4737 11.3952 7.60498C11.5264 7.73625 11.6002 7.9143 11.6002 8.09995V13.5C11.6002 13.6856 11.5264 13.8637 11.3952 13.9949Z" fill="#A4A3B4"/>
</svg>
