<svg width="11" height="18" viewBox="0 0 11 18" fill="none" xmlns="http://www.w3.org/2000/svg">
<path fill-rule="evenodd" clip-rule="evenodd" d="M2 4C3.10457 4 4 3.10457 4 2C4 0.895431 3.10457 0 2 0C0.895431 0 0 0.895431 0 2C0 3.10457 0.895431 4 2 4ZM9 4C10.1046 4 11 3.10457 11 2C11 0.895431 10.1046 0 9 0C7.89543 0 7 0.895431 7 2C7 3.10457 7.89543 4 9 4ZM9 11C10.1046 11 11 10.1046 11 9C11 7.89543 10.1046 7 9 7C7.89543 7 7 7.89543 7 9C7 10.1046 7.89543 11 9 11ZM11 16C11 17.1046 10.1046 18 9 18C7.89543 18 7 17.1046 7 16C7 14.8954 7.89543 14 9 14C10.1046 14 11 14.8954 11 16ZM4 9C4 10.1046 3.10457 11 2 11C0.895431 11 0 10.1046 0 9C0 7.89543 0.895431 7 2 7C3.10457 7 4 7.89543 4 9ZM2 18C3.10457 18 4 17.1046 4 16C4 14.8954 3.10457 14 2 14C0.895431 14 0 14.8954 0 16C0 17.1046 0.895431 18 2 18Z" fill="#C4C4C4"/>
</svg>
